<mxfile host="app.diagrams.net" agent="Mozilla/5.0 (Windows NT 10.0; Win64; x64) AppleWebKit/537.36 (KHTML, like Gecko) Chrome/131.0.0.0 Safari/537.36" version="25.0.3">
  <diagram name="Page-1" id="VYM4WYpC3PmG2gdT_jfX">
    <mxGraphModel dx="1360" dy="814" grid="0" gridSize="10" guides="1" tooltips="1" connect="1" arrows="1" fold="1" page="1" pageScale="1" pageWidth="827" pageHeight="1169" math="0" shadow="0">
      <root>
        <mxCell id="0" />
        <mxCell id="1" parent="0" />
        <mxCell id="OqSYDqfYlpPWh9uUhqye-3" value="" style="shape=image;verticalLabelPosition=bottom;labelBackgroundColor=default;verticalAlign=top;aspect=fixed;imageAspect=0;image=data:image/png,iVBORw0KGgoAAAANSUhEUgAAALsAAACzCAYAAADRw20HAAAAAXNSR0IArs4c6QAAAARnQU1BAACxjwv8YQUAAAAJcEhZcwAADsMAAA7DAcdvqGQAAEXkSURBVHhe7V0HYFRFEx5aeq+QhBaq9C69VwEVqYoFQURBilIEEQGRjlJ/LBQ7KsWCSpcmRXrvJXRCSwjpdf/55t0jl5CElEu4JPfherl7bd/ut7Ozs7OzBRSDLLAgH6Cg4dMCC/I8LGS3IN/AQnYL8g0sZLcg38BCdgvyDSzWmHQjaTHppaYVnyEVKED4h58KFtTliOHEhyhg+LQgp2Ehe7phILSQFYRWFBoaSkFB9/kzhKKjo+U3a2srsrNzJFdXF3JycqQiRQobrkngBFg60ycFC9nTgYSEBHrwIJSOHj1GW7Zsof/++49OnTpDwUHBQnKdyAkqgQoWKMgCvhAVLFSQXJxdqEyZ0lS7Tm1q3rw51a//NHl6esi5BdALcLIg52AhewqIj09gaf2Abt++Q7t27qQ///qL9uzZQ3du3+USK8jSugiflcDyuiCrK4WZ2PwXBDaXpOJ/CfEFKC4uDn/xD/z/BEXxCbFkb29P1atXow7t21PLVi2pVKlS3AO4UeHCheS5FmQvLGQ3QmxsHF2/doOOHDlC6zesp7+Y5CB8QUjhggXIxsZGpLWHhwe5sJriwOR1cXVmtcWebG1tRU+PiormFEHBwcHcGzyQHiE4+D7du3ePwsLCSDHx8c/ZyZmaNm1Kzz33HFXjBlC2bFm+h7UhJxZkB/I92fXXDwwMpPXrN9Datetox44dFHQvSI7ZO9hT+fLlqXLlSvJZunRpVk3KUNGi3qyTOwnJk6sj+A71BmS/c+cuXb50mS4GXKSzZ8+x+nNKEsgPoJeoU6cOdejQgdq3b0sVK1Y09BwWmBr5nuzx8fG0bt06+vbbb2nv3r0sye+Kju7l6UVt2rShZs2aUoWKFUTlcHdPVDlSKjVj0icWq/5ZQMh/5cpVOnfuHKtFe2nN32vo3Plzch16iRo1alDXbl2pW7fu3Hu4Ga6zwFTIt2THa9+6dYsmTZpMGzdsoOs3rgvxoaL06NGDunZ9gfz9y/B3dyY4LCpJyZwZ6EWNT6g3V69coa3bttLChQsp4OIlVpUKixWn/tNP05SpU6hChfL8TLnEAlMAZM+P4AGnYp1Zubi4KTs7B+Xg4KS6PP+C2rdvnwoPD1dMfMUSXlJ2Ac+IjIxUN64Hqg/GfKg8Pb2Vra29srd3VEWL+qjly1cazrTAFMhXZAdxIyIi1cqVv6oqVaoqWxtb5WDvpEqV8leLFi1hkkdkK7lTA57JOr7avHmratWytXJ2clVWVtbK2dlFTfp4krofHKLi4uKyvfHldeQrsj8ICVVffPGlKlOmnLKxsVNeXkVV167d1YkTp1jKPnkSgchXr15VI0eOUiVLlFLWVrbKw91TDX5nqGI1hwmP3sZwsgUZRr4he0RElJr92Tzl61tCiO5furz6cOwEdfv2HVEnzAXISmREtFq8aKmqUaOWsrF2VO5M+AED3lbnz1+U4xZkDvmC7FGRMWra1BmqWFFfZWfroCo9VUUtXPilunfvvkhKs1MNODsg9cYN/6gWLVoz4e2Um5uHeqPfm+rmzdsWVSaTyPNkh9SeO2eBKlbMTwZ/5cqWV0sWL1H374eYhDS4R0rJFIDasn37v6pVK43wri7uatDAoSomJsZkz8hPKDSBYTDM5Dnw+8ks6NSp0ynwZiA5ONjTxIkT6KXeL5G9vV2mTIlMMrmOP8StAJNPAZcu0eXLl+jatWt0965mp7e2tqZChR51A8jIMwsWLEC+vj4yiXXy1Em6fOUanTx5UkyhjRo1spglMwqN83kTx44dU82aNeOBnp1ysHdRkyZNfmjVyCjQQ0RFRckAcunSpapbtx4y0IXJEve3Qipip4oUthUpDJWpVas2atq06er48eNizoyNjTXcLWPAs1ev/ktVrlSN762ZSf/+a61Ff88g8izZWcKqIUOGMDEclL2di+rzWj8VHR2bYTUDKgMIvmrVKtWjRw/l4eHBA1wbsc0jwSbuwuqFp0dRSa6uHvybC6tMjpwcuBHYyjlodF988YU6deqUCgsLM9w9fUB+Y2Pj1Kez5qii3n5C+Hr16vO9zhrOsCA9yHMzqHgdOHStWrWSRo8eI7OkjRs1pR+X/UBeXp7p6vr1IgkJeUAbN26k5cuX05Ytm4mls6gh8IkpUaIkFS1alDzcPcjD0/2hjwx8YoKC4BNzh27fvsWqzVX+vM13SxCflypVqlKvXr2oY8eOVLJkiRRVnZSALIWHR9Dw94bTN99+R3Z2NvTaq6/R+AkfyayrBekAyJ6XACkYEHBJtW7dVtna2Kvy5SqqdevWGWzU6ZPqOOfIkSNq8OChMuEEU6UdD24rVaqk3n77bbV48WK1c+dOkfgRERGiZhgn9AbcyNSBAwfUsmXL1OjRoxXr2NzLsLTnPGGmFGrQ+vUbMqRW4bQLFy6oOrXriapUvnxFtXLlKrmHBY9H3iM767Fz5sxTTk4uypF12/HjJ6iQkBDD0bQB0oGs69evV23bthXdGBacEiVKqREjRqpNmzYJiZOTWycrPpP/jeN4/v79+zlfc1Tt2nWl8djbOarq1auLamN8j8cB50Ffd3Z2FfXo5d6vqCuXrxqOWpAW8hzZg4NDlL9/WZGgTZs2E5Klh0g4BxJyxYoVqkaNGkwkeyFl/acbqo0b/1FBQcEywMR5yVN6gPPgqnDo4BHVt+8bysXZTXR/VoXUhAkTxF0gvQgPi5R7IH/FivnyeOI36bksSBt5iuzg3dSp08Uq4uLiqqZMmZIuCwiICOm6efMWlrY1paFYW9uqZ599VqRyRkj9OOA5sMxMmjRJ1Bk8x8PDS82YPjPd6gjyAoc1NBSoM6++8roKvHnbcNSC1JCnyB4UdF/cAWAJadyoiejM6SEpzjl69Khq2bKVEB2ekO+8M+Th5I2eTAkQe948THb5ioSGGfP7779Pt4SHtWnw4MFiEfLyLKb++2+vNCQLUkeeWerOZKQ//viD7t65R9ZWVlS/fn2qUrUKFSjweGMTltCxnk+7d+0iWztbeuXlV2jixIkP/dizA7DCDHz7beLBKzk7O8uE1BdffEmsdlF8fByEkOHMlOHq6iqLSzw8PMVq9Ptvv0sZWJA68gzZY2JiadWqVbL42dnFmdq3b09FCmN5W1q2Ru7Z+N+KFSs5raBCfH6b1q1pyNDB5OICcx6uNU6mBSIQDBz4Nr311gBZ33rk8FH6/vsf6O7dO481kWK9a6VKlahWrZpy7u9//E5hYeGGoxakhDxD9nNY33nylBiky5Txpzp1axuOpM2agIsXacaMmRQXG0fly5Wn/m/2p1KlSmo9AoSrnrIBICmW+fXv35/atW1LsXFxtPqPP2nXrj2yaupxKF68ONWpU5tsbW3oUsAl2r/vwGN7hPyMPEP2HTt30IPQBxK7pVWrVuTo6Gg4kjqUKkDz5v2Pbt64SXb2dtT52c7UsGGDdE/0mApFvb2p3xv9qASTFyrVksVLKSICQZcMJ6QCTFJVr16dvLy95L1/Wf6L/G4hfMrIE2TnwR7xYJSioxCwiEQVeRxAiEuXAujXVX9QgYKFZEH1K6/0FnUip1GIpXvdunXomY7tRO/eunUHHTt6jI88nrRVKleh4n7FpYFu2vSPFq/GQvYUkSfIHnTvPl27ep2iY6JF165StTKrCGlH3AIhfv31V4nlgiheGOz5+/s/vE4Sl87D9BgdOqtAHJoWLVqKG0JsbDR99dVizqT+0JTJizz6FfelEiX9qBDr8DeuX+cGfIV/N021ooyioqLEkxOf+m+5Fbme7Cj7y1cu070gLQ4LYrDAvTYtogORkZG0fft2Gdja2dlS927dDEeeDLhpUe3adahy5coipTds2MBqWajhaOrAuXABtrG1le9HDh+RT1MgJiaGfvvtN+rZsxf9+OMyVq0iDEdyJ3I92YEb129IkFFInXr16hl+TRsBPKC7evUqqw3xTJay3BtUfWwDyW4UK1aMKlepLKoUgigh5F56UK5cObkG+Yffu6neAo5vGzZspJ07d4lD3P379594GWUFeYLsd+7eeSh1qlapKp+Pw+nTZ+h+cKjoyC1aNCcrK9jUn2wXXahQQarCZHdysmdSKYkzmR7AKoPeDObIixcvmuwtIDzi4jSrEBaq5HY7fp4gOyJtRUWyTsm1jIpPj/S5dvUaN5Aokez1nq4rFYt/TxrlypUhRycHIe6x48cNv6YNd3d3scwgHiVcmk2GJ18cJkWeIHtEeAQPTmNkksbN3e3xgyg+jBiM+qCrQoUK3EA0vflJAz7y8I1HVgICAh7/LgzMwFoZ4kOG3A+R4KkZBZ4DyY0kDd/Q+DF4J4VoxYWkfIzP0T9zC3I92VHgUdFRFB8XJxId9vXHSfa4+HixwsBMV5hJgql3cwHyr5s/MQ4RU+JjRCzOx3uAeBh44/0yCjT8pUuXSoDVFi1aSXru2S60adNmOb592zYJC9iiRQs51qZNO5o3b77o9bkFuZzs0CENkkjkTiEqxBIobeDceIpP0OKno13AB0aXZE8OeHYCjx2sWSWx5vwU4AbMOY1DjPe0G6+VlRUVLgTJblyduF/63weD9dV/rBYL1d49+2jf3v106NARCgoK4jIqSCEhIXT4yFHav/+g+O/s4kErFrOj98ktyBNqTF4CIgpAXxeVChzn1vi4nkrOxznMba3Bpp/kOry8vKh1mzbUtm07atWqJbVs1YIaN25E3t5FRRB4eHpSgwb1qSVLdqQ2bVrL3ISPj4/hDuYPC9nNDhqxQV75lzbPBaI384nyif8yznWZjOvb93VasGA+zV8wj+bPn0czZ02n2rVr8v0SqFrVajR58mRa8L95Wlo4T5zYMDjOLciHZIcExGvjE0xKB5ueCFh9EfdkPaUNU7wFtsHx8/OTheBIfn6+ZGuH8UMC2dhak69vMSpRooQkP18/Hl84aBfmEuRjyW7ORNeRPqKbCtKbGCX9N+1Tywv0dz2Zf/klhUWNsSBViFr0ELmL2Ckhj5A9MxWRs1Iz83hyJLOzs6MG9euTfxl/ccNwcTEfE21mkA8lOxO8AEyW+DRnwnPV6GOLDBEe12TmukcBsr/etw9t2LBOBqMODo9fI2DOyIdktyAjwGwuBq0YvOZ2WMie52D63kofpOZ25D2yc71olaPNrmrJGHyM1QOxJsD0aK5ajJgeDepWhjKpn5/R6/I+8hTZQXLNOUlzVkpIgLMS00b+5hQPV1XNgSn3mM4ySlg+/2EjscAYeYTsqNgEiouPoc6dOlOTJk2padOWnFpwap4kNWvWjFq2bEW/rlrJpI81EMOC/IBcTnZI5gKa11+hwvxXATp85BAdOoR00PBpnPi3gwfp4MEDdO/eXbkDvAyLSDAk7V7mh9zQ++QO5Pr47Mj+9u3/0k/LfpZlYwlKc/UFQP5EsuATr4puHh/asRo1a9CoUSPEmerJQstbTEw8dezYiXbt/E9820+eOkbW1lbaKSkA74+1os2btaLDh49QhQplac++/8jaSg8Qpb+/BXliMwIEFAoKCpaNAHTDQdLX0is86W9oFO5ubmRjm/PhMx6FhezZjTyhs2OFvYeHu2y2BZfTR1MxQ9K++/r6yrnFihUlaxtrw10syOvIIwNUll8spY0T1JLUkvE5+DRPZNb0yFUqM69I5vNuZ8+cp7cGDKRffllBsTGxhl9zFnmG7HkXGSC6GWss33zzDX377be0ZPESOnvunOHXnIWF7HkG6AXM14waGRUp8Sjj4uIIER2eBCxkNxvog0mspsX/WaLLIDt94lrkPy6Rv/T0JME5YXIn5odVR8O7JNoOcjafFrKbFbRxBLaa5A8qWsxbBt9p2cv0sYenp6e0C28vT/6uNZecJFJyaNYwED5eSC+Zw6y1ZM0QtoOPQdrnFPLcPqi5HaiOgwcP0tatW6lu3brUtGlTw5HUgWv27NlL27dvo0aNmlD9+vW4kYBVeso5wAx8+PBhWrNmrRaXB/TiBrn5n20ysQdLWKtWLbhxevDZShoqQv49//zzD0OIZBcsZDczoDqQEM4P/uQgQ3oASSnX2NoToolImJAnYJHBZsfjx4+X3Uzgm6QjOjqW4uPi5X2srYtIQCsdZcv606xZs6hx48aGX7IH6StJMwVIgUqGNEHC4Cc2NlZLMfGJSf/tscf4+lSPJUtJzjN67iPHjH5Px7G4WH6fOEXWVrbymeT8NBLGfNbWdqwWGBzdcpjkOhBzEkGnwsPDKDIy/GGKj4e5EapLHEVFRyY5ps2TQNJnL3KtZEcXeefOPbp27Tod4W7z2PGjFBBwUVwGNFXVuB2zXqjXffJjxo5gaR1LDrFl6zC6P5DascfkSxua4qcCD3VZCT+XDmAWGHEusV189epVJGakh4cX2dsjbqRx5rIfiL15+fJlJnKk4ReieXMXyL5V1apXo/fee5eleRn5HWMORC+GepPdyHVkx9T4yROnaceOHfTX33/TwQMHJUwcvwkXnP4qqFzjCsbvqR0zJnRax5LDmITG9wdSO5b8/smOib+O4U9DtWRo0osvgeaA3QKfeqoitW3Xllo0b0F16taSlUbpVYlMAeTfmFrvvTuSPv/8c9nGZ/acz6hatcRoy3jHnJjcy1Vkv3r1mmz/uHz5Cjqw/4DohCgkV1c3Kl7Cl7y9vcSLEeHgkiL5KxoXbEaOGSOz90jjGMhuOJxesqMXiIuPE339zu27dPXaNQoMDGS1RtOPsVi6U6eO9OKLvahqVY1gOUGs5Bg2dISB7A1p7rykZM8p5AqyI4vHjh2juXPn0dq16+h+MKsqXF+IZd6xY0fZRMvHx1d0ReiMiGiLAVp+AIgLHR1OcCH3QynwViCdPXOWNm7aRLt376aIcNaJCxei+vWfpsGD36FnnnlGdOScJvywocOF7I0aNaY5c0H2KoYjOQiQ3ZzBFamY6IorSTk5Octu0ExsNXv2bHXmzBnFOrrs7Myn8ck4X/9krTcfJL2MjFNkZJS6evWqWrFipapXr77s2m1ra6+qVauhli37Kd3bxpsSC+YvVDzoVj2691KXL18x/JqzMHuy37p1S7Vv354ry5aJbquaNmmuTp48Jdue65VrgTGwpTsaf5yKjY1Rt2/fVb17v6JsrB2Y9HaqSpUqas2aNTm+9TurWbK9Phrhk6ozsyY7j+bVoEGDRZo7ODip55/vos6dO2c4akF6AGLFxyWokSNHKmdnVynL9u2eUSdOnMh3gsJsyY56WL36T2Vv56gc7J1Uq1Zt1P59+3NcIuUFoMwePAhVAwe+oxwdNVVwwoSJKjw83HBG/kDO2aIyiOCgYPrkk8kUnxBP3t7e9Ea/N6h6jRo5aj7LK0CZOTjY0zuD3qGnn35aBvzff/cDnT9/0XBG/oB5MkcRbdi4kU6ePEnYGKtJ08bU4Zn2ss+/BZkDrC9lyvqLCdLdzZWu37hBq1b9ysQ3nJAPYHZkh9TBNoSrV68Wkxr8Q3r27EHOzk6GMyzILKysisjuGVUNNu4Vy5dLWecXmKVkv33nNp09c078Pdxc3bLdQSg/AVvWV6pUSfZgunjxEl24cEH8ivIDzI7s6G4vXbpEoaFh8r16jeqsb+auHR7MGZh0w/bvTk5OItXhjvskZlSfBMxSsgcHB1NMbIz8XbpUKYNTFFI+UjCzEdgsTHMfLkDXr183/Jr3YZZkj4mJfbhxrS0qJZ9InpwCekpsh4liheuFRbI/QaDoUQEYrGourhaymxIwRWrFqqTXtJD9CUPfsAob9GqQJqD9aUHmwcVavHhJWRaHjQaw12l+gZmS3UBqJjykO5KF6KZDuXLlaMmSJbRt6zZq3ryZ4de8D7N08V2/biMNGTJEthif9ekMGjhwoOGIBcbAPAQSTId3796lixcvSplhpRBWcmFCDvo5VgGV4oG+r09xTVeXXbS1e0CFyS9qjPmRnXMTGRlFX371lVgKxo0bKwsy8kuFpAZUE4oA5kJYq7BA48CBA7R1y1bas3evkFzs5YrHOihE/Geo2gT+BPGxzrNmzZoszZtTwwYNqHgJP4mRiWP5ASYlO26lVUrWpYV+Lx1PmuxP8vmKB5GxsTF0hQl96OAhWrduPW1hkoPwKgEDeUjqQiLF7R2weMVKBqEYfGIZY2RkNIWHhcuKJli5UK6urs6yauiZjs9IyA6sWYUOn5eFisnIju4U3WdISIj8rRUaUuZvb6KsZRmQfFgFhTAV6Vz/bDKgDG7dukVr166lv/78i3bs3CkrkgoWKiS28rJly4oOXqpkSVm47OTkQHb2dqKuQNJDncEa3Vu3bov0v3DhIp05fZruBd2T++M8kL1Dh3bUqVMnKl++vKxkyovIMtlRmEeOHKE1a9bQqVOnhOy4YyLZAfMgbWZRiKWmm7s71a5dm557rjOVLl1a3g9Fl52SEEJj//79tGDBAtq+bYe4UaAoPTw9hJiwpJQrW46K+RQT64qmjiSaElEPel2A+MHB94T0Fy8G0L59++jvv1Fnp6UXcLC3pzp16lC/N/rRM890ECmv3SN73zEnkSWyQ5J/8cVXEp311q1A0bUVVxBInlhA+IQeCX1S+yU50irMVLPHl2CxcWrI7HUpAXcC4e0d7MiHpefoD0ZRt67dON/ZE/IaeYdq8tNPP9HUKVNkEXVMdAw5OztTnz596KXevSTOPKb8QXCoOVFRkSK5b9wIpHv37onaA9XGxcVFNjWAiwB6AtwbjSg8PFwGtevXb6S5c+fStavXWMpDr3en3i/3lrGSrsvne7KjwEaNGiVkR6Qn3Abhy0r7lyYnR6dHya5SdzbKFNkZ2dFIkgP+9Hdu35HBcmycFlfc2sqapk2fQgMGDBCpaEog35DCEydOos8+my05xW+NmzRm4k+VUHHYVQMTzFBPNv/zD61YuZx27NilbbMjxaz1Oly7+IvzWICsuW5q1apFXZ7vQp2f7cwqj7eUHwIxXb9xXe7988+/UHR0lETratmyOf3www/SwPIMuFAyDCzY/fzzz5W1tY2ytXVQ5cpWUNOnzVSBNwNVbGysYQE01odqK46Q8FtqSTs35ZTS+XpK6Xw9pXS+nlI6P/UUr2JiomXd64ABbysvz2LyzkWL+ihWA6QscJ6pEBQUrIYOHaacHF24fG2Vr29xNWb0WC7b24qJqXiwqS5cCFCffDJFyt3a2o6TvawxtbdzVq4u3srTw0d5uBdV7u7eytXVXVZ6YXWSrY2DnFusqJ96+61B6tChQyo4OFjyHxkRrZYsXqqqVK6q7O1xno1q1aoVP+sCvyPKzJDBXIwMS3acfunSZWpQvz6FhoVRqVKlacKE8azLPisDG03S6XpeogSV0BapCVuTS2ioAYY/kyPN61KCZr3A7aKjomn27Hk0c8ZnFBcfTc2bNaNFixdJvJq03iE9wBPu3rlLc+bMo8WLFtF9Hvtg8Dl0yBB6+ZVXpDeBNygCQ/2PdfgrV65yeRchG1trVlO8yMvLm0qWKEl+xX0MIUWsiEnKg9kQunkzkC4GBNAd1vnxd+iDUH6nBHJxdaZXXn6ZXnzpRapYsaIMVmHlmTx5Cu3ds5cKsxrTtk0bmjJlMpUrX47f0ZDZ3AqQPSNgwaimTZshksLNzUN99NFHsjDaWLqZUtKZD7R3Cg0NU88//7yysXJU5cpVUL///odJ3vfBgxA1Z85cVaJEKQl9UZkl7KpVq7hXiZHQGP/8s0V1795LOTu7iRR3c/VSbdt0VOPHT1Lr1q5XV69ek15G773wt/H3O3fuqB07dipWjfg+PVRxvxKatLe1V40bNVGsskivwh2Z2r17j6z5tbVxlOcMGjhUXbt2w5DT3ItMkb1z5+ekkEqXLqv2798vlZ03Cf4o8J5r165V1kx2NzdPNXXqtCy/e0xMrFqzZq2qVKmKxFYpW7a8+uOP1UJWLIr+5Zfl6umnG4hqY8NqS+3addX//ve5On7sBKsfmqAxVs8ePHjAhN2ttmzZIqoKwpHo5yAESUBAgMSPQT1CVbK3R8Mtx0JsmgoMvM3PTVBHDh9TzZu1koZVrJifmj17rizazs3IMNmjo2Ol4CEVKlWqpnjk/7CQzQXZnReQx97OlXVhZzV8+AiRvlkBpHLr1m2VHY8FPD291eLFS6S3BNlXrlypKlSoqOzsHPh5jqp//zfV4cOHVUREOPc1iLSgvateB4jP8tVXX3HPUFk99VQlVaNGLVW/fkP12mt91I8//qhu32bdn0kfGxMnuv+M6bNYt/eUuDw+Pj7q448/YT0+RMYH//67g+9RReq6Qvmn1M6du8yurjOCTJA9WtWpU0+6uKpVanC3Hpqhl89IYRmfl/I1qGw9Pe7cR5FyXvA96f2MgfNBKEcHdxnwDR48RIiZcWjPiYuLUZMmTZZBr52to3r//dEiQHD40MHDqmSJ0kx0e1ZfnNWUKVNY1QhK8/3CwsJEtbS2tmaSagNX1JWDvQurJB6qZs3aaunSb1TogzBRWTDgXbXqN+Xr4ydS3tnJVS1atISfoVRUVCSfu1S5uLDqZGOrunbtmqvDb2R4gIrpZ+zucPLkGSrj70+7dm+XCLFpDdBYQlFUZDRFR2PqOpIKFS5ItjY2sgcpzJUpXYtsIVhncFCI4ZcUkCSkNN9DFRDbsJu7G3+mPgvIkk0mw/AuEeFR8qxEV2JAyeJklngyaDMGzsW13l7F+b2iqX//fjR9xrQM7xqBATszigeMN6lqlZoSq7Fu3Tr02exPxX/l5s1b1IwHwDeu3yBbOxt6991h9M477zzWFMgNQcykP/30iwxor/JA9vjxk2KmjI6JpIT4BDEidHimAw9EJ8sEGX77/fff6f3335fZWiseDG/a9A/VrlOd83GDxo2bQD///BPfO564p6EOHTqY3OSaIwDZMwJdstvZObNkr5WmZIcZMiDgkvr+ux95UNeVpVQZlhzuouvWqFFTDRs2TG3evJnvwV0yhKkREMWqz2t9RdI4O7nJdY8mHNOTdg4k4b59Bwx3SQrkMzAwUP3666/q9T59VfnyFeVaRwdn5ejIn5KcRTf2YUm3bds2w5WJSC7ZhwwemmnJjvB0AwcOFD3d26uY+uzT2SxNo6RMX3rpZRkXubq48zmDJN9pSXRj4DyoQDAZQv8O4/LdsGGTeuONN1XFCpXkHaEyVa9ek9/xX1bDeGwQFqkWLFioShTnnsTWSVWrWosHpddE5fn7779ZZa0kqk79+vVZd+deIZ15MSdkG9mjY6JZ5/uXR/49pcKsrdClOnFBOkvXKpYA7maL+5VSH0/8RF27et1wJZDAlR4jAyN0wUiwIacneXh4qT9+/9Nwn0Qgj6dPnxHieHsX07p4zoONtaO8i5Y4f6wbY8CGPH/77bePvBu+m4rsJ0+e5Px6CPFg/Th79pyQFINHqBxQa/D70aPHMkwunK8n/Xt4eASTfqPq2fNFKSc0pqcqVlZr/l4nhL996y6Xz2Dl4sz1ZW2vRowYIY0Ptvi33nqLGwnqwp6Fxe98P7ltrkIW1ZgyrMZse0SN4YKlg4cO0Oj3x9Ce//aJvbdKlSoSEsPL20u67LNnzsiGAnfvBfG1ivr17UfjJ3zEqoMr30FRdFQc+fuXE3dWdLV9+rwidl9tnyAdybNegBwc7albt27k4pI0zsyNGzdo8DtDacOGDaLGlCxViho3aiwzvphG125luB+/ip2tHb3Q9Xlyc3NL0mWjuEyhxgBQI1gP52c50PDh79HIUSPEk7Ffv/707/adkq/PP1/A+egi5ZtlW74m3MTvfeHCz+mbr79l1SZaZlZnzZxF9erVpSNHj9Jrr71G586eIz8/X/r+h+/493rE0p24J6br1+5Q23YtRZ0pzOpoVvOUowDZM4L0SPb7PJrv3ftlkZDoMt96a5Das2evDLxwPSTjlStaSOVKlaoqKys7VdTbV3322RyWbLF8h3jFOr7yKQZbsINq1/YZFRLywKhr1u3IsUZJOxYfD2mm5UMHjr014G0Jjurg4Kg6duysNqzfpG7evM2SK1quS55wn5SAd82qZMc9EGq7efMWLL3tlb9/WXXixElRGb755ltVglUx9Gbdu/XkAWeEnJ+8jLMC3OvG9ZtqEEtxKysb5eTkot7o96ZE/IUZdPr0Gdzj2YlNf/jwkaKOYmDcpo1me/f1Lcm9zXGT5iknkC1kh33XEdPdrLr0ea2funDhIldkLJ+HuOC69YQJHRUherGuqrRs2YpVjVPaMQPZbbkrb9+uIz8njH/HcxKvTwrjY0nzs2/fPuXp4c3PsBOd8/DhI1yB+jS/8f2Sp0eBa0yhxuzcuVPs6VClnnuuC+cnXhpA3779RB2DGrF3L+YwtGeamljcrtS9u8Fis4c6g7HOjz/+JA0O5kk/X5S9vWrSpLk6deqU/M49kZhb3dy81Lx5C0yep+xGpobUfJ3hL01lSQT+TqCff1pOcbGxEn2qR48erIaUYlUAoRtgIcEjtcRShZo0aUJ9Xn+VsItawMUA2r//AB9LhEztP+zCkRKvTwrjY0m7VnS5EZER4rbau3dvqlq1CudHc3vlAZwkJhu/C85O7f5JoasVWOKW0a4cxcdENkzbK2KJyfkhunD+IqsP5zlfsVS9WlWqU6c2Xv3hs0wJPM/VzZkWLfqKChUqTLdu36Etm7cQE51VSXd68aWesjAE1pz9+w9yiRakVi3biCrJQkpcjzlXhrvlDqRdo5nE/gP7xSsPvh3wuUgNeiXCbRUhM4LvB4ubqlFbYi2av+A/rRcy/Jp+4BpsUQNiswpDrVq1EnPf1q3baN68eayHvkdDh74nPilbNm8V3R7bNGYnYOpD2DmYYfH+GDsAZ8+dpUuXL0ue4WabidfNEPBsbDSGDXdRxv/99x+d4zygXb300ksyVrkXFERnz56l2Lg4CZvnyGUIAXf50mU5lpuQLWQPkkFnAXJyciRHx8eHrsMAFEICwZHgZy3Lx/h3neD6/kj69/QC54K48LvHq+JSrNscNnQY9er1Io0d+yEtXrSYlixeQh9+OI569uwlg1isCEI+sgth4WEUeDNQGiAGoRgkI5+wj9/nATl6wUYNG4n0zW5gXuKFLl3k89LlS0z2c1z+sdwInhJjQlxsHEv3a2IowAqosuX8uWALUmhYuLxDboKJixPdGqsHCXH8mcDdY8EkOxmnBEgJdJ2QdkUKF2ZVw04WSoiokUmjBLp/P4h27txBrN8/kmDRQWjr0NBwgxqSEpAvJf7eEyZMpL/XrJUJKyxj4/GHLEvz8/UVSbt23VoaPWYMLVmyVMiYHcBqrpAHIeIrj5X/WDuKZ2MCB2H/3D1cZTF0Rhp2ZgFP1YpPVSBfPx8h9pkzZygiPFLI/1TFp0RA3L5zR8iOMqxQoQL/X1FUZJT8npuQLWRv3rwZubq6UIWK5cneXlvelRJ0Sf3Vl1/Jpa5ublSiRAmWaIX4K1Qc7TzosaNGjaH33h1B7xoS/h42bDgNHfIuvTVgIEvkYbSWSZwyNLLHxsXQ9Ws3yNPTk95++2363/8W0rz5cyQt/HwBDR48iIp6F6Url6/SzJmzaNWqVdlCOPQaML9ylmQVEd4T5kw0RvwIl10bG2vpHXMCaGz+6F0ZV1iKY6Ybz0Zd8BiUHnDjDAt9IPlE49R6zBj5PTchWzpK2I7Xr19Hb77ZX/YkTV5pOskhORctWkQ//vijkBvqDGy6ACSOk6OznPMgNJSl9yk6cYLT8ZN0/NgJOnb8BJ3k78dPnKR9+w4wMVfSoHcG0+TJU6W3SAr9+QncNXtywxlBH3wwmtq1b021atWgmjVryCDx/dGjOb0vazqxB/+4Dz+SvUVNTXgssYtFPEv+h2VzAN4zKoobAOfVMclKr+wHfN+xrhX5QYPTxywQCmh8EdzrwB6PPMFXHmpMHPfEGPTnJmQL2dH6MYmEUX1KlYbfIN0++ugj1pU/FB3W2cWZunfvLivlAfjPLF/xMx//gMaNQxpDH44bTeM+GqMl/j7mg5H01ltvUNVq3N0ykW8F3pLlZQsXLkyRoGh4bdu2kYkgV1cnQ8BUTVXCYAy9EQbLbdu0lUmia6xD//rbbyYnuzR2/gdoKluiAMDPOb39OnxhQGw8HxOEenQB7RNL/BI4afWm5xf5NHW5ZDs4wxkC7Oywzep2dtY/M2RvxQTF2TNnVf83BmhuBNa2ytvbW40dO1bubYz03pcbjpoze57yNdiGK1eqok6fPi3X455NGjcXOz7r6Grrti2PvS+PBfhevuIjgql1Y78dXJtVO/vx48dVkyZNxMbeqdOzYsO+ceOa6tOnr7hSNGzYSMo1J4Hld19++aXsOYtJOLzz0CHDlbWVg6pXr6Havfs/fvc4NX3ap8qqiJ0qU6acWrXyN8PVuQPZItlTA7pHDCiHjxhBy5Ytk64RcUqg9kyYMEEGRcZIb1cO+/nAQQOpR4/uosLcvXdPprcBfGd+ihTCeZWeqvTY+8ISAT0W1125fIUHjaY1RSIf+rvCPQBiEr0OnglggXd2DY5TA1TIN954gypXriy9HGQ2ts9HBAVY1fS8wWyL8itSuIhEN8hNyDGyw/oBgsONdOPGjeI627JFS/r000/p9ddfly4zveRODlyHzcX6vt5XvuNZiGEDwmjHCksF4m9MoDwOib4wWJvPMHF3DTddkAdqFOYV4G+EBuDNg2MMzjHBgzEDGmhOAWWjlxEShMTZs2f4SAJ5uHs8HFtcDLgo58E9293DXX7LLch2sqO+EJgH0nv8+PEywYPYjT179eDfPhHLjV7AWQGIgYGlVBSTHIQH2SFBvbxYH+VKwwAQTlBpgvMbEHBJYuAUKIBtKb3IigdwpoSTk7NGbG7gD0IeMOGvi2T380NEL3tCOIs9e/ZyXvQyyTnSC/hxV65cocuXL7FwKCBmSQxMo6Ji6Mzps1LWaKzeRTGAzT3IFrIbSyREnBo+fASxPijSClJt2LChEpEAMVCKFHm8pE0PQHIQGRIJU9qQRJDo+P3p+vVYGhWgsLBwMSempSKw+kx//L6aQpiEcGFo3Lgh38Nw0ERAvkqVLE021jYSj3Hfvv0yH+HvX5J8fIvJOcuXr8hpij8Enrv6j9WsvkWTCw/ay5cvK6ZQzPqiDgtxL+rHDcDTw0O7IJfA5GTXiQ7S7d69R8JNo+DCwzXfFIRyGz58uEzoJKoLWQOeCQLPnj1b1CEba2uxBulWhZ49e5K9nb2oC7///gf99ddfcr5RmxRAR//r779o5aqVci5mNzFtnh1AKD0HRwfJ4/p161hhKiiuFWXLlhGLB2Knwy8F5Qh1KieBkCGLlywWFw4f7i1r1KghQuPff3dIQCzkD7p9YRMJqpyCycmOQsEEyerVf4oOjfgjGJgWL15cBo1t27YlHu2L6TF5wiyiVrkaUjvPOMEV4Nq1a/TBBx9KXHcQuHiJEtS5c+eH90LDGvuhFs4NE0ajRo2mJUu+llBxDx6Ey5I1+MR8/fXXNGb0GO6+r1Bh1u1hGkWYuexAjZo1ZNtL5PG/PXso8NYt8vD0oqfrPU2OPCDETOr8+fOTlEdOAIIDcTsvXmDdnHsbDNarVasmjX/D+g1SJza2NtSiRXNugjnbCLOKTC3eaNiwMasnZ2Xxxo6dW5LET0flLPpqiVhXMCUOvRMj+jZt25C7m5t4CSqWoPr5GrhC+St2cYNFBZIE5/z6268SnjkloKDBAxD1xIkTdOnSFf4eL5Joxsxp1KXL89p5/BzkCZJ85Mj3afkvy2XiBHmCT0qFCuXlHDg7IcItpLsz69Tde3Slzz77THRW4x4IxWWqxRtDhwxjCbpEbNtTpkyivn370pkzZ3nA3o+OHjkqKsTq1X9wL1ArWXllD/BuaPS9X3qZ9h84IPMk8+bOo2ef7SwNEoaESwFXZI3s5i3ruadO/s7ZohWbDiB7RvA4OzuOly5dRmzIsKHDLxt+7UUK82cRR0lWRRwe/i2JjyNhOdjUKdMVd5Xi341AQVifqSXtHOMk97FylOV+Ls6eqmmTlg99so3zhL+RgoPvqxkzZkkoEBcXd84j30fyaCv5xW/16jZQU6fOFF9v2JqN7wPge1bt7Dp27NilnJ1dZVFJly4vqMDAW2Ljnjx5iiyowOKXl3u/opiAhiuyD3gvRCaYOnWq8vIqKos3MMfwICRMRYRHqTFjxsraYdTnvHkLWRahXDABYZzMG1mU7P4s2bcmkeyQoJiy37d3n3wH8ABIUgASGbOHSbpAQ5QASP5XX3tVLDRc9hJdduvWrXIMVyYHj+1Y8hYWCQQf9SZNG8n0P56o+c4nBV4VqtLhw0fEnfX06dM84LorGfT08qSKFSpQ/fpPU3XuWaCvpyRMcQ9TSXZYNzCewFJBn2I+9PHHH1OvF3tKROQXe/WmvXv3inQfOnQoDRr0tlhATC3h8T64J+oV6su4ceO4hwuQMl21chXVqVtH8vHeu+9JuWF2fOeundwLu+Fq7SYPYd6SPRNkj6WGDZjsp7VQGjt2bhM3XuNKePAgVEbtGvTftcfIacJ++ZoE2H0Z09YwwyFb0MnhEZkq+D5Qi0A0V9Z/Ef4icao9hQcYoBMW6gzMkfhub28nliLkAUiNVPq1piA7GvSePf9Ru3bt5e/2/Dlt2lTyL1Oa/tv9H73QtSuXZQiPd0qIC3L3bt3Evm0qvutVz1Kddu3cTR+MHUuHDx3il1c8XlhAvXu/JBYs7g3p888XyntPnz6dhgwZbMhDcuqYKGPZBX7hDCE6KkbVrvW0LJerWqU6qzEZC5KUEaTnvvo5+MyufBgDzzCVGgPAfeLNNwewSmbDqpibmjtnvrg/QBVbtmwZqzL2rDLayTrVFStWsZqI5Y2me088ByEModoh2i/cLUaNHCXvBJVq7dp1D9VSRBZjIZYj5ZwdyDDZoUujYKDnIgzDnTta+Lv8Arwr4qlgrGBv5yQRvECKrOD8+fOqbJnyIkBKlvRXW7ZsFRKC9Ii/6OiohZxGeI15cxcIEU1R5qy6qI0bNzKZSwvJ7e14jPDyqzJ2wPOvXLmimjdvLs+GDj9zxqdZathPGhkmO8q4V8+XpHCKFy8p0WXzE9lBgu+++04Gx4jVjqi4WX1/DOoRkq6ot584gjVq2FSiDQBY1T+FB6zF/UoKGTFYf+GFrhJ38d69IMkP14ohAYl/p5Qv/IZF8nBGQ1wY9BoIr4c4Mv369lcXzgeIgQASHPEhEacdREcv5uFRVH3//Q/Ss+VGFJoAG2GGoPk3/7n6T0qIj2MtrSDr8I14QJf6Io28BCydg3/P7Vv3qEQJP+rb93UqXboEH4H+qqeM6a6YWII9H2bUk6dO0eUrV8QUWq1aFSpZsiRVqVpVZoSvXL0iSx7PnjtH69at4zzcEns89GfYvovwmIWll+jcMABoejVMr0rGWteuXZVliStWrJAY7OvWbZBjRYsWo1dffZXee+89KlmqJL/jDZo6dRp9990PVLhQERkz4N4hPMb5Z/Mmcb+AA58+vsktyDDZMXDz5YpZv2E93QwMFLsspr/Ll6tAtg8Jr1d28gFMboP2HiwU5FWwPnPmzJmyc51VEVtq174tvfbaKzKVnhQZIzuAAXLJkiUktiMmdC6cPy+OWFgtVKZMWZnYqVihImdD0eXLl2WZHLaJ3L79Xzpy5CgdO3qczp29IC4TN28EcoO5SufPXaDDh4+Kp+lff/5Ny5cvp2+++Zbzv4Ybyh2xZLVo2UI2WEZgJG8vbzp95rS8I/bJwgxqVW5oY8aMEdeOY8ePUkjIfdq7d4/MDWABNjZJkOad8VfOcWTYGqNj/fr11KfP6+JD4unhKUE427RtLavVsY5Uq3DcOlO3NxMUlMktRD04dOiQmAh37dpJ2KyrXNlKtHTpIqpVuyZXdPJZzsyY4ODyECeR1rBCatM/G+U3kPzttwdSl+dfkAZxnYXLnj17xCy46Z/NsjROwnnwM2ECdnS0FyIWZCJjXS+rSNxjhNCD0AeGva8SyMq6CNWpXZd6vfiiRGlDFAhWb2j37t0ScWHLli1yHRbSzJw5g5o2bUrRUVH0088/07hxH4r5FhOAw4a9S6+/3leemRuQabLHxMTRb7/+SiNGjJRd14oUsSaEqoD/i7jrFkxKgEw+xiyAKfKwsDCKCI+QyAfF/fzou+9/kLguWgg4nGUK0aZErYDH4ciRI8WHB2XpwcKkW7fuNHjwYHG7QAO8e+8u8cBWpvDXrV9HZ06fE4KinNH74j5QZ0Bu3BeuElBHWrEkf6ZjB/EdgvoCMy9cLn788Sf6fOFC2UIojhsFtprESjHM3uq+9/Ak/ZXrfNCgQRQbG8eE95Z8YmbVzi7jptecRqbJDkmArcUPHDgo/iSQCpBocA7Sqj3pbfEY/Mtt0Ce/eCAobgNdXuhCc+bMIewQDeg+4KaCXh1oYGPHjhXHOeQCP5cuVZrGTxhPPbp3l5JEHWjBnuLo3r1g2Y/2UsAlaSwREVEy7+Bd1EskNxy34KkI4mrPKCj+9IcOH5ZdD1F/aEQ4hIYyY8YMGjiovya4WJ3R3xF+TvAcHfDmAM5jgoTX+HTWp9SzV3dpOKYsC1Mj02TXoEmOiIhIcVP9559/pKCxh6dG9sRbZ+kxTwxQR5QsSIZHYrv27VhvLi9jFF1Vyc7K1Yk1Y8ZMCrh4SWY5ITCqV69Ob/R7Q9QLVzdXme21stLcmaHOGJU6/6Z9Q/HHxmr7pcKH/jCT/OtvvqH1PEgFChUuIJNqmDiK5IaCq+bPn00vsqqD3lp/T9QjepDvvvueJk78WCbm4FGKCA1dunQx60FrlsmuJa0wE2+lEyDx1iLVE7+mA4aTpQI1yC8ZukdWoT0Z9awljfzGrwlyZScg4bEmYOnSpbR582YKCAgQNQPkgwWnQYMGEoW3TBl/WTBux8TDbC5i9sAxLiYmWoQRIjRcvXxdpvyxJfyF8xdEJcMb+vj6UoP6T7N07klHuXf44stFdPfOHXJxcaSPxn9EvXr1erhSSQdUnx9+WEazZs2iwJs3JXoyLDgv8rlofA8rzYyQRbI/ClPdDhIDFe3h4SEVq8PE2U03slOCPw54Z7hOQNXAksbdu/ZIYCiQWFo/Z83W1l6sKa5uLrLpMrw1oY5EsiQPDr4vZkp4oeI3NFAsmoHvPHxfWrduLS677u5uFB4WQV8tWkTTp02XqA8+PkXp3XffFb9+CaNhAPJ0/34Ifc9jl7lzZ8uOHY4OzuJb88orr5Cjk/kNWk1OdlMA/umzWA+8ceM6ffzxJ6xClDccyd9AVWGQePr0GVneeGD/QTp46JCYKe+HhDKJtbAXsM6gDaA3hfkwQWk9AUykpUqVopo1alDtOnVkkArTInoEuUCAMCcREssHyyhh7fEr7kuIzf7yyy8/ssgaQumnn36mSZNYpQl+wGMEb3p32LvU742+Yj0yJ5gl2TFhMnjwUCb9FZYwM2jwkHeeqGQ1PyRIoFEQDRM9CEOHSABXebx043ogE/++6PcYW4Cc3l5e5OvnS6VKlyQvTy9yc3Nn/dxFBpRQd5KDx72il//yyy80evRoVlnuk7e3t9jbYXnRrTM6oNJgbDFkyDAZyFetUpU+/WwWNW7cyHCGmQBkNydgOhsb6ZYuVUZ81rGTnMyIG02DWwCgLDQ/csRzwZbzPLiUqXz41CDBPx3f4c+C43HxMSpeYuRjgwZsU6/Fh9HKNxGoA6SwsHD15ZdfSWx7uCnANwdb77B6aThTA87lxqF+/HGZcnBwUDxwlvgzOuB68PXX38pmE1u3bpc84ZqcRi4g+xQL2TMInazJkw44sr3wQjdVxr+cOnDg0CObtxmfD2LC+czPsCM2fGmwXSQaVnLATwf3xmYGAPbF+ubr75SrqxYMC56d2D/q1VdflaBMxnnKCWSvKSFL0NUWi/qSUUDlSynpwDJGLP9DwCMshmfKGY5oMD7fxsZWVBeE+cYAmDkjdnms10U0YmPgmmLFfGQSLOR+KH299Gsa88FYioyIloUnCOIK1WrFipX0wQcfyKRYTsKMya4NyFiYcyEafrAgy0CZwn4P1wFMCoKgWszL1KAtbOn/Zn96551B5OriKgs6pk2bLoNYjBt0yL14cAwrzbKfltGnn37Gg9b7PD5wkqjJMGM2btJIxgp/cCN7//3R3PBOSp5yAmZJdluWJvqsHQrTwnXTAmWKQEzoNSWql2HiKSWgDjC9AP+XAW+9KRs4IMrwrcDbNHv2HHGKw2BYBzw3f/rpR5ozZzZdv3FNLD3jmeSjR78vTnMffTROthYqUsSK1vy9Vgh/8OBBTbBlM+nNkuxwMsLyM0zFw9OQVTvDEQtMAcSXDAuL4HJNIP/S/oZf0wZID1XktT59JFIyrDwI3Yd1vOgpAFhwEOIQIQ1xDKFCYJJ8vS98ZzSfKUyAffzxJNkAAt+xxnjixIniaJftEp4fYFbAoCXoXrBq0KARD4gceBBVQd28id2dMYqyDFCzCizcwAa+iKxgb++kblwPNCwASSe4CsLDIxU2Ch43brxikj68fvHixcrT01PZ2toqn2K+avGipbJztnG1oX6x6zYWiWDFGwa9sOB06tRJHT16NFsHrWZHdgAvPGDA27Kjsru7p/r22++5QGHuspA984jn0otTe/b8pxo2bCyCBJ8gamYIBvMjEq6HZQZEx+o1WFuKMdHnzp0n5s/U7o3fYbWpU6eOhAwB6Z9//gXFA+dsI7xZkh3A2kh3d3eF7dU7duzE0h2xUyxkzzziVVh4qJo5a6bEqgG5Fi78PEvEwrWw5SOuO6ueQvQSJUqp6dNnyr616ekxYILElvWODs4KW8V37dqNCX8mWwhvtmTHREjnzp2lUnx9/NTs2bNFUliQOWDT5e3bt7MkrStlWqd2PRUQEGA4mjlAsi9fvlyVLVuW72mjfHyKa0R/AImuNYbHATuJHzp4RHXq+KwEhsKa1y5dusgaWVPDbMmOgtq7d+/DnZZr1qyl/vzzzxQnMyxIGyjLCxcvsJrwPJPSlvVqb5kZzWpZ3rp1W732ah+uHztRNzXVBbOjeGb6yA5gt/G9e/epZzs/x4R3VtZWNqzDd1YHDhyUe6T3Po+D2ersSJAcCxYslG4XK+CxFfu6desk1ooF6cfZs2fVc889JwNBe3sH1b//AHX9+o0sEwkREFq3biuzo+3adXjoBpCZe6JOEb+mfftnJIoCUseOnWUr/qzk0RhmK9l1BAeFqLFjx4nuDsKXKVNGzZ8/X2KeoBAyO8DK60CZgEDoDWvXri2DfZThM890UsePnTRJmZ07e04906GTkB2uB9evXxcBldl749qTJ0+rBvUbyT0RA7Njx45i8TEFzJ7sMMLcvn1XDX9vpHJgqQSzFgYyME3++++/WSrcvAqUBwIvIdIY4sHYs5CAT0vjxk2F6GLYMgGioqLViOGjRNe25cFp9erVhfBZEUAY0wYG3lbVq9WUsQXq+9lnn5XeKaswSxdfY+jZux8cQp9/8QV98/U34tOBVTbYR6lOnTrUqVMnql2rtvhlIL6JFmLaeMF38rmzzBxDPoyLKrVjmO81nvPNjmOJwGQPyogJRkFBQXT8+FEJUMqDUfFPKVCwkCy3a96sGc2YOZ2KF/fjawwXmwDYERubS+B5TFSZLMLWnAgFnpL7cHqA98GkFMJ7YI9b7LzdqXNnmjp1CpUrW4ZLRXchydiL5Aqy6xWKFe2bN/8jW61jedn16zdxgsywYt9UVxcX2c0Cy9L0tZcauNAf8saYREAax4z95DJ9zLjxMDJ1jCtVpVKx/DNmMDFNHxwUTNExkdzYC0mDR7BXbMmOZXVYaYS1tAULZYwgjwPqBQtJ4Ou+Zcs2cfRCWJWPP55I1apVlVnSzIB7BnFYGz36A+IeXN4RQm3K5ClUtpy/oX6NyisdMHuyJwUIoGQl/aZNm2jnzl0syU7QxYsBItXgo4GVOVqDT4Us2ULotI5lM9kZIulwDv/n4uIkUcQQwKhu3XqyczeiEkhsmdRvkSWAmNid8KNxE2jturVC+DatW9GH4z6UxeFaT5txoLc6cOAQffLJJ7R923apX7zPws/nk4+vD79uxu6by8iuZRVZRgoNfSDRsbDbHHa3xoodxHdBT6CfqyF5Lad2TLtvItJ7HZCeY8l/B1I7ltb9koHzjGhs7m7usiwOMdRBeMRY10JhPOZ6EwDlBrfhiRMnyL5V8Gxs3rw5TZs2TSIzZDYLUGEQ7mPC+Am0Y8cukfAfjvuAe5L3+Z55muzJoWUdb8ADVWn5+MwscnNRgNQgGJbMgdw5QfDk0CX8pEmT6M/Vf8muhdgo7YcffuDxlHem8oQ6gYQ/ePAQvdjrZboZeJMa1K9HGzauz7iKBLJbYIGpAEsME178XGA1w4RglSrVxEqTWcCyExBwWZUvV0nZ2TmJAxlMzxlF5pSpPAQuA8NfuQeJeYa2bl75h36OCL+ffDJJgqZC+mJFUo8ePQzu2snGKY8B3hXBc8eO/YA/r/EvCRIrRwtUlUGA8fkbcFbSErwCsXjZPJJmq0Z6FIl5ZrmHH8wOyDcWXXfo0EF2D3F0dJYJrcOHjirWww1npQ34zZw/f1H169dfOTu5ykRTtarVFTeaVMolbeRynT3zwGtDx0dUXm1pma5PmktxaPlB1C/ovZBkGJzt2rVLwlUj/5hnKF++gsRyzKyJL7uA/CHBfIiYlRs3/CNzIK1atZJIwDBLpiWd0QPA+DBt2gwJtY3IwXXq1JIBb6NGjTKl/+drsiP089Ch78omZU9iQJc2tIkTbLo7depUCWYku9a99x5354FyBnaa7tS5I40aNVI2NjYnGNMKE08Txn9Mq1evlkF0i5bNZQUTgq2mVu6IMDZ69BjZWj8iIoIaNmxIEyZ8RI0aN8p8wwbZ8yvg8url5a24AsS11LyStSRMwR88qHn/7dy5U/n5+SU5r3fvl9XVq1cNb2Se0AetL/Z6UTwknViladeuvQq4eInfy3CSAfh+926Q6t69p+Z3b22nmjVrIfFmMCjNjPqiI99KdgBqAaQ71mSan2TXBnvYeQMbEqDLh1l13759MmBDfiElMXnk748ZRfPLvzFAM5glEVJvzZq1VLBAIbG///77b+TjW+xh/jFhCDeBbdu2ickRu51Ddalfvz6/byYGpUbI12THq0M31P8GzIk0yIuedCCfekrpuDkDedZ8aUbQ1q3b5DtUmV9++Vl8djALPmTIUPr77zV8MslYBDuBNG7SmBu+4SZZQL4muzH0YsgtxMmtQDkjVsyoUe+L8xjKu26dutTn9T4s8f+WePFRUVFUoUIFmjt3DjVp2pTPQb0YbpAFWMhuQY4DlIPzGKKCbd68hVQCmKyxGaSuVr06zZgxTfZ70h36TCGE8hTZk7+KcQHpx/Bb4nk4nvSapPdIXsBpHTNG0nsmhfF1Sc9D3kxRqeYOlDHSuXPnWXrPpa1bttGdu3clrnyDhvUlehgmjqC64DxTlUmeITvssAjHpm1zo22YBcmA6FMwVcF8BT9rOIo94kFokB64LmlxGCuK+D21Y8mR2iwhnpuc7No9kV9UcIsWLR4JCZ3XoJczBuAwMWJmFWGvscuiv38Z2STNFDp6cuQZsm9Yv5GGDhsmO/dxSTKFEqhly5Y0efJkGehgX89Ro0YnTleD8AaSJ8ETKg0IryZNG9OUKVPESpFfAPol722zq3PLhvbzZODl7SUDm9AHobKQARIciziwJygAaYFjYaFhWuLjD/82Tvj9CSTkGaZEhJjLT9BVFF2Fyy6iA3lGsuvTy5gNBbBrGwgOn24diEuI7jJpG0/LMSkzakzy85Ij5WdDdUF+sYeUBdmDPDRAhR6YYOgOIR50SZEoKh6qMElgarIDqd1Ty1cijO+JvJp2T1ULkiJPWWMssCAtpCWeLLAgT8FCdgvyDSxktyDfwEJ2C/INLGS3IN/AQnYL8g0sZLcg38BCdgvyDSxktyCfgOj/QuNCpiG8QcQAAAAASUVORK5CYII=;strokeWidth=3;imageBorder=default;shadow=1;" vertex="1" parent="1">
          <mxGeometry x="578" y="91" width="187" height="179" as="geometry" />
        </mxCell>
        <mxCell id="OqSYDqfYlpPWh9uUhqye-5" value="" style="shape=flexArrow;endArrow=classic;html=1;rounded=0;fillColor=#d5e8d4;strokeColor=#82b366;" edge="1" parent="1">
          <mxGeometry width="50" height="50" relative="1" as="geometry">
            <mxPoint x="509.55" y="130.54" as="sourcePoint" />
            <mxPoint x="568" y="131" as="targetPoint" />
          </mxGeometry>
        </mxCell>
        <mxCell id="OqSYDqfYlpPWh9uUhqye-6" value="" style="shape=flexArrow;endArrow=classic;html=1;rounded=0;fillColor=#d5e8d4;strokeColor=#82b366;" edge="1" parent="1">
          <mxGeometry width="50" height="50" relative="1" as="geometry">
            <mxPoint x="569.55" y="241" as="sourcePoint" />
            <mxPoint x="438" y="241" as="targetPoint" />
          </mxGeometry>
        </mxCell>
        <mxCell id="OqSYDqfYlpPWh9uUhqye-7" value="#F321 B57A" style="rounded=1;whiteSpace=wrap;html=1;shadow=1;strokeColor=#6c8ebf;strokeWidth=3;align=center;verticalAlign=middle;fontFamily=Helvetica;fontSize=18;labelBackgroundColor=default;fillColor=#dae8fc;" vertex="1" parent="1">
          <mxGeometry x="298" y="210" width="120" height="60" as="geometry" />
        </mxCell>
        <mxCell id="OqSYDqfYlpPWh9uUhqye-8" value="" style="shape=image;verticalLabelPosition=bottom;labelBackgroundColor=default;verticalAlign=top;aspect=fixed;imageAspect=0;image=data:image/png,iVBORw0KGgoAAAANSUhEUgAAAhwAAACZCAYAAABkHOM+AAAAAXNSR0IArs4c6QAAAARnQU1BAACxjwv8YQUAAAAJcEhZcwAADsMAAA7DAcdvqGQAAGEbSURBVHhe7Z0HfBXF9sd/6TeVNBIIECBg6L1JB0GeFAVERPFhl4cNBRt29Pks2Bu291REQcUCSgcFBAm9JYQ0EpKQhPTek5v/nHN3b25Cyg1J1Pd/58tnyd05u7Ozs/funDlzZo5NZVFiFQRBEARBEFoRW+3vRZRXVOKn3UfwyOur8fPuo1qqIAiCIAhC06lX4TgUGo0d+0/hxmljMOnyflqqIAiCIAhC06lX4SguLYefjwf6dOsEF4OjlioIgiAIgtB06lU4nJ0cUVZegUqjUUsRBEEQBEG4NOpVONxdDSgqKUNJaZmWIgiCIAiCcGnUUDiMRiOy8gqQlpWHI6djEdDWC23cXDSpIAiCIAjCpVFjWiwpG69/vhE5+QXw9fTAgmvGoXundppUEARBEATh0qh3HY5DoTH4adcRLLtrFtycDVqqIAiCIAhC06nXh8POzhbGKiOMRlkXTBAEQRCE5lGvwlFSWs5Kh72dnZYiCIIgCIJwadSrcKRl5cJgcIKDvSgcgiAIgiA0j3oVjt7dOiIhOR2v/Gc9Dp6K0lIFQRAEQRCaToPB23ILihEWnYAO/l7oEuCnpQqCIAiCIDQNiRYrCIIgCEKrU++QiiAIgiAIQkshCocgCIIgCK2OKByCIAiCILQ6onAIgiAIgtDqiMIhCIIgCEKrIwqHIAiCIAitjt2zTy5drn3+n6cg7AjK0pLh4O2H/OO/o7K0GA5evprURNrGrxD93D/g0qUHnAI6a6kmjKUlqCjIhZ2TM2Bjo6U2n9K0FOQe/BV2rm1g7+oOY0kxco/tg71bG9ga1LWaQUvmVRdVFRXmurRzdkXOoV2wdXLh+2gJMnNjEH1+K7zcuiIl8ySS0o7A2yMItrbVK+QmXNiPqMRtMDh6wMXgraWayMqLxa7jL+Jk9Ncoq8iHn1dv9eh0PbwKMed3Yvexl/l8Nxd/eLgGaDJVd8YKnIxZg32n3sK51H3w8egOZycvTdq4vLAkA/tOvobDZ/6D/KJktPXsDXs7R02qvms5Z7Dr2Es4FfPNRWWLOb8DZ5N2ITnjmHmzvD9r6kUQBOGPRCwcFqRuXsObsawEKes+RmFUqCapxr3/cPhOmQtDl2AtpRpqTGNffhCVxYVaSstQGHkC8R88j5RvP+B9UmqS17yHkuR43m8OLZlXXeh1mR2y03yt0uQ4Tdp8ElJDsOfYCtV4p+FM3Hoci1qlSdS9VZZi+6GnsG7Xbdhz4hU+1pK4lD1YvWUmKitK0aHtYBwIW4nvd9+Fysoylu88vBxbQh6Fr+dlcDX4Yt0vN6v8v2AZHUPH0jl0LuVBeVGe1sgzlEKwavN0pVREonO7UYhM2Iw1269DcWk2y+m4tduuR2lZnlI0eirF5E2s33uPkpiWzTkc8SnCzn6HuOTfzFt+YTLLiIbqRRAE4c9AFA4L7FzctE8mLPfJelGWcUGlucNvxk1w8KjuKeuyStWgGsvLUZaVxvvlOZmqfaheV00/rnY6NcSVRfl8XpU6n/Zps8SpXUeUno9DeXaGllJNZVFBjeMpDzquylhpyi83y7SpY2hfv44lVao8VK6yzNSLZASdy/eormUJXYOuZSwrrfN8Gzt72Dg6aXtq394BtmQBsoCunZNfhIKiEi3FehzsnGv02u3snNRmshKEnv0W8Rf2Ye7Ez1RPv6Y1igiL/QEd/Yfj6jFvY2Tf+zBlxL+QkROB7IIEFBSncqM/ftAyjBv4KCYPew59us5GRPwmdWYV0nMj+dhpI1/ncykPf99+iIzfwnk3Jo9O3ApnJ2/MHvsRRvRZhBmj30ZJuVLIMo6y/Hjkl1y2ORM+MV8/NTMU2fkJLCcGBt+E6yd9Yd66BIzTJA3XiyAIwp+BKBwW0FBKfZD1Iuzu6byFP3gdCmPCNEm1LPHTV1GcEI0zS+byvqW1I3PXzwhdOEWlLUHEwzcg6pk7VSOex7L4lc8h6qk7cPaf9yJ8yRzEvfUkwu+fxfnq2Dm5wMbBka0dtbmw/nPOQ4fKRsM+5Vnp/PnMI/MR98ZjCH9gDqL/dS9fJ+aFe3k4RSf1x88Q8ciNOPPQDYh8/GaUKwWFIOUh7q3Hcfq+WYh77RGE/uMqJH+zkrQEltM1op+9i8sf8eh8vveoZ6vvzdbJADs3D/5cHzGJF/Dw61/gibfXIiu3pkLTGC7OPvU2pD06T8PNV21EW69eWkpNCorT4O7cTn0yDX95klKiPuYVJqKsvJAtJG4u1d+Jtl49UVySieLSHBSVKMVPHUvDLCZs4O3WVSkrJktRY/L8whQYnDzh5GhSal0MPnC0d1XXTuF9Un6mjXxNfTKVzcHewH+rqir5L1FSVlMptaShehEEQfgzEIXDAq+Rk+E/bT5sHQ1oP3chXHsM1CSA99ipGLzuKPp+sAmOPjUVE13WZfELcO3WGwNW7eH9Hi+vZisJNb7pW75B57ufQc/X1qL3Oz9yg50TskPLAfC7egG6PvQqHNsFImjpS/AcNUUpC6c1qWp27O3RZuh45Bzegypj01ajN7TvhKDH3oDn5ZPgM/5qvk5lYT5bLYjKokJ4DBqFfp9sR5/3NqhvhR1yDvzCsoKI4yiJj0Gv17/m++n+1Puq3L+iJPkcywljeRl8/zYH/T7ehl5vrkNFfg7yTx3QpOA6pbolP5GA+ffBUMv3paOfDyaN6IepYweijZuLlmodbT17YWz/pXA1+KFX11kY1vN2TaIaXScfc4PeEEkZx7A/9F1UGEu1FAvUczoetRqRbNm4GDqHzqU86qIxeXb+Ofx2YsVFyoObs5+Fv0cVws9tVHXTEW1cO2ppwJ7jr+Dl1Z3w+toe+HnfYpSWVStrDdWLIAjCn4EoHBa4dO0Jt75DuXH3GDIWTn7tNUnzMJYUqf8qYe/pax6WsDE4ozTd1Jsl6Jq2BoNSdqhXagO7Opwq3XoPRsn5OJVH9XnWUGVLj9mUp34d+qtj5+LK907Yu3nAwdePh0YIGiaxJ8dZo5HLTs6wVZUVqMjLYTlBVgxDQBf+TI6h9q4e6pjqnjjVKeVPTqmewyfCvk1Nx01ngyNunDoaU8cMUr3ypn0l3V3aoW+3uaxYdPIbhu4dr9Qk1hObtAunYtaipMTkP2FJeUUx+0qcid+opdSEzqFzKY+6aEyeknESJ6PXIisvRku5mCMRnyIuaTfGDHjYbLW4evTbWDhzD28zx76H+Au/48Dp91lGtES9CIIgtCSicPxBkDUh9rVHEPnELbyVJMTAvpbPSGMYAgLh6NsO+adqOj+2NoWRJxH55K1cbhpWsVFKBw3v1AVZdMgSQlaf/xbGDngIi2bvh5tqpGvj4OCCBVM3YNY4k8NubegcOpfyqIvG5L27zsT9c48jwHeIllITUjb2n3oH00a9ikD/EVqqyQJCs05oI2WCtuTMi4fbBEEQ/iqIwvEHQcMJwcs/4WEHffOfdasmtRIbW3iOuAJ5R39HVcXFjp06VVVGtki0FK69BqLvyk3mctOQkGv3Ppr0vxdbm2orD2FU9WZrYwcHezelVNnxZ0sqjeWwJ+dLW0c+V6ldmsSEsaoSTupcolG5rQP/1amCkY8nZ0+dqMStPMvliiFP17BQkO/J5pCHkZpdPeRWu6yCIAh/NUThaEFs7OxQWVKstiItxYStweSXkEeWiaoqnjES9fwiZOz4jtObglufITBWlPL6FjquQT1REh+NkqRzPGsk9/Ae2Hv6wN7dUzuiYSqLi5B7dK824yQdZSmJcGprGk5yUPmUpSSg+PxZ3s8PPYTIZQvUfizvtwS5BcV4/sN1eHfNFpSW1a9ItTQBvgORkBaC/KILaq8KYbHrlCJgD2+PrjwNlnxAaFYJradRXJaD07E/wNezBxwdXNUx3ZRSYouohK18Lk1zPXdhL0+BJRqTB/gOQnZeLJIzTvB+VMIWdY1cdkwlaJ2NrSGP4fK+96Bvt+s4TcdOKSsp6rxjEau4bFT+82mH4OMepB1hHcWlZVjx2U/4cuNeLUUQBKH1EIXDSpLWvIdjc4fw7BNq2GmWCe1Tuo57/8vh6BeAsEXTWXZ2xVJOJ7+IjnctQ9pPq3FiwRiELprKfg5eo5s+7ODo7QeXrr1QUZivpQBthozna595eB5O3jwOOSE7EXDT/exbYQ12zi4oy0pF6B1XqvubAQelbHiONPWo3fsOg8+kaxH19B1cdron7wkz4NyhK8tbgpz8QiSn5SA+JQMlZdWKVHMhZ09yqnz72/5Iz4nEtoNP8P72g0+yfGivO+Du0gEfrh+N19YGs6/GlUOfZ2WDlIoJQ57CuZS9eOObXnhv3WCeKTJh8BN8Li0ANqb/UhwM/xBvfN0Ln268kpWIIZpzZmPy4MCr0LX9BHy1fY6S98SvR1/AmAEPwt+7L8tjk3ajqDQLOw8/y2U2OYcGIzZ5FzuTThryDM4m/YIVX3XF+98Ph8GpDUYPWMLnWktxSRnOX8hEYLuai9sJgiC0BjaVRYlNm/IgNAuasUIrkdo41DSptwQ0hZVW9CQF51Kg840VZez4WRuyflSqsrPVpAVXUdUpL69U+dL0zz9+aICmv5aW57OiURe0GBcNo5ASUhe0YqiTgzsPt9RFQ3KyUBSVZrJPBldAE6HhFZpOW1/ZGiI6IQXvfrUV9990FS4LbBkHaUEQhPoQC8cfDCkDraFsEJTvpSobBJ1fl7JB2Njawd7DS31oeWWDcHAg34k/xw+BFIH6lA2CLAoNNeh0bn3KBtGQnIZw3JxprY5Lq1dSVC5F2SBS0nLgbHCAv491Q2+CIAjNQSwcgiAIgiC0OmLhEARBEASh1RGFQxAEQRCEVkcUDkEQBEEQWh1ROARBEARBaHVE4RAEQRAEodURhUMQBEEQhFZHpsVaUBB2hP+69hyI/JMhsPdua46iqpO28Sskr30PQUtXcERZS4ylJagsLoQDRUNtwfUqaCn0vBMhHKVVhyKvthk8lv/Who4viDwJj/6Xs5z2808fhXufIagsLUVRTGi9514KtAw30bX9eEQmbIG7awBHKCUS0w7jQuZJ/qzj5d7ZIjZIlTp/J07FfMuRUIf0vA0d2w7VZKaFsU6d/Vod8ytcnH1wee+7OWCZTmNyWnTr4OmVyMiJ4eBng4JvqRGyPisvFgfCP0BRcaYq0xXo3+0GXhvDRPPKppOWcwapGaHo2WUGHOyrw+83VLbM3BjEJu/mzzo16w283Hpk/EY42rujR+BUcyRZghYzOxH9Fc6l7LuketPJLTyv8vhNXXeKea2Sysoy83P28+yFiISfVL0Mh0+b7iwXBEGoC7FwWJC6eQ1vxrISpKz7GIVRoZqkGvf+w+E7ZS4MXYK1lGpyDu1C7MsPstLRktDqpHmhh5C5bwvOr3od2eo6+Uo5olVB66IkOR7Ja97jCLX6/vnPX+O/hZEncOG7j/keW4rDEZ/yVlZRiJCwd3E+7aAmoQY9GnHJv5m3kND3cDTyC00K7Dy8HFtCHoWv52XcoK375WYcizLJqWH7fvddHMCMYpBUVpRi9ZaZiEvZY5Wc4pes2jxdNfiR6NxulGokN2PN9ut45VCCjqPj6Tw6n/Kh/Chfojll06Fr/bz3fg60Zqls6GU7rxSyDm2H4GTM1/jmlxtRWlbA8oTUEJX3+zXqLiXzFMuIpIxjWLVpGnYdfZHrnOpeh8r2455FOBT+Mfy9+6CgMJXLlpBqei7Wlp2Ulo37FqvzDqn799FSYX7OZ+LWK6UpDftOvoX0nAhNKgiCUDeicFhAodUtsdwn60VZxgWV5g6/GTfBwcNbk1TLKlUDbywvR1lWGu+X52SqTnK1AUk/rnY6KQaVRfl8Hi0vTvu6skAYOnRBl/ueQ8Dcf8DBqy0C71yGwIVPcARaHTqvLDOV866yyJsgS4aNXXVkVFtHtW9fc7VTo9GolIMCFJXUrcQ0hB4BVcfgWF2uAd3n4/pJX6htFTzdA3llzGkjX2VZQXEqN3LjBy3DuIGPYvKw59Cn62xExG9S0iqk50aq3n+EOv51jOx7H64e8zb8fftxQDWiMXl04lY4O3lj9tiPMKLPIswY/TZKynORnHGU5WGxP6Cj/3A+j86fMuJfnF92QUKzy6ZzIupLjjI7vPc/tBQTiUqhcFQKyHVXfI7R/R/AzHEreZnylMzj2hGAr1dPre5Mmx7inpSYnYeeRnDgVIwb9CinWZKceRJpSsGZMepNPmfOhH/DRylNFCCOsLbsxyI/R76qh7H9KSZQtcWOlnm3XDnV1tbuklc7FQThfwdROCxw8KZ4FnVD1gsK3EZb+IPXoTAmTJNUyxI/fRXFCdE4s2Qu71taOzJ3/YzQhVNU2hJEPHwDB38jywURv/I5RD11B87+816EL5mDuLeeRPj9szhfayhNS+bAbWceugERj9yI1B8/0yQmKP5JY4HcDofFYPFLn+GV/6znKKJNwRQHpCGq8Pupt1UvfTdmjH0b7i7tOLWsvJB70W4u1edTtNTikkxVhhyl/GRwO+fmQkt/EzbwduuqFIJ43mtMnl+YAoOTp3mYwkX10inuSJ5KJ6iBd3emspgaU0+3zvwxrzCx2WUjcvITcPLs1xjc4xYO5mYJhaGvUv9oaIMwGitVDraws6t+TpXq+rq1xRK6hzkTP+Ww9XWFpW/v0x9/v0opU9qwlp2dA4fDNyrFh7Cm7GSBOaoUjsHBN7OiaAkpF46Ol76EviAI/5uIwmGB18jJ8J82H7aOBrSfuxCuPQZqEsB77FQMXncUfT/YBEefmg2sLuuy+AW4duuNAav28H6Pl1ezlYQUi/Qt36Dz3c+g52tr0fudH9nCkRNi8n0g/K5egK4PvQrHdoEIWvoSPEdNUUrNaU3aMJQPKRX9PtyMfp9sh5sqd2VRtYmdLCEB8++DIaAz3xPdG92jJd07t8ekEX0xZdQAODtV+wJYQ6+uszCs5+3cEI7sez8C/UdqEhNZeXE4GvE5cgoSsePgk8jOP6dJNFRdUGTXSLYeXEyFsRT7Q9/lYYS6aExO1/vtxAqUlFVbjSyh8+h8yucimlG2Q+EfoaQkh4c23v9+GA9h6ApGzy5Xc2TYb3behK0HHsfP++5T9XgNOvlV+4jQcMura7pxRNhPf57CwzIE+WqY4q/UDVkf2rh2NPui0FAMhcLvGjCO93XqL3sV15eHS3ulLN3K/iThcRtqKD/0vOm5uxr82ALS1rOXJhEEQagbUTgsIAdRt75DYWNvzw6hTn4tE0HTWFKk/quEvaevaeilqAA2BmeUppt62gRd09ZgUIoANfY2sHN1NwmsgELV23l4mp1AXXsPhJ2FQyilew6fCPs23nxPdG90PUt82rjjtlkTMXpQDy3FeshBlJwZqSHs3XXmRc6D5Iy4+PoTuHt2CGxUT3tLyCM1Gq/yimIODX8mfqOWUpOSkmycilmL2KS6LT6NyVMyTuJk9Fql+MRoKTWh8+h8yqc2l1q27Px4xCTtRLdOV+K26VswfeTrOBLxH+w9+TrLKTptQVEqKzS5ShGrUPWRV5jEf4k+Xa/Fwpl7eLt1+mYYDF7YdmCZ2cfDWsgxdcv+R9DedxAu6zRFSzVRX9kj1L0mpR/B2IGPsfJC/iS1/UToedNzJ+tR325zzVYrQRCE+hCF4w+CfDJiX3sEkU/cwltJQgzsa/mMtBQ2Nuqx2v71Hi0NKwwOXqAa2PPIK6pWthwcXLBg6gbMGveBllITN9WYLZq93+zDUJvG5KQE3T/3OAJ8h2gpNaHz6HzKpzaXWraktMNwsHfGxMGPc7TZLgHj0K/7PJ7xQcM1v598U+kalbhFKRPzJn+JBVf9iAuZoYg49zOfT8MWpKjRRjNBRvS+C4XFGeykaS2kbJCjK5XxmjHvqhTT0JFOfWU/Hr1G1dUguDm35Vk8xXUoYoIgCE1FFI4/CBrWCF7+Cfp9vM28+c+6VZO2LFVVRnIK0Pb+PMhZctexF3FGa0QJB3vTUA41tjY2dhf5INA51Ksmx0RbG3vVRNZsJI3qPN1JtVG5bU3H2CoY+XjynyDofEuMqt6oPA7q/OaWrbyymOXVU2zJ96J6lkpmfix82gSbnS9dDW3Zx+RClsk3iCwhJ2PW8GeCylPrcg1ClpCNvy+Bo6M7rh77jvk6RGNlJ6ITt+PjDeN5++2kyclXEAShOYjC0YLY2NmhsqRYbUVaiglbg6mhyTsVwiZ0Whcj6vlFyNjxHac3F6e27VGWkojy7HRUGSuRH3oIxvKmOX4mXMjAsre+wleb9qoitszSLHaqwScHRfJloDUjyH8hKmE7O5mSDwJNNXVx8uHZESSjY07H/gBfzx5aD78bW2uiEraq3KrYkfHchb08lZNoTE69dPJdSM44wfs0S6O4LJedP4kA34FISAtBftEFtVeFsNh1rCB4e3Rtdtno2iVleTwcQ3LyIwk9uw6B7Ubx+UHtx+Fs0q9I0dYoOZv8K7JyY9G5ncn/pbgkC4fDP+Gy0fWjE3ewjwxZSxqDnF037L2HHVxnjn0fzo6emsREY2W/cfJaLFuQaN7+NuJFTm8qH3+3A299uQnl5ZVaiiAI/8vIwl9WkrTmvYtmfxD+s29Dh/n38WdyDj33zlO8SJdq+dFm2Hh0e/QNltFCXOfefJyHVmgBrzZDx6Pz3c/CzsUVZ1cshdfIK+HWaxASP12BLvc9jwvrP+fzKO+CM8cR8+Jiky+IBk2P7fHi53D0bWe+bv6pg7B1clJ5TUFBxHF0f+p9llvD8Yg4vLV6E4K7dsDDN18NJ8eavf9LhRra9XsWITU7XO1VsTPjjDHv1FgYjNZ6KCzNYGWJGr2Z4z7kBp+gRn7nkeWoNJZxQ9qz83Sezqn32BuS0/6OQ88gLO47Vn6ISUOf4am6BCkRP+29Hwmp+7kBNjh48FRSGv4gWqpsNI2V8if5VSNWsN8DHU++LGfif2aFwt7egKE978CEQY+pM214OGTDb4t4DQyqN1LS9LJRfmu2z0V6TiRfR4cUJJqdQny59VoUlWbyZ53O7cewMkE0VnZLyGn2WOQqzJ+yziqFh6CZTi//ez16dA3A/GljtFRBEP6XEYXjD4aUAzsnZ9g41DT3twQ0BdfW3vGS8y4pLVe9bzvVy295wxf5LVDjVl+DRY0oDVVQ778uqAF2cnCvs0EkGpJTg06Nr2n67sXjEtTgkhOnrkjU5s8sG9UbOWs2PvX40mis7JdKVm4BnvtgnVI2RmNE/4sXyRME4X8PUTgEQWhxzsQm4aN12/HIbbPQwc86q4ggCP+/EYVDEARBEIRWR5xGBUEQBEFodUThEARBEASh1RGFQxAEQRCEVkcUDkEQBEEQWh1ROARBEARBaHVE4RAEQRAEodWxe/bJpcu1z//zFIQdQVlaMhy8/ZB//HdUlhbDwavmYlBpG79C9HP/gEuXHnAK6KylmjCWlvBKorSwF2yaEPjCCioL85C6fhXSt61DSWKsuv5lsHV0QmlaCnIP/oriuEje7FzbwL4JkWZbAmvq7VKh0OjR57fCy60rLwOelHYEFNDM1tYU54QWzqKYI/tOvYVzqfvg49Hd6tUwmwNFu6WoqrQUuovBW0ttOfT8S8rzYXBog9Nx33EMmNa4liAIwh+BWDgsSN28hjdjWQlS1n2MwqhQTVKNe//h8J0yF4YuF6+emHNoF2JffpBX/GxJKJw9LW2ed3wf3IL78V/ap/Ty7DTknghB7tG9SFr9NgojTXFD/kisqbdLhUKj7zm2AhQl9UzcehyLWqVJiCqs33sP9oe+x/FRcvLOYe2OG5CWc0aTtx60+ieFbKfytQZ6/nTPdO/7Tr6F9JwITSoIgvDfhygcFtjVChdvuU/Wi7KMCyrNHX4zboKDR3VPU5dVFuTCWF6Osqw03i/PyVRtYvW6avpxtdPJKlJZlM/nVanzaZ82ncKoUyzv+vCrfO0uS15BRV42p7v1GICgpS+j873L4eTfQTvjYvRrl2Wm8jVqQ9djOZXBWDPYFu3r92RZLp2G6k2nqKQMWXkFMDYxii316nVrBmFn56Q2R/6cnZ+A1MxQXDHkKYwf+CjmTPgMXh5dEXt+F8tpWfC8wiSUVxSpY+P5MykpNanidArDTsfXhtJIRufTEugNQcfmqDKR1UVHP7/2temY3MLzXDaS1c6fllK3XG6c6qC+pdUFQRD+GxCFwwIaEqgPsl6E3T2dt/AHr0NhjCmMOKHLEj99FcUJ0TizZC7vW1o7Mnf9jNCFU1TaEkQ8fAOinrlTNd55LItf+RyinroDZ/95L8KXzEHcW08i/P5ZnC9RkU/DNC6wczY1OE5t2yH4n5/CrZcpumdjcPkWTUXEsgXq2jfizMPzUJIcbxIqxSf5m5Vc3sgnbkHEQzfgzNLrUZqWzGIqY/SzC1XaPJafvvdqDhRXVVHdqDZUbwQF8nrlP+ux+KXPcDgsRku1DhdnH7OCURtqhG1sbMyKAgVFm3/lN7i87z28fzruB3y1/Tp8seUarN4yk0Otb9z/kJKYGn6KI/L5pun4bNNUfL/7drz3/RAcifiUZUTY2XV4//thfO6qTdPwyU8T6rWeUF5fbp2Ng+EfmhUkyovypLzpGnQtOo7IKUjAmm1zsWrLDE7/dOMUfLH5arOclAtHRw/+LAiC8P8BUTgs8Bo5Gf7T5sPW0YD2cxfCtcdATQJ4j52KweuOou8Hm+DoU7OB1WVdFr8A1269MWDVHt7v8fJq7u1To52+5Rt0vvsZ9HxtLXq/8yM39DkhO7QcAL+rF6DrQ6/CsV0ggpa+BM9RU5RSc1qT1kI1sg6ePrB1MmgJ9UORaUsS49D5nuXo/+8d6PfJdjj6d0LapjUsJ8tFzu87EPTQCvT7eBvfX5thE1CWYlJI8k8dQKUqf593fmB58AurYOfqjvLc6kikDdUbYXB0wOSR/TBpRF8Ed6nfClMXbT17YWz/pXA1+KFX11kY1vN2TQKOPHtZp6uw/fBTPJRC4d9rWyFKS/MwdeRrWHz9Ccwa9wHiU/bhQpZJWSSFglg0az/uumY3Jg5+Eieiv+RGv9JYjvTcaEwZ/k88MC8U9889ztc7ePpDPqcmVfj91FvqfyPGDFiq9k3RXimvyUOf47wXztyj5FXmaxIUzK5/t3lctttnbEdJeS5izm/XpOB7pXume6c6oLoQBEH4b0UUDgtcuvaEW9+hsLG3h8eQsXDya69JmgeHlTdWwt7Tl4clyPfCxuCM0vQU7QjVRKlr2hoMqtGm3rwNN+otgY2dPdpdexucuwQja+8WZP22ST11G5Rnp7OcrCakFGXt24qC00dRUZSPgBvvgfuAkSynMPhkpcnc9ROKE2LUvjc63fGYUrr8WU40Vm9khRg7uBdumzURXh5NGxZwd2mHvt3msvWCQtp373ilJjExaejTmDfpK9jbGbDj8DNsxbC0Qri7toeXu8m519ujG1sfijQrQm7BeXi3CVLKQRoPe9jbOqG8vBilZXkczn7i4MfRzmegKTx71BfqRmxRUJzG5+oUl2TjdOyPiErYivGDHjNHnKU8qqqMqvz+nDdFnHWwd+Zr6pDlxtfT5AtkcPTgqK1Gi+Esule6Z7p3qgOqC0EQhP9WROH4gyDfh9jXHuFhCdpKVONtX4evQ0tDQx/n3n0akU/djpyDv7KDaVlqoiY1+VsE3vOMUoIK+TgaMgl/YI55yMWt50BWQOhcGloJveNKxL31eJ1+IH8ONqpRHo65V3yOxXNPoI1rAA6Hf6LJGic6cQe+3Hotb7uOvaiUAqX02djzLJHvd9+JNduvU8rENsQl/4Z89sOoycEzH2D74SdZKWjn019LNVGilI6f9t5vzj8rN1YdV/cwCc2suePqnRgUvEBLEQRB+P+FKBx/EPZubRC8/BMeltA3/1m3atKmYSwpRtKa91AYXe1HUh/FiTEojDyJoEdfR9DDr7KDaZvBYzWpCefAy9BNyft+uBkDv9gHh7btkLV3s0loYwPv8TPQ48VV6P/ZrzwkVBRzGoVxrT8TpDFSs09jc8jDZqsDOVnSsENeUbXlqDGCA6/iIQ19u/OaXfB0D0Ry5klcyAzFzLErMW/yl7h+0hfo3G6MdlY1EwY9gTtm/IKqqiocCFuppZogq8W8K9fUyJ+sIIIgCP+LiMLRgtjY2aFSKQOVNIRiga3Bhf/mnQph342K3CxEPb8IGTu+4/TGMHTsinJ1TlG0abopTX3N3ruFhzB0aOjExtEJRbFnaswysXUwqH0jKrJNwwh07YLwY/yZoFkr4Ytnmx1UyecDFjNJsvdvZydZ8vUgqiqabtmgxvirTXux7K2vkHDBVI4WQeUbm7QL4XE/0g7yiy7gfNoh+LgHmeSK3MIkJKYd5M8pGSd4yMLV0Jb327h1RHL6MW2YowqHz/wbqzbP4HzI0lFVVak+m5QXSktOP8qfa+PhGoBxAx9W5diAuJQ9nKZbMs6e/0X9byobOZ/WVkqay8ff7cBbX25CeXnNmUWCIAh/NUThsBKyKBybO4Rnc5QkneNZJrRP6Tru/S+Ho18AwhZNZ9nZFeRASNYND3S8axnSflqNEwvGIHTRVNi7esBr9FSWNwYtMuZ75RyV30Navg/xPqXrkANpwE33IydkJ47PG24um6FDZz427u0ncPLWiYh69i44tA3QzgIcvf3gPeFqnHv7ST6HymcsyIfPxJksr31Pkctuhnu/EXDtar0DY5lqDM+lZCAlPRuZOflaavPx9+6LsQMfwv5T7+Dl1YF4//vhMDi1wegBS7QjADdnPxyJ+Ayvrw3G5gOPoE/QbHVeH5YN6Xk72vsOwEcbxuK1NZdhf+g7GKrSyFeincq7b7frsOXgY3jzm174cttsuLnU79PTs/MMdPQfjt+Or2B/DfLluHLo8+z/QXl/8ONInnUyIHi+dkbzodk/SanZ8PNuAweH6qnDgiAIf0VsKosSay9MILQiNGOFViK1cXDQUqyHLBcVeTmw9/CEjcXaFNZAPhe0AigpP3VSVcVWFHIirWv2i74+iH0bryZfm6D1N0jxMDg1/b6tgYZVHO1da6xVwc6ekaswf8o62NjYsmOp5doWOjSzpbQ83+zwaUlDMmuhGSvkEFrXtZtDVm4BnvtgHeZPG40R/S9eiE4QBOGvhFg4/mCowb8UZYOghp6mw15Kg0/XrFfZIBqZakvn03Lll3JtwtbWttWUDYIsGQ0tjGVwbFNvg0/p9SkUDcmshc5vaWWDSM3MpceGju1MQ0SCIAh/ZcTCIfy/heKwpGadRo/AqfUuHiYIgiD8MYjCIQiCIAhCqyNDKoIgCIIgtDqicAiCIAiC0OqIwiEIgiAIQqsjCocgCIIgCK2OKByCIAiCILQ6ds8+uXS59vl/noKwIyhLS4aDtx/yj//OC2XR2hOWpG38CtHP/YNX+XQKMEUh1TGWlvDiWLSwFy+Q0EKUpqUg9+CvKI6L5I2WUHfw8G7RazSXvKN7ceaRG2Cr7t01uGYQs8ZorN5oQbLIx25C9uFd8Lp8co0l3ZsDBbbTnzMteEbLu9s6ucC+hSL10rTc6PNb4eXWFSmZJ5GUdgTeHkEcsVYnMe0wYs7vgKuzL8deaQpl5YUoLEmHkyOV96/zXbAGWo2VFlRraO2UPwOjsQInY9Zg36m3cC51H3w8unNgvT8C+h4UlmShjWsHLeWvAZWLwhO4GLwQlbgN2flxHHmZvrt5hcnm8tLnTzdNQcS5n9GryzWtNhWdwgREJ2xBG7fOsG/gGhSAMTpxK4cZoOjPZ85tUN+5Qi5v9T2p92ijVPG92djY1XlP9J3JK0rmtXZsbVvm3dRc6N2TnHGUnxNFz6b7pfdQcWkWziXvgZd7lxrvodpQHZ+O/R7n04+ofI6Zt4zcCM6H6t2a91ttxMJhQermNbwZy0qQsu5jFEaZYpdY4t5/OHynzIWhy8UrO1KDFfvygxzOvSWh2ClJq99GrmrUc47sQdTTdyF57UpeHfSvAtUH1QvVT1NprN7sXdzhM2k2fMfPgK1jyy2gpT/n7JCdrPAkr3kPpclxmrT5JKSGYM+xFRz+/kzcehyLWqVJqjkc/jF2H3sJJ6LXaCnWczruB6z79Rb1EsnRUv572HviNfz8+wPa3l+FKqzfew/2h76Htl49kZN3Dmt33MAv7D+CwxGf8vfkr8bRyC9wPOpL/p4dUt/X41FfcTp9d2OTTTGYCBeDD/oEXYveQbOVImmKH9UapKvnsffUG/y7aojyymL1LN9VZfxVKQxJSol8Uykg21hRD1HPmGIrWQPdN/3O6PdWFzkFCVizfa76ve/XUv58zqcfUr+x11FSlouws99zDCeqr/iUffwMK40Nx8TiOla/0WilqFCkbNpOxXyN30+9jZJy0/vGmvdbbUThsIBCtVtiuU+98LKMCyrNHX4zbjJZGDR0WaVqtIzl5RzojPbLczJrKAX6cbXTqbGrLMrn8/QlxGmzxMm/AzrfuxzdHn0DXR/8F7J/34qS5HOaVKHyo3wpf7pObSqLClhGwdrqCi2vl43LYBH8jT6XZ2eoxrnUlH+t8+kzpdH1/abPV+XspElM0HXpXvT8Le+r0XrT7qk8NxNeo66Ex5CxdVpAKE/OR13LEsqfzqeyUxnN+WroAe90bOwd2EJjCfWCcvKLUFB0cZ02hoOdcw1t3071gCx7SAXFqSrvcwj0H4XE1APcI9MhCwAt104vx6y8WHNEXEJPKy7JhrGqgl94tE8vVVVi00EK/bja6dQjyy08j/KKIpZl58fzEu46dB6lk5xktc8nKI+cfNN1qazWQsfSOaUVhep+S/kzbfr9kbyu+6Br0TWtKRvtUzrlS8dbS7a6RmpmKK4Y8hTGD3wUcyZ8Bi+Prog9b2pUG6s3HbqX+uqlKfVGedOxtZ8NnVvXfdN1KU+9jhvL31q83AJVGUpU45WHsrIClW8W511aUQAPji9kqm/a+nadgx6B01Razd+pNWVrqN6oDszP2+I33BC0urDB4KWeVwmfV1VlVHmcU41tmSpxFVycfbQjq7+X+vfMhOm+6PdFvzP6vdExtNFz0J8lHUNBIQuL0llW1++prnQd/b7pOL2eLGnomdeHu3ouZG2hctN31lhVqe4jnpUwe6UMWmNZdHR0w1UjXuJI2XMm/JstfZ3bjUYb144sb+z9Vhd/DfvPXwQaSqndaOlQL/zcO0/xZ4r+2v2Jd+DWaxDvW8qIM0vm8l/Xbr3R/ZkPWHHJ3PUzzn/+KpzadlANXwac2gci6LE3ebnx+JXPoezCef4hGctL4dguEMVnTyPw7mfgOXwi52WJoVM32Dg4clwVdKAGNw+xryxBaUoCHDx9UZqehI63PgKfiVfz8fq1bR0pAqr6wqot6LE34KYNfWT/vh0JH/+L86RhBkdvHwQtewdOfgEoz0pHzPN3q3t2VeVO59D4FL222xPvctkLY8IQ8+JilW6KkNtl8QvwHlsdlO7C+s+RfyIEVZUUByaLI+l2mH8f2k69odF6I8jyUXg2nD+3GTaeFS4dUnbOvf8Mco/8xkMilHe7mbeh3ZzbWTGh/FO+/ZDvuyIvGxWFefCdPAedbnuY5bSMu11Dy70rYhIv4JVPN8DFyQnL75kL7zY1ldKGoBdaQz/AtOxwVKoXQs/O03Dw9EoUqJ6C/mOm3sW5C/vUi6wcpWVKGa0swui+D2BU/8Xc09p28Ak+jqAIt0Rbzx4cN4ZeDEdUb/m3Eys4EF0Rm+k7Yq56cdAy6/QC/eaXm9Q9eXOk3HLVmHi4tse8SWs48i3lHxL2Hij2TInq3dHQR6+uszBj1OvqKjb88vt+9x3q5agUcBv1PTSWYpxqoCnwXWPQfR2L+kLbAz7eMJ7/dm4/BjdOXsvRfrcfehrXTfyUg/MROw4/rcqZqMr3FZftgKoriptTWJyBMtXo9exyjblsFLdm3S8380uWzOVkGra2bPTytFHfC3rBE07qhTv/ym/4M6HXm4dLAJuTK6vK4Obsb643akx+3LNI9S4PqGM6IFu94Ad2n4/Jw2jUumn1Rnn9sPsuGFGB65TiQzT0TAmyGBUqJZZ65JUVpaiyMeLq0e+ge8crWX6peLfpxj1dagxdXfxha2PPjV+5qieKuKxbANJzIvl4/Vla0lDZGqu3DFXX635doBSeHK43nzbdTZlagZdbZ2TlnoXBwQP+Pv1ZqeeyK6XRU8mIPapOj6q6tbd14mdKQwRUr7Y2djXu67eTr/JG/G3Ei9z4frn1WhSVqo6MYlPIQ/zXwd4Zs8d/hKCAiQg7u059f5/lvEjhcXLywBz13fbzNAW//OXI8zga+Rmc7N34fWGj/lEHZMqIf7G8sWdeHx6undTvugj5hSl8z+18BqCoOBPp2RE1omnXB5WB3iXuzu14Pyn9KDJyojGs1528TzT2fqsLsXBY4DVyMvynzecGqv3chXDtMVCTqB+dakQHrzuKvh9sgqOPn5ZqQpdRY0uN5YBVe3i/x8urWdkghSB9yzforBSInq+tRe93fuRGPydkh5YD4Hf1AnR96FVWNoKWvgTPUVNUY35akzaMnk+f937i/APvfIKvR9elYQoKgx8w/370+2Q7+qvN/5qbUZpoGjqgY1J//AwBN96L/v/ewXJ773bI2FltPjSWl8H3b3PQ7+Nt6PXmOlTk5yD/1AGWkdI1cPVevme697ogC0P3p9/n63e89SFk/rKBFYDG6o02+kxp/rNv03KrpiDiOIrPRaHnK19x3kFLX1HK1foalp/K4iJ0WfKSSf7QCuQqJaQkKV6Tgp83PXd7tzaqju6DoZZfTkc/H0wa0Q9Txw5UL9emmYnbqpfK2P5L1cvBjxvsYbUaFlp23dXZj19cSv25yMRLL6j5U77DA/NCMarv/QiN/Va99FMxKHgBli1I5JceKRkPXH+K9++4eicrG9Tonoj+EpOHPoe7rtmNhTP3cI+OXn46FarXF9zpKiy+/qQ65lc2sVqajMvLi3D1mHdYPk015jTueyErjGXp2WfUy3QC7r/uBMtH93tAvbA/47I1Br1IqayDg2/mhok+06Y3UIH+o9k0H35uA+9TnjR23DfoOvPLrbQ0D1NHvqaufQKzxn3AZmK9bPo9Lpq1n+994uAnuS6oThqDXuaXqTrZfvgpHkoJVXnV7pGWlxejS/uxfN8LZ+5VCoqtud7ikncrpSIGt07bys/iuvH/4bFzes5EU+qNypyRG8nlJ98Aa54p4aYaprtnh+DBG8K40aDhkOZCjXWF+j7k5p9T39e26jk4cCNLDZmLavjoO0f3qz/X+qivbI3VG9WvwdET98w+zPUW0HYwPwdrcFZKJylK+UrJI98NavjJH8PO1pF7+cVKiSGles6E/5ifaVlFIQ8f6PdFvy/6ndHvTf++0m+Q/BXoO0jPghQvsgSQ7KEbo1jZoN9Uem40pgz/J/+G7597nL9jB09/yGUjpZh8TCYMWsby6yauYh8THWufeV042Bv4nWKyzlTyvZeU53FduKvORWPQd47KqvuknE3+lc+j36dOY++3uhCFwwKXrj3h1ncoOyWS+d7Jr/EHYw3c+zdWwt7T12z6tzE4ozQ9RTtC6fHqmrYGg1J26KVqA7smOC5SPoaOQeahBQq0Ziwp5OvaGVzg4NUWOYd3sWMnDVv4TbsRPpNM4efpGGNFGZw7X8b7dG7Q0peVUrKA9wmyBBgCuvBnsiRQaH2yWFiLU0AgB4YjKB+6HikhzYWGSEz3Z9L2a1h+NJx823EIfsK5c7CqY2elMFWbLOl503OndLIm2bep6UTmbHDEjVNHY+qYQepF27SfC/VK+nabyz3lTn7DavU0qxCfuh8d2g7h3rGb2hIuhGgyEx7qJUYygsLo04tD7303RGlZHisr7qo3Sr1qMtFSr4usGTr26oXk72OyIHiol1Ebt0DuDem4qXM9VRrRXvWOqLEv0hrtHp2nY1S/xYhK2IrDZ/7N+VLDbE3ZGoPqqqfK/5xSIkrLCnA+7TCbqzu3r37R0YvPy92kGJJTHFkm9LJRWbzbBKmXtclMTb1WapyoTqxh0tCn2ZJC1p0dh59hC4ylD4eDgzM/C4J6ma7O/uZ6o5c5KUtkaqdrK21EPTOjKks6y62pNxpqOpeyl+XDey+Ev1cfU7oVz5TwZoc+Gia04d4pmdR1fvxtEd75dqB523P8FU3SMNSTpYYuVzXU9J0mJYuGEqjeqVG2lvrK1li9lZbmwuDkyd8NItB/BN+7NdCQDw39kKWLvs9kKSQFj4YLHO3d4KwUmSuHPc+OpUcjP0d43Hq+L8vfwqVCjqoTBz+Odj4DTZGrybKn6o7ulyCFjerV19PkD+jlHshDeDrWPvO6IAugg70LX4usJvQbz86LY2umbrWwFlJ8SAHs3eUa8zMgGn6/1Y0oHH8QpAzEvvYIIp+4hbeShBjYW/iINJfs37eZ8078dAUP+6hfDv94O97+CBx92qn0VxC+eDZCF/4N+eHHtDMvhiwL1OOvC93qYDlsIjSd3MIkfgHEq8bl219uVi/wOG7YLP04mgONt/+09342+dKWlRvLL9WWgF6eH/44mp3EyJksNStMvRitV0Abg6wARSWZSEj9XTUAG9BRvcyot2Ut0Yk7zPe969iL6sWrFHkba0ePbdTLczjmXvE5Fs89oa4bgMPhn2iyxrmQFYqvts3ha1P908uelB7CmnqLStiC9XsWsQWqoyqHJU19pmRNshzaoIb171f9YN5IobEGGnqgIQi6N2rA3QxtkZxxXL1a7LhhuxRql62heqsNXVeJrYIsDzT0k5l3Fp6qQXe0c6kuO1k4VCP+xZZrePjq7Plf+bmQr0ZLQL/l73ffiTXbr1PPdRvnnc9+GPWh7lopJJZc6u/YWSmCDur+kjNOsJXCWykyWfnnlBKTW8N3xRrOnv+FFeNg9s1pHqJw/EFQAx68/BMeltA3/1m3atKmUWU0mj7YVTvseCkFwDLvniu+MvfsHX38eTinz/sbMfDL3+F5+SSkb/maZXVRFBfBU4SF1iMjJ4KMHOjWYRK6BoxDUIcruFdFJtCWgKbYzrtyDZt89W38oMc06aVDvXEyNw8Mvgl//9sPbEYe1f9+NlG3FP7efVSvsB+ORa7mYYXgTn/TJNYRHEhDRdX3fec1u7ixaYzU7NPYHPKwuQdKvXEyG+cVWd/bJWvQvXMOma9997UhCGw3yup66xd0He6be4wbiL0n3qihgDb3mbo5+/EwgL5Ro2QN1DBTzzqfpsCqBpx64eR86ezk3SQLR0PUV291wUqadb6TPORDylJ5eQErTmS5I38g3Y+BGtPismzceOU3/Eyun7QKPprFobkkZ57EhcxQzBy7EvMmf8n5d243RpNqipO6D93CRcpPUbHJqqPTnGdOz5uc0klJZJ+OikK2Ium+K9ZA37+w2O9Y+dWtis1BFI4WhNbHqCwpZudFS9jaoMg7FUK/FlTkZiHq+UXsW9FUKosKkfbzatjaO5qHOZzatkdh+DGUZ6svq8o/89cNiH72Lr4O+XCQ1YPWDyEZmegse1XsK6HKRw6WNCOFzkn44J8oiDipHdF8yM+i+HwsX5+UGSq7XidEffXWGDRMQ0NERdGnOe+8kzQkYQNHP9MwREuQW1CM5z9ch3fXbFG9g4ankjWF8+nHeGjg8j73sCPWyL73wt7eyeqpegSZfsnrnJxKLdF7QPQyVRXD5uTVW2by1LjmQmZi8kYvKErllxdtMapnSLMYmoKtyocaARo2uRgb9O92PRLTDqiGzrXGuDFB1qHEtIP8meqLhlxcVa+boAYxWdWtyexcxUMT5FRLddAo6jsUm7QL4XE/0g6fQ06slk52ZHkgCwrdN10jT210TYJe8NSY0ZoEBE3B/M/Pk3m/KfVGis4VQ59Vvf6TOHnW1DFozWfaGDS8RJSU53LDRT4d+UoJMzjVbQVtKg3VG0H1S/VM9U31Fpe8j2ea1IaGjL7Z+XfVsFb7dzipslKDTv4MVF6qR5otovsx0NAiNaqFmpKZknmKnUwtIasDnW9SRC/WdHTFoai4pp8QWdboXUt1RdAzS04/yp8JGkLxV4r19oNPYfuhp/DzvgfYoqHT3Gfu7OjFVlRSEKksVC/khG7NDBUd3Vm05yVaN84mpuLRN1YjNMrUkRKFw0qS1ryHY3OHIOzu6ShJOoeoZ+7kfUrXce9/OTd2YYums+zsiqWcTrM5Ot61DGk/rcaJBWMQumgq+0F4jbZ+WIJmapy8ZTxO3TYRhZGh6Lz4ec6X8JlwDVx7DkTYPTM4f1pPgpxQyR+BfC5oGi+tN3Hs+qE4Pm848k8c4DSCFI4Otz2MnJCdLDt1199grxpy36tMM0YaI2vvFr5XKhuVkWadWN47QQrR+U9e4rKlfPMh/K+9zVx2or56I3+U0IVXcRo5tuYe3sOfKY1k7n2Hoe1V89TxS/jekr54C+2vX8gWnZYiJ78QyWk5iE/JUC+D6vHw5kAvOJoG2867P/tGEPTSdXcN4IV2rKV7xynce/lw/Ri8vLoT1u68kdPJt+DKoc+zCf+1NZfhgx9HwlG9vAYEz2d5c6Dyjun3IOIv/I43v+mDt7/tr+oll1/cTWFg8N959sub3/Tism8/+KQmMRHQdgg3NEEdJqoXb82hR6qrIxGf4fW1wdh84BH0CZrNVhFiSM/b2cfiow1j+d73h77Ds0BovLkxaFbM2IEPYf+pd1SZAvH+98O5kRo9YIl2hKmBovul+6Zr0Pg6jWMTl3WawutQfP3LfLy29jJs2HcfenWZqXrvpufclHqjHn//bvNwMOwDtia05jNtDJpe6uDgxo09NVxkkqchL2rQCPIvIJ8Qeo7kp0BOvPSZ0tgnoxEaqjeC6pfqmer7rW/7sm+H/rvRobrMzo3l74ylfwdZCKiBJX8Re1sD/16o4dYX/CK/g8B2I7Fmx/X8Xdx24PGLvit0/0N63aqU10/4e0HfO8v1R0hx6NX1Gmw5uKzGfbdT36e+3a5T6Y9x3l9umw03df1qbDBr7EpMGfECK8z03aMZQTrNfeY+Ki9yFCUFkYa+SNmga+oKpDVExG+8yFm0KWRk56rvShn8fT1536ayKNFK45TQEtCsEFpRk5wzWxqaJkqrZlo25paQH4mN6hWTklEXJLd1cGIn0ZaCFLKS87E8nZXWGiHLBpWhRVE9U7KOkHLVGpSXV9LvVL3IWrjcfwDk8OXk4K4567UkVdzjc3Hy4TFiHRqW+P3kWzzmawk13FcMeZqVBWugF/q2A0/g2gmfmKfHEvTyPRa5iqfsUc+TXp513RtdnxQay+mDTSkb3Ru9pC17g9SI0LRYmq1AsyzIOkGNUW2oYaZZHKb8ajsb1F1vTaH1numfS8P1ZlIq6nveZLX4atu13GgP6N50JYysIGQ1aakhIkvq+i7WBT1X8mMZ3OOWi6ZK1/XM9558HSkZF1uie3S+qtE6aKnfaWN8t+MAWzeW3TlL1a2jKBxC62KpcAj//6EXGPUgaztDktMmzbixtpHdtH8pm9lpxohlb9ZS4Whq49DcslkqHDTtUfjrcDZpJ7YeeJzXuGjn3U9L/etDs32+23ULikqyUVlVqhRYT8y9YjV8rVhrhBTXsvKLhyTpd9HYb6OlfqcNQWs+vb5qI3w83XDbLNPvRRQOoVUhnw1jYQFPPxUEa6Ahp8iELfD1CjYvkKRDC27R+gw9AqdeZFZvbcjfJDpxCzq3p6GUpk0tFIS6oO9URMJPSnEogo9HEALbjf5/Z7myRBQOQRAEQRBaHXEaFQRBEASh1RGFQxAEQRCEVkcUDkEQBEEQWh1ROARBEARBaHVE4RAEQRAEodWRWSoW6PFDaNXO/JMhsPduy5FE/1ug5cuT176HoKUrONpti1FVhfLcLF5Yq75FwSgSbewbjyLgxvvMq5g2l6qKCn4OdG1L3PoOrzOSr7GkGHmnDsCtxwBz1NfWfKY0RfN8+iH0DLyGA69RrAl9uqbldDcdWt76sk5/M0+ppMV8Dp5eiYycGI6AOSj4lhqratK6DwfCP0BRcSa6d7wC/bvdYDE/vgox53fiVMy3fL0hPW9Dx7bVU49pEaVTZ7/m5bNpZcjLe9/N8TN0GpM3t2yn49YjMn5znWXTobUAIuM3wsujGwJ8B3KaPiVWjxRKWNYb1Xls8m5NYoJWaaw5TbYKUYnbeBlxy/rWoZDkdF1He/ca51nzzBp65oIgNIxYOCxI3byGN2NZCS8FXhgVqkn+O3DvPxy+U+bC0KVlgg/pUDyW2Jcf5Hgr9UHXpGtTGVqKqsoKFESdQq5SZpJWv42MX35E7gmlgGSb4h7UhlZKpWXdS5LjtZTWfaYJqSHYc2yFahzTcEY1sBQFVKe8sgjxF0I4QiRtZ85t4HDgmbnRLM9QDdeqzdNVoxWJzu1GqUZ2M0eVpABORFzKHo6bUFlRig5tB3P8hO9338UNMrHz8HJsCXkUvp6X8QqG63652RT+WkHH0LF0Dp1LeVBelKc18pYo287Dz3LANFJCvv3l7wg7u45llhwO/xi/h75TY1XDsopCpeh8gIhzP5vrjkLV0wqUBDXwejptRyL+o67/PseUIUiZ+G7XHRyXguo73SK0PJGUcQyrNk3DrqMvIiTsXb6eTmPPjGjomQuC0DCicFhQe8nvi5YAp55+TibH8TCW1gy6VFlUwA0epZOcPteG0vRz6TOdY8Yi79rn0vEkM5aVoiwzlT/T8Tr6Ne1c3Nm64OBh6t3r6Ne13GpcW0H7LMtK4yBujF4mlWakZdMt8tHvn5ZTpzLRsX7T58PJvxOn16C+etPS9fqoLSdrSsCN96LzvctVvh04bkrQ0pfZgqFDZaXymcqtRdG1oNFnqqC1/rPyClSv/+LzG8LBzlk1qNXLnVNwLr2nS43oNWPe5QiRE4Y8zhaD0f0fQJf2pmiR0YlbQdE2Z4/9CCP6LMKM0W9zcKzkDFNwp7DYH9DRfziuHvM2Rva9j8N5U4TZ7IIEFBSncqM/ftAyjBv4KCYPew59us5GRPwmdWYV0nMj+dhpI1/ncykPf99+qle/hfNuTN6csuUWnkfM+R2YOPhJXiL5anUuWQhOn/uJz9WhpZWPR3+JUep8WtnQEqrD0QMe1KJ3fmFa3tzLFCulS8A4c3pQh/GcNnXUq+YlxvedeB2lSumYe8UXvEyzJaQw7Tz0NIIDp2LcoEe11Goae2ZEQ89cEISGEYXDAgctnHtdUAwUCtgWvli92JctQOjCvyH79+2aFLiw/nNEPn4zIh67ieVh/5iKzF3VL9mUdR8h9K4pLIt84lbEPH8Pn0NQYx/z0oMIf2A2R3alAHHJ36zkBpkgy0LU07dz/pGU9z3TkfjZazXkdA5t4Q9eh8KYME7XiV/5nFmub/q1idQNq1TaNM7/zNJ5iH52Id+vbtk4s2QuihOikfjpq+bzdWsHXYuuWTtdp6F60/OPfe0RnFF5nHn4RlUH1/K1rIHqjcpK50Y+9nckfPhPVFXUjOja0DMlikvL8Mp/1mPxS5/hcFiMlmodNBTRWGNDgbd+3ns/Lus4BcN7L1QpphgRFIre4ORpHqZwMfhw7I48lU7QssXuzmTGNx3PIaXVx7zCRI77QMMRbi7V99bWqyeKSzLV/eQoBSqDj6VQ3CZs4O3WVSkEJstPY/LmlI3Sb5zyLXp3ncUyghppCp6lQ5aQ346/xoGqena5RkuthoZ79JDd9RF29jscPP0R/jb8XxzoTGdEn7tx45XfKuXBFD3WEroHWvqaFCFbivBZD/U9M8KaZy4IQt2IwmGB18jJ8J82H7aOBrSfuxCuPUzjykROyA7Vmy9Dn5Ub0f/fO7jnTRFMqUHVsXN2R/ALn7G83ew7kLHje25Uy7MzVCO7A53uXMaybk+8jcrC6vNK05Nh6NgFfd7fiH4fb+O4I1m7N6EkqXpooLK4CF2WvIR+n2xH0EMrkKsadl3uPXYqBq87ir4fbIKjz8UNLOVHcto63/MsR1P1HmcKN0zh7ivyc9H9qZWcd5/3NnBDnv37NrYG9Hh5NQas2gPXbr3RZfEL5nzomoRbr0EYuHqv+ZjaWFNvTu068rX7q80xIBDp26wL219w+ggq8rLR6811fH7bKXNUvjVDtTf0TAmDowMmj+yHSSP6IrhLBy3VOtp69sLY/kvhavBDL9XADqsVcIk4HP4J0nMiuYE8FP6xSqnpMkWN228nVnBgqrqgIYD9oe+iwlgzyBKjFE6KLRLJlo2LoXPoXMqjLhqTX0rZaAiljWtH8/LMeYXJPAwR1H4c7xM0VEGh18cPfEwpH+U83EJxHXQoiNb63+7myJtvfdMXu479i5UQHbJUHAz/kM/55ejzNcrfUBwIUhTcnBuPJNzQM7PmmQuCUDeicFhAzoQU88PG3p6dLi0dE0vTU9jhUI/E6tz5MhgrymAsqXYwc/D1M8sd/QOoq8aNAvki0EvLENDFJFO9bqdO1WGIXToHI2De3SiJj0bmrxtQFBfJ51Xkm8bMCSffdnwe4ayOtzU415BbQ8Hpo0j68h20n7cIzh1NDoJ2Lq4ImH+vys8VWXs2siJjY+dgGiZpAaypN9fg/qoTacMRdF2791UKWrXDYENUlhSzI6seJdY5qDccPExhkHUaeqaEjbru2MG9OLiQl0fTos2SIyGFziZLQCe/YRzqujY03PDoTXGYOPRJHAj7ANGJ1VYxgqI9noxei6y8uq0rsUm7cCpmLUpKLn7W5RXF3Cieid+opdSEzqFzKY+6aEzenLIRZIXZemCZUuo8MPCyBZxGCsj+sPc49DpZJsgXYu+pN8y+Fs5OFLxqFRbO3MPb+EGP4VT01wiP+5HlhLOTF+64eicemHcK7XwGYvP+pTz80VI09MyseeaCINSNKBytBFkAyDpQl88AN6621VVPjpFh98xAyrcfslNkfvhR1SjXHBpoLuRIGb9yOXwnzYbPhKu1VLJwmIYlYlcsQc7RfXz9iryas0L+W+A6tajXvwrU4+7b9Tp4twlip0RLenedifvnHkeA7xAtpSZjBzyERbP3w63WTAvCwcEFC6ZuwKxxH2gpNaFz6FzKoy4akzenbKRs/LhnEfubzJn4mXl45mzSLyzr1uEKnumSV5ikdGtLq48NPFw78IwZ2gYF/x1tvXsjOeOEJq/G2dETw3rdwYpXenZN59Dm0tAzEwTh0hCF449AKRhk7TCWmjzpqZGvyKruxWds/w4eAy7HZcs/ZqfITrc/Cvu6FJVLhBw7k796F87d+vCwApdHQx+WuGz5R3ztoCUvtfgslz8KdhptouNna3E+/Qj37vWZHXZ2DqoRc1DFMymS9NmSKhhVU2vD/g4EhYm2xFhlZL8DB3s39fjsLvJBqFT50jCGna0jn0t5WWKsqoSTOpdoVN6MsvG+sQK/HHkOeQUJmD3+I55FYwkpGV9uuxYfbxiPr3fOV3VUreCSM+nmkIfZT8SEurJN9WvqUPgnPItFx16VyUa9xix9RC6Vxp6ZIAjNQxQOK3Fq256HPIrPx/LMCJqqae/uCXu3mp7wdUFDIS49BiB+5fNIXvM+4j/4JyryczSpeghOzijPyzLN0FC9vfzQg+xX0SKo/Gg6aHlOBgIXPsHDFpbYODjy7Be9PMVJcShJqGVCJwXF1hYVtB5Gjd5o4zSn3hrDwdOHh5VK05K4XIVnjqNCKXNNgXrXX23ai2VvfYWECy1nlnewM6je/K+ITDD5VyRnnERO/jl09DNNGw7wHYRs1cPXe+5RCVtQXJbLzp8ErUuRkBai+TZUISx2nXoE9qrX35UbcBcnH55VQo07TQU9HfsDfD17wNHBVR3TjRvpqIStfC5Ncz13YS9PYSUakzenbLS/88hyxCbvwtXj3oOXu2kYUWdQ8AIsW5Bo3mjYhJxSdextnRCbtJuHiiivlMyTyMo9C1+vHiyvUooFzW6hMpM8JnG7urYdfNuY5M2hsWdmLWcTU/HoG6sRGpWgpQiCQMjCX1ZCVoLET1ewjwU1nOR4SU6c+hTNJFr/QTWq5KBZF3RO/qmDKE2Oh1v/EbxehKFjEDrMv081mMmIW/EQSlLiYWPvCM8RE1AYcRKBdz/DTplZe7cgfdMadH/mAx6ioemjMS/ci8B/PMVyujY5YtbGf/ZtaDeLZsTcjcKz4VqqiTbDxnNZzfe1+yel+LjAuVMQD02QgkRl08nevx0JH/2LrTO2Bhd0f+Idc9nOvfOUdlQ1F+VfR71RXlS2ttPnm51QLetRl9cuOzmv0vHmvHf9xD4aXqOurFFv1lBaVoHXvvgZUXFJeHDBdAzqSY1mS1CF/aHvYX/YO6ioKOEGuV/Q9bhy+PNsiaBhhR2HnkFY3He8uBQxaegzGNB9Pn8mJeKnvfcjIXU/KwcGBw/MGPUmTwslEtMOY+O+xSgszeB6JWVh5rgPzdYEUkCo4ScHTLpWz87TeRqs7szZkLw5ZSPrwJrtc9np0pK2ShmaP2Ud+19YQsMq3/xyE/424kUEBUzktJMxa/DLked5pgrl36vL1eay6dc+l/KbUj6MnN/kocvRJ+haPnf7wSfN65FYQvn37DyjzrKR8vb3q35ghamhZ2YtB09FYfXGvXhm0Vz4eZt8lwRBEIWjydDLvaqslBvdS4VmaEQ/exf8ZvwdPhOr/Sko3c7J+SIrxB8BWVfIubVOn5MWoCXqrT70tTvqWwW1MWj9jbLyShicWqPeq3h4gBo1asBqQxYKWtTKtPhVzWEOghr/0vL8i4YldKiBp2EUsmzUBTlTOjm419tgNiRvbtmaRxXyi1JZoairbK197YaeWWN8t+MAWzeW3TlLlV+m0AqCjigcfxC0MFXsy0t4aMNYVgaHNl7o9uR7cPKrueiRIAj/vdAQ3eurNsLH041nPgmCUI0oHH8QFOcj99he/uvYrhPcLuv3p1gyBEEQBOHPQBQOQRAEQRBaHZmlIgiCIAhCqyMKhyAIgiAIrY4oHIIgCIIgtDqicAiCIAiC0OqIwiEIgiAIQqsjs1QsKAg7wn9dew5E/skQjnJK0Ub/KuQd3YvYNx5FwI33wW/GTVpq61KalqLq5ZC2B7h07w3nTt3VN+fihaDqgxb9qsjN5uXMmzIVuKqigp9DOS2pboFb3+HVUV+rqlhOEWMvdeGvutCv7aTuVb9WUVwEjIUFHH22uVC9libGwH3ASF4ltaXJzI3B+fRD6Bl4DdJyziC/MBk9AqdyiHYdOqaoNJujntIxpWUF/JnSY5N3a0dVExQwAT5tutcp93LvzJFTKyvLEJmwBYUlNSP+6udaQtdMzQhFzy4z4GBfvSAcLTh26uzXiDn/q0p3xpCet6FjW1Od1742RW8N7nRVjQW6KF+KuVJSmqPKdAX6d7uhjgW8qhCVuI2XM++qyqZjTb0JgnBpiIXDgtTNa3gzlpVw/JHCqFBN8teAgqr5TpkL9/5Ni+3QHAojTyBp9dscAyXnyB5EPX0Xkteu5IbeWsqz0hH93D9QGBOmpVgHrXxKkXTp2lSGjF9+5Gi25dl6YC+gsrgQsS8/iJxDdYdYv1TM3wF1/zrZITv5+9ESUL6UP12nNUhIDcGeYys4/PuZuPU4FrVKk1Rz+My/cT7tIH8+FrEKqVmm7zudu+/kGzib/Cvikn8zb9T46vIDYe/XkKVknmIZBZFLSj9iTo9O3Io9x1/mRtwSWiH15733c7A2S2WD+PXoP9U5K3ipcVpR9Ptfb0Ncyh6WWZaNYq5sP/gUvtt1Ox9H0HFrt12vlKc8+Hn1VMe+ifV771GSmt/XiPiN2HHoaRhqLbVuTb0JgnBpiMJhQe1lvS33OcJrQS4vo02xTOizJY3JCV1WnpNZ3WBTD13t0/mW0Pl6HhQzpCwzlY/1mz4fTv6dOL0GWj6Uv77UN6OlW6bpZbWE9ulcWhGVLBKWOPl3QOd7l3N8k64P/gvZv29FSfI5TaqwuLZlvpQP5cd5VpRz8De+hroXuicdvV5qp5PFIuDGe/naVIa2V83jiLYcv0a/psrbqM6p1Muvthr3r9DvrUYdq/OpPJVF+abyKeWmrufQGHQ8X7eOejPfv5LXrm+dqvIyvm+6NpWpNkUlZcjKK+Dl15sCRXaloGY6dnZONXrpZInIKUzkRln/7OUeqEkBD9cAzBzzPq6f9IV50+O4EL7qPEuZHuKelli/cvg/OW366DdQUpaPft2u55gklpyI+pKVk+G9/6GlmKBw9qQ0TBz8JK4Y8jTmTPgE/r79EBb7g3ZEddnmTf4S113xOdJzIpTiZFJojkd+iY7+w/m8cQMfxeRhzyE1MxTZ+dWB1Gg5999PvY2+QdehvY8pFpJOY/UmCMKlIwqHBQ7eFDOibi6s/xwxz9+DyCduReTjNyPs7ulI3/K1JjXJKT3isZsQsWwBwv4xlYOK6WTu+hmhC6fw8uYRD9+AqGfuVI1QHg9NUE83/v3l5gaH0mOWL0KO6lETZBkIf/A6viZttXvzdDzlF754Nl87dOHflFKwnWV1WQCorPErnzPtqGsmf7OS84184hZEPHQDzixVPcQ0U2+2NoZO3TjCbEWeKbosNbgxLz2I8Adm8/mUD+XHCkFWOiKX3YyoJ29DaWoSYl9/lOV0L7q1g8oVtmgqlzvi4Rtx5uF5SpmJZ1lD6Pd1ZslcFCdEI/HTVy+qH1Je4t56HKfvm4W41x5B6D+uMpeNzj+7Yimin7sb0U/fzs81TpUv/ME5FwWLq4/UDavU9abxcz+zdB6in11oeqYK+kv7lE71cvreqznIHQ3V6FQUqmOev1vVkfq+3DMdiZ+9Zv4OEMWlZXjlP+ux+KXPcDisVgTfRnBx9qm3oaRIrO9/PwyJqQewcd8S8+etB55AwoX92lENU1lZyopKfXCQtX33w90lAJOGPltjSCNHNf4nz36NwT1uYeXBEgrYRtYKNxf9t2jDygUpIHVBygFtdnam4bQpI/6FaSNVPWqxXxzsTelVVdXKYEjou/x3aK87+K8lDdWbIAjNQxQOC7xGTob/tPmwdTSg/dyFcO0xUJOYoDDu3Z9+H/0+2Y6Otz6EzF82qIY3W5Oq3pCzO4Jf+Az9/70D7WbfgYwd33PDRo1P+pZv0PnuZ9DztbXo/c6P3LDkhOzg8zyHjedGszSdwn0DJYln2dTu1tsULpwinw5cvRcDVu2Ba7fenGYJ5UM95T4rN/K1ySpA0WP1xq8hqAee8/sOBD20Av0+3oa+H2xCm2ETUJbSeKNPlKYnw9CxC/q8v5HPJytI1u5NKEmKh6NvO5W2lfM0dOiC4Of/jcHrjvK90D2RVaEkMQ6d71nO5aZ6dfTvhLRNjQ9bkPWpx8urzXVCEWQpb9r0yLMFEcdREh+DXq9/zcd2f+p9VVe/mq0ztvaO6HDLEnS66wk4+nXAZc98CENgN47oq1MQfowj3dJWbBG2v7JIPdf8XJXnSi53n/c2sPKV/fs2luefOoBKVf993vmB6yX4hVWwc3VHeW4my4nK4iKOnEvnU/3nKkWJ6k3H4OiAySP7YdKIvgju0kFLtY62nr0wtv9SuBr80KvrLAzrebsmAfp2uw7XT/4SHXwHY+Gs3zB7wr+5p3/7jG0IbDeKjzFWVSCnIIGjudJGSgL5VuicTzuMV9d0w4qvuuLTn6fw0IglEed+RnzKPsSn7sPuYy+ahzyIQ+EfoaQkR/39mJWdA2Era+RdGwrgZgogZ6KkLJctJHtPvo6flVJDPhyd/Ew+HnQcHW+iCuHnNqKNW0e0ce3IKQmpB3Em/meM7v8AR7kNj1PPNrf6uTZUb4IgNA9ROCwgB1FyCCQnPo8hY6sdEzWcAgLh4OnDnw0BXWCsKGMlRMfB1w/2bqZw1I7+qudGZnClWBhLitTnSth7+ppN+zYGZ9VYp/CxLkG9uPErVA0kkXv8dzi2C6x76KQOKB9ycNWv7dz5MlPZ6LqNQM6W1Hhn7duKgtNHUVGUrxSWe9iZ0RpcOgcjYN7dqmGP5ka5KC6S77kiv1oRqw8bO3u0u/Y2OHcJ5jD3Wb9tUt9IG5Rn13Q4vFRomMLey5efA9U7WZNIydGtM1XqWhT+3NbJWSmZjuzQSsqmJaQIkt8IbWWpiVoqKTyuCJh/L2wNrsjas5GVBRs7B9PQl8LBqy0rm2TlIkXFwcsbne54jMPz6zgphcxRs6o5q3q0Vd8Jy3qzUeUdO7gXBwHz8qg7Gmx9kDNl325z4eToxo6g5NBpSUZ2pOr9u3HjnJsfDyeHNhYNNZCt0tb9cjO+3Hotb9/tugV5mg9Hn67XYuHMPbzdOn0zDAYvbDuwjJ1OdQYFL8CyBQm4bvx/2F/iaMSnnE75xiTtRLdOV+K26VswfeTrOBLxH1YerIWsIPFpIUhOP47yihK1X6QUmoutLUfUNeOSdmPMgIfZakFKz94Tr6BD26Ecqr6sohAhYe+y34ZOY/UmCMKlIwpHK0G9bOpV634gNIYf+9ojbF6nrUQ1QvaazN5D9eD6j0Deif2oLMxDwamD8Bw2rlVmL9SGyhd4zzPcYz/37tNs+g9/YI5VwxoEOXWG3TMDKd9+yI1yfvhRpexU+2E0BA0v0DUjn7odOQd/vahRbwkKI08i8slbuc5pWIUacRoSshbdb4S2NsOqo3+S0khDJrErliDn6D4ue0Ve9Wwat54DWXGj+6LjQu+4kod3LH1U/iyocSeH0ay8aHyrlIqQ0+/xZ8tG38ejG+6auRuLrz/B253X7IKn5uNBfhreHkG8+Xn2wojed6GwOIMdLWtiw34fnduPwTltqCYp7TDPPJk4+HFWcEjer/s8nEv5jRUJa7D04bjxym+UwrAfcbVmzZCysf/UO5g26lUE+o/gNDqOFJ5+QXPU/caxBYcsOYIg/DGIwvEHQVNCg5d/wuZ1ffOfdasmBTyHjkNxXKRSOg5wY6YPp7QKqpdviXPgZej26Ovo++FmDPxiHxzatkPW3s2atCZVuvOincmxLmP7d/AYcDkuW/4xN8qdbn/UrEg1RnFiDCsEQeraQQ+/amrUB4/VpC2Da6+B6Ltyk7nOaTjLtXsfTXrpFJw+wsNply3/yKSQLHmJZxGZUYqN9/gZ6PHiKvT/7FceSiuKOY3CuDPaAX8eZH1wdvZB/+43YPKw5XB19lNpt3C6NZBicjKmetjLxkZ9F7RZ0tSgbz7wCA/D6JAjpt6wl1cWq0Ntavh0ONaapVKbY1FfsJNnXRgcPWBv54SC4mplJypxKw/TkNNpbQtFaXk+vt99Jz7eMB6rNs9AZu5ZTSIIQmsjCkcTKD4XheLz6kVaVcVrMtAwiK2h4ZcloR+TdyrENNyQm4Wo5xchY8d3nE44d+2pet5OqgFfx46ZNGRjLU5t2/OQBpWNZkbQNFJ7d09WcmjIxCmgM3IO/MK9a7p2fuhh00wPBQ0BkLOp2dGSlJF6ZkSQFSTt59V833r5aDiiXPXseWaIurf80IPs21AD1fhSnhX5pqEMHVsHAyswFdkZvE9lI5+JJkF529ryuXR9S2j4qywlQdWLqVHJDz3EDpr8DJsJWUloOE2/p+KkOLZa6WTv387OseQjQ9AsnaZSpe7nq017seytr5BwwVRHLQE10MbKUnT0GwEXg4+6kBHtfQfW8JNoiOKSLBwO/wT5RRfUY61AdOIOpTS4ssWCrB9kxTh19ht1pPo+qGNoSqy+jkaA7yCUlOWx4yrJs/PPIfTsOvYdoXPdnP3h4uSNyPgtnDedfyziM1QYq4cudUgembAJBUWp5rLHnN+BrSGP4fK+97CviiVBARPx0I1RWLYgkbcHrj+Ftp49NKkgCK2NKBxNgBr285+8hBMLxiDlmw/hf+1tZr+JhqBjOt61DGk/reZzQxdNhb2rB7xGm5wbCTqGeuP5Z07Ac8QVpoZUg/wbjs0dgpO3jOcZFDTbgfZplgXhM+EauPe/nGeYHJ83HNn7tiLg74vZJ4DyaX/DPShLTcKJW8Yi9O5psFcNsc+k2Xwu+RB4T7ga595+kvOk8hkL8uEzcSbLCbomXfvUbRNRGBmKzoufN9+3/8xbUJmTjVN3TMLJW0l+Uik7bVimU/saoQuvYp8KQ4fO8L1yDuLefoLPjXr2Lji0rZ61QJYeUhBq3zfVhw4pVLQIGs30OXb9UFX+sSg4Y/KFce87TN3ntYh6+g6+L6ov7wkz4NyhK8ubg3ufYfAYOIpnqFDZEz/6F38/dOh5OPoFIGzRdC4zzdZx7zcCrl17aUc0Tll5Jc6lZCAlPRuZOflaavMpKE5HpWqsaRqs5WdrGT1gCSsq738/nJ1GoxO3YdKQZ1jhcDX4YlTfxTgZvRYvrw7Eyh9GwN2lg3lGiL93X55xEhL2PsvJ0uDv3Ued8wDLSekYP/AxnE36hfOma9C1hlo4b6bnROLtb/uzfPfRlzCy3324rNMUltHaHEWlWdh5+FmVfyfeXl8bjNjkll2nRRCEpiMrjVpJ0pr3UKJ6xjQLg9ZuIKuFjcV8fWuhmSN2Ts7soNjSkHWjSvW667O6sLOqnX3dK3Kq3nRzVuxszn2R5aWytNgq5e1SoHqhGSNk9bFU5FoCsuyQVchyzRZL2KpUkAv7Nl6X9H2h9TdI8TA4tfz3pbmQzwU5XtZnGaH1Lpwc3NmiUheNyWmYhCwnpIQIgvDfjygcVmKpcAiCIAiC0DRE4bCSloyjIQiCIAj/a4jCIQiCIAhCqyNOo4IgCIIgtDqicAiCIAiC0OqIwiEIgiAIQqsjCocgCIIgCK1ODadRCof97pqtyMrNx/RxgzFmUE9Q7AlBEARBEITmUMPCQeGwF143GROH9cHazfsQk2gKly4IgiAIgtAcaigcZM3wdHfBkD7d4GxwQkVF3TE1BEEQBEEQmkKdPhwFRcWws7WBj6e7liIIgiAIgnDp1KlwZOYUwN7O7i8Zv0EQBEEQhP8+6lQ4vDzc2IE0LDoBGTn5yMkv4lDZgiAIgiAIl0KdS5uXV1Tisw27cOBkNJydHNE5oC3un38VfxYEQRAEQWgqdSocR8NjsW57CJbdMZudSAVBEARBEJpDnUMqLgYnVBqrYDTKLBVBEARBEJpPnQqHh5sLUFWFvMIiLUUQBEEQBOHSqVPhcHK0R6XRiMKiUi1FEARBEATh0qmhcJSWVeDbbSF484tNvN/Wuw3/FQRBEARBaA41nEYrK404FR3PK4z27d4JzgaZlSIIgiAIQvOpc5aKIAiCIAhCS1KnD4cgCIIgCEJLIgqHIAiCIAitjigcgiAIgiC0OqJwCIIgCILQ6ojCIQiCIAhCKwP8H9ly2RJi9+Q+AAAAAElFTkSuQmCC;" vertex="1" parent="1">
          <mxGeometry x="132" y="91" width="370.59" height="105" as="geometry" />
        </mxCell>
        <mxCell id="OqSYDqfYlpPWh9uUhqye-9" value="" style="shape=image;verticalLabelPosition=bottom;labelBackgroundColor=default;verticalAlign=top;aspect=fixed;imageAspect=0;image=data:image/png,iVBORw0KGgoAAAANSUhEUgAAALsAAACzCAYAAADRw20HAAAAAXNSR0IArs4c6QAAAARnQU1BAACxjwv8YQUAAAAJcEhZcwAADsMAAA7DAcdvqGQAAEXkSURBVHhe7V0HYFRFEx5aeq+QhBaq9C69VwEVqYoFQURBilIEEQGRjlJ/LBQ7KsWCSpcmRXrvJXRCSwjpdf/55t0jl5CElEu4JPfherl7bd/ut7Ozs7OzBRSDLLAgH6Cg4dMCC/I8LGS3IN/AQnYL8g0sZLcg38BCdgvyDSzWmHQjaTHppaYVnyEVKED4h58KFtTliOHEhyhg+LQgp2Ehe7phILSQFYRWFBoaSkFB9/kzhKKjo+U3a2srsrNzJFdXF3JycqQiRQobrkngBFg60ycFC9nTgYSEBHrwIJSOHj1GW7Zsof/++49OnTpDwUHBQnKdyAkqgQoWKMgCvhAVLFSQXJxdqEyZ0lS7Tm1q3rw51a//NHl6esi5BdALcLIg52AhewqIj09gaf2Abt++Q7t27qQ///qL9uzZQ3du3+USK8jSugiflcDyuiCrK4WZ2PwXBDaXpOJ/CfEFKC4uDn/xD/z/BEXxCbFkb29P1atXow7t21PLVi2pVKlS3AO4UeHCheS5FmQvLGQ3QmxsHF2/doOOHDlC6zesp7+Y5CB8QUjhggXIxsZGpLWHhwe5sJriwOR1cXVmtcWebG1tRU+PiormFEHBwcHcGzyQHiE4+D7du3ePwsLCSDHx8c/ZyZmaNm1Kzz33HFXjBlC2bFm+h7UhJxZkB/I92fXXDwwMpPXrN9Datetox44dFHQvSI7ZO9hT+fLlqXLlSvJZunRpVk3KUNGi3qyTOwnJk6sj+A71BmS/c+cuXb50mS4GXKSzZ8+x+nNKEsgPoJeoU6cOdejQgdq3b0sVK1Y09BwWmBr5nuzx8fG0bt06+vbbb2nv3r0sye+Kju7l6UVt2rShZs2aUoWKFUTlcHdPVDlSKjVj0icWq/5ZQMh/5cpVOnfuHKtFe2nN32vo3Plzch16iRo1alDXbl2pW7fu3Hu4Ga6zwFTIt2THa9+6dYsmTZpMGzdsoOs3rgvxoaL06NGDunZ9gfz9y/B3dyY4LCpJyZwZ6EWNT6g3V69coa3bttLChQsp4OIlVpUKixWn/tNP05SpU6hChfL8TLnEAlMAZM+P4AGnYp1Zubi4KTs7B+Xg4KS6PP+C2rdvnwoPD1dMfMUSXlJ2Ac+IjIxUN64Hqg/GfKg8Pb2Vra29srd3VEWL+qjly1cazrTAFMhXZAdxIyIi1cqVv6oqVaoqWxtb5WDvpEqV8leLFi1hkkdkK7lTA57JOr7avHmratWytXJ2clVWVtbK2dlFTfp4krofHKLi4uKyvfHldeQrsj8ICVVffPGlKlOmnLKxsVNeXkVV167d1YkTp1jKPnkSgchXr15VI0eOUiVLlFLWVrbKw91TDX5nqGI1hwmP3sZwsgUZRr4he0RElJr92Tzl61tCiO5furz6cOwEdfv2HVEnzAXISmREtFq8aKmqUaOWsrF2VO5M+AED3lbnz1+U4xZkDvmC7FGRMWra1BmqWFFfZWfroCo9VUUtXPilunfvvkhKs1MNODsg9cYN/6gWLVoz4e2Um5uHeqPfm+rmzdsWVSaTyPNkh9SeO2eBKlbMTwZ/5cqWV0sWL1H374eYhDS4R0rJFIDasn37v6pVK43wri7uatDAoSomJsZkz8hPKDSBYTDM5Dnw+8ks6NSp0ynwZiA5ONjTxIkT6KXeL5G9vV2mTIlMMrmOP8StAJNPAZcu0eXLl+jatWt0965mp7e2tqZChR51A8jIMwsWLEC+vj4yiXXy1Em6fOUanTx5UkyhjRo1spglMwqN83kTx44dU82aNeOBnp1ysHdRkyZNfmjVyCjQQ0RFRckAcunSpapbtx4y0IXJEve3Qipip4oUthUpDJWpVas2atq06er48eNizoyNjTXcLWPAs1ev/ktVrlSN762ZSf/+a61Ff88g8izZWcKqIUOGMDEclL2di+rzWj8VHR2bYTUDKgMIvmrVKtWjRw/l4eHBA1wbsc0jwSbuwuqFp0dRSa6uHvybC6tMjpwcuBHYyjlodF988YU6deqUCgsLM9w9fUB+Y2Pj1Kez5qii3n5C+Hr16vO9zhrOsCA9yHMzqHgdOHStWrWSRo8eI7OkjRs1pR+X/UBeXp7p6vr1IgkJeUAbN26k5cuX05Ytm4mls6gh8IkpUaIkFS1alDzcPcjD0/2hjwx8YoKC4BNzh27fvsWqzVX+vM13SxCflypVqlKvXr2oY8eOVLJkiRRVnZSALIWHR9Dw94bTN99+R3Z2NvTaq6/R+AkfyayrBekAyJ6XACkYEHBJtW7dVtna2Kvy5SqqdevWGWzU6ZPqOOfIkSNq8OChMuEEU6UdD24rVaqk3n77bbV48WK1c+dOkfgRERGiZhgn9AbcyNSBAwfUsmXL1OjRoxXr2NzLsLTnPGGmFGrQ+vUbMqRW4bQLFy6oOrXriapUvnxFtXLlKrmHBY9H3iM767Fz5sxTTk4uypF12/HjJ6iQkBDD0bQB0oGs69evV23bthXdGBacEiVKqREjRqpNmzYJiZOTWycrPpP/jeN4/v79+zlfc1Tt2nWl8djbOarq1auLamN8j8cB50Ffd3Z2FfXo5d6vqCuXrxqOWpAW8hzZg4NDlL9/WZGgTZs2E5Klh0g4BxJyxYoVqkaNGkwkeyFl/acbqo0b/1FBQcEywMR5yVN6gPPgqnDo4BHVt+8bysXZTXR/VoXUhAkTxF0gvQgPi5R7IH/FivnyeOI36bksSBt5iuzg3dSp08Uq4uLiqqZMmZIuCwiICOm6efMWlrY1paFYW9uqZ599VqRyRkj9OOA5sMxMmjRJ1Bk8x8PDS82YPjPd6gjyAoc1NBSoM6++8roKvHnbcNSC1JCnyB4UdF/cAWAJadyoiejM6SEpzjl69Khq2bKVEB2ekO+8M+Th5I2eTAkQe948THb5ioSGGfP7779Pt4SHtWnw4MFiEfLyLKb++2+vNCQLUkeeWerOZKQ//viD7t65R9ZWVlS/fn2qUrUKFSjweGMTltCxnk+7d+0iWztbeuXlV2jixIkP/dizA7DCDHz7beLBKzk7O8uE1BdffEmsdlF8fByEkOHMlOHq6iqLSzw8PMVq9Ptvv0sZWJA68gzZY2JiadWqVbL42dnFmdq3b09FCmN5W1q2Ru7Z+N+KFSs5raBCfH6b1q1pyNDB5OICcx6uNU6mBSIQDBz4Nr311gBZ33rk8FH6/vsf6O7dO481kWK9a6VKlahWrZpy7u9//E5hYeGGoxakhDxD9nNY33nylBiky5Txpzp1axuOpM2agIsXacaMmRQXG0fly5Wn/m/2p1KlSmo9AoSrnrIBICmW+fXv35/atW1LsXFxtPqPP2nXrj2yaupxKF68ONWpU5tsbW3oUsAl2r/vwGN7hPyMPEP2HTt30IPQBxK7pVWrVuTo6Gg4kjqUKkDz5v2Pbt64SXb2dtT52c7UsGGDdE/0mApFvb2p3xv9qASTFyrVksVLKSICQZcMJ6QCTFJVr16dvLy95L1/Wf6L/G4hfMrIE2TnwR7xYJSioxCwiEQVeRxAiEuXAujXVX9QgYKFZEH1K6/0FnUip1GIpXvdunXomY7tRO/eunUHHTt6jI88nrRVKleh4n7FpYFu2vSPFq/GQvYUkSfIHnTvPl27ep2iY6JF165StTKrCGlH3AIhfv31V4nlgiheGOz5+/s/vE4Sl87D9BgdOqtAHJoWLVqKG0JsbDR99dVizqT+0JTJizz6FfelEiX9qBDr8DeuX+cGfIV/N021ooyioqLEkxOf+m+5Fbme7Cj7y1cu070gLQ4LYrDAvTYtogORkZG0fft2Gdja2dlS927dDEeeDLhpUe3adahy5coipTds2MBqWajhaOrAuXABtrG1le9HDh+RT1MgJiaGfvvtN+rZsxf9+OMyVq0iDEdyJ3I92YEb129IkFFInXr16hl+TRsBPKC7evUqqw3xTJay3BtUfWwDyW4UK1aMKlepLKoUgigh5F56UK5cObkG+Yffu6neAo5vGzZspJ07d4lD3P379594GWUFeYLsd+7eeSh1qlapKp+Pw+nTZ+h+cKjoyC1aNCcrK9jUn2wXXahQQarCZHdysmdSKYkzmR7AKoPeDObIixcvmuwtIDzi4jSrEBaq5HY7fp4gOyJtRUWyTsm1jIpPj/S5dvUaN5Aokez1nq4rFYt/TxrlypUhRycHIe6x48cNv6YNd3d3scwgHiVcmk2GJ18cJkWeIHtEeAQPTmNkksbN3e3xgyg+jBiM+qCrQoUK3EA0vflJAz7y8I1HVgICAh7/LgzMwFoZ4kOG3A+R4KkZBZ4DyY0kDd/Q+DF4J4VoxYWkfIzP0T9zC3I92VHgUdFRFB8XJxId9vXHSfa4+HixwsBMV5hJgql3cwHyr5s/MQ4RU+JjRCzOx3uAeBh44/0yCjT8pUuXSoDVFi1aSXru2S60adNmOb592zYJC9iiRQs51qZNO5o3b77o9bkFuZzs0CENkkjkTiEqxBIobeDceIpP0OKno13AB0aXZE8OeHYCjx2sWSWx5vwU4AbMOY1DjPe0G6+VlRUVLgTJblyduF/63weD9dV/rBYL1d49+2jf3v106NARCgoK4jIqSCEhIXT4yFHav/+g+O/s4kErFrOj98ktyBNqTF4CIgpAXxeVChzn1vi4nkrOxznMba3Bpp/kOry8vKh1mzbUtm07atWqJbVs1YIaN25E3t5FRRB4eHpSgwb1qSVLdqQ2bVrL3ISPj4/hDuYPC9nNDhqxQV75lzbPBaI384nyif8yznWZjOvb93VasGA+zV8wj+bPn0czZ02n2rVr8v0SqFrVajR58mRa8L95Wlo4T5zYMDjOLciHZIcExGvjE0xKB5ueCFh9EfdkPaUNU7wFtsHx8/OTheBIfn6+ZGuH8UMC2dhak69vMSpRooQkP18/Hl84aBfmEuRjyW7ORNeRPqKbCtKbGCX9N+1Tywv0dz2Zf/klhUWNsSBViFr0ELmL2Ckhj5A9MxWRs1Iz83hyJLOzs6MG9euTfxl/ccNwcTEfE21mkA8lOxO8AEyW+DRnwnPV6GOLDBEe12TmukcBsr/etw9t2LBOBqMODo9fI2DOyIdktyAjwGwuBq0YvOZ2WMie52D63kofpOZ25D2yc71olaPNrmrJGHyM1QOxJsD0aK5ajJgeDepWhjKpn5/R6/I+8hTZQXLNOUlzVkpIgLMS00b+5hQPV1XNgSn3mM4ySlg+/2EjscAYeYTsqNgEiouPoc6dOlOTJk2padOWnFpwap4kNWvWjFq2bEW/rlrJpI81EMOC/IBcTnZI5gKa11+hwvxXATp85BAdOoR00PBpnPi3gwfp4MEDdO/eXbkDvAyLSDAk7V7mh9zQ++QO5Pr47Mj+9u3/0k/LfpZlYwlKc/UFQP5EsuATr4puHh/asRo1a9CoUSPEmerJQstbTEw8dezYiXbt/E9820+eOkbW1lbaKSkA74+1os2btaLDh49QhQplac++/8jaSg8Qpb+/BXliMwIEFAoKCpaNAHTDQdLX0is86W9oFO5ubmRjm/PhMx6FhezZjTyhs2OFvYeHu2y2BZfTR1MxQ9K++/r6yrnFihUlaxtrw10syOvIIwNUll8spY0T1JLUkvE5+DRPZNb0yFUqM69I5vNuZ8+cp7cGDKRffllBsTGxhl9zFnmG7HkXGSC6GWss33zzDX377be0ZPESOnvunOHXnIWF7HkG6AXM14waGRUp8Sjj4uIIER2eBCxkNxvog0mspsX/WaLLIDt94lrkPy6Rv/T0JME5YXIn5odVR8O7JNoOcjafFrKbFbRxBLaa5A8qWsxbBt9p2cv0sYenp6e0C28vT/6uNZecJFJyaNYwED5eSC+Zw6y1ZM0QtoOPQdrnFPLcPqi5HaiOgwcP0tatW6lu3brUtGlTw5HUgWv27NlL27dvo0aNmlD9+vW4kYBVeso5wAx8+PBhWrNmrRaXB/TiBrn5n20ysQdLWKtWLbhxevDZShoqQv49//zzD0OIZBcsZDczoDqQEM4P/uQgQ3oASSnX2NoToolImJAnYJHBZsfjx4+X3Uzgm6QjOjqW4uPi5X2srYtIQCsdZcv606xZs6hx48aGX7IH6StJMwVIgUqGNEHC4Cc2NlZLMfGJSf/tscf4+lSPJUtJzjN67iPHjH5Px7G4WH6fOEXWVrbymeT8NBLGfNbWdqwWGBzdcpjkOhBzEkGnwsPDKDIy/GGKj4e5EapLHEVFRyY5ps2TQNJnL3KtZEcXeefOPbp27Tod4W7z2PGjFBBwUVwGNFXVuB2zXqjXffJjxo5gaR1LDrFl6zC6P5DascfkSxua4qcCD3VZCT+XDmAWGHEusV189epVJGakh4cX2dsjbqRx5rIfiL15+fJlJnKk4ReieXMXyL5V1apXo/fee5eleRn5HWMORC+GepPdyHVkx9T4yROnaceOHfTX33/TwQMHJUwcvwkXnP4qqFzjCsbvqR0zJnRax5LDmITG9wdSO5b8/smOib+O4U9DtWRo0osvgeaA3QKfeqoitW3Xllo0b0F16taSlUbpVYlMAeTfmFrvvTuSPv/8c9nGZ/acz6hatcRoy3jHnJjcy1Vkv3r1mmz/uHz5Cjqw/4DohCgkV1c3Kl7Cl7y9vcSLEeHgkiL5KxoXbEaOGSOz90jjGMhuOJxesqMXiIuPE339zu27dPXaNQoMDGS1RtOPsVi6U6eO9OKLvahqVY1gOUGs5Bg2dISB7A1p7rykZM8p5AqyI4vHjh2juXPn0dq16+h+MKsqXF+IZd6xY0fZRMvHx1d0ReiMiGiLAVp+AIgLHR1OcCH3QynwViCdPXOWNm7aRLt376aIcNaJCxei+vWfpsGD36FnnnlGdOScJvywocOF7I0aNaY5c0H2KoYjOQiQ3ZzBFamY6IorSTk5Octu0ExsNXv2bHXmzBnFOrrs7Myn8ck4X/9krTcfJL2MjFNkZJS6evWqWrFipapXr77s2m1ra6+qVauhli37Kd3bxpsSC+YvVDzoVj2691KXL18x/JqzMHuy37p1S7Vv354ry5aJbquaNmmuTp48Jdue65VrgTGwpTsaf5yKjY1Rt2/fVb17v6JsrB2Y9HaqSpUqas2aNTm+9TurWbK9Phrhk6ozsyY7j+bVoEGDRZo7ODip55/vos6dO2c4akF6AGLFxyWokSNHKmdnVynL9u2eUSdOnMh3gsJsyY56WL36T2Vv56gc7J1Uq1Zt1P59+3NcIuUFoMwePAhVAwe+oxwdNVVwwoSJKjw83HBG/kDO2aIyiOCgYPrkk8kUnxBP3t7e9Ea/N6h6jRo5aj7LK0CZOTjY0zuD3qGnn35aBvzff/cDnT9/0XBG/oB5MkcRbdi4kU6ePEnYGKtJ08bU4Zn2ss+/BZkDrC9lyvqLCdLdzZWu37hBq1b9ysQ3nJAPYHZkh9TBNoSrV68Wkxr8Q3r27EHOzk6GMyzILKysisjuGVUNNu4Vy5dLWecXmKVkv33nNp09c078Pdxc3bLdQSg/AVvWV6pUSfZgunjxEl24cEH8ivIDzI7s6G4vXbpEoaFh8r16jeqsb+auHR7MGZh0w/bvTk5OItXhjvskZlSfBMxSsgcHB1NMbIz8XbpUKYNTFFI+UjCzEdgsTHMfLkDXr183/Jr3YZZkj4mJfbhxrS0qJZ9InpwCekpsh4liheuFRbI/QaDoUQEYrGourhaymxIwRWrFqqTXtJD9CUPfsAob9GqQJqD9aUHmwcVavHhJWRaHjQaw12l+gZmS3UBqJjykO5KF6KZDuXLlaMmSJbRt6zZq3ryZ4de8D7N08V2/biMNGTJEthif9ekMGjhwoOGIBcbAPAQSTId3796lixcvSplhpRBWcmFCDvo5VgGV4oG+r09xTVeXXbS1e0CFyS9qjPmRnXMTGRlFX371lVgKxo0bKwsy8kuFpAZUE4oA5kJYq7BA48CBA7R1y1bas3evkFzs5YrHOihE/Geo2gT+BPGxzrNmzZoszZtTwwYNqHgJP4mRiWP5ASYlO26lVUrWpYV+Lx1PmuxP8vmKB5GxsTF0hQl96OAhWrduPW1hkoPwKgEDeUjqQiLF7R2weMVKBqEYfGIZY2RkNIWHhcuKJli5UK6urs6yauiZjs9IyA6sWYUOn5eFisnIju4U3WdISIj8rRUaUuZvb6KsZRmQfFgFhTAV6Vz/bDKgDG7dukVr166lv/78i3bs3CkrkgoWKiS28rJly4oOXqpkSVm47OTkQHb2dqKuQNJDncEa3Vu3bov0v3DhIp05fZruBd2T++M8kL1Dh3bUqVMnKl++vKxkyovIMtlRmEeOHKE1a9bQqVOnhOy4YyLZAfMgbWZRiKWmm7s71a5dm557rjOVLl1a3g9Fl52SEEJj//79tGDBAtq+bYe4UaAoPTw9hJiwpJQrW46K+RQT64qmjiSaElEPel2A+MHB94T0Fy8G0L59++jvv1Fnp6UXcLC3pzp16lC/N/rRM890ECmv3SN73zEnkSWyQ5J/8cVXEp311q1A0bUVVxBInlhA+IQeCX1S+yU50irMVLPHl2CxcWrI7HUpAXcC4e0d7MiHpefoD0ZRt67dON/ZE/IaeYdq8tNPP9HUKVNkEXVMdAw5OztTnz596KXevSTOPKb8QXCoOVFRkSK5b9wIpHv37onaA9XGxcVFNjWAiwB6AtwbjSg8PFwGtevXb6S5c+fStavXWMpDr3en3i/3lrGSrsvne7KjwEaNGiVkR6Qn3Abhy0r7lyYnR6dHya5SdzbKFNkZ2dFIkgP+9Hdu35HBcmycFlfc2sqapk2fQgMGDBCpaEog35DCEydOos8+my05xW+NmzRm4k+VUHHYVQMTzFBPNv/zD61YuZx27NilbbMjxaz1Oly7+IvzWICsuW5q1apFXZ7vQp2f7cwqj7eUHwIxXb9xXe7988+/UHR0lETratmyOf3www/SwPIMuFAyDCzY/fzzz5W1tY2ytXVQ5cpWUNOnzVSBNwNVbGysYQE01odqK46Q8FtqSTs35ZTS+XpK6Xw9pXS+nlI6P/UUr2JiomXd64ABbysvz2LyzkWL+ihWA6QscJ6pEBQUrIYOHaacHF24fG2Vr29xNWb0WC7b24qJqXiwqS5cCFCffDJFyt3a2o6TvawxtbdzVq4u3srTw0d5uBdV7u7eytXVXVZ6YXWSrY2DnFusqJ96+61B6tChQyo4OFjyHxkRrZYsXqqqVK6q7O1xno1q1aoVP+sCvyPKzJDBXIwMS3acfunSZWpQvz6FhoVRqVKlacKE8azLPisDG03S6XpeogSV0BapCVuTS2ioAYY/kyPN61KCZr3A7aKjomn27Hk0c8ZnFBcfTc2bNaNFixdJvJq03iE9wBPu3rlLc+bMo8WLFtF9Hvtg8Dl0yBB6+ZVXpDeBNygCQ/2PdfgrV65yeRchG1trVlO8yMvLm0qWKEl+xX0MIUWsiEnKg9kQunkzkC4GBNAd1vnxd+iDUH6nBHJxdaZXXn6ZXnzpRapYsaIMVmHlmTx5Cu3ds5cKsxrTtk0bmjJlMpUrX47f0ZDZ3AqQPSNgwaimTZshksLNzUN99NFHsjDaWLqZUtKZD7R3Cg0NU88//7yysXJU5cpVUL///odJ3vfBgxA1Z85cVaJEKQl9UZkl7KpVq7hXiZHQGP/8s0V1795LOTu7iRR3c/VSbdt0VOPHT1Lr1q5XV69ek15G773wt/H3O3fuqB07dipWjfg+PVRxvxKatLe1V40bNVGsskivwh2Z2r17j6z5tbVxlOcMGjhUXbt2w5DT3ItMkb1z5+ekkEqXLqv2798vlZ03Cf4o8J5r165V1kx2NzdPNXXqtCy/e0xMrFqzZq2qVKmKxFYpW7a8+uOP1UJWLIr+5Zfl6umnG4hqY8NqS+3addX//ve5On7sBKsfmqAxVs8ePHjAhN2ttmzZIqoKwpHo5yAESUBAgMSPQT1CVbK3R8Mtx0JsmgoMvM3PTVBHDh9TzZu1koZVrJifmj17rizazs3IMNmjo2Ol4CEVKlWqpnjk/7CQzQXZnReQx97OlXVhZzV8+AiRvlkBpHLr1m2VHY8FPD291eLFS6S3BNlXrlypKlSoqOzsHPh5jqp//zfV4cOHVUREOPc1iLSgvateB4jP8tVXX3HPUFk99VQlVaNGLVW/fkP12mt91I8//qhu32bdn0kfGxMnuv+M6bNYt/eUuDw+Pj7q448/YT0+RMYH//67g+9RReq6Qvmn1M6du8yurjOCTJA9WtWpU0+6uKpVanC3Hpqhl89IYRmfl/I1qGw9Pe7cR5FyXvA96f2MgfNBKEcHdxnwDR48RIiZcWjPiYuLUZMmTZZBr52to3r//dEiQHD40MHDqmSJ0kx0e1ZfnNWUKVNY1QhK8/3CwsJEtbS2tmaSagNX1JWDvQurJB6qZs3aaunSb1TogzBRWTDgXbXqN+Xr4ydS3tnJVS1atISfoVRUVCSfu1S5uLDqZGOrunbtmqvDb2R4gIrpZ+zucPLkGSrj70+7dm+XCLFpDdBYQlFUZDRFR2PqOpIKFS5ItjY2sgcpzJUpXYtsIVhncFCI4ZcUkCSkNN9DFRDbsJu7G3+mPgvIkk0mw/AuEeFR8qxEV2JAyeJklngyaDMGzsW13l7F+b2iqX//fjR9xrQM7xqBATszigeMN6lqlZoSq7Fu3Tr02exPxX/l5s1b1IwHwDeu3yBbOxt6991h9M477zzWFMgNQcykP/30iwxor/JA9vjxk2KmjI6JpIT4BDEidHimAw9EJ8sEGX77/fff6f3335fZWiseDG/a9A/VrlOd83GDxo2bQD///BPfO564p6EOHTqY3OSaIwDZMwJdstvZObNkr5WmZIcZMiDgkvr+ux95UNeVpVQZlhzuouvWqFFTDRs2TG3evJnvwV0yhKkREMWqz2t9RdI4O7nJdY8mHNOTdg4k4b59Bwx3SQrkMzAwUP3666/q9T59VfnyFeVaRwdn5ejIn5KcRTf2YUm3bds2w5WJSC7ZhwwemmnJjvB0AwcOFD3d26uY+uzT2SxNo6RMX3rpZRkXubq48zmDJN9pSXRj4DyoQDAZQv8O4/LdsGGTeuONN1XFCpXkHaEyVa9ek9/xX1bDeGwQFqkWLFioShTnnsTWSVWrWosHpddE5fn7779ZZa0kqk79+vVZd+deIZ15MSdkG9mjY6JZ5/uXR/49pcKsrdClOnFBOkvXKpYA7maL+5VSH0/8RF27et1wJZDAlR4jAyN0wUiwIacneXh4qT9+/9Nwn0Qgj6dPnxHieHsX07p4zoONtaO8i5Y4f6wbY8CGPH/77bePvBu+m4rsJ0+e5Px6CPFg/Th79pyQFINHqBxQa/D70aPHMkwunK8n/Xt4eASTfqPq2fNFKSc0pqcqVlZr/l4nhL996y6Xz2Dl4sz1ZW2vRowYIY0Ptvi33nqLGwnqwp6Fxe98P7ltrkIW1ZgyrMZse0SN4YKlg4cO0Oj3x9Ce//aJvbdKlSoSEsPL20u67LNnzsiGAnfvBfG1ivr17UfjJ3zEqoMr30FRdFQc+fuXE3dWdLV9+rwidl9tnyAdybNegBwc7albt27k4pI0zsyNGzdo8DtDacOGDaLGlCxViho3aiwzvphG125luB+/ip2tHb3Q9Xlyc3NL0mWjuEyhxgBQI1gP52c50PDh79HIUSPEk7Ffv/707/adkq/PP1/A+egi5ZtlW74m3MTvfeHCz+mbr79l1SZaZlZnzZxF9erVpSNHj9Jrr71G586eIz8/X/r+h+/493rE0p24J6br1+5Q23YtRZ0pzOpoVvOUowDZM4L0SPb7PJrv3ftlkZDoMt96a5Das2evDLxwPSTjlStaSOVKlaoqKys7VdTbV3322RyWbLF8h3jFOr7yKQZbsINq1/YZFRLywKhr1u3IsUZJOxYfD2mm5UMHjr014G0Jjurg4Kg6duysNqzfpG7evM2SK1quS55wn5SAd82qZMc9EGq7efMWLL3tlb9/WXXixElRGb755ltVglUx9Gbdu/XkAWeEnJ+8jLMC3OvG9ZtqEEtxKysb5eTkot7o96ZE/IUZdPr0Gdzj2YlNf/jwkaKOYmDcpo1me/f1Lcm9zXGT5iknkC1kh33XEdPdrLr0ea2funDhIldkLJ+HuOC69YQJHRUherGuqrRs2YpVjVPaMQPZbbkrb9+uIz8njH/HcxKvTwrjY0nzs2/fPuXp4c3PsBOd8/DhI1yB+jS/8f2Sp0eBa0yhxuzcuVPs6VClnnuuC+cnXhpA3779RB2DGrF3L+YwtGeamljcrtS9u8Fis4c6g7HOjz/+JA0O5kk/X5S9vWrSpLk6deqU/M49kZhb3dy81Lx5C0yep+xGpobUfJ3hL01lSQT+TqCff1pOcbGxEn2qR48erIaUYlUAoRtgIcEjtcRShZo0aUJ9Xn+VsItawMUA2r//AB9LhEztP+zCkRKvTwrjY0m7VnS5EZER4rbau3dvqlq1CudHc3vlAZwkJhu/C85O7f5JoasVWOKW0a4cxcdENkzbK2KJyfkhunD+IqsP5zlfsVS9WlWqU6c2Xv3hs0wJPM/VzZkWLfqKChUqTLdu36Etm7cQE51VSXd68aWesjAE1pz9+w9yiRakVi3biCrJQkpcjzlXhrvlDqRdo5nE/gP7xSsPvh3wuUgNeiXCbRUhM4LvB4ubqlFbYi2av+A/rRcy/Jp+4BpsUQNiswpDrVq1EnPf1q3baN68eayHvkdDh74nPilbNm8V3R7bNGYnYOpD2DmYYfH+GDsAZ8+dpUuXL0ue4WabidfNEPBsbDSGDXdRxv/99x+d4zygXb300ksyVrkXFERnz56l2Lg4CZvnyGUIAXf50mU5lpuQLWQPkkFnAXJyciRHx8eHrsMAFEICwZHgZy3Lx/h3neD6/kj69/QC54K48LvHq+JSrNscNnQY9er1Io0d+yEtXrSYlixeQh9+OI569uwlg1isCEI+sgth4WEUeDNQGiAGoRgkI5+wj9/nATl6wUYNG4n0zW5gXuKFLl3k89LlS0z2c1z+sdwInhJjQlxsHEv3a2IowAqosuX8uWALUmhYuLxDboKJixPdGqsHCXH8mcDdY8EkOxmnBEgJdJ2QdkUKF2ZVw04WSoiokUmjBLp/P4h27txBrN8/kmDRQWjr0NBwgxqSEpAvJf7eEyZMpL/XrJUJKyxj4/GHLEvz8/UVSbt23VoaPWYMLVmyVMiYHcBqrpAHIeIrj5X/WDuKZ2MCB2H/3D1cZTF0Rhp2ZgFP1YpPVSBfPx8h9pkzZygiPFLI/1TFp0RA3L5zR8iOMqxQoQL/X1FUZJT8npuQLWRv3rwZubq6UIWK5cneXlvelRJ0Sf3Vl1/Jpa5ublSiRAmWaIX4K1Qc7TzosaNGjaH33h1B7xoS/h42bDgNHfIuvTVgIEvkYbSWSZwyNLLHxsXQ9Ws3yNPTk95++2363/8W0rz5cyQt/HwBDR48iIp6F6Url6/SzJmzaNWqVdlCOPQaML9ylmQVEd4T5kw0RvwIl10bG2vpHXMCaGz+6F0ZV1iKY6Ybz0Zd8BiUHnDjDAt9IPlE49R6zBj5PTchWzpK2I7Xr19Hb77ZX/YkTV5pOskhORctWkQ//vijkBvqDGy6ACSOk6OznPMgNJSl9yk6cYLT8ZN0/NgJOnb8BJ3k78dPnKR9+w4wMVfSoHcG0+TJU6W3SAr9+QncNXtywxlBH3wwmtq1b021atWgmjVryCDx/dGjOb0vazqxB/+4Dz+SvUVNTXgssYtFPEv+h2VzAN4zKoobAOfVMclKr+wHfN+xrhX5QYPTxywQCmh8EdzrwB6PPMFXHmpMHPfEGPTnJmQL2dH6MYmEUX1KlYbfIN0++ugj1pU/FB3W2cWZunfvLivlAfjPLF/xMx//gMaNQxpDH44bTeM+GqMl/j7mg5H01ltvUNVq3N0ykW8F3pLlZQsXLkyRoGh4bdu2kYkgV1cnQ8BUTVXCYAy9EQbLbdu0lUmia6xD//rbbyYnuzR2/gdoKluiAMDPOb39OnxhQGw8HxOEenQB7RNL/BI4afWm5xf5NHW5ZDs4wxkC7Oywzep2dtY/M2RvxQTF2TNnVf83BmhuBNa2ytvbW40dO1bubYz03pcbjpoze57yNdiGK1eqok6fPi3X455NGjcXOz7r6Grrti2PvS+PBfhevuIjgql1Y78dXJtVO/vx48dVkyZNxMbeqdOzYsO+ceOa6tOnr7hSNGzYSMo1J4Hld19++aXsOYtJOLzz0CHDlbWVg6pXr6Havfs/fvc4NX3ap8qqiJ0qU6acWrXyN8PVuQPZItlTA7pHDCiHjxhBy5Ytk64RcUqg9kyYMEEGRcZIb1cO+/nAQQOpR4/uosLcvXdPprcBfGd+ihTCeZWeqvTY+8ISAT0W1125fIUHjaY1RSIf+rvCPQBiEr0OnglggXd2DY5TA1TIN954gypXriy9HGQ2ts9HBAVY1fS8wWyL8itSuIhEN8hNyDGyw/oBgsONdOPGjeI627JFS/r000/p9ddfly4zveRODlyHzcX6vt5XvuNZiGEDwmjHCksF4m9MoDwOib4wWJvPMHF3DTddkAdqFOYV4G+EBuDNg2MMzjHBgzEDGmhOAWWjlxEShMTZs2f4SAJ5uHs8HFtcDLgo58E9293DXX7LLch2sqO+EJgH0nv8+PEywYPYjT179eDfPhHLjV7AWQGIgYGlVBSTHIQH2SFBvbxYH+VKwwAQTlBpgvMbEHBJYuAUKIBtKb3IigdwpoSTk7NGbG7gD0IeMOGvi2T380NEL3tCOIs9e/ZyXvQyyTnSC/hxV65cocuXL7FwKCBmSQxMo6Ji6Mzps1LWaKzeRTGAzT3IFrIbSyREnBo+fASxPijSClJt2LChEpEAMVCKFHm8pE0PQHIQGRIJU9qQRJDo+P3p+vVYGhWgsLBwMSempSKw+kx//L6aQpiEcGFo3Lgh38Nw0ERAvkqVLE021jYSj3Hfvv0yH+HvX5J8fIvJOcuXr8hpij8Enrv6j9WsvkWTCw/ay5cvK6ZQzPqiDgtxL+rHDcDTw0O7IJfA5GTXiQ7S7d69R8JNo+DCwzXfFIRyGz58uEzoJKoLWQOeCQLPnj1b1CEba2uxBulWhZ49e5K9nb2oC7///gf99ddfcr5RmxRAR//r779o5aqVci5mNzFtnh1AKD0HRwfJ4/p161hhKiiuFWXLlhGLB2Knwy8F5Qh1KieBkCGLlywWFw4f7i1r1KghQuPff3dIQCzkD7p9YRMJqpyCycmOQsEEyerVf4oOjfgjGJgWL15cBo1t27YlHu2L6TF5wiyiVrkaUjvPOMEV4Nq1a/TBBx9KXHcQuHiJEtS5c+eH90LDGvuhFs4NE0ajRo2mJUu+llBxDx6Ey5I1+MR8/fXXNGb0GO6+r1Bh1u1hGkWYuexAjZo1ZNtL5PG/PXso8NYt8vD0oqfrPU2OPCDETOr8+fOTlEdOAIIDcTsvXmDdnHsbDNarVasmjX/D+g1SJza2NtSiRXNugjnbCLOKTC3eaNiwMasnZ2Xxxo6dW5LET0flLPpqiVhXMCUOvRMj+jZt25C7m5t4CSqWoPr5GrhC+St2cYNFBZIE5/z6268SnjkloKDBAxD1xIkTdOnSFf4eL5Joxsxp1KXL89p5/BzkCZJ85Mj3afkvy2XiBHmCT0qFCuXlHDg7IcItpLsz69Tde3Slzz77THRW4x4IxWWqxRtDhwxjCbpEbNtTpkyivn370pkzZ3nA3o+OHjkqKsTq1X9wL1ArWXllD/BuaPS9X3qZ9h84IPMk8+bOo2ef7SwNEoaESwFXZI3s5i3ruadO/s7ZohWbDiB7RvA4OzuOly5dRmzIsKHDLxt+7UUK82cRR0lWRRwe/i2JjyNhOdjUKdMVd5Xi341AQVifqSXtHOMk97FylOV+Ls6eqmmTlg99so3zhL+RgoPvqxkzZkkoEBcXd84j30fyaCv5xW/16jZQU6fOFF9v2JqN7wPge1bt7Dp27NilnJ1dZVFJly4vqMDAW2Ljnjx5iiyowOKXl3u/opiAhiuyD3gvRCaYOnWq8vIqKos3MMfwICRMRYRHqTFjxsraYdTnvHkLWRahXDABYZzMG1mU7P4s2bcmkeyQoJiy37d3n3wH8ABIUgASGbOHSbpAQ5QASP5XX3tVLDRc9hJdduvWrXIMVyYHj+1Y8hYWCQQf9SZNG8n0P56o+c4nBV4VqtLhw0fEnfX06dM84LorGfT08qSKFSpQ/fpPU3XuWaCvpyRMcQ9TSXZYNzCewFJBn2I+9PHHH1OvF3tKROQXe/WmvXv3inQfOnQoDRr0tlhATC3h8T64J+oV6su4ceO4hwuQMl21chXVqVtH8vHeu+9JuWF2fOeundwLu+Fq7SYPYd6SPRNkj6WGDZjsp7VQGjt2bhM3XuNKePAgVEbtGvTftcfIacJ++ZoE2H0Z09YwwyFb0MnhEZkq+D5Qi0A0V9Z/Ef4icao9hQcYoBMW6gzMkfhub28nliLkAUiNVPq1piA7GvSePf9Ru3bt5e/2/Dlt2lTyL1Oa/tv9H73QtSuXZQiPd0qIC3L3bt3Evm0qvutVz1Kddu3cTR+MHUuHDx3il1c8XlhAvXu/JBYs7g3p888XyntPnz6dhgwZbMhDcuqYKGPZBX7hDCE6KkbVrvW0LJerWqU6qzEZC5KUEaTnvvo5+MyufBgDzzCVGgPAfeLNNwewSmbDqpibmjtnvrg/QBVbtmwZqzL2rDLayTrVFStWsZqI5Y2me088ByEModoh2i/cLUaNHCXvBJVq7dp1D9VSRBZjIZYj5ZwdyDDZoUujYKDnIgzDnTta+Lv8Arwr4qlgrGBv5yQRvECKrOD8+fOqbJnyIkBKlvRXW7ZsFRKC9Ii/6OiohZxGeI15cxcIEU1R5qy6qI0bNzKZSwvJ7e14jPDyqzJ2wPOvXLmimjdvLs+GDj9zxqdZathPGhkmO8q4V8+XpHCKFy8p0WXzE9lBgu+++04Gx4jVjqi4WX1/DOoRkq6ot584gjVq2FSiDQBY1T+FB6zF/UoKGTFYf+GFrhJ38d69IMkP14ohAYl/p5Qv/IZF8nBGQ1wY9BoIr4c4Mv369lcXzgeIgQASHPEhEacdREcv5uFRVH3//Q/Ss+VGFJoAG2GGoPk3/7n6T0qIj2MtrSDr8I14QJf6Io28BCydg3/P7Vv3qEQJP+rb93UqXboEH4H+qqeM6a6YWII9H2bUk6dO0eUrV8QUWq1aFSpZsiRVqVpVZoSvXL0iSx7PnjtH69at4zzcEns89GfYvovwmIWll+jcMABoejVMr0rGWteuXZVliStWrJAY7OvWbZBjRYsWo1dffZXee+89KlmqJL/jDZo6dRp9990PVLhQERkz4N4hPMb5Z/Mmcb+AA58+vsktyDDZMXDz5YpZv2E93QwMFLsspr/Ll6tAtg8Jr1d28gFMboP2HiwU5FWwPnPmzJmyc51VEVtq174tvfbaKzKVnhQZIzuAAXLJkiUktiMmdC6cPy+OWFgtVKZMWZnYqVihImdD0eXLl2WZHLaJ3L79Xzpy5CgdO3qczp29IC4TN28EcoO5SufPXaDDh4+Kp+lff/5Ny5cvp2+++Zbzv4Ybyh2xZLVo2UI2WEZgJG8vbzp95rS8I/bJwgxqVW5oY8aMEdeOY8ePUkjIfdq7d4/MDWABNjZJkOad8VfOcWTYGqNj/fr11KfP6+JD4unhKUE427RtLavVsY5Uq3DcOlO3NxMUlMktRD04dOiQmAh37dpJ2KyrXNlKtHTpIqpVuyZXdPJZzsyY4ODyECeR1rBCatM/G+U3kPzttwdSl+dfkAZxnYXLnj17xCy46Z/NsjROwnnwM2ECdnS0FyIWZCJjXS+rSNxjhNCD0AeGva8SyMq6CNWpXZd6vfiiRGlDFAhWb2j37t0ScWHLli1yHRbSzJw5g5o2bUrRUVH0088/07hxH4r5FhOAw4a9S6+/3leemRuQabLHxMTRb7/+SiNGjJRd14oUsSaEqoD/i7jrFkxKgEw+xiyAKfKwsDCKCI+QyAfF/fzou+9/kLguWgg4nGUK0aZErYDH4ciRI8WHB2XpwcKkW7fuNHjwYHG7QAO8e+8u8cBWpvDXrV9HZ06fE4KinNH74j5QZ0Bu3BeuElBHWrEkf6ZjB/EdgvoCMy9cLn788Sf6fOFC2UIojhsFtprESjHM3uq+9/Ak/ZXrfNCgQRQbG8eE95Z8YmbVzi7jptecRqbJDkmArcUPHDgo/iSQCpBocA7Sqj3pbfEY/Mtt0Ce/eCAobgNdXuhCc+bMIewQDeg+4KaCXh1oYGPHjhXHOeQCP5cuVZrGTxhPPbp3l5JEHWjBnuLo3r1g2Y/2UsAlaSwREVEy7+Bd1EskNxy34KkI4mrPKCj+9IcOH5ZdD1F/aEQ4hIYyY8YMGjiovya4WJ3R3xF+TvAcHfDmAM5jgoTX+HTWp9SzV3dpOKYsC1Mj02TXoEmOiIhIcVP9559/pKCxh6dG9sRbZ+kxTwxQR5QsSIZHYrv27VhvLi9jFF1Vyc7K1Yk1Y8ZMCrh4SWY5ITCqV69Ob/R7Q9QLVzdXme21stLcmaHOGJU6/6Z9Q/HHxmr7pcKH/jCT/OtvvqH1PEgFChUuIJNqmDiK5IaCq+bPn00vsqqD3lp/T9QjepDvvvueJk78WCbm4FGKCA1dunQx60FrlsmuJa0wE2+lEyDx1iLVE7+mA4aTpQI1yC8ZukdWoT0Z9awljfzGrwlyZScg4bEmYOnSpbR582YKCAgQNQPkgwWnQYMGEoW3TBl/WTBux8TDbC5i9sAxLiYmWoQRIjRcvXxdpvyxJfyF8xdEJcMb+vj6UoP6T7N07klHuXf44stFdPfOHXJxcaSPxn9EvXr1erhSSQdUnx9+WEazZs2iwJs3JXoyLDgv8rlofA8rzYyQRbI/ClPdDhIDFe3h4SEVq8PE2U03slOCPw54Z7hOQNXAksbdu/ZIYCiQWFo/Z83W1l6sKa5uLrLpMrw1oY5EsiQPDr4vZkp4oeI3NFAsmoHvPHxfWrduLS677u5uFB4WQV8tWkTTp02XqA8+PkXp3XffFb9+CaNhAPJ0/34Ifc9jl7lzZ8uOHY4OzuJb88orr5Cjk/kNWk1OdlMA/umzWA+8ceM6ffzxJ6xClDccyd9AVWGQePr0GVneeGD/QTp46JCYKe+HhDKJtbAXsM6gDaA3hfkwQWk9AUykpUqVopo1alDtOnVkkArTInoEuUCAMCcREssHyyhh7fEr7kuIzf7yyy8/ssgaQumnn36mSZNYpQl+wGMEb3p32LvU742+Yj0yJ5gl2TFhMnjwUCb9FZYwM2jwkHeeqGQ1PyRIoFEQDRM9CEOHSABXebx043ogE/++6PcYW4Cc3l5e5OvnS6VKlyQvTy9yc3Nn/dxFBpRQd5KDx72il//yyy80evRoVlnuk7e3t9jbYXnRrTM6oNJgbDFkyDAZyFetUpU+/WwWNW7cyHCGmQBkNydgOhsb6ZYuVUZ81rGTnMyIG02DWwCgLDQ/csRzwZbzPLiUqXz41CDBPx3f4c+C43HxMSpeYuRjgwZsU6/Fh9HKNxGoA6SwsHD15ZdfSWx7uCnANwdb77B6aThTA87lxqF+/HGZcnBwUDxwlvgzOuB68PXX38pmE1u3bpc84ZqcRi4g+xQL2TMInazJkw44sr3wQjdVxr+cOnDg0CObtxmfD2LC+czPsCM2fGmwXSQaVnLATwf3xmYGAPbF+ubr75SrqxYMC56d2D/q1VdflaBMxnnKCWSvKSFL0NUWi/qSUUDlSynpwDJGLP9DwCMshmfKGY5oMD7fxsZWVBeE+cYAmDkjdnms10U0YmPgmmLFfGQSLOR+KH299Gsa88FYioyIloUnCOIK1WrFipX0wQcfyKRYTsKMya4NyFiYcyEafrAgy0CZwn4P1wFMCoKgWszL1KAtbOn/Zn96551B5OriKgs6pk2bLoNYjBt0yL14cAwrzbKfltGnn37Gg9b7PD5wkqjJMGM2btJIxgp/cCN7//3R3PBOSp5yAmZJdluWJvqsHQrTwnXTAmWKQEzoNSWql2HiKSWgDjC9AP+XAW+9KRs4IMrwrcDbNHv2HHGKw2BYBzw3f/rpR5ozZzZdv3FNLD3jmeSjR78vTnMffTROthYqUsSK1vy9Vgh/8OBBTbBlM+nNkuxwMsLyM0zFw9OQVTvDEQtMAcSXDAuL4HJNIP/S/oZf0wZID1XktT59JFIyrDwI3Yd1vOgpAFhwEOIQIQ1xDKFCYJJ8vS98ZzSfKUyAffzxJNkAAt+xxnjixIniaJftEp4fYFbAoCXoXrBq0KARD4gceBBVQd28id2dMYqyDFCzCizcwAa+iKxgb++kblwPNCwASSe4CsLDIxU2Ch43brxikj68fvHixcrT01PZ2toqn2K+avGipbJztnG1oX6x6zYWiWDFGwa9sOB06tRJHT16NFsHrWZHdgAvPGDA27Kjsru7p/r22++5QGHuspA984jn0otTe/b8pxo2bCyCBJ8gamYIBvMjEq6HZQZEx+o1WFuKMdHnzp0n5s/U7o3fYbWpU6eOhAwB6Z9//gXFA+dsI7xZkh3A2kh3d3eF7dU7duzE0h2xUyxkzzziVVh4qJo5a6bEqgG5Fi78PEvEwrWw5SOuO6ueQvQSJUqp6dNnyr616ekxYILElvWODs4KW8V37dqNCX8mWwhvtmTHREjnzp2lUnx9/NTs2bNFUliQOWDT5e3bt7MkrStlWqd2PRUQEGA4mjlAsi9fvlyVLVuW72mjfHyKa0R/AImuNYbHATuJHzp4RHXq+KwEhsKa1y5dusgaWVPDbMmOgtq7d+/DnZZr1qyl/vzzzxQnMyxIGyjLCxcvsJrwPJPSlvVqb5kZzWpZ3rp1W732ah+uHztRNzXVBbOjeGb6yA5gt/G9e/epZzs/x4R3VtZWNqzDd1YHDhyUe6T3Po+D2ersSJAcCxYslG4XK+CxFfu6desk1ooF6cfZs2fVc889JwNBe3sH1b//AHX9+o0sEwkREFq3biuzo+3adXjoBpCZe6JOEb+mfftnJIoCUseOnWUr/qzk0RhmK9l1BAeFqLFjx4nuDsKXKVNGzZ8/X2KeoBAyO8DK60CZgEDoDWvXri2DfZThM890UsePnTRJmZ07e04906GTkB2uB9evXxcBldl749qTJ0+rBvUbyT0RA7Njx45i8TEFzJ7sMMLcvn1XDX9vpHJgqQSzFgYyME3++++/WSrcvAqUBwIvIdIY4sHYs5CAT0vjxk2F6GLYMgGioqLViOGjRNe25cFp9erVhfBZEUAY0wYG3lbVq9WUsQXq+9lnn5XeKaswSxdfY+jZux8cQp9/8QV98/U34tOBVTbYR6lOnTrUqVMnql2rtvhlIL6JFmLaeMF38rmzzBxDPoyLKrVjmO81nvPNjmOJwGQPyogJRkFBQXT8+FEJUMqDUfFPKVCwkCy3a96sGc2YOZ2KF/fjawwXmwDYERubS+B5TFSZLMLWnAgFnpL7cHqA98GkFMJ7YI9b7LzdqXNnmjp1CpUrW4ZLRXchydiL5Aqy6xWKFe2bN/8jW61jedn16zdxgsywYt9UVxcX2c0Cy9L0tZcauNAf8saYREAax4z95DJ9zLjxMDJ1jCtVpVKx/DNmMDFNHxwUTNExkdzYC0mDR7BXbMmOZXVYaYS1tAULZYwgjwPqBQtJ4Ou+Zcs2cfRCWJWPP55I1apVlVnSzIB7BnFYGz36A+IeXN4RQm3K5ClUtpy/oX6NyisdMHuyJwUIoGQl/aZNm2jnzl0syU7QxYsBItXgo4GVOVqDT4Us2ULotI5lM9kZIulwDv/n4uIkUcQQwKhu3XqyczeiEkhsmdRvkSWAmNid8KNxE2jturVC+DatW9GH4z6UxeFaT5txoLc6cOAQffLJJ7R923apX7zPws/nk4+vD79uxu6by8iuZRVZRgoNfSDRsbDbHHa3xoodxHdBT6CfqyF5Lad2TLtvItJ7HZCeY8l/B1I7ltb9koHzjGhs7m7usiwOMdRBeMRY10JhPOZ6EwDlBrfhiRMnyL5V8Gxs3rw5TZs2TSIzZDYLUGEQ7mPC+Am0Y8cukfAfjvuAe5L3+Z55muzJoWUdb8ADVWn5+MwscnNRgNQgGJbMgdw5QfDk0CX8pEmT6M/Vf8muhdgo7YcffuDxlHem8oQ6gYQ/ePAQvdjrZboZeJMa1K9HGzauz7iKBLJbYIGpAEsME178XGA1w4RglSrVxEqTWcCyExBwWZUvV0nZ2TmJAxlMzxlF5pSpPAQuA8NfuQeJeYa2bl75h36OCL+ffDJJgqZC+mJFUo8ePQzu2snGKY8B3hXBc8eO/YA/r/EvCRIrRwtUlUGA8fkbcFbSErwCsXjZPJJmq0Z6FIl5ZrmHH8wOyDcWXXfo0EF2D3F0dJYJrcOHjirWww1npQ34zZw/f1H169dfOTu5ykRTtarVFTeaVMolbeRynT3zwGtDx0dUXm1pma5PmktxaPlB1C/ovZBkGJzt2rVLwlUj/5hnKF++gsRyzKyJL7uA/CHBfIiYlRs3/CNzIK1atZJIwDBLpiWd0QPA+DBt2gwJtY3IwXXq1JIBb6NGjTKl/+drsiP089Ch78omZU9iQJc2tIkTbLo7depUCWYku9a99x5354FyBnaa7tS5I40aNVI2NjYnGNMKE08Txn9Mq1evlkF0i5bNZQUTgq2mVu6IMDZ69BjZWj8iIoIaNmxIEyZ8RI0aN8p8wwbZ8yvg8url5a24AsS11LyStSRMwR88qHn/7dy5U/n5+SU5r3fvl9XVq1cNb2Se0AetL/Z6UTwknViladeuvQq4eInfy3CSAfh+926Q6t69p+Z3b22nmjVrIfFmMCjNjPqiI99KdgBqAaQ71mSan2TXBnvYeQMbEqDLh1l13759MmBDfiElMXnk748ZRfPLvzFAM5glEVJvzZq1VLBAIbG///77b+TjW+xh/jFhCDeBbdu2ickRu51Ddalfvz6/byYGpUbI12THq0M31P8GzIk0yIuedCCfekrpuDkDedZ8aUbQ1q3b5DtUmV9++Vl8djALPmTIUPr77zV8MslYBDuBNG7SmBu+4SZZQL4muzH0YsgtxMmtQDkjVsyoUe+L8xjKu26dutTn9T4s8f+WePFRUVFUoUIFmjt3DjVp2pTPQb0YbpAFWMhuQY4DlIPzGKKCbd68hVQCmKyxGaSuVr06zZgxTfZ70h36TCGE8hTZk7+KcQHpx/Bb4nk4nvSapPdIXsBpHTNG0nsmhfF1Sc9D3kxRqeYOlDHSuXPnWXrPpa1bttGdu3clrnyDhvUlehgmjqC64DxTlUmeITvssAjHpm1zo22YBcmA6FMwVcF8BT9rOIo94kFokB64LmlxGCuK+D21Y8mR2iwhnpuc7No9kV9UcIsWLR4JCZ3XoJczBuAwMWJmFWGvscuiv38Z2STNFDp6cuQZsm9Yv5GGDhsmO/dxSTKFEqhly5Y0efJkGehgX89Ro0YnTleD8AaSJ8ETKg0IryZNG9OUKVPESpFfAPol722zq3PLhvbzZODl7SUDm9AHobKQARIciziwJygAaYFjYaFhWuLjD/82Tvj9CSTkGaZEhJjLT9BVFF2Fyy6iA3lGsuvTy5gNBbBrGwgOn24diEuI7jJpG0/LMSkzakzy85Ij5WdDdUF+sYeUBdmDPDRAhR6YYOgOIR50SZEoKh6qMElgarIDqd1Ty1cijO+JvJp2T1ULkiJPWWMssCAtpCWeLLAgT8FCdgvyDSxktyDfwEJ2C/INLGS3IN/AQnYL8g0sZLcg38BCdgvyDSxktyCfgOj/QuNCpiG8QcQAAAAASUVORK5CYII=;strokeWidth=3;imageBorder=default;shadow=1;" vertex="1" parent="1">
          <mxGeometry x="578" y="350" width="187" height="179" as="geometry" />
        </mxCell>
        <mxCell id="OqSYDqfYlpPWh9uUhqye-10" value="" style="shape=flexArrow;endArrow=classic;html=1;rounded=0;fillColor=#d5e8d4;strokeColor=#82b366;" edge="1" parent="1">
          <mxGeometry width="50" height="50" relative="1" as="geometry">
            <mxPoint x="509.54999999999995" y="389.53999999999996" as="sourcePoint" />
            <mxPoint x="568" y="390" as="targetPoint" />
          </mxGeometry>
        </mxCell>
        <mxCell id="OqSYDqfYlpPWh9uUhqye-11" value="" style="shape=flexArrow;endArrow=classic;html=1;rounded=0;fillColor=#d5e8d4;strokeColor=#82b366;entryX=1;entryY=0.5;entryDx=0;entryDy=0;" edge="1" parent="1" target="OqSYDqfYlpPWh9uUhqye-12">
          <mxGeometry width="50" height="50" relative="1" as="geometry">
            <mxPoint x="569.55" y="500" as="sourcePoint" />
            <mxPoint x="438" y="500" as="targetPoint" />
          </mxGeometry>
        </mxCell>
        <mxCell id="OqSYDqfYlpPWh9uUhqye-12" value="#F321 B57A" style="rounded=1;whiteSpace=wrap;html=1;shadow=1;strokeColor=#6c8ebf;strokeWidth=3;align=center;verticalAlign=middle;fontFamily=Helvetica;fontSize=18;labelBackgroundColor=default;fillColor=#dae8fc;" vertex="1" parent="1">
          <mxGeometry x="298" y="513" width="120" height="60" as="geometry" />
        </mxCell>
        <mxCell id="OqSYDqfYlpPWh9uUhqye-19" value="" style="shape=image;verticalLabelPosition=bottom;labelBackgroundColor=default;verticalAlign=top;aspect=fixed;imageAspect=0;image=data:image/png,iVBORw0KGgoAAAANSUhEUgAAAh0AAACmCAYAAAB+8j14AAAAAXNSR0IArs4c6QAAAARnQU1BAACxjwv8YQUAAAAJcEhZcwAADsMAAA7DAcdvqGQAAHDgSURBVHhe7Z0HfFTF+vd/SXY3m0p6QoAQeuhNREQQFFQQBBVE8SJ2EStFxYair1dF1CsKFmygYEGvIEpHeq+ppFfSSS/bN+88s+dsdsOSbAq53v+dbz7nkz3znJkzZ87umec888w8LqbanDo0wpGzifhh2xE8cPt4RHXrBE+1SpIIBAKBQCAQOI+r9P+y1OoMCAn0Rf8eXYTCIRAIBAKBoMU0qXR4uqugNxphMpulFIFAIBAIBILm06TS4e2lRq1GD63OIKUIBAKBQCAQNB+HSofZbEZZZTWKSytxKj4dHYP90cHbQ5IKBAKBQCAQNB+HjqSkcKxYuwUVlTUI9PPFnNvGomeXMEkqEAgEAoFA0HyanL1yIjYVv+89jSWPTIO3h1pKFQgEAoFAIGgeTfp0uLm5wgwTzOZGdROBQCAQCASCRmlS6dDpDFzxULi5SSkCgUAgEAgEzadJpaOwtAJqtTuUCqF0CAQCgUAgaDlNKh39enRGdm4x3v1qE47HJEupAoFAIBAIBM2jSUdSoqJai/iULISH+iMyPERKFQgEAoFAIHAep5QOgUAgEAgEgtbS5PCKQCAQCAQCQVsglA6BQCAQCATtglA6BAKBQCAQtAtC6RAIBAKBQNAuCKVDIBAIBAJBuyCUDoFAIBAIBO2C22svL3xd+iyQqI47DX1RPpQBIag6exgmnQZK/yBJaqFoy3qkvDEPnpG94R7eVUq1YNZpYawuh8LdA3BxkVJbj66oABXH98DNyw8KL2+YtRpUnDkEhbcvXNWe0lEtoy3LckSd0WhtSzcPL5Sd2AtXdy9+HW1BaUUqki9sg793D+SXRCO36BQCfLvD1bV+Jd3sgiNIztkBD5UvPNQBUqqFssp07D37FqJTfoLeWIUQ/37s1sk6eR1SL+zBvjNv8/zenqHw9QqXZKztzEZEp27AoZiPkFl4EEG+PeHh7i9Jm5bXaC/iYPR7OHX+K1TV5iPYrz8UbipJyr5r5YnYe+afiEn9+ZK6pV7YjbTcv5B38Yx1s70+Z9pFIBAI2gth6XBA4db1fKvTa1HwyxrUJMdKknp8Bl+NoJtmQM2UjoaUsw41492FMGlqpJS2oSbpLLI+XYb8n1fzfUN1BfI2fAJtXjbfbw1tWZYj5LYsO7qbnyufzpWfLklbT1bhUew/sxy12kIkZGzCmeR1kgQwmnTYeeIV/LL3Iew/9y4/1paM/P1Yt20aTEYdOgUPxbH41fh13yMwmfRcvuvk69h29DkE+fWCpzoIG/fMtZZPx9CxlIfyUhlUFpXpjPwiUwrWbr0VxeVJ6Bo2GknZW7Fh5x3Q6Mq4nI77YcdM6PSVTNnog0PRH2LTwflMYlle52TiV4hL24iMvP3WrbImj8uIxtpFIBAI2huhdDjAzdP+7dt2n6wYuosFcPX0QciUe6H0rX9jlmUm1qma9HroSov4vqH8Ilzq6tdgk49rmG6oqYC5tgp6lq/OYOD7tNniHhYBfW4mDGXFUko95tpqu+N5GXSc2cQ/GytK+EbH0L58HlvqWH2oXvqSwktkBOWlutO57GDnoHOZ9TrH+d0UgLL+7d1FoYSbykPas0DnLq/SoLpWK6U4j9LNg729s3NIuLmp+EbEpv3MOt/DmDH+K/j72FuliLj0f6Nz6EhMvW4lRg14Ejdd/RZTBs6jrDob1ZpCZBYcwLihSzB2yPOYOGIZ+nWbjsSsP1nOOhRXJPFjJ1/zAc9LZYQGDURS1jZedlPylJzt3Cpx+5g1GNl/HqaO/ghaA1MAL57h8rNJ3/O63TluDT//BHb+wtIY1k71yuGQ3v/AXTd+Z90iw8dKksbbRSAQCNoboXQ4gIZVLgdZMeIfn8y3hGdnoCY1TpLUy3K+Xg5NdjLOL5jB922tHiV7tyDmsZuQ8c4CJC6+G0lLH2YdeSWXZa9ahqRXHkTam08iYcGdyPzwZSQ+OY2XK+NGQzasw65JipZS6snf9C0vQ4bqlrJsHlN+ivnn88/di4wPluD80zOQ8tZ8fp7U/zefD63IFP72DRKfm43EhaxuL94HQ0UpTycFIuNfL+L8/OnIev95dg2TkPfTaqvSROdIee1RXv/E5+9l1z4Tya/VX5uruxpu3r788+VIzSnA4vfX4qWPfkBpRfOsRJ4egawzVUp79vTpOhn33fwHgv37Sin2VGuK4O0Ryj5ZhsL8vS2KSWVNDgyGGhiNGnh51n8nQvyjoNGVsK0ctdqLPM3HKndh+bsxhSWL7zUlr6zJh1rlB3eVF9/3UAdCpfS2WituGvkWJo96j32y1E2psChqdXUm/p/Q6u0VU1saaxeBQCBob4TS4QD/URMQOvleuKjUCJvxCLz6DJUkQMCYSRi28Qz6f7oVqkB75USWRT79Frx7DsCQtQf4fu+318HV05t3wEXbfkTkvKWIWvED+q/cRL0HKo7skkpgHdrU+9B90XKowiLQY+Hb6DDqZqYwxEtSdsOUSvhddT3KT+4DzFKik6g7dkGPFz6A38gbEHj9bfw8pppqPtxBmGpr4Dv0WgxcsxN9V29Gnasryo/t4bLqxLPQZqUh6oMf+fX0fOUTlB/dC01eJpcTZoMewTfPwMAvdqDvhxthrKpAVfQxSQreptS2Su8OCJ/9JNThEZLEQueQQNw4ciAmjRmCDt72VpCmCPbrizGDFsFTHcotESOiHpIkrON1D7R26o2Re/EMjsR+DIPZMqxiB7tPZ5O/QxK3cFwK5aG8VIYjmpKXV2XiwLnl0DVQILw9Qmz8P+qQkLkFvl5d2NZZSgP2n12Od76LwAc/9MWWQ0+xMuoVtsbaRSAQCNoboXQ4wLNbFLwHDIeLQgHf4WPgHhImSVqHWVMLF7MZCr8gy/BKbTVc1B7QFedLR9Cwg4JpB2q4qsgE7gI3bx+LwAbvfsOgy82E/mL92L0zkBIhl2k9D1NiZNw8vfi1E0ovX6iCQvkwCWEoL4HCP5BdhJnX3cXFBXUmA4yV5VxOkDVDHR7JPys8vJhy4UtODXyfoDal8l3ZNftdPR6KDqw8GzzUKtwzaTQmXTeUvZ0376vp4xmGAT1mcuWiS8gI9Ow8QZI4T3ruXsSk/QCt1mLdscVg1CA2bSPOZ/0hpdhDeSgvleGIpuR5F6MRnfIDSirTpJRLOZX4NTJY/jGDF1uHSGg45rFp+/h225iPkVVwBMfiP+Eyoi3aRSAQCNoKoXS0MzSrJX3FYiS/NJdv2uzUS3xImkLVKQLKwDBUxdg7RF5paEgn6eX7eb3TVzzHFQ8XGz8NW8iyQxYRsv78tzBm8CLMm36Ed9QNUSo9cd+k3zF97KdSij2Uh/JSGY5oSt6v2zQ8NfMswoOGSSn2kMJxJGYlJl/7PiJCR0qpFkuIv293vpFC0bPzROSVnJOkAoFA8PdCKB3tjMLbD31e/5IPQchb2PT7JalzuLI/GiKpPH0YdcZLnT1lyDGTLBNthVffIRiw+k9rvfut/A1ePftL0v9eXFzqHS0JU52ZO18qFd5M5mbniEmYzAYoXN3hxjZXlrd+aq0F8rdwZ3mJJuWu9kpbHcxwYbeNHEBlknO241jcKtww/FU7SwX5omw9ugiFZfXDb1RfgUAg+LsilI4rgZsbjBoNjNpaKcGCq4dl/YuKmKPcAZNmkiS/MQ8Xd/3C05uDd//hMBt1dkqHV/coaDNToM3NZMqGCRUn90HhFwilj590ROOYWJ3LTx/keWkmij7/AtyDO3KZkpWjz8uG5oLF/F8VewLJL97H9ttu2mtFtRZvfLYRH2/YBp3+8spUW9MpaAhyio+iqraA7dUhNn0jUwaUCPDtBk91MDxUAXy2Ca23odGXIz79VwT59YFK6cmO6cGViqTs7TwvTYHNLDiETsEWi0VTcjo3rRGSd/Ec30/O3sbOUYVgf8swF63Dsf3oC7hmwBMY0GMGT5NxY3WktTfOJK7ldaP65xYdR4BPd+kI59Do9Fj+ze/4/g927wUCgeAKIpSOZpK74ROcmTmMz0rR5mYgeelDfJ/SZXwGXwNVaEfEPTaFy9KWL+Tp5CfR+ZElKPp9Hc7OuQ6x8yZDwdICRjd/CMI9IASe3frBWFM/dbXD8Ov5uc8vnoVz941F+dFdCL/3Ke5r4QxuHh4wlBYi9qGJiHt8CpQhYehw7UQu8x0wAoETbkfyqw/j3Jwx7JoWwf/6W+HZqRuXtwXlVdXILypHVv5FaPX1viCthRxAydHyo58Ho7gsGTuOv8z36T9xVd+H4O3RCZ9tuhYrfuiN+LRfMHH4Mnipg7hiMX74q3za7Ac/9cWqjcOhUHhg3LCXeF5aJOy6gYtwPOELfPhjFL7+40aEM0VieNSDTsl7R9yCbh3HYf3OO5i8D/aefhPXDX4aoQEDuDwtdy9qdWXYffJ1XmeLw2gvpOft5Q6mNw5byo7Zg+Xru2PVr1fD3d2P5V/A8zqLRmvAhYISdA2zXwBPIBAI2hoXU21O/UIRgnaDZrIoVB5wsXHkbCtoeqtRr+FKTkug/Gajnq8ceglmE4zVldx6UteGq63KGAxM2WDFKhXtP0xAi4jpDFVc2XAELdhFQyqkiDiCVhZ1V/pA4eYupdjTmJwsFbW6Eu6jwRugmdBQi0rhfdm6NUZKdj4+Xr8dT917C3pFWCxbAoFAcCUQlo7/EKQQXAmFg6ByW6pwEJTfocJBuLpB4et/RRQOQql0+48oHAQpA5dTOAiyLDTWqVPeyykcRGNy8huxXSukuZCy0hKFgygoKuczh0IDnRuGEwgEgpYiLB0CgUAgEAjaBWHpEAgEAoFA0C4IpUMgEAgEAkG7IJQOgUAgEAgE7YJQOgQCgUAgELQLQukQCAQCgUDQLgilQyAQCAQCQbsgpsw6oDruNP/vFTUYVdFHoQgItkZflSnash55P65C94Xv8ki0tph1Wpg01VB1CGzT9Sxo2fTKc8dQZzJKKewGUsTWYWN45NaG0PHVSTHwHXQNl/P88Wfg238YTDoDalJjLpu3JdCS3US3jmORlL0NPl7hPLIpkVN0EgUl0fyzjL9PpE0skTqWfw9iUn/iEVSHRz2AzsFXSTLL4lkxaT+yY/bC08Mfo/rN50HOZJqS08Jcx+JXoaQ8FRGh12Bo7/vtwt3TUuRHE1ajVlPG6jQeg3rcbRNzpXV1kykqT0ThxRhERU6FUlHf5o3VrbQiFWl5+/hnGft2A1+aPSnrD6gUPugTMckagZagBc/OpaxHZv7hFrWbTGXNBWTk72fnvdm6lonJpLfe5xC/fkjM3oQuwSMR0KEnlwsEAkFDhKXDAYVb1/OtTq9FwS9rUJMcK0nq8Rl8NYJumgF1ZG8ppZ7yE3uR8e5CpnjUSCltg7G6CpWxJ1ByaBty1r3PzvMXU5BO8Ye/I7R52cjb8AkM1RXW/dxvV/D/NUlnUfjLFzCza2wrTiZ+xTe9sQZH4z/GhaLjkoR1npXJyMjbb92Oxn6MU0lrJSmw6+Tr2Hb0OQT59YIn69Q27pmLM8nruIyu79d9j7COeTU6BQ+FyajDum3TeCfojJzinazdeiuKy5PQNWw06yi3YsPOO/gKowQdR8dTPspP5VB5cru2pm4ydK4th55EQVm8ncIh1y236BTLfxWi037CT3vuhk5v+e5kFR7lwd5s247ircjkXjzD8k/G3tNv8zantpehuv22fx5OJKxBaEA/VNcU8rplF1rui7N1J8Xl90PPsHwnmcIRKKXCep8TMjahVluIQ9EruWIlEAgEl0MoHQ5oGGredp+sGLqLBXD19EHIlHuh9A2QJPUyE+vkTXo9dKVFfN9QfpEHeJORj2uYbqipgLm2CnqWj5Yip33aZNSdIhH55DKEz3wMKr9gdH74RUQ8+hKUXh2kIyxLmOtLCnnZPMqsDWTRcHGrj5jq5u4JV4X9qqhms5m99VezTsSxItMYcuRUGbWqvl6De96Lu278jm3r4OfTla++eeuo97isWlPIY5uMG7oEY4c8j4kjlqFft+lIzPqTSetQXJHEOufzmHzNBxg14ElMvW4lQoMG8iBsRFPylJzt8FAH4PYxazCy/zxMHf0RtIYK5LEOm4hL/zc6h47k+Sj/TVe/xcsrq85udd1kziV/z6PTjuz3mJRiIYcpFbSS6IwbvsXoQc9g2phVfEnz/BJL3Ygg/yip7SybHB6fFJndJ15Fry6TMHboczzNljymnBSVJWDKtR/yPHeO+wqBfr2l4HNNt5vMmaRveTuMGUQxhOotd7QkPEXblXF1dWHXcpmVbAUCgYAhlA4HKAMo/oVjyIpBwd5oS3h2BmpS4yRJvSzn6+XQZCfj/IIZfN/W6lGydwtiHrsJGe8sQOLiu5G09GEeh4XIXrUMSa88iLQ3n0TCgjuR+eHLSHxyGi/XGXRFeTzYW+LCu5H43GwU/vaNJLHg5uPXZPC3k3GpeOrtb/DuV5t49NHm4MXjhjRGHQ7HrGRv0vswZcxK+HiG8VSDoQZGowZenvX5Q1hHq9GVsK2cKUAXeZqPVe4Cf+9uTCnI4ntNyStr8pkC5GcdsvBgb+sqpTdLz+P71MnbLkHu792V/6+syWl13YjyqmxuwRjWey4PAGcLhbAn1ZCGOQiz2QQXFxe4udXfJ7JIyFYXW1QKL9w5/mvcOPxVuDoIad8xcBDm3PIrOodYhoLc3JR8yMhstpTlTN3JEnM66RtW9zlMWYyQUi2QsqRStXy5fYFA8L+HUDoc4D9qAkIn3wsXlRphMx6BV5+hkgQIGDMJwzaeQf9Pt0IVWN8REbIs8um34N1zAIasPcD3e7+9Dq6e3ly5KNr2IyLnLUXUih/Qf+Um1g/XoeLILqkE1qFNvQ/dFy2HKiwCPRa+jQ6jbmaKTbwkbZyKo7ugYIrFgM+3YuCanfDuMwSm2npzu9K7A8JnPwl1eAS/Jro2ukZbenXtiBtHDsDN1w6Gh3u9b4AzkAVgRNRDvDMc1f8pdA0dJUkslFVm4HTi16wTzsXO4y+z/5mSRIK1BUWETeJWhEsxsM7ySOzHfEjBEU3J6XwHzi2HTl9vPbKF8lF+KucSWlG34wmfQ6st48Mcq34dgWNxq61KBvl3hPr3x0977sX2Y0uw5fCTLG0aukiKAnGh6CTe29ATy9d3xddbbkJhmeX7QL4bFmXJMRTnxders9U3Jb8khvuudA8fy/dlLl/3Ot5ePp6dMKzP/dy/JCFjs50CRPeb7runOhRjBi1CsF9fSSIQCASXIpQOB5DTqPeA4XBRKLiTqHuI5Y28tZg1tXAxm6HwC7IMr9RWc0dQXXG+dAR712TnhFoNVxV1+OyN19vHInACQ00V3Hz9rI6hXv2Gws3GSZTS/a4eD0WHQH5NdG38fDYEdPDBA9PH49qhfaQU5yGnUXJwpM6wX7dplzgUkoPi03dF4/HbD/OO8M+jz9l1YAajBrFpG3E+6w8pxR6tthQxaT8gPdex5acped7FaESn/ICSyjQpxR7KR/mpnIa0tG7lVVlIy92NHl0m4oFbt+LWUe/jVOJXOBj9PpdTVNuq2kIycaCi+gKMRgOqanJhlNqlf7c78di0fXy7/9Yd7Kvhjx1MOZF9PpyFnFW3HXkOHYOGoleXm6RUC5ereyK71tzi03xYiRQY8i9p6DdC95vuO1mRBvSYyRSUtvmtCASC/5sIpaOdMVaXI33FYiS/NJdv2uzUS3xI2goy07PeXdr7+0BDDGSup+GLqtp6hUup9MR9k37H9LGfSin2UIc2b/oRq09DQ5qSkyL01MyzCA8aJqXYQ/kov6OOs6V1IysF5R0/7EUepTYyfCwG9JyFzPwD0BtqcSj6Q9TVmTH31m2YNeF7zLnlNxSUxiIxcwvPT0MYpKzRFuIXhZH9HmUKRDHIcdNZSOHYuOc+eHuG4rbrPmYp9jOqLlf3sykbWFsNhY9HMLeQaLQWx1uBQCBoKULpaGcU3n7o8/qXGPjFDusWNv1+Sdq2cEdS9gb9n4YcKP8680+clzpSQp7BUVdHPgxu1iEAGcpDTorkrOjqomDH2H9VKZ/suNqk3NV+mKgOZriwpiF/CsKF5bfFxJQAqo+S5W9t3QwmDe/ibctwV9SHoC+tSkdQh17WkPc0HdXTPQj5pZYhFLKIRKeu55+JhudqCrKIbDm8ACqVD6aO+dgutH5TdSdScnbi883j+HYgeoWUKhAIBC2jeU8wgXO4ucGo0cCorZUSLLh6WDqbipijfNYKrZuR/MY8XNz1C09vLe7BHaHPvwBDWTFTNkyoij0Os8GBf0IjZBdcxJJ/bcD6Pw+yDsh+9ktLcXNVsrfkiziR8BlfU4L8GZKzd7AONgReHmHwVAfDQxXAZ02QjI6JT/8VQX59+Jt+gG8P3jlaZl3UcefGzIJD6BRssVg0Je8UNIS/qeddPMf3k7O3sXNUIdjfsvYKyXOKj6KqtoDt1SE2fSNTEpSs3G6trhtZCrS6SsSl0T2u434lVH6XsGt5/u4dxyItd691Gmxa3l/cdyIy7Bq+X6stxcnzX/K60flJCSAnWLW7P5c3Bk113XxwHrTaEj4rxkPlJ0ksNFX3eyb8gCVzsq3bzSPf4unN5YtfduHD7/+EwWCSUgQCwf8qYnGwZpK74RMU/va1tFdP6O0PotPsJ/lnchjNWvkKKs8cY3tGdBgxDj2e/4DLqpOikfnhEhirK/kiXx2uuh6Rj78GV08vpC1fCP9RE+HVdygufL0c3Z58A/mbvuX5qOzq82eR+s+nYdbaOIf6h6D3P7+Fe1CY9bxV0cfhonZH4DU3oSrxLHq8sorLneFsYgb+9d2f6N29ExbPmQp3lf1bfkuhzva3/Y+hsOw83+/gHY4poz+2Wzzsj8NPoYZ1kGSd6Rg8FNPHfmZdiCo+/TfsPrWMiTQwmLSI6joVk0e9b31zb0xOne+uE0sRl7ERCqZMEDdctZRP4yVIkdh88CnkFB5mnbAb1EpfPs2UhkKItqqbRlfKy4/qOgm3jHyP+0FQ3bYdXYzzWb+z/HVQKNwxPOphjB/6PMvpwodGNh2Yx+p2gpfl7RFsrRtNmd2wayaKy5K5TMaTKSQ0TEN8t/121Errkch07TiaKxREU3W3hRxpzySvxeyJG/lQkTPQDKh3vtyEPt3CMXvydVKqQCD4X0UoHf8hSEFQqDzgorRfJ6MtoOm5rgpVi8vW6gzsbZqGFdreEEZ+DCaz7rKdFnWkNGxBVgBHUCfsrvRx2CkSjcnJUlCrK2EdN806svdrIEgBIMdOWZloyH+ybtRuemO1JG97mqp7SymtqMGyT39mCsdojBx06UJ6AoHgfwuhdAgEgivG+fRcfL5xJ557YDo6hThnHREIBP93EUqHQCAQCASCdkE4kgoEAoFAIGgXhNIhEAgEAoGgXRBKh0AgEAgEgnZBKB0CgUAgEAjaBaF0CAQCgUAgaBeE0iEQCAQCgaBdcHvt5YWvS58FEtVxp6EvyocyIARVZw/DpNNA6W+/YFTRlvVIeWMePCN7wz28q5RqwazT8sBuCncPgIKutSHG2koU/rYWxTs2QpuTDo9uveCqdIeuqAAVx/dAk5HENzcvPyi8rkwgucvhTLu1FFoaPPnCNvh79+BLhucWnUKAb3e4urpxOS2uFZ26AYdiPkJm4UEE+fZ0etXM1kBRcikaq5urAh7qACm17ZDL1xqqoFb6IT5jI1RunlfkXAKBQHClEZYOBxRuXc+3Or0WBb+sQU1yrCSpx2fw1Qi6aQbUTOloSPmJvch4dyFfGbQtMddWI+2tp1mHfgjevQby/7RP6YayQlScO4qK0weR991HqEk6K+VqP5xpt5ZCYdX3n1nOo6smZGzCmeR1koSow6aD83EkdhWC/PugrDILG3bdg6LyREl+5aAw7xTunep3JZDLp2umaz8UvbJdrksgEAiuBELpcEDDUPO2+2TF0F0sgKunD0Km3Aulb/0bpywzVVfApNdDV1rE9w3lF3mANxn5uIbphpoKpkBUQc/y1RkMfJ82maqUGJiYPHLxewiZei+6LlgOY2U5T/fuMxjdF76DyCdeh3tYZynHpcjn1pcU8nM0hM7H5awOFDTODrZP6bzuNvWSaazdZGq1eqYUVMPczOi3FBHWNlKrm5uKb0R5VTYKS2Nww/CXMW7I85gx7lv4+0Yi/cJfXE5LiFfW5MFg1LBjs/hnUlTsqePpFBiOjm8IpZGM8tNy6Y1Bx1KdyPoiI+dveG46prLmAq8byRqWT8uuU0RbGVdXF6iUXtKeQCAQ/HchlA4H0PDA5SArRvzjk/mW8OwM1KTGSZJ6Wc7Xy6HJTsb5BTP4vq3Vo2TvFsQ8dhMy3lmAxMV3I2npw6wDr+Sy7FXLkPTKg0h780kkLLgTmR++jMQnp/FyCVNlBRRqLyg8LJ2OOjgUvd/8Ej5RlqigTcHrN+8WJC35B5IW34Pzi2dBm5fFZaT85P20msmnIPmluUhadDcSFt4FXRF1kpZYMcmvPYrEBbO4PP6Jqchc+SrqjPUda2PtRlDwr3e/2oSn3v4GJ+NSpVTn8PQIZEqG41gyNMRC0VINBksbUyC12RN/wjUD5vP9+IxfsX7nHVi3fSrWbbsNazaPwx9HFjGJpfOnuCPf/nkrvvlzMn7Z/xBW/ToUpxLrg/rFpW1kaSNY3mnsuMlY8/v1l7U2UFnfb5+O4wmfWod+qCwqk8qmc9C56Diiojqb1W0G1m6/laVPwtd/3IJ1W6da5RTnRaXy5Z8FAoHgvx2hdDjAf9QEhE6+Fy4qNcJmPAKvPkMlCRAwZhKGbTyD/p9uhSrQvpOVZZFPvwXvngMwZO0Bvt/77XVwZW/91HEXbfsRkfOWImrFD+i/chPr9+pQcWSXVAIQMvU+dF+0HKqwCPRY+DY6jLqZKTbxktSeOhcXKP2C4OqullIuD0W01eZkIGL+Mgz6cjcGrNnJztEZRX9s4HKyypQf3oVui9/FwC92sOv7k0fH1RVYlJKq6GMwVVeh38f/5vKoN9fCzYtdU0UJlxONtRuhVikxYdRA3DhyAHpHXt4a44hgv74YM2gRPNWh6NdtOkZEPSRJAF+vzujZ+RbsOPkKNuy6mysJDa0ROl0VJl2zAk/fFY1pY1cjK/8wCkotCiMdT8ybfhiPTN2LccNewbnU73nHbzIbUFSRgpuufgPPzIrFUzPPsvN1wfH4T3kee+pwOOZf7L6Ycd1gUmosUWKprAlXvcHLfnTaXiavs56TMJkMGNR9Fq/bg1O2Q2uoQOqFHZIU/FrpmunaqQ2oLQQCgeC/EaF0OMCzWxS8BwyHi0IB3+Fj4B7iXFj4pjBrauFiNkPBFAU+RFFbDRe1B3TF+dIRrJti54RaDVcVDR24wM3bxyJoJS5uCnS84wF4RPZG6cFtKD3wJ1yY0mIoL+Zysp4ovHxQdnA7quNPw1hbhU73zIfvoFFcrvIPhklThdK9v0OTnQq3gAB0eegFpniFcjnRVLvR+cYM64sHpo+Hv6/jSK2Xw8czDAN6zORWDAqH37PzBEliYcJVr2LWjeuhdFNj18nX8cXmcXbWCB/vjvD3sTj8BnIHVBfUStaE8uoLCOjQnftM0BAIDWcYDLXQ6yvh5qrEDcNeRMfAIVJo93XcqlKtKeJ5ZTTaMsSnb0Jy9jZcP2SJNVItlVHHFEtvz1BetlZXxuroyc8pQxacID+Lb5C7ypdtPnbDT3StdM107dQG1BYCgUDw34hQOtoZmtWSvmIxH6KgTUsduAPfh7aGhkEyPl6KpFceQvnxv7jTqa6wvuMjS0yXx1+FqbYGmR+/wodP4p+50zr84hM1BOH3PIkyljf1tUcR9+AEZPzrRYd+If8ZXFjHfDVm3vAtnpp5Br5e4TiZ8IUka5rUnD34bvvtfNt75i0oFR5MuVDw2SO/7nuED4EkZ+9ARt5+VNXmSrnqOXH+M6bsvAx3d1+EBQ6UUi1odZX4/eBT1vJpJo76MkMmNOPmoSm7MbT3HClFIBAI/u8glI52RuHthz6vf8mHKOQtbPr9krR5mLUa5G74BLUp9X4ll0OTk4qaxHPo/vwKdF/8Hnc67TBsjCS14BHRCz2efx8DPtuGIesOQRkchtKDW7mMhnICrr8Vff65FgO/+Qt9V/yI2tR41Gac5/L/JIVl8dh6dJHV+qBwc0ewXxQqa+stSE3RK+ImPrwhbw9P3Qs/nwjklUSjoCQW08Z8ilkTvsddN36HrqHXSbnquX7oi3iQKQt1dWYcjVstpVpQM0Vk1sQNduVfP/QFSSoQCAT/Owil40rg5gajRgOj1n4WhKuHZUihIuYod9w0VpQg+Y15uLjrF57eFOrO3aAvL0F1qmUqanXyOZQd3MZ62fpZHXBjn5Uq1KYzZcBm9ombUs07RGOZZUiBzl2TcIZ/Jmg2S8LTt1udVskHxDZ/6ZGdSHh2pmVWC8NsbL6Fg4YZ1v95EEv+tQHZBZZ6tAms3PTcfUjI+I12UFVbgNyi4wjw6W6RMyqr85HD0oi8i9Ewm+vgpQ7m+37enVnaWVRUkwWjDifPf4m1W2/l5SgV1G5G9tmiwFBaXvEp/rkhZF0ZO3gxzmdsQkb+fp4mO4Gm8Zk0lrqRM+uxBopJa/nil1348Ps/YTA0mHEkEAgEfyOE0tFMyLJwZuYwPitFm5uB5KUP8X1Kl/EZfA1UoR0R99gULktbvpCnK7180fmRJSj6fR3OzrkOsfMmQ8HSAkZP4vKm8Irsg6CJdyD93UW8XPpP+5QuQ06l4fc+hfKju3Bm1ghr3dSduvJjMz56GTFzx/OZKIrgcCkX4B4QgoBxU5DJ5JTn3JzRMFdXI3D8NC5veE1JS+bAZ+BIeHZz3qlRzzrETKZs5BeXoqS8SkptPaEBAzBmyEIciVmJd77rilW/Xg13dz9cN3iBdARrO88gnEr8Bh/80Atbjy1Cv+7TWb7+XDY86kF0DByEzzdfi/c39MGR2E9wVdTD3HcijJXdv8cMbDv+PP71Uz98v2M6vD078nyOiOo6BZ1DR+LA2eXQ6Mq4b8fE4ctwNnkdL/vT30YyRaQDBveeLeVoPTQrKLewjF1PByiVlhkzAoFA8HfExVSb03DBAkE7QDNZFCoPuCgdTwNtFLMJhsoyKH39mZbRvE6GfDCMeg1XgBxBFhh9RQncPLwdzorh+avLoewQ0OxzE+QgScqH2r0F1+0ENMSiUnjzqaYyFgfQtZg9cSN3AlW4qfkQTENoxovOUGV1ArWlMZmz0EwWd6WPw3O3htKKGiz79GfMnjwaIwddulidQCAQ/F0Qlo7/ENTpt0jhIFhnT1NlW9Lp0zkvp3AQTU3D5fn9g1t0bsLV1fWKKRyEt0eIncLRELWqw2U7fUq/nFLRmMxZKH9bKxxEYUk5U6aAzmGW4SKBQCD4uyIsHYL/89BskYLSePSJmGRdxVQgEAgE7Y9QOgQCgUAgELQLYnhFIBAIBAJBuyCUDoFAIBAIBO2CUDoEAoFAIBC0C0LpEAgEAoFA0C4IpUMgEAgEAkG74Pbaywtflz4LJKrjTkNflA9lQAiqzh6GSaeB0t9+jYaiLeuR8sY8eEb2hnu4JXqpjFmn5QtoKdw9wBdQaCN0RQWoOL4Hmowkvrm4uUHlG9Cm52gtlacP4vxz98BVpYZXn0FSqnM01W6GilIkvXAvyk7uhf81EywRedsACoYn32c3Dy+UndgLV3eKuts2gfhoym7yhW3w9+6B/JJo5BadQgCPdFu/1klO0UmkXtgFb48gHmm2OegNtajRFrN8VN+/z3fBGWjVVlp0TaX0klL+HpjNRkSnbsChmI+QWXgQQb49eTC+9iD1wm52P0vQwauTlPL3gOqFOjM81P5IztmBsqpM/j2m725lTZ61vvT56z8n4nzm7+gbOY1HUb4SUEiBlOxt6OAdCUUjU+EpaGNKznb+u6Ko0eczN7PvXA2vb/01sedok9Sxa8tnjyY3h9dE35mq2jwmc2e/7bZ5NrUWevbkXjzD7xNF3U69sIM/hzS6UmTm7Ye/T6Tdc6gh1Mbx6b/iQvEp5LFy5O1ixXleDrW7M883W4SlwwGFW9fzrU6vRcEva1CTbIl1YovP4KsRdNMMqJnS0RCKX5Lx7kKYNDVSSttQk3QWed99hArWsZef2o+kpQ8j94fVfBXRvwvUHtQu1D7Npal2U3j6IPDG2xF0/VS4qdpukS35Ppcd3Q1DdQXyN3wCbX66JG09WYVHsf/Mch46PyFjEw+P3xCKiLv/zLs4k7JBSnGe+IxfsXHvfexBUi6l/Pdw4NwKbDn8jLT3d6EOmw7Ox5HYVQjy74Oyyixs2HUPf2i3BycTv+Lfk78bp5LW4nTyev49O5GwBmeTv+fp9N1Ny7PEbCI81YHo1/1O9O9+B1Mm2QvEFaK4/DwOxrzPf1eNYTBp2L1cifS8PaiqycWh2A+50kTKOqXnXTwnHdk4dN30O6PfmyMqqrN5NOrswiNSyn+enOLjOHjuPWj1FYhN+wXH4j/l7ZWVfwjHEz6HiSlKjcHbmP1GU9gLEUXYpi0m7UccjlnJFLcyfowzzzdbhNLhgIah5m336W1cd7EArqwDDJlyL5RkaZCQZSbWcZn0euhKi/i+ofyinWIgH9cw3VBTAXNtFQ+qRsuN0z5ttriHdUbkE6+jx/MfoPsz/0TZoe3Q5GVKUvaey8qjcql8Ok9DzLXVXEYB3hyFpZfrxgO72QR840uvlxXDrNfx8hvmp888jZ0/+NbZcA/tIkks0Hn59cnXbnNdTbWbfE20PLvftRPhc9V1fOXUhlCZlI/OZQuVT/mp7lRHuVwrUpA8GReFkik19g9Luq7yKg2qay9t06ZQunnYvfnQAmW2i5RVawpZ2RnoEnoNLhQe529mMmQJoKXd6QFZVplujaRLyGkabRnMdSaUs4ce7dObJnWcMvJxDdPpzayy5gIMRg2XlVdl8eXeZSgfpZOcZA3zE1RGeZXlvFRXZ6FjKY/eWMOvlz7TJl8fyR1dB52LzulM3Wif0vl52PHOQucoLI3BDcNfxrghz2PGuG/h7xuJdB60r+l2k6FruVy7NKfdqGw6tuG9obyOrpvOS2XKbdxU+c7i7x3B7pUGOn0l9PoqVm4pL1tnrEYHHo/I0t7UsQ/qdif6RExmafa/U2fq1li7WdpCut+2v+FGoFWI1eoAdr90qGB1o8CX5VWZrMO1tKenRyD/T8j1kr9nFizXRb8v+p3R742OoY3ug3wvqWwKJFlTWyyVcenvyVG6jHzddJzcTrY0ds8vh49nOH/2mOvoO0v1M6KsOosrYkqlV6OrN8uoVF6YNPJtHmH7znFfsfb0R9ew0fD16szlTT3fGvL3sAH9zaBhFVODjkuG3sYzV77MP7uqvdDzpZXw7juU79vKiPMLZvD/3j0HoOerq5mi4o2SvVuQs/Y9qIM6sc6vGO4du6Lbkg/50uTZq5ZBX5DDvk8uMBu0UIVFQJsWhy6Pvwa/q8fzsmxx79IDLioVjJXsDbeTJZ5LxjsLoMvPgtIvGNqLuegy9zkEjp/Kj5fPLUecpfP0eOF9ePW2DIOUHd6JrDVvwZV1uuxbCWVgILovWQn3kHCmCBQj7Y3H4aL2hJE6cK2GR73t/vLHvO41qXFI/efTLN1ipYh8+i0EjKkPZJe/6VtUnjtKtk5W31KYWP5Os59A8KS7m2w3giwg1ewcRIcR47jSJUMKT+aqpag4dYAPj1DZYdPuR8c7H+TKCZWf//PncFW5s3OXwcjaKWjCnYh4YDGX05Lvbt6ND2mk5hTg3a83w9PdHa/PvwsBHZwfDqCHWmMm5qKyBJjYX9+uk3EsYTVqtEXWHzRZArIKD7GHhQE6HVNITTUYPeBZXDvoaf7GteN4fbut3Wq5z8H+vXmcGRoOOJX4NXtTeRfeXuGo1ZShA/s/88Z1fEl2ejP7cc9sdk2B7PMF9iDUw8c7DLNuWM8j5lL5R+M+gUKhhlZbzh561YjqNg1Trn2fncWFPwB/2f8Qe8gWwtVFyR7iWowZ8gKuinqQ16Mx6LooJo7M55vH8f9dO47GPRN+wIWiE9h5YilmjP+KB/Qjdp18hT34c3D3jet53Y7Fr2IPTW/+kCcFoE/kFGvdKM7Nxj33sY4gj7W/P6rZf2frRmZhitFjMFi+y+7soTt74k/8MyG3m49nJ25aNtcZ4OUZam036lB+2z8Puewt04ftl7FOZnDP2Zg4gkaym9duVNa/9z0MM/t+zBj3DU9r7J4SZDmqYW+dGi1T4o1MSXapw5TRK9Gz8wQubymBHXrwN94q1iF6sut1c1HwjozaqYN3Z9ZJWiwBxWXJ/Hj5XtrSWN2aareLrK03/vUPrvRQuwV06Gkp1An8vbuipCINaqUv+z4N5oour7uplsuIfeeW42ziV3BzVfN76ucdydvV1cXN7roOlK/AgegV/PPNI99CJOuAv9t+O2olJeHPo4v5f5XCHdOv/wLdw8cjLm0j+/6+zspy5c9ed3cf3Dn+W4T4RfFjd596A2eSvoK7wpe1bRBX1bqEXMvLJ5q655fD16sLDGYNUwTz+TWHBQ5l+UvYMyfRLgr35YgIvRb33vQLvD3C+H5u8RmUlCfj6r4P832iqedbQ4SlwwH+oyYgdPK9rENXI2zGI/DqY1EqCOpIh208g/6fboUqMERKtSDLqMOlDnPI2gN8v/fb7IvLFA5SCoq2/YjIeUsRteIH9F+5ifWYdag4sksqAQiZeh+6L1rOFY4eC99Gh1E3sw49XpI2jlxO/0+28PK7PvQSPx+dl4YsKIR+p3uewsA1OzF4zS6E3TYHuhyLlYSOKfztG3S6+wkM+nI3Bn65E4qAMFzc/W8uJ8wGPYJvnoGBX+xA3w83wlhVgaroY1xGiteQ7w7ya6Zrd0SdXs+UiE/4+TvfvxAlezZzJaCpdqONPlNa6O2XPpirE89Ck5mMqHfX87K7L3wHJX9tsrMAmTTViFzwtkXO2rfixF/Q5mZJUvD7Tfdd6d0B4bOfhDo8QpJY6BwSiBtHDsSkMUPYA7Z5JuNgv74YM2gRPNWh6NdtOkZEPSRJLBSWxrOHRwgi2MPLhSmCDc29ZGWZPfEXPDMrFtcOeAaxGT+zN6FCDO09B0vmZPMHEykaz9wVzfcfmrKbKxzU8Z5L/R4TrnoDj0zdi0en7WVKVh1/AMoY2dtf7y634GmW9+Hb9rAHk4F16PX33MDerqayToHkk1mHTuPABaUW5a+o7Dy6dbweT844y+XXDnwWp5O+5XVrCqoz1ZWugTon+kyb3ElFhF7HHmYBiM/czPepzLySsxjUfYb1LYqUsEnXrODnnjZ2NbLyD1vrJl/jvOmH+bWPG/YKbwtqk6Ygha9n51uwgyk5G3bdzctq+GZqMGjYtY/l535k2gGmpLhY2y0jbx9Kq9Jw/+Rt/F7MuP4rpOXu4veZaE67nUv5nnW2yRg/7GUet8eZe0pQJ/H47Ufw7N3spYV1HDQ00lqowyYFo6Iqk5UfzDuaWl0J+87o2Hc7iH/n6Hrl+3o5Lle3ptotjrWvmp3j8dtP8nYLDx7G74MzkKWjhilLVZoCrhhS50/+GW4uKv7Gr9GXs+9TGe4Y97X1npKCH5P6o/W66PdFvzP5uytfp79vd57nsWn72LMhHHfduJbLFt6TwhUOE3thKKpIwU1Xv8F/w0/NPMuVgePxn/K6kdUs9cJ2jBv6EpfPHPctU6zqLXPO3nNHqNgLA3ut4lYaU52RX7vWUMnbwtfr8tGyZeg7R78H2ZKRmreHvZiE89+nTFPPt4YIpcMBnt2i4D1gOHdU9B0+hr3pW7S81mLW1MLFbIbCL8gyfFBbDRe1B3TF+dIRTJ8n50i1mr2V04PVhb2B+1gETkDlqDt3534JVD4FZ6vT1vLzKtSePFBb+cm93NmThjCCJ9+DgBtv43npGLNRD4+uvfg+5e3BOu+QafUPD7IIqMMj+WeFhxfroH255cJZ3MO7WALVMagcOp9Jf6mZsbkYykt4fVSSs6+dBUhCHRzOw/fzz117w5W1h6Gq3nxJ95vuuyu7H2RVUnSoN7kSHmoV7pk0GpOuG8oets372VCI/AE9ZvI35i4hIxq8cdYhq/AIe4AO5w8EL69OyCo4Ksks+LI0khEdgwZxE6n8Ft4YevZGSAqLN3srpbdrLXuoKt082QPognQEu4/sbSw00KIk0jk6eHfhD2MZb69Q9sZnUcAo/D/vaKSOu0/XWzF64DNIzt6Ok+e/5OWSEuNM3ZqC2ioq4lbWFofYA7gGF4pOsus2cQVFxse7I/x9LG+pgdxxzcVaN6pLQIfufJyZrl3h6s7qVcvbxBkmXPUqZt24nrWXmr+hfrF5nJ1Ph1Lpwe8FQW+bXuyBK7cbmcY93QMspmx2bqaRsM91rPMo5nJn2o2GnTLzDzL5Glzd71GE+ve3pDtxTwl/725ScEEX1smHsjz1Y/e/HXgcK38ebN32n31XkjSOPAxB1iNv9p0mh0oaVqAOyZN1zM5yubo11W46XQXUKj/+3SC6hl7D74Mz0PAPDQORYyQNE5FCUc0UEJXKh3XMPvBg5U4c8SZ3NiUFkHwTyOJl+1toKeS8esOwF9nvZ4gU8XoduzRXfr0EWSDI+hHkZ/EP9POJ4MN5Ms7ec0coFew5zY6lc7my9ibn2dLKDHb9WvhI1gtnIeUnLXc3+nW9zXoPiMafb5cilI52hmZnpK9YjOSX5vJNm516iQ9Jayg7vMNads7Xy/lwiIurKx9G6Pzgc3APDEPOV+8i4enbEffozahKOCPlvBSyMCi9Okh79sjWB9shFEHzIRMvPUiyWQfz8545qKjOQDHr3OhB1BZodZX4/eBT3PxLGw0HqJs5O+Zy0AP0s9+u4w9RcjArLI2169xaS/fwcajVlCK78BDrBDajc/BV/K3LWVJz9live++Zt9gD2IM97J0dUXZhD9CrMfOGb9mb6RmukJHDpLMUlMbg+x138HP/fvBJdt46rvgQzrRbSvYObNo/jysjnVk9bGnuPaU3c9thjokjlmHOLb9ZN1JqnIGGIWg4ooDVlzpxUrbyLp5l1+bGO7eW0LBujbVbQ6jjdhYa/iGlrqQyjXfqKjcvqe6u3K+B/CfWbbsN/973KNIu7OH3RaO51KekJdBv+dd9j3An02R2X6nsqtpcSeoIl0uuraW/Yw+mDJIlh6ynpBwG+HZDaVUmU2QqrEqks6SzdjHSMCb31Wk5QuloZxTefujz+pd8iELewqbfL0mbidnM/9HUWRn/6ybZld13+XqopDd8VWAoIh5fiv6r/8DQ7w+jwzU3onjbj1zmiNqMRD59WHDlKC5P4v97dJqAbuHXs472Bv5AIr+BtkDt7otZEzdw86+8XT/0BUnacsipjUzPg3vPxj9u/pU7mY0e9EyzxnabIjSgP8ICB+JM0ne4WJmI3l1uliTO0SviJrvrfnjqXt7hNEVhWTy2Hl1kfROlt/JgvyhU1jr/1tsxcCieuNMyDEDb47cfQ0TYtU63G838eJIpO2S6P3juAzsltLX31NsjhJcrb9QxOQN1XuQ0WFWTxztx6sDI78LDPcDpMpricu3mCO6X5iQ0/EMKk8FQzZUnshqQf5Ds10CKhkZfitkTf+T35K4b1yFQsjy0lrySaBSUxGLamE8xa8L3vPyuNsMTpLQResnSRQpQrWTdkWnNPaf7TY6zPkxRpGEdo9Hi/Cr7sjgDff9i0n9hCvBI9htyPp8jhNJxJWBKgFGjgVFr7zHv6mHxFK6IOcpnTxgrSpD8xjzua9FczLU1KNryHVwVKqg6WUxx7sEdUXP+LJ9lQuWX/LUZKa89ws9DPh1JL83l64uQjH6wdXX1QyNKT28+REFOlzRThfJkffomqhPPSUe0Hk1WMjQX0vn5SaGhusttwrlMuzWF0i8QupJCVKfG87Kroml4gr3BhFiGJNqCimot3vhsIz7esA06/aWzflpKTvFp7pB4Tf/HMaLvwxg14Ako2Bu5s9P4CFdXVxiMWlavKinFgkp6E0rjsy5Yu9QW8Le5Y3EW59zW4Mbemtzc1KhhZdIDjDZa84DezJuDq6uKdwQ0hHIpLhjUYyZ3KlUqvO3GkYnK6nzkFB3nn/MuRnNTvJc6mO/7sU6R3mQrqumNso4PY6zdeitvgyZh36H03H1IyPiNdnieXHYeW8c7us6UnJ38uukcZLGicxL0kCelkdYsIFJyduCrPybw/ea0Gyk7N161lL/9R6dZXg6u5D1tCgWrN0E+AdR5kY8HKchqd8fW0ObSWLsR1L7UztTe1G7peYdYZ3jpb5GGj37a/Q/uXCxDdSVHaPpOubP6UjvS0JDs10DO0lSWrGjml8Rwa4ItZH1wqZOHRS6dPSIrD7Uae78hJSubLFlVktJK9yyv+BT/TJAiHBowCDuPv4ydJ17BlkNPQ6ur/y239p6rVQEoq8zgSiL5eJDyZTbruRLpLLIDaVQLrRxpOYV4/oPvEZucLZSO5pK74ROcmTkM8Y9PhjY3A8lLH+L7lC7jM/gaqEI7Iu6xKVyWtnwhT6dZHp0fWYKi39fh7JzrEDtvMhQsLWC080MUNIPj3NyxiH5gHKqTYtD16Td4uUTguNvgFTUYcfOn8PLzNnyMkKlzuH8CzeoInnIv8n79AqfvGo4zs0ag6txRPu2XoOGS8PsXofzoLi6LeXgSlP6BCJw0k8ubovTgNn6tVDeqI81Gsb12wj2oIy6sedtSt58/Q8gdD1jrTlyu3cg/JfbRW3ha4W9fo+LkPv6Z0kjmO2AEgm+5C+nvLuDXduG7fyHsrke4ZaetKK+qRn5RObLyL0Krd96PpTHo7YGmyNIDR3aOpAcvvZHQYjzO0rPzzXxc9bNN1+Gd7yLww+57eDqZvycOX4azyevw/oY++PS3kewB1oG/ZbcWqu91A59BVsER/Oungfjo58GsXSq5j0hzGNr7Xj7W/uFPfXndbWfjENzXxacTuoWPtxtHJrw8g3Aq8Rt88EMvbD22CP26T+fWEWJ41IPcB+Xzzdfyaz8S+wmuinqYt1NT0GyZMUMW4kjMSlanrlj169Wso/LDdYMXSEdQJ+XOr5eum85B943GtYleXW5idbmDz3BZweq2+dCT6Nt1muQT07x26xg4mCled+F4/Gr+tnol72lT0NRTpdKbdVgG3nmReV6jLeGdGkHDhOQjQveRhpDIsZc+Uxr30WiCxtqNoPaldqb2/ujn/qjVFrH2tLcQ0XoUZRVp3BJDw2ky5KtBM53oRUvh6sGHh0gJ8FRbLDQ9O09ERNgobNg1g92Xfthx7MVLvit0/cP7zsWp81/w7wV979Jt1ich5SEqchq2HX/B7rrD2Pepf48ZLP15Xvb3O6bDm52/HhdMH7MaN418iyvNY4Ys5v5IMq2950GsLK2hnCteNAxG949eymQl0hnOZ225xIG0OVwsq2DfFR3CgvzgYqrNcW7Cr6BNodkiCpUHd9hsa2gKqVGvsevQbaH1LNyYVk6KhiO4nD0EyXG0rSClTHshnU91pbVIyJETjayE1xK49UhbyxWsK4HBwJQNF3pzadt6twfkBOau9JEc+NqSOv7mR9Nubefq0xDF4eh/wWiyX9eEZh/cMPwV3nk4Az3Udxx/EXdc/yVXBmQsDnlr+dRgegOlB6ija6NZJ7TiKT24ZZpTN7o2lcLbbj0D6kioY7x55Nt8SiGVQx1SQ+htnGZ3WMpruK6M43ZrDlfunv5nabzdLIrF5e43rYFBPiGkNA7uaXmhag40/EXrd7TVcJEtjr6LjqD7un7nnRjWe+4l06gd3fOD0e8j34FltE/XW5psg7b6nTbFxl3HEJecjSUPTxdKh6B9sFU6BP/3oQdsdW2B3RAeQY6c5JTpbEf755GFfOyd1uawXXDIVulobgfR2rrZKh00JVLw9yEtdw+2H1uCO8d/jbCAgVLq3x8a6vll31zuOE1rhJBlZuYN3yPIibVISHmlIcqGkOLQ1G+jrX6njUEzb1as/QNBft54YPp4oXQI2gfy4TDX1PCpqQKBM9DwU1L2Nr4UubyIkgyNtxeUxqNPxCQ7ZaQ9IP+TlJyt6NpxjFPDNQJBU9B3KjF7E/QGDZ/+TWv2/F+zYMkIpUMgEAgEAkG7IBxJBQKBQCAQtAtC6RAIBAKBQNAuCKVDIBAIBAJBuyCUDoFAIBAIBO2CUDoEAoFAIBC0C2L2igPkeCO0uictqa0ICOYRSP9boKXO835che4L3+VRctsKWnxLX1ECNw/vyy4cRhFs0z94AeF3P4GQqc1fnMcRdUYjvw+GilIpxYL3gJEOIwCbtRpUxhyDd59B1mixV/Ke0vTNnOLjiIqYjqLyBB6bQp7KaTsVToaiTvbqYllFlKAFf47Fr0JJeSoiQq/B0N73262+SetCHE1YjVpNGXp2Ho9BPe62mT9fh9QLexCT+hM/3/CoB3hgNBlaaCkm7Ud2zF54evhjVL/5PN6GTFPy1taNArUlZv3psG4ytFZAUtYf7Lw9EB40hKfJ02XlCKOEbbtRm6fl7ZMkFmg1R/sptHVIztmB6tpCu/aWoXDmdF6KMmqbz5l71tg9FwgEl0dYOhxQuHU93+r0WhT8sgY1ybGS5L8Dn8FXI+imGVBHtk3AIhmK35Lx7kJLfJbLQOekc1Md2oo6kxHVyTGoYApN3ncf4eKe31BxjikhZYXSEfZQaP88Wowsrz5o2pW8p1mFR7H/zHIeRp1CYlP0UBmDqQZZBcd5ZEnazmduxv6zy1FSkcLlF1nnRTFBKPBb17DRrKPdig077+BBn4iM/P1Yt20aTEYdOgUPZQrAah6xUg4ARmHXtx19DkF+vXhQq4175lrPT8fQsZSH8lIZVBaV6Yy8LepGWwefCK6IbNxzL+LSNnKZLRS99XDcSrvVDym0Oy39fT7zd2vbZeYf4itVEpWsk5fTaTuV+CWOxa1i7W1RFEih+GXvw/jj0ALe3sXl53m6TO7FM+zaJmPv6bdxNP5jfj6Zpu4Z0dg9FwgEl0coHQ5oGGq+4T698RvKL/K4H2ad/fKx5tpqvow4pZOcPjeE0uS8/FiWR8a27IZ5+fFMZtbroC8p5J/peBn5nK6ePjymitLXEhNBRj6v7WZ7boL2KV1fWsR2LKvUWevE0kx6PUysU7fml66fll6nOtHqc8G3zoZ7aBeebsvl2k1Ol9ujoZysKuH3PIHIJ16He1hnBN8yC90XvgPvPoOlIxisrlRnS70vjT7Z1D0larV69uZezbI7H72SoMibtiv30duu/MZLHelt163kkSXHDX+Zv7mPHvQ0IjtaYhik5GyHhzoAt49Zg5H952Hq6I+gNTCliXWKRFz6v9E5dCSmsjJGDXgSN139FlMGzqOsOhvVmkJkFhzAuKFLMHbI8zxkeb9u07llgd7yiyuS+LGTr/mA56UyQoMGsrf7bbzspuStqVtlzQWk5e7CDcNexI3DX+V5e3a5BXFMibCFlmE+m/I9ru3/JF8B0RY3N3ce78QS9fM73DFuDUL9LbFVIsPHWtO7dxrH0yZd+551OfKD596HlikeM274Fmp3H54mQ0rT7hOvoleXSRg79DkptZ6m7hnR2D0XCASXRygdDlBKoeAdQTFTkpY+jISn70DSkn8g5rGbUXZ4pyQF8jd9i+Qlc5H4wr1cHv/oJJTs3SJJmXzj54h7+CYuS3rpfqQum8/zENThp7zzDOKfvQPJL81F/LwpyPtptVWxIAtD8qsPI+nF+1j+OTywW/Y3K+zkFIiOtoRnZ6AmNY6ny2SvWmaVy5t8bqJo81rEzJ+MZFZ+4oJZSH7tUX69soXj/IIZ0GQnI+fr5db8stWDzkXnbJgu01i7yeWnr3gOic/ciaRF9yDhmdvZuerfLBuD2o3qep6dP+mFfyD7szdRZ7SPPtnYPSU0Oj3e/WoTnnr7G5yMs48u2RQU+KqpkO4UrGvLoSd5cLar+z3KUiwxJSpr8llH6WcdsvBQB/LAVPQmT9ASx94eFLjOcrwcjrqyJgcGQw2MRg28POuvLcQ/il1LCdvKmRJliXbpY5W7sPzdmFKQxfeakrembt4eYZg98Wf0ZUqQDHXUFG1ThiwiB86uQECHHoiKvE1KrYeGfuRw35cjLu0XHI//Ajdf/U8eHE2GovbOnvgTfDwsUWdtUSm8+DLZpAy5SpFBHXG5e0Y4c88FAsGlCKXDAf6jJiB08r1wUakRNuMRePUZKkmAiiO7ANah9fv0Dwz6cjc63f0ECn/7hneqMq4eXuj11jdcHnb7Qzx0PXWsFHK+7PBudHl4CZf1eOkjmKvr82mL86Du1A39V/2BgV/sQI/n30fpvj+hzbV0AoRJU43IBW9j4Jqd6L5oOSpO/GWVB4yZhGEbz6D/p1uhCry0k6W4JySnrev8ZTwKa8BYS6hiCpWvr6pA75dX87L7rt4ME+vMyw/t4IHher+9DkPWHoB3zwGIfPotazl0TsK771AM+e6g9ZiGONNuZMUYtGYXBn65E6rwrije7lzI/6r4UzBWlqHvhxt53YNvuhOmKvsw743dU0KtUmLCqIG4ceQA9I60hCh3lmC/vhgzaBE81aHc0jAi6iFJUs/xhDUoLktGPOskTyR8wVLsXamogztwbjl0+kstYwQNBxyJ/RgGs2Xowg6mdFIskiRu4bgUykN5qQxHNCVvSd3ICuDr1dm6lDMpKtlFR9G941i+T9CwBYVtv37IC0wBMfKhF9vQ86Y6PTYdmM8jdlJE1r/OvMUVERmyWBw//xmPFrrnzJt29W8sbgRZJCzKUuM0ds+cuecCgeBShNLhAHIwpBghLgr24Bw+xs5ZUVecDzf/IGsEV4+uvWA26mHW1PJ9QhUUapWrQsO5JYI2s4mGK8xQh0dymTt7+1ZH1DvteXbtjfBZj0OXmYKSvzajNiOJPefMMFRZxtAJdXA4z8c/s+MpWqut3Bmq408j9/uV6DhrPjw6W87v6umFzrOfYOV5oXT/n6g8vpc9nRV8yKQtcKbdvHoPQp2LC4+868UUF0N5vRNhY5i0GiiYYqSQost6dO8HRQc//lmmsXtKuLDzjhnWlwck8vetjyjqDORcSGG3ySLQJWQEezOeIEnquXnkW3j+3nSMv+olHItbjZSceusYkXcxGtEpP6CkMk1KsSc9dy9i0n6AVmvvTEsYjBrEsg77fNYfUoo9lIfyUhmOaEremroR5Ci6/dgLPLT2kF738TRSQo7Ef8LDtpOFgnwjDsa8b/W98HD3w8zx6/DYtH18u37o84hN+REJGb9xOeHh7o+HpuzGM7NiEBYwGFuPLuKOr21FY/fMmXsuEAguRSgdVxiyBJCVwFEYeepgbcO71yTHIG7+VOT//Bl3lKxOOMU6ZvthgtaizctC1qrXEXTjdASNmyKl1g9RpC1fgPLTB/n5TZWOO5G/Pa7sa03b3wx68x7QbSYCOvREZsExKdVCv27T8NTMswgPGial2DNm8CLMm37EOnvCFqXSE/dN+h3Tx34qpdhDeSgvleGIpuStqRspHL/tn4dqbRHuHP+NdaiGooEamdLZo9MNfAZMRU0u6urqhy9oKIOsFTSThrahvf+B4IB+yHUQwttD5YcRfR+CwVCL4jJ7h9HW0tg9EwgEzUcoHe0IvU2Tk6NJb/Gwp47eVFb/Zla88xf4Dr4GvV//gjtKdn7wBfYGb+8E1xrI2TNv/cfw6NkfHWc+alF6JOQhil6vf87P3WPB2/Bo49kv7QY5gjbTGfRKcaH4FA+1Lc/4ID8A6sjM0lCEq6u982EdzHCps/g/EBRi2hZTnZnnVyq8mcyNf7bFZDZA4eoON7a5srwuLvY/cQph7c7yEk3KW1E3goZC9px6HZXVWbhj7OfwUgfxdJlKpmh8v+NOfL55HH7cfS+0uvrfAjmYkuWC/EYsuNjV9UTCGhyPr1eyFKxO9Psy2/iMtJSm7plAIGg5QuloJu7BHaHNTIHmQjp7qpq4VUDh4welt8VrvjFoWMSjz2Bkr3oDeRtWIfPTN2GoqB8acVV5wFBZApNOy4djqmKPw1TleBy9uVB5+Ru/4LNEujz2Eh/CsEOl4rNijFXlfLc2NwOaHHtzOikptBnLS3l5zaE17dYUSr9AvoaHtiiX16vm/FkYa+19OpqCZt2s//MglvxrA7IL2s5Er3RTs7f6vUjKtvhb0FAF+Uh0CbFMKe4UNIS/6edJb/DJ2dug0Vch2N+yhgjJc4qPSr4OdYhN38g6QCUCfLvBUx3M3vID+GwT6uBpmmh8+q8I8usDldKTHdODd9RJ2dt5XpoCm1lwCJ2CLRaLpuStqRvt72YKR3reXkwduxp+PpYhRZmhvedgyZxs60ZDKOSoKqNkSlN67j7uKEpl5ZdEo7QinZ27D5eTQ+rZlPW8ziRPzdnJFYOgDhZ5a2jqnjlLWk4hnv/ge8Qm10/dFgj+1xGLgzUTshbQ7I2SvzahjnWe5IwZuaB++mYurQ/BOlZy2nQIy1PBlAl9bha8B43k60moO3dHp9lPQleUh4zli6DNz2JPPiX8rh6P2sRoRDy+lDtqlh7chotbf0DPV1fz4RqaWpr2/55AxGOvcDmdu/C3r6UT1RN6+4PoOP1+pL45H9UNZrR0GDGO19V6Xft+h5vKk/uauLi6wpNdF9VNpvTITmR/8RbMNVXc/6PnSyutdctc+bJ0VD2XlO+g3cjiQ3ULmnyP1THVth1lecO6k0MrHW8te+/v3GfD79qJdu3mDDq9ESu+24Lk9Fw8O+dWDI2ijrMtqMOR2E9wJG4ljEYd6xhdMLD73Zh49RvcyZKGH3adWIq4jI1QsA6buOGqpRjc07KwGikSmw8+hZzCw0xBcON+EVOu/ZBPGSVyik7ij8NPoUZbwq07HYOHYvrYz6xWhfj031jnv4yJNDCYtIjqOhWTR71vdfBsTN6aupGVYMOumdwR05Zg/96YPXEj98ewhZSbH/fMxs0j30b38PE8LTp1Pf469QZ0Bg0vv2/krda6yefOyj/ErTMe7gGYcNVr6N/9dp53x/GXuXNtQ8hPI6rrFId182R1mnPLb/BnSlNj98xZjsck4/s/DmLpvJkIDrD4MgkE/+sIpaOlsI6TLAPkyNlSaOZG6tJHEDLlHwgcP1VKtaQrVB6XWiPaAb4+hsno0AelTWiDdrsc8toel1sttSlofQ69wQS1+5Vo9zo+VODpHsjfyBtClgpa+MqyQJatb4MFUgB0hqpLhihkqJOnIRWycDiCHCzdlT6X7TQbk7e2bq2jDlW1hVxJcVS3K33uxu5ZU2zcdQxxydlY8vB0Vn+xhodAQAilo52hxavS3lkAY/lF1On0UPj5o8fLn8A9xH5hJIFA8N8LDdetWPsHgvy8+YwogUBgQSgd7QzFBSk/cxB17L8qrAu8ew38j1g0BAKBQCBob4TSIRAIBAKBoF0Qs1cEAoFAIBC0C0LpEAgEAoFA0C4IpUMgEAgEAkG7IJQOgUAgEAgE7YJQOgQCgUAgELQLYvaKA6rjTvP/XlGDURV9FIqAYB6l9O9C5emDSP/gBYTf/QRCplpWh7zS6IoKWLscl/YAz5794Nmlp138liYxm/hy5Qpvv2ZNE64zGvl9oLy2eA8YaY0WS8uf6ytK4Obh3eLFwRwhn9u9Sy/ruWozEmGuqeFRa1sLtasuJwU+g0fx1VTbmtKKVOQUH0dUxHQUlSegqiYPfSIm8fDuMnRMja6MR0stKk+ETl/FP1N6Wt4+6ah6eoSP4wHQHMn9fSJ5xFWTSY+k7G2o0dpHCpbz2kLnLLwYg6jIqVAqLHFdCFqULCbtR6Re2MvS1Rge9QA6B1/FZQ3PTcHmene5xW4RLyqXQtJrdRWsTuMxqMfdDhb5qkNyzg6+9Hk3VjcZZ9pNIBA0H2HpcEDh1vV8q9NrUfDLGtQkx0qSvwfqyN4IumkG66iaFwuiNdQknUXedx+hgik85af2I2npw8j9YXWzYrDoSouRsmweahosZ94UdSYjqpNj+LmpDhf3/Maj4BrK6sPumzQ1yHh3IcpPOA7P3lKs3wF2/TJlR3fz70dbQOVS+XSeK0FW4VHsP7Och45PyNiEM8nrJEk9J85/iQtFFoXyTOK3KCy1fN8p76HoD1nn/hcy8vZbNwpLL8uPxa2yk1GMFMLEFAYKnCanJ+dsx4Gzy3lHbgutpLrl0JMoKIu3UziIPaffxP6zK+DvG8lXHv31rweQkb+fy2zrRjFadh5/Gb/sfYAfR9BxP+yYyRSoSoT49+HHbjo4n0nsv6+JWX9g14lXoW6wLLsz7SYQCJqPUDoc4NZgCXDbfYoDYqip4EtuU+wT+mxLU3LCKiu/aO206T/tU35bKL9cBsUY0ZcU8tUOg2+dDffQLjzdFrkcKl9eFpywlm+TJtfVFtqnvLRyKlkmbHEP64zIJ17n8VC6P/NPlB3aDk1epiS1P7dduawcKs/ItjqjAcaKUss56FrYNcnI7dIwnSwX4fc8wc9NdQi+ZRaPhEtxW6znZGWb9HqYqi31p832Wgn52mzbmPIbK0pYWhWvIyk4ju5DU9DxvO4O2k2+fpI3bG8Zs0HHr5vOTXVqSK1Wj7LKar5Ue3OgiLC2b/f0pm77tk4WifKabNYx97V+9vfpKkkBX++OmHbdKtx143fWTY77QgT5R9nJ5PD4tBz7TVe/ydNuHf0hX6p8QI87MbD7LC6XOZf8PY+MO7LfY1KKhWpNITILDuCGYS/ixuGv4s5xaxAaNBBx6f+Wjqiv26wJ32PGDWtRXJ7MlKcTXHY26Xt0Dh3J840d8jwmjFjGlKkYlFfVB1+jpd8Px36EAd1noGOgJXaSTFPtJhAIWoZQOhygDKAYE47J3/QtUpfNR9JL9yP5xfsQP28Kirf9KEkt8uQlc5H4wr1IWvIPxD86CSV7t0hS8M8xj92EjHcWIHHx3dxiQLFWaJgi/+c1yFz1urXTofS01+ah4shuvk8WgoRnZyD+8cl8a/hWT8dTeQlP38HPHfPYzSg7vJPLHFkCqK7Zq5bxz3TOvJ9W8+tJfmkukhbdjYSFd/EgdI5w79IDLioVjJWWqLTU6aa88wzin72D56dyqDwqlywcSUvuQ9LL90NXeAHp7z/H60/XIls9qF7x827h9U5afA/OL54FbV4WlzWGfF3nF8yAJjuZB35r2D6kwGT860Wcnz8dWe8/z9plkrVulD9t+SKkvPE4Ul55EMmsjhnvv8Cu407UpCXw/E1RtHktYuZP5t+HxAWzkPzao/xeEPSf9nk6tcsTU5G58lU+bCNjqK5k52ffqSVzEDd/CrK/WWGneGh0erz71SY89fY3OBlHUVWdx9MjkHWWjoeyKILrql9HIKfwGP449Kz18/ZjLyG74Ih0VOOQokLb5aDAbL8fego+HuG48arX7TpyUgCi037CsN5z4etlHwbAYKiB0aiBl6f8W3ThCsb4YZcGFSRcXSnMvwu7VsvQ2k0j38LkUe+xT5bhP9mKQsHhZI7Efsz/X9X3If7flsbaTSAQtByhdDjAf9QEhE6+l3WqaoTNeARefewjldaxN+qer36CgWt2ovP9C1GyZzPrfG1C1Ht4oddb32DQl7sRdvtDuLjrF965UQdUxBSUyHlLEbXiB/RfuYmegkyp2MXzdRh5Pes4U6Ettgwb6LLTYNZr4d3PEmqcIqYO+e4ghqw9AO+eA3iaLbwcowH9Pv2Dn7vT3U+g8LdvrB1gY5CloPzwLnRb/C4GfrED/T/9k0eI1RU03fET2uI8qDt1Q/9Vf/D8PZ5/H6X7/oQ2NwvuQWEsbTsrcys/pvcbX2HYxjP8WuiayLqgzclAxPxlvN4DWLuqwjqj6I8NUumXhwLT9X57nbVNKPIslU2bHLG2OvEstFlpiPrgR35sz1c+QfnRvVYrjatCifD7FqLzYy9BGdwJvZZ+BnVED+hslJ7qhDMo+Wsz37TZKVIqKVs10FdVoPfLq/n3oe/qzTAxBaz80A4ur4o+BlN1Ffp9/G/eLlFvroWblzcMFSVcTpg01Yhc8DbP333RclSc+Iu3m4xapcSEUQNx48gB6B3ZWUp1jmC/vhgzaBE81aHo1206RkTVd7ADeszAXRO+R3jQcDw6/QBuH/cle+MfigenbEdE2LX8GDPrpMurs3kUWNpIUSBfC5kLRSfx3oaeWL6+K77echMKy+IliYXEzC3Iyj+MrMJD2Hvmn9bhD+J4wufQastwImENV3iOxa22K7shFPTNEnTOAvlqkKXkYPT72HL4afTqcgu6hFh8Pui4+ki2dUhg9fD16sI2S/tlFx7nQyujBz7Do+MmZGzmfhwyjbWbQCBoOULpcAA5jZKTIDn2+Q4fY3UglHEP7wKlnyWqpTo8EmYje9vT1z9MVUGhUHpZQlmrQsP5WyttZk0tXMxmKFhebmpnnZOL2gO64nx+rFe3vqwDVKEm8Qzfrzh7GKqOXRwOoziCynHzD7Ke26NrL143Om9TKJiipPDyQdnB7aiOPw1jbRU63TMfvoNGSUc0jmfX3gif9Th0mSm8Y67NSGLPejMMVfXK2OVwcVOg4x0PwCOyNw+RX3rgT7i4uMBQbu+E2FIM5SVQ+AeyHtTM253KrjMZrFaaOldXnuam8oAr6+DJydWVKZy2aJiiQX4ktJG1RsbV0wudZz/Bw/yX7v8Tlcf3Aux6aKiEUPkHM6WiCqV7f+cKpVtAALo89AIP7S+jDg6Hu2RdU7N2pAi8tu1GdRszrC8PHObv27zovORgOaDHTLirvLhzKDl52nKxLAkqhTfvoCuqmILIOuD6ztoScn7jnvvw3fbb+fbLvrlWn47+3e7EY9P28e3+W3dArfbHjmNLoNPXcDkxtPccLJmThRnXf4Uk1smfTvyap5ezc6Xl7kaPLhPxwK1bceuo93Eq8SuuQDiL3lCLrKKjyCs+C4NByzYNU2outbqcYufMyN2LMYMX8yESUnwOnFuOTsHDeZh7vbEGR+M/5n4cMk21m0AgaBlC6bjC0Ns2vV3LoeKN1eVIX7GYm9pp01JHJMkUvuxNbtDVqGQdm7G2EjWxJ+B31fVXZFZDQ6h+XR5/lb2l1yDz41f4MED8M3c6NcRB1CTHIG7+VOT//BnvmKsTTjGFp94vozFoqCHj46VIeuUhlB//65KOvS2oSYrmwzvU5ukrnuMduYvS+TF62Y+Etg4j6qOG0rASDZ+kLV+A8tMHed1NlfWzbHyihiD8nidRxq4rlR0X9+AEPtRj67Pyn4I6+JPn16C0KgU/75mDowmr+Gfbjj+wQy88wpSKp++K5tvDU/fCzyeCy8hvw9+3O99C/KIwst+jfLYKOV/a48L9QLp2vA4Z0rANWUiULP/4YS9yJYfkA3rOQmb+Aa5MOIOtT8fsiT8imykgGQ1m05DCcSRmJSZf+z4iQkfytOzCI0zpycTA7ncypSqDW3LIoiMQCK48QuloZ2i6aJ/Xv+SmdnkLm36/JAVTMsZCk5GEqrPHYKypsg6tXBFM9qZsj4hefFhkwGfbMGTdISiDw1B6cKskbYDk0Oji5sb/F+/8Bb6Dr0Hv17/gHXPnB1+AwtOHy5pCk5OKmsRz6P78CnRf/J6lYx82RpK2DV59h2DA6j+tbd5v5W/w6tlfkracqvhTfGit1+uf83r3WPA2t9jIkK9OwPW3os8/12LgN3+h74ofUZsaj9qM89IR/znICuHhEcinkk4csQxe6hAM7TWXpzsDKSfRqfWzeFxc6h8nZMnYemwxt5TIkHNmXZ3lO2cwabi3ha2Ph7uicSsOzSA5HPORtGePu8oXCjcVqjVFUgr4jBmaXXPD8FcvsVToDZX4dd8j+HzzOKzdOhUl5WmSRCAQXEmE0tECNFnJ0FxI50MmtGYDDYm4ejRt9paPqYg5yvPSrInkN+Zxnw8Zdfco9nRW4uLOjVB36QGP8EhJ0jTuwR2hzUzhdaMZE/TmrfDxg9K7A9w8vKDq2BXlx/bwt2w6d2XsSfj0sXjt03BAwtO31ztfkkLScBaGBPkxFG35jl+3qpOlfq4qDxgqS2DSafm1VcUeh6nKfqYGWRdIWTFWWYY1ZNyUatYZsfSyi3yf6laTYBlichbq3Gkzlpfy89ui9AuEPi+btYulY6mKPcGdPnk7tRaVCma9znpNtbkZTImq78BKj+xEwrMzLbNaGM5af2yh2Urr/zyIJf/agOwCSxu1BQo3d+4E2jlkJDzUgdzJsmPQEDu/icao1Zbi5PkvUVVbwH0xUnJ2QqX05tNPlUov5Bafxrm0n9iR7PvAjrlw8YR1nY3woKHQ6iq5MyvJyfIQm74RXcKu5RYUL48weLoHIilrGy+b8p9J+gYGc/0wpgzJk7L/RHVNobXuqRd2Y/vRF3DNgCe474ot3cPHY+E9KVgyJ5tvz9wVjWD/ekVRIBBcOYTS0QLcgzriwpq3cXbOdcj7+TOE3PGA1Y+iMeiYzo8sQdHv63je2HmToWBpAaMtDo8EHUPOlVUJ0fAbeYPd4lvk73Bm5jCcmzsW1alxyFz5Mt9PW76QywPH3QafwdcgcdEsnJk1AuWHtiH8H0/DVc3eMFk5He9+HPrCXJZ/DGIfvxVK/0D4T7id5yWfgoBxU5D5kaXMc3NGw1xdjcDx07icoHPSuaMfGIfqpBh0ffoN63WHTp8LU3kZYh66EWe5PBpuPh24TKbhOWIfvYX7WKg7dUXQxDuQwdJj5o7nwxWK4PrZDHwIgykJDa+b2kOGlKrgKfci79cvcPqu4az+Y1B93rK2hu+AEQhk15n86sM8nWar+F9/Kzw7dePy1uDbbwR8h1yLJFY/qnvO52/x74cM3Q9VaEfEPTaF15lmqPgMHAnPbn2lI5pGbzAhkykb+cWl7I28SkptPdWaYt5h+/tE2H12lusGL4AHUwxW/Xo1lq/vzpWOG4ct5cMlXuogXNv/acSk/IR3vuuK1f8exRSCTtaZIqEBAzB+2Cs4Gvcpl3++eTxC/ftj9IBnuZwUj+uHvIC03D28bDoHnWtE1INcThSXJeOjnwdz+b7Tb2PUwCfRq8tNXJaWuxe1ujLsPvk6Kz+Cbx/80AvpefYzvgQCQfsiViRtJrkbPoGWvSHTWhW0tgM5/cHVMsTQHGhGiULl0ayVOZ3GbOJv37xuDuBrULgpHK7cSVaC1qzs2Zrr4hYYvcYpBa5FsHYxVldC6eNnp8y1BXxNEJPR6rvTEH5t1eVQdgho0feF1ucg5UPt/vebxkk+GHpj9WUtJLQehrvSh1tWHNGUnIZMyNmVFBGBQPDfjVA6momt0iEQCAQCgcB5hNLRTNoy7oZAIBAIBP9LCKVDIBAIBAJBuyAcSQUCgUAgELQLQukQCAQCgUDQLgilQyAQCAQCQbsglA6BQCAQCATtglA6BAKBQCAQtAti9ooDquNO8/9eUYNRFX0UioBgHnnWEbRkN63O6TvoGr7ypzPQ4lymOhOUXvYrdjYFX7r83DHLEuUSFKXWb9iY+nObTTBUlPIYL2258JiuqAC6nBT4DB7FA9CZtRpUxhyDd59BUHQIlI5qGRTwjdrZvUuvSyL6ytD5a1Jj+LVq87NgLC221qW10FLgSdnb4OMVjhC/fkjM3oQuwSMR0KGndAT4MtwXyxPRLXwcKmsu4GJFCl9OmyKq0vF6g0Y60oK/TySP9+FI7uaqRK8uN/NIpgSVdzxhDY9TEhF6DYb2vp9HN62nDsk5O1BdW2iXrykanpsW3+odMYmvFkrI101B2mRs65ZTdBIFJdGSpB752mRoyfFqTQH6dJ0CD5WflGppMx5JttMEGAzVyCk+jqiI6Q2uTSAQ/C8hLB0OKNy6nm91ei0KflmDmuRYSXIp2rxs5G34BIZq+zgjjZG/6Vtkr1om7TmPsboKlbEnUHJoG3LWvY/yE38xBekU7zxkdKwzTlk2j3XQcVJK21CTdJa3BbUJQddL103X31qs7czOcTlIlvvtB/y8ZUd3o3DbD5Kk9cihzRMyNvEIqYeiV6KIKRi2JGVvRVzGb/xzcs5OJGfv4J/p+IPnPsD5zN+RkbffuuVLnbXBVIOsguPW9POZm7H/7HKUMKWFuFiRiu933ImisgR0Cr4K0Wk/4ac9d1vDw2v05fhl78P449ACnq+43PlAcQ3rdjrpa3z7563Wa6PrPh6/2q7umfmHUKsr4XJqDwqYJstoOxr7MWJSKZ6KBVqN9EjsSvx16i2k5eyWUi1QXQ+cfY//p7Dxx+I/Ze1RLUkFAsH/IkLpcIAcal6m4T4taU0B0gzlF3kwrobQktgUU4SOsQ1hThYOSjdravgy5fSZNkNNvcJCy5BTuQ3TCXWnSEQ+uQzhMx+Dyi8YnR9+ERGPvmSxmJhNPKiYkW11RgroVuqwDnLdeQAym4BuVGeypNC5qZ603/CYpmis7oR8bpLzpdgdQPm4nJYVt8FN7WGNaEu4qtSXWDl0eiNKK2pgMDYvTLmbqzsUbJNxdXWBSmn/Nk5KRMdAS3A8+hzkVx8gzM1NyeOQ3HXjd9ZtzOBFXEZLg9923UqeNm74y9yqMHrQ04jseB2Xx2X8Gx7qAMwY9y1LfwbTxqziy37nl1gC3h089z60TPGYccO3ULv78LTmYFu3+ydvh49nKKJT6pUGNzd3u7rfMW4Nj4EiE+QfZZVdP/QFdrwaA20CqJVWpUFrqEBY0CBkFByUUi0oFd52UWQVLK+bq0raEwgE/4sIpcMByoDLR9nUFeXh/OJZSFx4NxKfm43C376RJBYoSmv8vFuQtOQfSFp8Dz9Wm5fFZWThiH98Moq3/8SHE+gzbbLVgzrilHeeQfyzdyD5pbmsnCnI+2n1JVFTHUEWjqQl9yHp5fuhK7yA9Pef42UnPDvDavWoSjjDg8ylvjkfKa88iIQFM611o3onsGvKeP8FxD11O9LeW8iPyfj0TafO31Td6TzUFtQmJI95bBLyN37OZTKlB7Yi8Zk7kbToHiQ8czs02RZrAOHm3aHJWDCrf96Jp97+Cpv2npRSnINieqhUjuO9ZBccwae/XYPkrG04xBSAlT8Ptn62REh1DoqiuuXQk+jZ+WZc3e9RlmKJ/TKy7yOYOX6tdchB4caUKxcXmKUQ8Nf0fxyzJ/4EH49gvt8aXNifq6sSSmX9MCAFedMbLFaVhowdshhTR9eHko/P3MzyqhEeXL8ab97Fs1ArfdG7y818eIgsHzLe6kCu9AgEAoGMUDoc4D9qAkIn3wsX9jYdNuMRePUZKkmAiqO7eLj4AZ9vxcA1O+HdZwhMtZaHNvlaaHMyEDF/GQZ9uRsDmFwV1hlFf2zg8k6zn8SwjWcQevuD6DBiHP9MmxzHRVucB3Wnbui/6g8M/GIHS38fpfv+hDbXohg0hntQGMuzHf0/3crL6P3GV7zsId8d5FFryW+icPO3CJl0N/r961f0/2QzPCJ7o3jHRqkEwKtXP/Ra+hm8owYj7I6H0fmxl2AoyIFJY7k+8hUpYYpByV+bUX5kF8za+g6mqbqXHtwKZXAYbxMuf/Ej3m4UJl/GnbXVoDW7MPBL1m7hXZlyZhPyPzwC4az9KEy/fH8aMmHkAFx/VV9cO7iPlOI8I6IeQr9u0+GpDsWYQYsQ7GeJAhsRdi3m3LIZoYEDMXfyFtx/658I8uvFP9uGTK+pLeadrrzZdr4E+WxQVNR4pqicSPiCpViUMYrIahsoLSV7GxQKD4QGDOT7vl7hdtaC5mI21yElZzeOx3+Gn/fOZfsGu0itpjo9Nh2Yz6Ow/uungfjrzFtcESFs60bDPVkFh5jSdJPVJ4Sg8PUh/v3ROWQENPoybvmQsW3LrqGjMKr/U1AphD+HQPC/jFA6HEBOoxRbhcz3vsPH2Dk3Gmqq4ObrZ3Xc9Oo3lJv+CRc3BTre8QDvzCnseumBP/lbq6G83lGvMTy79kb4rMehy0zhHXttRhLrm8wwVJVJR7Qc8puo02pYZ96FD1+QZUTh6w89UxasuLpx51NXtZrX203FrstmCMOsqUVV7AlUnDuK6oRTMBvrh22aqru6Y1foLmQwReR3bvXwYm3Uee5CuHrWd0JevQfx6K9UB6+eA+zajZxV/a4ez9tdvj8NGdgrAo/OmIhOIf5SivOQY2QX1nGSxWFAj5l2zpplVdm8PTzYm3tFTT5XCuizjNGow55Ty/Dd9tutW3L2Vklq4eaRb+H5e9Mx/qqXcCxuNQ8D3xByyCSFZFS/+XYde2uoq2PKZmksUxgOQyOFryenTsLD3Q8zx6/DY9P28e36oc8jNuVHJEi+K7ZkFx5CraYU/SOnSSmARleGi2WJ6Bx8Ffy8I6By8+KWDxnbtiSn3H7dpsHNTQyvCAT/ywilo5VQZ8ReRflnsiZkfLwUSa88hPLjf/HOmYY6nKUmOQZx86ci/+fPHHbsraVOr0Pumnf48AZtVEcatnAWskREPvE6ui98h/uTKGzyNlV3/1ETETx5Noq2/YTkF+9H9APjnR46+k8Snboee0+/ifKqLPx+8EnsOfkayiozcODcCqs1Q6Fwx21jP8HTd0VbN1sriAxZLAZ0m8k74MyCY1KqhfTcv7D1yCKMHvws76jbClufjgen7uIzdA7HrpSkLtyS4u/bnW9De/8DwQH9kHvxnCSXqUNM2kaEBQ5EaEC9vwc5wdIMlei0H3nbkC8KWT4EAoHgcgilo5VwR1KzmX/W5KSiJvEcuj+/At0Xv8c75w7DxnCZMxTv/AW+g69B79e/sHTsD74AhWfznQcvi0KJiGf/Hx/ekLfI+a9JwtbRVN3JehF62xz0ff8nDFq7l7XR+yg/vAs6clb9G9O7y2SE+PdDZPhYTByxDIF+vdE7YjL3tVDZ+EZcjgvFp7D92BJuFSBICSDlw2yun3FEjqk7TryE4VEP4iqboY+2xwXeHqGorM3ne4Vl8dh6dBFXFiy4MCX60kdCYWk8nzrbv9t0tmfxRSHIguLu7oOenSagW/j1vI2KWJnytQoEAkFDhNLRTNyDO0KffwGGsmKmbJhQFXscZoOlA3FTqpkSYoax7CLfp9kgNQmWWQi20CwMU20VX+vCFleVBwyVJTDptNwCQGWbqpyfiktwywtTgoxV5VKKBfJPoaGMiuP7eb3p3JmfLMWFtRZ/ktbSVN3zfvoUya8/Yr3mOlPzZpg4w+5jsVj43lrEprR+Gq8M+TVU1Raia8gobg3Q6ioQHjiYWwhsO+DLoXRTIy13L5Ky/+T7eRejuVNpl5Cr+T5NX/33vke5gynNanGmzJZSWBqHrMJD8PXsyPeVru5Iz90nOcTWceWntCIdwf72PjEWB1JPdAm9RkqxkF1wFOFBwzGy/zyM6Psw3/SGam4BcRaNTo/l3/yO7/+wn/kiEAj+byKUjmbS4dqJUIaEIe7xKTj34HiYykqssyrUnboiaOIdyPjoZcTMHY/k1x6FIpg6J3sCx0+Duboa5+aMxpmZw5C74ROeHjp9LkzlZYh56EacfWAcqpOi4eZTP4RRff4syzMGyUsfgjY3g89OiX30Fu6jIeMeEIKAcVOQyepAZcty8k/p8tAS1CbH4Ow/RiOa1V2fn4OQKZc6ZLaEpure8JqpflRPqm9bkZ5biKLSSuQUlEoprYfWrNAZKhHEOmLbz85CwxE0bLH71DLurPn9jmno1nEcekfcwuW5RSeZUpOP04nfMHlXfgxtZ5O/4/Idx1/m+59vHoeK6jz8vGeunbwpDAaNNc/abbciqEMf3HDVUi6jYZ4xQxbiaNxHTN4V67ZNZ4rFCAzqMYvLCbJaZOTtvcSBtFpTiOKKJESEWpQnooNXZ6iU3twC4iwarQEXCkrQNaxtfFgEAsHfG7EiaQuhGR2uCpXDVT9pPQqjXgOll+NpmE1hqKmEQuXRpiuK2sLXyHBTNDkFtSU0VXdaf8OkqYaqQyB3Gm1LaKhLqzfAw/3v6KxYx4cxPN0DWzUb5cpQx605ZNWhVUvbk5TsfHy8fjueuvcW9IqwWGAEAsH/XYSlo4W4eXhdtmOl9JYqHATlvVIKB+Hq6X1FFA6iqbrTeZV+QW2ucBB8hsnfUuEgLP4Ufz+Fg3DhM0zaW+EgCorK4aFWITSwfvl0gUDwfxdh6RAIBAKBQNAuCEuHQCAQCASCdkEoHQKBQCAQCNoFoXQIBAKBQCBoF4TSIRAIBAKBoF0QSodAIBAIBIJ2weHsFVol8OMN21FaUY1bxw7FdUOjLCtdCgQCgUAgELQQh5YOtUrJo3WOH9EPP249hNSc+hUvBQKBQCAQCFqCQ6WDrBp+Ph64qn9PqNXuMBotAc0EAoFAIBAIWkqjPh1VtbVwc3VFkF8bRjoVCAQCgUDwP0mjSkdJeTUUCle4u1+5JbkFAoFAIBD8b9Co0uHv6w2NVo/4lGyugJRXaXhQLYFAIBAIBILm0mjsFYPRhG8278Wx6BR4uqsQER6Mp2bf8jcOqiUQCAQCgeDvSqNKx+mEdGzceQxLHrqdO5YKBAKBQCAQtJRGh1c81e4wmc0ws00gEAgEAoGgNTSqdPh6ewJ1daisqZFSBAKBQCAQCFpGo0oHLRJGlo6aWp2UIhAIBAKBQNAyHCodOr0RP+04ig++28L3QwI68P8CgUAgEAgELcWhI6nJZEZMShZfiXRAzy7wUIvZKgKBQCAQCFpHo7NXBAKBQCAQCNqKRn06BAKBQCAQCNoG4P8D46ijTKRyI/IAAAAASUVORK5CYII=;" vertex="1" parent="1">
          <mxGeometry x="108" y="350" width="400.86" height="123" as="geometry" />
        </mxCell>
        <mxCell id="OqSYDqfYlpPWh9uUhqye-20" value="Unmodified Item - Hash values match&#xa;" style="shape=image;verticalLabelPosition=middle;verticalAlign=middle;imageAspect=0;image=data:image/png,iVBORw0KGgoAAAANSUhEUgAAADQAAAA0CAYAAADFeBvrAAAAAXNSR0IArs4c6QAAAARnQU1BAACxjwv8YQUAAAAJcEhZcwAADsMAAA7DAcdvqGQAAABdaVRYdFNuaXBNZXRhZGF0YQAAAAAAeyJjbGlwUG9pbnRzIjpbeyJ4IjowLCJ5IjowfSx7IngiOjUyLCJ5IjowfSx7IngiOjUyLCJ5Ijo1Mn0seyJ4IjowLCJ5Ijo1Mn1dfcOEbdcAAAWGSURBVGhD3Zp9TJVVHMd/ly0GLcpGCMyXDYwmyBxI6sLIsgxtORwiYw7jj+xluEqbL9cG/wR/MBJ0baalubI3Q2ozaWi+NQJXLQNNwIKgpRZoqHRl7kJye76X3/Ee8Dz3Ps+9lwvcz/2D8/ux+5zf93k5zznfcy0D/bccNpuNev/tpejoKAoPD6eJjKXnn2uOG302iomJptDQUE5PXEIgJjY2JijEAIvdbncEixhgcWhwOygI4b9Bg9+vUEPHz3T6QjM1X/6dqtt+4OxwchLmU9LkeHp4WjItiJ/DWf/gF0FNl1qpuukI7Tj7DYWYPNygxUJrZz9NOSmZlDIlkbPe45Ogxost9O6pKjrQrr4SZln54Hx6KT2XUqcmccY8XgsqO7ab3vrxS45cpEVOpyfi5lDK1ERamvQYZ4dzuKVOOxmtdLJTuz17/uSsi43zssn61AscmcO0oN+udNKmmm303d9tnBnixdmLKTdliemzi6tc1XSY3jt7lDNDZMQmUPmz6+mhqDjOGMOUoFPaGc3aX0SD0ldWzXyUSpe+SveFR3DGO3pv2qio9m369Hw9Z7QhWHu+DuaVUrp2xY1iWJBKzC5NyMrUpRz5hwONtfSyJkxgVpQhQbjNFuxZe1tMQkQk7csrMX07GAX9Pbe/mNpsPc4YohrW7DDUn6EXK56ZQIkBODb6QF8AfaMGI3gUhNFMHgBGW4xAiBKgBtTiCbeCMALJQzOemUCIEaAv9ClALajJHW4F4aUpwGjm7wHACOgTfQvkmlToCsJ0Rp4BYGgeK+S+URNq00NXEOZmArw0fX3P+AL6Rg0CubaR6ArCRFOAGcBo8cfVS9xyj1yDXNtIlIKwBBCzZszNfJks6uHQPltqKiht1xoqOfIOZ/VBDagFoDbUqEIp6KcL57hFtCgulVv+A2LeqKnU5m/HnPH204doZ/1nzrY7MOkVYM2lQimo5XIHt0ibNfv36kBM8dfbb4sRFNXtoys3rnGkBjN4ARaQKpSC5JXmEp0lgDdAzIaD5bTzzJ3PQEnGaoq6536O1MjLEb3VsO6gYJbW7nbK2vsKtXS1c2Y4EGM9VEEfNH/LGRfF6XlUmLGKI9/wi6Azf52nFR9bqV4Tk/XRJmcsI67Mnl+Oc8bFxrnZtO7xAo58x2dBV/uuU84nW6jb3jcUD9ykbE3c952NznjQMUibv9qqvDIQY13s3cpUD58Fhd0VRtMjHuBoiOv/2Sn782I6+muDU8z7507wf1ysS1vmdzHAZ0F3h4ZRVX45JU2K5swQ9sFblPdFKe1tPskZF4UpmVScWciRf1EKgm8mqG2p45Y+kdroVJ1fcYcoFc8nL6I3n3mNI3PAXBHINcooBc2aPINb2iT1ov5EUCb63kiPoiCmbNkGsmgfb2iSlg4wKlUoBaVNm8UtclpNRnEnanVihlMMltPecoIHGgDXVYVSEOxZOJoAvpmnRZWMEJU8KYYzRAVJC6lyudUnMahBeHioTc9C1h0UYM8K4JuZAaKq8rdS9oy5ZJ23giqWb9bE6HZlCLkGubaR6Lo+WEQ9+eHrHBF1rK8aszURPLv4bbkcER0vqNT1wXVPG74Ar1kAE3CskPtGTe5Mfbf3AYxzARxNmICBBn3Kbqpckwq3grCognEugKMJEzBQoC/ZRUUtnhabHp9U7ALAOBfA0QyEKOGeClCDkR0JQ0MPdgHEkAt7drRFCTGyFYwajGBIEAw/GOayqEd2F47KM4Vj4tiyGPRt1OA0ZNYLgmo7RYDbIRAbXgu1Z6ZstDe8ZNxuScanUeqUmbp+BGbwmPSOiy1JGZzdoNk0lgmabX0VcDRhVMLbc/fDC6y5sEwZlz+8GE8Yeg9NJEL6+/u5GRyEdHV108DAAIcTHaL/AaYpmrzbXbH/AAAAAElFTkSuQmCC;shadow=1;strokeColor=default;strokeWidth=3;align=left;fontFamily=Helvetica;fontSize=12;fontColor=default;labelBackgroundColor=default;fillColor=default;labelPosition=right;" vertex="1" parent="1">
          <mxGeometry x="159" y="477" width="52" height="52" as="geometry" />
        </mxCell>
        <mxCell id="OqSYDqfYlpPWh9uUhqye-21" value="" style="ellipse;whiteSpace=wrap;html=1;shadow=1;strokeColor=#82b366;strokeWidth=3;align=center;verticalAlign=top;fontFamily=Helvetica;fontSize=12;labelBackgroundColor=default;fillColor=none;gradientColor=none;" vertex="1" parent="1">
          <mxGeometry x="225" y="437" width="120" height="30" as="geometry" />
        </mxCell>
        <mxCell id="OqSYDqfYlpPWh9uUhqye-22" value="" style="ellipse;whiteSpace=wrap;html=1;shadow=1;strokeColor=#82b366;strokeWidth=3;align=center;verticalAlign=top;fontFamily=Helvetica;fontSize=12;labelBackgroundColor=default;fillColor=none;gradientColor=none;" vertex="1" parent="1">
          <mxGeometry x="294" y="521" width="120" height="44" as="geometry" />
        </mxCell>
        <mxCell id="OqSYDqfYlpPWh9uUhqye-23" value="Hash values no longer match" style="shape=image;verticalLabelPosition=middle;labelBackgroundColor=default;verticalAlign=middle;aspect=fixed;imageAspect=0;image=data:image/png,iVBORw0KGgoAAAANSUhEUgAAAEoAAABCCAYAAADwg0AcAAAAAXNSR0IArs4c6QAAAARnQU1BAACxjwv8YQUAAAAJcEhZcwAADsMAAA7DAcdvqGQAAB6rSURBVHhezVwJnF1Vff7evW9/b/bsk0kIiChggWyEROqCVv1VEbQCLSBqQf3VUkX2shM2BRHFtVXR4oJbZJMEQpEKrQUlVKSAZN9mkpnMPu/NvPfu0u87593JzOQlGULQ/id33n33nvM///Od/3runcRCEv5cpJFj/Ag8xPiJWNxcHqVIsoBHtS1cXfjT058XKM8DBvuAXV3A0CDPeRQLQKkMOA6QTgF19UBDMz+bgHwdgrocHJf3JkEW2wjhV0cHDaiQP7GgKpDj208uv848ApKSJvgEYNcu4I8vofLEExh67gUMdXUhKAwhVi4h5pXhxsgpsCKFVLPAcRHEE0AqAzeTxbTDX4fU8YuBZScCM2daANXcYBdS+XaDYrkEvOW8aqgOrkZVOYWUioztQnq0m26Cs+ZpdK66D0MvrEWqswuJoQKyJQ+B79Ps7DR8TkpTFcX0w8vRFCWmEZWgjeRyGGlqQnp2K6YsWQr3Xe8CDplLjWuwbXmIi7TJ6p7l8WroIGqUPSKRYqUi0LEdeHQ1uh99FKUXX0Sqp0czhkskdUQKaD6IShhS/8aKwxsRiCIpmlE2XnNigiDESDKBoK0VyYWLMOV97wWOWQA0TjG8rZKxgx1Avw6YDgpQYhBQH9yw6mk7txCgR7HjFyvgvvC/SPcNmLUN2cbXBGlOLmcSxGQoNFmBITHCsYZTJQFoRtA4PA8S1Fi2U0N+ugHPCXopmcLIlBbUveWtaPjAGcCbjkFYn2MP+kETAf6MQGkCMhWHAPkSeoDO+MXn0fHd78D/9a+R6+ujzyEgBCB0renEgjghE2jsGfPgxV146TSCdAZeis6bpuUQSAOLHyJO8wyHC3DLRTj0Y8mygHbou9RfiyMIaKDSUqpbQA0bbpuL5g+dgfgHTgFmTSdO5Kt1IFYHCtcBA7V7lT0CxbDe1QP/wZ+h43vfRnbjNiQqBIFS+Zy0Q0BclKkNSU4yjmGCUuHqp9pmYsrhr4d72OGcUCtNhj4mk6ZUBENiVXgUSkA/TXbdH9G7YR2Ka/+I2M5OpIeG4I0UkAoJugBgU+uTBBu7MTqOLFqCts9eAhx5FECNM/IeIFgHDBSNiJOnSB79yvaN6Pva1zG04gHUF4d4kw6aAHnUMonuSKviDnrzWbS88Ug0nvRXwAlLgXmH2gkk7CRsjhSYH03H4QWdaeIoV+xYPd3A82uAJx7Hpid/bQJDlmC6HFOm7HEsY86Bj1IsgWLrIZh3/XWMkm8BsimzcFUH8YrogIBSB49AJST4hnZ0Lb8Q+M1/IT1cRpy+x2fi6MfjVAoCRYCKuSym03fETzudzvZYBI0t1EJCQjXQ6mpqhqmoeiqNNZHPnAs+c8tkHh5nGi8x3+raAfz7Kuy6537469Yi6zGAlJmCEFrDmZru00wHmrOYddFVSHzwVPiU5UCgmiRQVnSJKgE0CXVzN21G1z99Ev5zv6MJ+HACOWmaIfXbc2MEKIf8khNQf965wPz5zIXqqnw4cYd8NHOSNKZ6amisQNH1aHSiyw4KC/RdxuxiSHRsQ/ize9H1w58i3r4RcX+YHXSPcrK5wCrFkmi+8BKkzzubiSxNnDeMGRrGY0evTa8MKA7ua2AUkWzfia7zzofzh6cR93iPg0mbyq6LkktNmjkDM8/7B+AUalEzBZMsE0fav3z7Jfp7q50OHf6L6zHy5TtRePghJMomxnLMOO/Jqgv8Vo+Gyy5FXGDFc6g4ARJm+lxck27snV4BUFJ/+g1F28EODH/i08yun+SVERPyQ0Uq+Qg59+PfjJYLL0O4aDFirjSMXodyKDqOo1cJlJGKmhwjfzpCe6WfPvLuH6Dnzi8hLDIKU+q4bvPTSySQ9BPIfeEW4AMfqiLMACOx9iPL5IBSCx0Cvb8fhc/fjPLd30bCp6cyasuRwhF+8vy9f8NVuxKYS0fN9jQQA7C6pyaO9CqBsmTjb+TnjDlV6PhXPoz2a65EpruDF5XzO0gy5/LjHuLpach891twF7+ZMlJIa3+G295o3/o2lsRnmKF69SMo/Oh7jDJ02lLZag5VovP2T/8IGq5ghJnbxvZUe7OSzG+YGjAdtHwOMo2Qvw0JJIGkObusDd99EmZ98XMoTZtD+RSfbQT2gjxGCj3oueFSoH0DA7SWcixIYqBjPE0KqMjpYus6dF57BTIM1RX6oYDapGTSoe9y3nUWmi+4iIXqLHagoIQnpA8QWibKENCQ4HlVAF8tRVNRYqFzcrXXJKtmlaBJHb8MM267FV4zZeKiVqg9STo1WVr2uedRuPNOuLQQrvMYmcjFGFk0gqXJaZT6MF/pvvV2JHv74WlAz6Htc/JkWjiOddbllyKcyiyY6YBcka+IY3tzEoyCXFWPn0YeVzmPnN2BU7R20iBl55q8na0g46dcAhNbLFqAaZdfjDLPlb0HTgVxCUZf1b/iQRbrv2Viy5SiylCySgF2j2BpUkDFAprcC89gkAWurb1M0cBTgjJ9Hlqvv95secSUOBqAKrwrICxUUnxNJMGrSePQeUXZ/IFQhH7kWkc1QaalL7quSWpqPDI5OH/9XuTOOptdKqbGdHzKzfEzI0PY8rWvUgk6TE4nlirWnVET2k21gYqEiWjbdmz95r+ggdmvZIiTox+j+dFJtnz6AuANb+TqEQC7rCS5VgOlncdIGbGOXuCll4AtW+nr6K8mjrEfkuaauKN+2mXoZ4a+9mW6A/LT5l+ohRH4OqKJ8pPaH2YzyJ/7MYwsXmBk9pwU3YDce4Dk8/+D0q9+DadAmfbEZ5RqRz1zhb+kgh7V8oF7seWCC1CvHUki77D4dAMPlbe9E41f+gowZeqoH5O+WYaEScmhCuWVv8TWH/8ETm83glwC9ccuQsMnP4mwrc1qpYZSJ/0yai+yXMTHEr/7hJ3j4qFV2PrzexBs64DDgrfp6Dci/wkmtYcdQfcovbXNIzK7Df4ghh//FYrnfwbOQAmJoGIyfJ8+c2jhEsy97U74815nsgwri+07SgJqT/J4+GGg0/at4c5zzwn7WqeFA20zwt7Wqea8d15bGP7n42w2wkpFDfXLHz3o5MNwpBSG9/8y3Hz0UWH39JZwYObMsGd2S7hjzuyw82MfCcMN6zlUKQzUVUMaPrVIPMthWBwOwx//KOw6bkHYN5tyzJoWDraS55zWcNdHzgzDTetDXzz2OPSryH994dCnzgv75kwPB2a1cB4tYTfl2XxEaxj+7J4wLJXNSLVoLz7Ktwsiu6G5FH/zGwJKH8BDQHsunflJ7wSOW0znyGUxSxAtoVpUl6O7Ezsf/Cka+7vgJJhGsFCL0UeluZrxh1ei58YbgM3bTN4jScYowRiSc+ZRpJ9ctRJdn78VqY4t1GrrAwN68jj94ciT/47wmaeYEOv6BBJjJZapBuTO/nuU65rgs8TS5F1ezw55aF9N/9vfa5rWkqMmUFFeESsOofz0fyPfu8vuEdG+9FOJJ5A98xyzj22GM3ZXBcdQ9fvQEEY2byI4ZeNfTJlG8B2akKtsffX96Lj5ZmD7drNfrpHVToclrRQ7FVi7PbIaXTeysN2xzTAJZLJcIELMFMWHWx5G35aN1jT3IPJg1DU0fwGyS5ahEmMKw/4ODyXClTXPAuvWG0Ak/UTaC1AuG7N35w70rvkd/TTTAF7RT8jzvPaPFi01A8VGVUHsdw8hPUCG4bm+mfeVSmg3kg0lM4HVGA4BSa76BTquv5bJn8BiRs07ppgVU/EdKgD/+RTbXIXsju0mIrEo4Q2Oa3hZ8GOxLHKNU+yFSJTqYUTUuaSiZudOPgV+KstvtBwGAe3OZnd1Inz+D9RuAq1xJ1BNoIyw+uAKldeuRZn8aeUs2ZiBs3bLv+c9QK5qchKgipUM0x66zCt08q3veDcG6XB9hmZKYXIUjx4zHQwhVU4zZWDkeXw1tiy/htF1K8EqmdHNntQw67b/eAzbLr4IOT2tUXrJ+iymg3z0Y0yQMnhcvOSxJwBJLs4YklzRYZ7oqPHCRUjOnmm1kiiGRDFRKmDg2acZfHqqoI6nmkCpXYwClF9+GX4PwzovaPUFjKfy4MQlbKGh90Vsm6Ymnfwe5M85F8PpeisYfzTBYTdLXjQcJq0xv4LcqkfQfwvzsW0b4Oqx1XAReOwxdFxxLVp6aPo0L/WMSOYpPgHtuWdGK1ovvxw4klGP9wTy2KxqD5rejOYFi+mgmCaYHy2rg/4N64E+zrcG1QZK3AtFFLQZxqxVjbR7WGFKG5s2DTjiKNNuX+TK3JBEyEnUMyTnzzibPBqoAawR6dSdwOEn8zFqV9KjCaKE4kM0w1tupa9YR5+0Eu3XXY1c93ZqY4ntyNTUGrtJYBVmzETrbZ8H/vJEhMmkAWd/FNB9YNF8WgcXydguL8biiLH6wMYNttEEqgmUNsNQHIHXsYPKbtcxoCPwaN+NbziCZtdkG+6DzL4VNUj+CE3NqLvkUmTPOJV8kuRH8GMl+iwHCePMCF6YRTZWh+T9K1FmTrSLIOW37WB/7YElKAXNhkDpEEnB883NaLv9c4gto4YncwZHu3m8b6IHYcQ+Cj6BVfmj8XUkBvqZwG423yZSbaD0q3sXKrt2UuXFVVdYecezyOi5mZFFXXd3F/Poig7FGBNndEO+t7EBmSuvQ+yjJ5sLw0lO3ilz4trsizHyDLIELCIRD1DcQPPrYnJKDTY1YwQOOSc4SyZLSDRPhf/VfwWWvR1uPM+7bGOKcOO5zKdoolw64lq8fCviU9uMFqqNFEvFvt/OqBooAo8n9duDzEADBfjMXYx2kRRtHKnsnNmRDK+M1CefR+Nnb0Tiwx+hH6KZ8JrPyUmzyrG0KZwVNIy6EBazYBPG8qlhsamMcKz844vpvOPMj14pcWGQSSE3pYlpgh1AXkobgEM9LIdKir7jaS9AkQaGELL+UUUkwU0IVuvp9FHaKnmFpElrlxP1Dchfci2cs04nUI1IhIx71JjQ5DlKS9RIY+pzDEqckPTFYwpQ/5XvAkveTrey98JaPSdwGCU5emQSSLY0Gh9pfHKVSv0sufQskXPenc/tBShDJWbCZeYYBh0rvin8cwy/YzlPkky6wHwlcDnd+hQaL7sO+b89DSPxNEHS5gYLZ2PmY8mss0GZpYkBufkbNLcT3qqtCItCLST2Q0b6hAO3LmeAEpnfvBHoTRrjxMbT3oEqj9A86HBN2WJXWnuB2m/ytIvwikm+Qz9MG+Rz6nNIX/hZNJ+4mI49YcxPWqNJmIlUSXrkxMoMJGm0XHE1Nel4ysBp6d9oY00zOvTbBnx705rw2EMtpADxdIoazXH5T5uMplqgckR8xtJegOJECIgjgXRe1SpzsJZynL2r/L5IMGlIO0GCvfpR7Hj+BZ5LcE2i6peqFKPqS3g9A0iyffG+X9ptmrFkwK3KZg5RBIk9xn+zrcRTFuPoMQ6vqBowJmk0bNIaxQ7pBFeRCaJjd5tlro5P26Ojs9twr5QkiDSRK1dh/xX3oPOOzyHd3c2rMvFIuDGTrpq4UoOkX0L5qV9hcDnLnQ1byIa82EQtomNvFHGMyJxXqD1Dw0wp2FOT4z9jJ5y3pmcy/6qjF9UESqWKokKQjGuxOTXlL3Lo/NI3sG+p9kHG9EZY4N77c3TecgNSHR1MNj2qv5JaMR2juTykKXrKYwxJE6LJe088jN4bmcFv3EQ5JucCIo4RmXM67EL3gNFaDa3Rlaok8lmq754WUxso9aprgJvLmUJW/leqGZNv2j5B9WuSGFgaPSOfWJEgPfwIdt62HNlOliX0SwJPWbyJeFwVbdVqU5AJA+/YGZh6jPf1gDWkqQSr70XXDcuBzUwO5Qp415qzHW/3YUGOaBQw3aQPrvTuYj/tP6i/NMhBur6Rjr76LsQYqgmUo4eWTOgSTVOZBFKTxJgUZzlTfv5/ifzkVjIiU3WNMIo+tho7rluO1I4dJh+S/5Y1e8zWlR5owg59Y6khj5Fc1grHsZVoSlRXGuQleEZTfewRdN94o90K1vsGVcu14ESfo9AYGv2mX4N9qHTvZEMmvSqyCVRIOXJTZ/G+Qup4qgmUoYZ6uFOmoaKKm61UFLsEauDFl6kJ+3tGZ4Uz+HLFYoUC8OST6LjmetQr27feoEp2WtoUZH2MgbmtmHrZVcid+ncYSOd5R096FPtclDiRZFDh4iUY+FhSrXwAvTfcAGyiz2JhbQOCyI6/V9LLJes3whsc5AJpAQgSuxQyGThtczjZPWHZC1DslU4jf+ihKBqgjHITIA+lzRSqvaPabu9kYw3zI9aMePwJbLrofGS6ttECtY0STcSCFB2D06dj1pV01qedifwFF2La6Wejkmw0e+/aO5LjVV+BlvICxFnuhKvuxY6bbwE62o18umuBmgCWRdCS8rVn1tA/Mq+T2bOpEmp/yhTg0HnW9UygmkDJeesBYvqw18Gnc5N/8tSSHOJ6N/OZ3+8etwZTkbF5VQLP/gFbLvssWno6eU1GQ7M2L07QIB2fvHkkYqiwnJh9083A294OL8NypmUakp/6RzSc/kGUM3Sweg6otpyUUgYN6/gpQuYj+QjBupVg7dQYEwCaSOo4UsTg0/+NuNk2Jvjkq9ieaWsDZs+u+b5GTaCMY1SudNjrkZ4zhzmMR+FCFqR0tF4B3kM/tD5B7UwWq2M8GXl7etD945+guZv+IGRtx4syI5mTbUDvQyso55ow9bZvACe+kxEnbWpolZXhjGlIXXgRUmecQheQxQilDRy75aIMIxP2mYQxcOnXVq0Cfvs7at14WSSiDmmN+dT9dS+j8NJzbMvBmcz6qKCU9FH3piNH3yyeSDWBkgbpMQ7mzIV73EKM+IwsHEVbJ4mSj11PPovYxpfYjoMae96TjVnXgV4KtIYn8h/jJyDtilWoSdPymHbHHcDSNyNM2wI3qrHMZ1MDGi65BJkzT6ZvSlEjOVcyj9NxFt0cRhh4pGGNw0VU1j7PoegPR0mGKn9odtYJDE85kdK9K+EODlN+E3MRp4aXcy3IvukYBGk9qtiTagIl1maquUY0H308PDdvtYykUJ4bYgT7xU9tuhCt1ETSxYQLt15mQ4HG/LVBoFXl/XTjdLTc8W1g2bsQZnbvAowme8yS9RKYXrqvZyEd//AZSPh11GptJ9t3HkRmERktY3ltA7Mv2Utek3xoQag5plqVI2rfhOIjK6mNBJGR1meA8KSVR1CbCJTZQzNcx1NNoGzmzVsqYRYdh8pfvMleV5ZO4cv0F30/+D6CXb1mwloo4TKeeHXaVLS89Z0EWiCIpyXxydflkf76N8n/LdQkW8KM52LdtmYcKF3JN6Px0uuROPODDON6dC/HrQeZ1BROdLh1BuILFsFP5ar9LSmJrOjJsL5UivBWPIjS9nXwGD3llyqcT5iIY8Zb3wJMn0VTlo7tSXsAFYkqpTR3585By8nvQ9llVsybKSY+TkD17O1D8LWvMNQOsY91rmMPsywZFr4f+lv4HziFYJCZVtbxUG47FPG77gZOYIGbsU92NZQZc5T0TUtmdy7MolE7s1cwDzvvHAxks3rPGCVeHpzVhlkXXwIcNR+uNIIdpJAiy1sGSNC3bUXxrrtoavbJS1mqWClheMZsuMveTv+oBZA9mRmMo5qP1KPJGgGlLs/9HhvPPQfTd2yj802bSwrzPrWi4Z4fAccuRMhVH8vI9NUF5SwDu1jMrkdp41akGpuB17+B2sYIE22VTJo4suYxPMhEczvKL65DktUD3nA4tYGhXW+v1GAoMWIjQwguvhLDK35EcO0OZpzaOsKUI/Xxz6DhUxchbKKLkTop0ExgU/vdg4mkv3r64ffRs/wa+ig6T2brocvYT80aWjIfM7/GiDWjlWpulVZjRD7NhHXNTn5JOUaMjlO+i/dVqO85rb1TlJvp2bCiJfRmHRmF5Kfs3SxOLY5MB/wHH8LAP1+ORKGf5kaZQhba5NXNBHPOV+8Cjj7OLJwClvhM5GJ5TyTJU52otAd5rto7TkLX6w9jJPLoACscgh6EM4397hkMfeWrFsxRUm7Cvjz0Vp6esYBO07zcxZxJXCcKMlkygEg2Sh4qQpGfTN8W1TW4Csy1L6Pzji8jLA5RHjlwtU1QszJoOe1spkHzqF52wlrq0UUeQ7WBGkMaWmk+Zs3BERddjFKe+ZAcoPnRG2907it+jJBR0CkMmUlYcS0Y9uBvsz0qMlmU8SG23eRplFf1i8aXF7O6FHEbM0umNdjZgV3Lr0WSpi+pTTSkn5VlBMcdj9wHTzd7+eaGWIx218nuozZQVqLRU0MZOrqlJyL5/veZDXmf6muekFB14oP92PKF24F7f0F/RM3iNROWOYZZPB1kZP7+ruqedWkPitqOPcaRYCKjqlBy0iZFMItgL6qLsQL9+duWzdh53dVwn3macurlNt5l7uCyqBye2oQpn/40fWULu7N/lI6LjVGp8UdtoCaQGUD1UX0dms7/DCrHHMOvtsIW30oshcZd/ej44q3AAz+3f5+nd5k0hoiNJHz09TWh6pykx47eEFz/IrpuuRGO3lKpyOAoBGfrEQSfxW/TRz8MLJ5P860dACbSpIAyDkcrpwJ55hy0XnUtwrbDObjM0PoH7YTmOzrQcfNN8L9P57ij3a4qhZff1fGakmISD3eYmfmaZ7Bj+VXAqoeQpaPUe+aCQmGgQqDytIrkhz9mHpTo+v5hYptJRT2zXKIqS72i8+Av0X7d9Uj2bkeSITZgLScz0952L800fvKpmHrux4F5hyBgkWujkpJIU0wYDVNNZ6nKd6Ik0QwmDK/vZiOxem5uqErQewMsdrfffjtyL79gburP3uI0Oz1tKXKtcycsRZ1KpqaZdLB6Am37R6wtTRSELSYHVA1S1F9xN7becAMa9bCUKUPcFJlM5eiL9PS3MK8Nh5x/AYvdkyjY1CoySv305rmDtMyZEkYeYPfELRlF5qcqD/OdzUy9xoseE2DLjhf0us2mDRj8t7sw8MB9yOuVaN5S1NVWb4byDOtt5QUL0fhFRujpBMk8E1QrMuPH2Diss93fLL06oKhJ+PlPsOlzN6Gxr4PRRLNgYcBRfOZPSgwqqTy8hUsx4xP/AMxnKZRmquGmTBtJY5w9Sd8NXGOkMcU5L0SaJx0y74WaYQjOCDW7uxuVB1eg9zvfQWZnO3HjzSifI0BK3RyX2f/SY9F4EyuJ1tbqfQlQpSrLiHRnzF1DBw4UOZuO7B575CG033QjUtu2UH7qit6o01AUVOxD/XWA/jR/4ULUn3YWYieyrsrzO6/5quMcbe/aKGmJJ/qi7+aiDnk58lRSPcxj0x/R/8DPULr/Ibjt7Qz3ZfJSoWynqVmlmT0WUkm0vO/9cK6hz2qawUUiA/MHA7uhiDQ3IsthPB0QUObxlZFYWQwTuICfa/+Avquvhv/0fyGlAozXQ6qLZS6TZG3FoVy/BIeqn11wPIK/fBucY4+GM+8wuBm9IcN+kW2ZQ+DwU/6nsw8j6zYh+dR/wF+5GoV1LzJN4r14giBVOBZN3pEOC3IaErXda8xi2j/+PcJzL2XQScI1Nqxt7PGRLhotooMGlEhDWs9iybyEP9gH/5vfweDdd8Ht6uQ1mRjDdUzOlBkykzzlV9rKKCUcpArSNK4ui91MSyPcqa1I1jXD0d8Weyxch/tYfLej3D2A0s4eOMNlpNSXSqgliNMv6i86ZY1J+ruAMmhb1QA2fwlaLv5navEygkn/xGnGtGUzEYFJ0oGbXi2SArCuAiNO/ze+jthjjyIcGmJCx9qM0UdbrsY3cUq21qMPUQrBhM88wOCnhDFNlP1LNAUIaod5409f+Us8ZJF6L1R5ol51TDDp1D5Xqa0N9R89B6mzzkSQbTBjjFYFOjfMDatxVL28VzqIQNG7Ewwjgf6KQH8r9+wadH7r23Cf/A2Sw0WUudJmixcl8xZdPMjQQKu+iWLolWZt80poOWKBo5f/RXLqAsin5sSpRQKyQtjqSiGKNNci05D6U09D/d+cBsykL6JW6nngqN/TyQSgRm9Vj33RQQOKHohT1qurNicxZinABgZYlK5H7/33oX/lfUi3d6E+KKOcYvtyzjhdgaIIZ/wwxdd8xMREuUg6Ala9bWiYKllM8/7R8zHnjNPhLFnKcmQGTVk7qjLxarQxOYXt8/8CKKWRVXgMaeBIGPOSPE0QXTsZrdZj6Kmn0P/bNQjWrkVYGESKCawSVbvo1AJOKCAweoyu99ulORWZWCIOb1YrskceianL3gznjUcDcw+x/w1AWq8PafwxyaOZGb/tD4VJ0MH1UfsgOwi1wqfDHaQf62eM72aZ076dGXUPSnT+Xm8vKgWaaLlME3URZ84Vy9UhM6UJieY6YEozMPtQOn9W+w2MknE6/QSDgVHB15b+ZEBZkjlIbXSuX1ITXaPGad+oxNBtXohXG95X9qz3APQqISMX4zudfspqHr9K8NceIkt/WqBMyaLhFNz1Y3cgRLpqDSf6Np7UWsatLRpb0vCKSeu12fJaE/B/4+MdP0pjdkoAAAAASUVORK5CYII=;labelPosition=right;align=left;" vertex="1" parent="1">
          <mxGeometry x="213" y="743" width="49.33" height="44" as="geometry" />
        </mxCell>
        <mxCell id="OqSYDqfYlpPWh9uUhqye-24" value="" style="shape=image;verticalLabelPosition=bottom;labelBackgroundColor=default;verticalAlign=top;aspect=fixed;imageAspect=0;image=data:image/png,iVBORw0KGgoAAAANSUhEUgAAALsAAACzCAYAAADRw20HAAAAAXNSR0IArs4c6QAAAARnQU1BAACxjwv8YQUAAAAJcEhZcwAADsMAAA7DAcdvqGQAAEXkSURBVHhe7V0HYFRFEx5aeq+QhBaq9C69VwEVqYoFQURBilIEEQGRjlJ/LBQ7KsWCSpcmRXrvJXRCSwjpdf/55t0jl5CElEu4JPfherl7bd/ut7Ozs7OzBRSDLLAgH6Cg4dMCC/I8LGS3IN/AQnYL8g0sZLcg38BCdgvyDSzWmHQjaTHppaYVnyEVKED4h58KFtTliOHEhyhg+LQgp2Ehe7phILSQFYRWFBoaSkFB9/kzhKKjo+U3a2srsrNzJFdXF3JycqQiRQobrkngBFg60ycFC9nTgYSEBHrwIJSOHj1GW7Zsof/++49OnTpDwUHBQnKdyAkqgQoWKMgCvhAVLFSQXJxdqEyZ0lS7Tm1q3rw51a//NHl6esi5BdALcLIg52AhewqIj09gaf2Abt++Q7t27qQ///qL9uzZQ3du3+USK8jSugiflcDyuiCrK4WZ2PwXBDaXpOJ/CfEFKC4uDn/xD/z/BEXxCbFkb29P1atXow7t21PLVi2pVKlS3AO4UeHCheS5FmQvLGQ3QmxsHF2/doOOHDlC6zesp7+Y5CB8QUjhggXIxsZGpLWHhwe5sJriwOR1cXVmtcWebG1tRU+PiormFEHBwcHcGzyQHiE4+D7du3ePwsLCSDHx8c/ZyZmaNm1Kzz33HFXjBlC2bFm+h7UhJxZkB/I92fXXDwwMpPXrN9Datetox44dFHQvSI7ZO9hT+fLlqXLlSvJZunRpVk3KUNGi3qyTOwnJk6sj+A71BmS/c+cuXb50mS4GXKSzZ8+x+nNKEsgPoJeoU6cOdejQgdq3b0sVK1Y09BwWmBr5nuzx8fG0bt06+vbbb2nv3r0sye+Kju7l6UVt2rShZs2aUoWKFUTlcHdPVDlSKjVj0icWq/5ZQMh/5cpVOnfuHKtFe2nN32vo3Plzch16iRo1alDXbl2pW7fu3Hu4Ga6zwFTIt2THa9+6dYsmTZpMGzdsoOs3rgvxoaL06NGDunZ9gfz9y/B3dyY4LCpJyZwZ6EWNT6g3V69coa3bttLChQsp4OIlVpUKixWn/tNP05SpU6hChfL8TLnEAlMAZM+P4AGnYp1Zubi4KTs7B+Xg4KS6PP+C2rdvnwoPD1dMfMUSXlJ2Ac+IjIxUN64Hqg/GfKg8Pb2Vra29srd3VEWL+qjly1cazrTAFMhXZAdxIyIi1cqVv6oqVaoqWxtb5WDvpEqV8leLFi1hkkdkK7lTA57JOr7avHmratWytXJ2clVWVtbK2dlFTfp4krofHKLi4uKyvfHldeQrsj8ICVVffPGlKlOmnLKxsVNeXkVV167d1YkTp1jKPnkSgchXr15VI0eOUiVLlFLWVrbKw91TDX5nqGI1hwmP3sZwsgUZRr4he0RElJr92Tzl61tCiO5furz6cOwEdfv2HVEnzAXISmREtFq8aKmqUaOWsrF2VO5M+AED3lbnz1+U4xZkDvmC7FGRMWra1BmqWFFfZWfroCo9VUUtXPilunfvvkhKs1MNODsg9cYN/6gWLVoz4e2Um5uHeqPfm+rmzdsWVSaTyPNkh9SeO2eBKlbMTwZ/5cqWV0sWL1H374eYhDS4R0rJFIDasn37v6pVK43wri7uatDAoSomJsZkz8hPKDSBYTDM5Dnw+8ks6NSp0ynwZiA5ONjTxIkT6KXeL5G9vV2mTIlMMrmOP8StAJNPAZcu0eXLl+jatWt0965mp7e2tqZChR51A8jIMwsWLEC+vj4yiXXy1Em6fOUanTx5UkyhjRo1spglMwqN83kTx44dU82aNeOBnp1ysHdRkyZNfmjVyCjQQ0RFRckAcunSpapbtx4y0IXJEve3Qipip4oUthUpDJWpVas2atq06er48eNizoyNjTXcLWPAs1ev/ktVrlSN762ZSf/+a61Ff88g8izZWcKqIUOGMDEclL2di+rzWj8VHR2bYTUDKgMIvmrVKtWjRw/l4eHBA1wbsc0jwSbuwuqFp0dRSa6uHvybC6tMjpwcuBHYyjlodF988YU6deqUCgsLM9w9fUB+Y2Pj1Kez5qii3n5C+Hr16vO9zhrOsCA9yHMzqHgdOHStWrWSRo8eI7OkjRs1pR+X/UBeXp7p6vr1IgkJeUAbN26k5cuX05Ytm4mls6gh8IkpUaIkFS1alDzcPcjD0/2hjwx8YoKC4BNzh27fvsWqzVX+vM13SxCflypVqlKvXr2oY8eOVLJkiRRVnZSALIWHR9Dw94bTN99+R3Z2NvTaq6/R+AkfyayrBekAyJ6XACkYEHBJtW7dVtna2Kvy5SqqdevWGWzU6ZPqOOfIkSNq8OChMuEEU6UdD24rVaqk3n77bbV48WK1c+dOkfgRERGiZhgn9AbcyNSBAwfUsmXL1OjRoxXr2NzLsLTnPGGmFGrQ+vUbMqRW4bQLFy6oOrXriapUvnxFtXLlKrmHBY9H3iM767Fz5sxTTk4uypF12/HjJ6iQkBDD0bQB0oGs69evV23bthXdGBacEiVKqREjRqpNmzYJiZOTWycrPpP/jeN4/v79+zlfc1Tt2nWl8djbOarq1auLamN8j8cB50Ffd3Z2FfXo5d6vqCuXrxqOWpAW8hzZg4NDlL9/WZGgTZs2E5Klh0g4BxJyxYoVqkaNGkwkeyFl/acbqo0b/1FBQcEywMR5yVN6gPPgqnDo4BHVt+8bysXZTXR/VoXUhAkTxF0gvQgPi5R7IH/FivnyeOI36bksSBt5iuzg3dSp08Uq4uLiqqZMmZIuCwiICOm6efMWlrY1paFYW9uqZ599VqRyRkj9OOA5sMxMmjRJ1Bk8x8PDS82YPjPd6gjyAoc1NBSoM6++8roKvHnbcNSC1JCnyB4UdF/cAWAJadyoiejM6SEpzjl69Khq2bKVEB2ekO+8M+Th5I2eTAkQe948THb5ioSGGfP7779Pt4SHtWnw4MFiEfLyLKb++2+vNCQLUkeeWerOZKQ//viD7t65R9ZWVlS/fn2qUrUKFSjweGMTltCxnk+7d+0iWztbeuXlV2jixIkP/dizA7DCDHz7beLBKzk7O8uE1BdffEmsdlF8fByEkOHMlOHq6iqLSzw8PMVq9Ptvv0sZWJA68gzZY2JiadWqVbL42dnFmdq3b09FCmN5W1q2Ru7Z+N+KFSs5raBCfH6b1q1pyNDB5OICcx6uNU6mBSIQDBz4Nr311gBZ33rk8FH6/vsf6O7dO481kWK9a6VKlahWrZpy7u9//E5hYeGGoxakhDxD9nNY33nylBiky5Txpzp1axuOpM2agIsXacaMmRQXG0fly5Wn/m/2p1KlSmo9AoSrnrIBICmW+fXv35/atW1LsXFxtPqPP2nXrj2yaupxKF68ONWpU5tsbW3oUsAl2r/vwGN7hPyMPEP2HTt30IPQBxK7pVWrVuTo6Gg4kjqUKkDz5v2Pbt64SXb2dtT52c7UsGGDdE/0mApFvb2p3xv9qASTFyrVksVLKSICQZcMJ6QCTFJVr16dvLy95L1/Wf6L/G4hfMrIE2TnwR7xYJSioxCwiEQVeRxAiEuXAujXVX9QgYKFZEH1K6/0FnUip1GIpXvdunXomY7tRO/eunUHHTt6jI88nrRVKleh4n7FpYFu2vSPFq/GQvYUkSfIHnTvPl27ep2iY6JF165StTKrCGlH3AIhfv31V4nlgiheGOz5+/s/vE4Sl87D9BgdOqtAHJoWLVqKG0JsbDR99dVizqT+0JTJizz6FfelEiX9qBDr8DeuX+cGfIV/N021ooyioqLEkxOf+m+5Fbme7Cj7y1cu070gLQ4LYrDAvTYtogORkZG0fft2Gdja2dlS927dDEeeDLhpUe3adahy5coipTds2MBqWajhaOrAuXABtrG1le9HDh+RT1MgJiaGfvvtN+rZsxf9+OMyVq0iDEdyJ3I92YEb129IkFFInXr16hl+TRsBPKC7evUqqw3xTJay3BtUfWwDyW4UK1aMKlepLKoUgigh5F56UK5cObkG+Yffu6neAo5vGzZspJ07d4lD3P379594GWUFeYLsd+7eeSh1qlapKp+Pw+nTZ+h+cKjoyC1aNCcrK9jUn2wXXahQQarCZHdysmdSKYkzmR7AKoPeDObIixcvmuwtIDzi4jSrEBaq5HY7fp4gOyJtRUWyTsm1jIpPj/S5dvUaN5Aokez1nq4rFYt/TxrlypUhRycHIe6x48cNv6YNd3d3scwgHiVcmk2GJ18cJkWeIHtEeAQPTmNkksbN3e3xgyg+jBiM+qCrQoUK3EA0vflJAz7y8I1HVgICAh7/LgzMwFoZ4kOG3A+R4KkZBZ4DyY0kDd/Q+DF4J4VoxYWkfIzP0T9zC3I92VHgUdFRFB8XJxId9vXHSfa4+HixwsBMV5hJgql3cwHyr5s/MQ4RU+JjRCzOx3uAeBh44/0yCjT8pUuXSoDVFi1aSXru2S60adNmOb592zYJC9iiRQs51qZNO5o3b77o9bkFuZzs0CENkkjkTiEqxBIobeDceIpP0OKno13AB0aXZE8OeHYCjx2sWSWx5vwU4AbMOY1DjPe0G6+VlRUVLgTJblyduF/63weD9dV/rBYL1d49+2jf3v106NARCgoK4jIqSCEhIXT4yFHav/+g+O/s4kErFrOj98ktyBNqTF4CIgpAXxeVChzn1vi4nkrOxznMba3Bpp/kOry8vKh1mzbUtm07atWqJbVs1YIaN25E3t5FRRB4eHpSgwb1qSVLdqQ2bVrL3ISPj4/hDuYPC9nNDhqxQV75lzbPBaI384nyif8yznWZjOvb93VasGA+zV8wj+bPn0czZ02n2rVr8v0SqFrVajR58mRa8L95Wlo4T5zYMDjOLciHZIcExGvjE0xKB5ueCFh9EfdkPaUNU7wFtsHx8/OTheBIfn6+ZGuH8UMC2dhak69vMSpRooQkP18/Hl84aBfmEuRjyW7ORNeRPqKbCtKbGCX9N+1Tywv0dz2Zf/klhUWNsSBViFr0ELmL2Ckhj5A9MxWRs1Iz83hyJLOzs6MG9euTfxl/ccNwcTEfE21mkA8lOxO8AEyW+DRnwnPV6GOLDBEe12TmukcBsr/etw9t2LBOBqMODo9fI2DOyIdktyAjwGwuBq0YvOZ2WMie52D63kofpOZ25D2yc71olaPNrmrJGHyM1QOxJsD0aK5ajJgeDepWhjKpn5/R6/I+8hTZQXLNOUlzVkpIgLMS00b+5hQPV1XNgSn3mM4ySlg+/2EjscAYeYTsqNgEiouPoc6dOlOTJk2padOWnFpwap4kNWvWjFq2bEW/rlrJpI81EMOC/IBcTnZI5gKa11+hwvxXATp85BAdOoR00PBpnPi3gwfp4MEDdO/eXbkDvAyLSDAk7V7mh9zQ++QO5Pr47Mj+9u3/0k/LfpZlYwlKc/UFQP5EsuATr4puHh/asRo1a9CoUSPEmerJQstbTEw8dezYiXbt/E9820+eOkbW1lbaKSkA74+1os2btaLDh49QhQplac++/8jaSg8Qpb+/BXliMwIEFAoKCpaNAHTDQdLX0is86W9oFO5ubmRjm/PhMx6FhezZjTyhs2OFvYeHu2y2BZfTR1MxQ9K++/r6yrnFihUlaxtrw10syOvIIwNUll8spY0T1JLUkvE5+DRPZNb0yFUqM69I5vNuZ8+cp7cGDKRffllBsTGxhl9zFnmG7HkXGSC6GWss33zzDX377be0ZPESOnvunOHXnIWF7HkG6AXM14waGRUp8Sjj4uIIER2eBCxkNxvog0mspsX/WaLLIDt94lrkPy6Rv/T0JME5YXIn5odVR8O7JNoOcjafFrKbFbRxBLaa5A8qWsxbBt9p2cv0sYenp6e0C28vT/6uNZecJFJyaNYwED5eSC+Zw6y1ZM0QtoOPQdrnFPLcPqi5HaiOgwcP0tatW6lu3brUtGlTw5HUgWv27NlL27dvo0aNmlD9+vW4kYBVeso5wAx8+PBhWrNmrRaXB/TiBrn5n20ysQdLWKtWLbhxevDZShoqQv49//zzD0OIZBcsZDczoDqQEM4P/uQgQ3oASSnX2NoToolImJAnYJHBZsfjx4+X3Uzgm6QjOjqW4uPi5X2srYtIQCsdZcv606xZs6hx48aGX7IH6StJMwVIgUqGNEHC4Cc2NlZLMfGJSf/tscf4+lSPJUtJzjN67iPHjH5Px7G4WH6fOEXWVrbymeT8NBLGfNbWdqwWGBzdcpjkOhBzEkGnwsPDKDIy/GGKj4e5EapLHEVFRyY5ps2TQNJnL3KtZEcXeefOPbp27Tod4W7z2PGjFBBwUVwGNFXVuB2zXqjXffJjxo5gaR1LDrFl6zC6P5DascfkSxua4qcCD3VZCT+XDmAWGHEusV189epVJGakh4cX2dsjbqRx5rIfiL15+fJlJnKk4ReieXMXyL5V1apXo/fee5eleRn5HWMORC+GepPdyHVkx9T4yROnaceOHfTX33/TwQMHJUwcvwkXnP4qqFzjCsbvqR0zJnRax5LDmITG9wdSO5b8/smOib+O4U9DtWRo0osvgeaA3QKfeqoitW3Xllo0b0F16taSlUbpVYlMAeTfmFrvvTuSPv/8c9nGZ/acz6hatcRoy3jHnJjcy1Vkv3r1mmz/uHz5Cjqw/4DohCgkV1c3Kl7Cl7y9vcSLEeHgkiL5KxoXbEaOGSOz90jjGMhuOJxesqMXiIuPE339zu27dPXaNQoMDGS1RtOPsVi6U6eO9OKLvahqVY1gOUGs5Bg2dISB7A1p7rykZM8p5AqyI4vHjh2juXPn0dq16+h+MKsqXF+IZd6xY0fZRMvHx1d0ReiMiGiLAVp+AIgLHR1OcCH3QynwViCdPXOWNm7aRLt376aIcNaJCxei+vWfpsGD36FnnnlGdOScJvywocOF7I0aNaY5c0H2KoYjOQiQ3ZzBFamY6IorSTk5Octu0ExsNXv2bHXmzBnFOrrs7Myn8ck4X/9krTcfJL2MjFNkZJS6evWqWrFipapXr77s2m1ra6+qVauhli37Kd3bxpsSC+YvVDzoVj2691KXL18x/JqzMHuy37p1S7Vv354ry5aJbquaNmmuTp48Jdue65VrgTGwpTsaf5yKjY1Rt2/fVb17v6JsrB2Y9HaqSpUqas2aNTm+9TurWbK9Phrhk6ozsyY7j+bVoEGDRZo7ODip55/vos6dO2c4akF6AGLFxyWokSNHKmdnVynL9u2eUSdOnMh3gsJsyY56WL36T2Vv56gc7J1Uq1Zt1P59+3NcIuUFoMwePAhVAwe+oxwdNVVwwoSJKjw83HBG/kDO2aIyiOCgYPrkk8kUnxBP3t7e9Ea/N6h6jRo5aj7LK0CZOTjY0zuD3qGnn35aBvzff/cDnT9/0XBG/oB5MkcRbdi4kU6ePEnYGKtJ08bU4Zn2ss+/BZkDrC9lyvqLCdLdzZWu37hBq1b9ysQ3nJAPYHZkh9TBNoSrV68Wkxr8Q3r27EHOzk6GMyzILKysisjuGVUNNu4Vy5dLWecXmKVkv33nNp09c078Pdxc3bLdQSg/AVvWV6pUSfZgunjxEl24cEH8ivIDzI7s6G4vXbpEoaFh8r16jeqsb+auHR7MGZh0w/bvTk5OItXhjvskZlSfBMxSsgcHB1NMbIz8XbpUKYNTFFI+UjCzEdgsTHMfLkDXr183/Jr3YZZkj4mJfbhxrS0qJZ9InpwCekpsh4liheuFRbI/QaDoUQEYrGourhaymxIwRWrFqqTXtJD9CUPfsAob9GqQJqD9aUHmwcVavHhJWRaHjQaw12l+gZmS3UBqJjykO5KF6KZDuXLlaMmSJbRt6zZq3ryZ4de8D7N08V2/biMNGTJEthif9ekMGjhwoOGIBcbAPAQSTId3796lixcvSplhpRBWcmFCDvo5VgGV4oG+r09xTVeXXbS1e0CFyS9qjPmRnXMTGRlFX371lVgKxo0bKwsy8kuFpAZUE4oA5kJYq7BA48CBA7R1y1bas3evkFzs5YrHOihE/Geo2gT+BPGxzrNmzZoszZtTwwYNqHgJP4mRiWP5ASYlO26lVUrWpYV+Lx1PmuxP8vmKB5GxsTF0hQl96OAhWrduPW1hkoPwKgEDeUjqQiLF7R2weMVKBqEYfGIZY2RkNIWHhcuKJli5UK6urs6yauiZjs9IyA6sWYUOn5eFisnIju4U3WdISIj8rRUaUuZvb6KsZRmQfFgFhTAV6Vz/bDKgDG7dukVr166lv/78i3bs3CkrkgoWKiS28rJly4oOXqpkSVm47OTkQHb2dqKuQNJDncEa3Vu3bov0v3DhIp05fZruBd2T++M8kL1Dh3bUqVMnKl++vKxkyovIMtlRmEeOHKE1a9bQqVOnhOy4YyLZAfMgbWZRiKWmm7s71a5dm557rjOVLl1a3g9Fl52SEEJj//79tGDBAtq+bYe4UaAoPTw9hJiwpJQrW46K+RQT64qmjiSaElEPel2A+MHB94T0Fy8G0L59++jvv1Fnp6UXcLC3pzp16lC/N/rRM890ECmv3SN73zEnkSWyQ5J/8cVXEp311q1A0bUVVxBInlhA+IQeCX1S+yU50irMVLPHl2CxcWrI7HUpAXcC4e0d7MiHpefoD0ZRt67dON/ZE/IaeYdq8tNPP9HUKVNkEXVMdAw5OztTnz596KXevSTOPKb8QXCoOVFRkSK5b9wIpHv37onaA9XGxcVFNjWAiwB6AtwbjSg8PFwGtevXb6S5c+fStavXWMpDr3en3i/3lrGSrsvne7KjwEaNGiVkR6Qn3Abhy0r7lyYnR6dHya5SdzbKFNkZ2dFIkgP+9Hdu35HBcmycFlfc2sqapk2fQgMGDBCpaEog35DCEydOos8+my05xW+NmzRm4k+VUHHYVQMTzFBPNv/zD61YuZx27NilbbMjxaz1Oly7+IvzWICsuW5q1apFXZ7vQp2f7cwqj7eUHwIxXb9xXe7988+/UHR0lETratmyOf3www/SwPIMuFAyDCzY/fzzz5W1tY2ytXVQ5cpWUNOnzVSBNwNVbGysYQE01odqK46Q8FtqSTs35ZTS+XpK6Xw9pXS+nlI6P/UUr2JiomXd64ABbysvz2LyzkWL+ihWA6QscJ6pEBQUrIYOHaacHF24fG2Vr29xNWb0WC7b24qJqXiwqS5cCFCffDJFyt3a2o6TvawxtbdzVq4u3srTw0d5uBdV7u7eytXVXVZ6YXWSrY2DnFusqJ96+61B6tChQyo4OFjyHxkRrZYsXqqqVK6q7O1xno1q1aoVP+sCvyPKzJDBXIwMS3acfunSZWpQvz6FhoVRqVKlacKE8azLPisDG03S6XpeogSV0BapCVuTS2ioAYY/kyPN61KCZr3A7aKjomn27Hk0c8ZnFBcfTc2bNaNFixdJvJq03iE9wBPu3rlLc+bMo8WLFtF9Hvtg8Dl0yBB6+ZVXpDeBNygCQ/2PdfgrV65yeRchG1trVlO8yMvLm0qWKEl+xX0MIUWsiEnKg9kQunkzkC4GBNAd1vnxd+iDUH6nBHJxdaZXXn6ZXnzpRapYsaIMVmHlmTx5Cu3ds5cKsxrTtk0bmjJlMpUrX47f0ZDZ3AqQPSNgwaimTZshksLNzUN99NFHsjDaWLqZUtKZD7R3Cg0NU88//7yysXJU5cpVUL///odJ3vfBgxA1Z85cVaJEKQl9UZkl7KpVq7hXiZHQGP/8s0V1795LOTu7iRR3c/VSbdt0VOPHT1Lr1q5XV69ek15G773wt/H3O3fuqB07dipWjfg+PVRxvxKatLe1V40bNVGsskivwh2Z2r17j6z5tbVxlOcMGjhUXbt2w5DT3ItMkb1z5+ekkEqXLqv2798vlZ03Cf4o8J5r165V1kx2NzdPNXXqtCy/e0xMrFqzZq2qVKmKxFYpW7a8+uOP1UJWLIr+5Zfl6umnG4hqY8NqS+3addX//ve5On7sBKsfmqAxVs8ePHjAhN2ttmzZIqoKwpHo5yAESUBAgMSPQT1CVbK3R8Mtx0JsmgoMvM3PTVBHDh9TzZu1koZVrJifmj17rizazs3IMNmjo2Ol4CEVKlWqpnjk/7CQzQXZnReQx97OlXVhZzV8+AiRvlkBpHLr1m2VHY8FPD291eLFS6S3BNlXrlypKlSoqOzsHPh5jqp//zfV4cOHVUREOPc1iLSgvateB4jP8tVXX3HPUFk99VQlVaNGLVW/fkP12mt91I8//qhu32bdn0kfGxMnuv+M6bNYt/eUuDw+Pj7q448/YT0+RMYH//67g+9RReq6Qvmn1M6du8yurjOCTJA9WtWpU0+6uKpVanC3Hpqhl89IYRmfl/I1qGw9Pe7cR5FyXvA96f2MgfNBKEcHdxnwDR48RIiZcWjPiYuLUZMmTZZBr52to3r//dEiQHD40MHDqmSJ0kx0e1ZfnNWUKVNY1QhK8/3CwsJEtbS2tmaSagNX1JWDvQurJB6qZs3aaunSb1TogzBRWTDgXbXqN+Xr4ydS3tnJVS1atISfoVRUVCSfu1S5uLDqZGOrunbtmqvDb2R4gIrpZ+zucPLkGSrj70+7dm+XCLFpDdBYQlFUZDRFR2PqOpIKFS5ItjY2sgcpzJUpXYtsIVhncFCI4ZcUkCSkNN9DFRDbsJu7G3+mPgvIkk0mw/AuEeFR8qxEV2JAyeJklngyaDMGzsW13l7F+b2iqX//fjR9xrQM7xqBATszigeMN6lqlZoSq7Fu3Tr02exPxX/l5s1b1IwHwDeu3yBbOxt6991h9M477zzWFMgNQcykP/30iwxor/JA9vjxk2KmjI6JpIT4BDEidHimAw9EJ8sEGX77/fff6f3335fZWiseDG/a9A/VrlOd83GDxo2bQD///BPfO564p6EOHTqY3OSaIwDZMwJdstvZObNkr5WmZIcZMiDgkvr+ux95UNeVpVQZlhzuouvWqFFTDRs2TG3evJnvwV0yhKkREMWqz2t9RdI4O7nJdY8mHNOTdg4k4b59Bwx3SQrkMzAwUP3666/q9T59VfnyFeVaRwdn5ejIn5KcRTf2YUm3bds2w5WJSC7ZhwwemmnJjvB0AwcOFD3d26uY+uzT2SxNo6RMX3rpZRkXubq48zmDJN9pSXRj4DyoQDAZQv8O4/LdsGGTeuONN1XFCpXkHaEyVa9ek9/xX1bDeGwQFqkWLFioShTnnsTWSVWrWosHpddE5fn7779ZZa0kqk79+vVZd+deIZ15MSdkG9mjY6JZ5/uXR/49pcKsrdClOnFBOkvXKpYA7maL+5VSH0/8RF27et1wJZDAlR4jAyN0wUiwIacneXh4qT9+/9Nwn0Qgj6dPnxHieHsX07p4zoONtaO8i5Y4f6wbY8CGPH/77bePvBu+m4rsJ0+e5Px6CPFg/Th79pyQFINHqBxQa/D70aPHMkwunK8n/Xt4eASTfqPq2fNFKSc0pqcqVlZr/l4nhL996y6Xz2Dl4sz1ZW2vRowYIY0Ptvi33nqLGwnqwp6Fxe98P7ltrkIW1ZgyrMZse0SN4YKlg4cO0Oj3x9Ce//aJvbdKlSoSEsPL20u67LNnzsiGAnfvBfG1ivr17UfjJ3zEqoMr30FRdFQc+fuXE3dWdLV9+rwidl9tnyAdybNegBwc7albt27k4pI0zsyNGzdo8DtDacOGDaLGlCxViho3aiwzvphG125luB+/ip2tHb3Q9Xlyc3NL0mWjuEyhxgBQI1gP52c50PDh79HIUSPEk7Ffv/707/adkq/PP1/A+egi5ZtlW74m3MTvfeHCz+mbr79l1SZaZlZnzZxF9erVpSNHj9Jrr71G586eIz8/X/r+h+/493rE0p24J6br1+5Q23YtRZ0pzOpoVvOUowDZM4L0SPb7PJrv3ftlkZDoMt96a5Das2evDLxwPSTjlStaSOVKlaoqKys7VdTbV3322RyWbLF8h3jFOr7yKQZbsINq1/YZFRLywKhr1u3IsUZJOxYfD2mm5UMHjr014G0Jjurg4Kg6duysNqzfpG7evM2SK1quS55wn5SAd82qZMc9EGq7efMWLL3tlb9/WXXixElRGb755ltVglUx9Gbdu/XkAWeEnJ+8jLMC3OvG9ZtqEEtxKysb5eTkot7o96ZE/IUZdPr0Gdzj2YlNf/jwkaKOYmDcpo1me/f1Lcm9zXGT5iknkC1kh33XEdPdrLr0ea2funDhIldkLJ+HuOC69YQJHRUherGuqrRs2YpVjVPaMQPZbbkrb9+uIz8njH/HcxKvTwrjY0nzs2/fPuXp4c3PsBOd8/DhI1yB+jS/8f2Sp0eBa0yhxuzcuVPs6VClnnuuC+cnXhpA3779RB2DGrF3L+YwtGeamljcrtS9u8Fis4c6g7HOjz/+JA0O5kk/X5S9vWrSpLk6deqU/M49kZhb3dy81Lx5C0yep+xGpobUfJ3hL01lSQT+TqCff1pOcbGxEn2qR48erIaUYlUAoRtgIcEjtcRShZo0aUJ9Xn+VsItawMUA2r//AB9LhEztP+zCkRKvTwrjY0m7VnS5EZER4rbau3dvqlq1CudHc3vlAZwkJhu/C85O7f5JoasVWOKW0a4cxcdENkzbK2KJyfkhunD+IqsP5zlfsVS9WlWqU6c2Xv3hs0wJPM/VzZkWLfqKChUqTLdu36Etm7cQE51VSXd68aWesjAE1pz9+w9yiRakVi3biCrJQkpcjzlXhrvlDqRdo5nE/gP7xSsPvh3wuUgNeiXCbRUhM4LvB4ubqlFbYi2av+A/rRcy/Jp+4BpsUQNiswpDrVq1EnPf1q3baN68eayHvkdDh74nPilbNm8V3R7bNGYnYOpD2DmYYfH+GDsAZ8+dpUuXL0ue4WabidfNEPBsbDSGDXdRxv/99x+d4zygXb300ksyVrkXFERnz56l2Lg4CZvnyGUIAXf50mU5lpuQLWQPkkFnAXJyciRHx8eHrsMAFEICwZHgZy3Lx/h3neD6/kj69/QC54K48LvHq+JSrNscNnQY9er1Io0d+yEtXrSYlixeQh9+OI569uwlg1isCEI+sgth4WEUeDNQGiAGoRgkI5+wj9/nATl6wUYNG4n0zW5gXuKFLl3k89LlS0z2c1z+sdwInhJjQlxsHEv3a2IowAqosuX8uWALUmhYuLxDboKJixPdGqsHCXH8mcDdY8EkOxmnBEgJdJ2QdkUKF2ZVw04WSoiokUmjBLp/P4h27txBrN8/kmDRQWjr0NBwgxqSEpAvJf7eEyZMpL/XrJUJKyxj4/GHLEvz8/UVSbt23VoaPWYMLVmyVMiYHcBqrpAHIeIrj5X/WDuKZ2MCB2H/3D1cZTF0Rhp2ZgFP1YpPVSBfPx8h9pkzZygiPFLI/1TFp0RA3L5zR8iOMqxQoQL/X1FUZJT8npuQLWRv3rwZubq6UIWK5cneXlvelRJ0Sf3Vl1/Jpa5ublSiRAmWaIX4K1Qc7TzosaNGjaH33h1B7xoS/h42bDgNHfIuvTVgIEvkYbSWSZwyNLLHxsXQ9Ws3yNPTk95++2363/8W0rz5cyQt/HwBDR48iIp6F6Url6/SzJmzaNWqVdlCOPQaML9ylmQVEd4T5kw0RvwIl10bG2vpHXMCaGz+6F0ZV1iKY6Ybz0Zd8BiUHnDjDAt9IPlE49R6zBj5PTchWzpK2I7Xr19Hb77ZX/YkTV5pOskhORctWkQ//vijkBvqDGy6ACSOk6OznPMgNJSl9yk6cYLT8ZN0/NgJOnb8BJ3k78dPnKR9+w4wMVfSoHcG0+TJU6W3SAr9+QncNXtywxlBH3wwmtq1b021atWgmjVryCDx/dGjOb0vazqxB/+4Dz+SvUVNTXgssYtFPEv+h2VzAN4zKoobAOfVMclKr+wHfN+xrhX5QYPTxywQCmh8EdzrwB6PPMFXHmpMHPfEGPTnJmQL2dH6MYmEUX1KlYbfIN0++ugj1pU/FB3W2cWZunfvLivlAfjPLF/xMx//gMaNQxpDH44bTeM+GqMl/j7mg5H01ltvUNVq3N0ykW8F3pLlZQsXLkyRoGh4bdu2kYkgV1cnQ8BUTVXCYAy9EQbLbdu0lUmia6xD//rbbyYnuzR2/gdoKluiAMDPOb39OnxhQGw8HxOEenQB7RNL/BI4afWm5xf5NHW5ZDs4wxkC7Oywzep2dtY/M2RvxQTF2TNnVf83BmhuBNa2ytvbW40dO1bubYz03pcbjpoze57yNdiGK1eqok6fPi3X455NGjcXOz7r6Grrti2PvS+PBfhevuIjgql1Y78dXJtVO/vx48dVkyZNxMbeqdOzYsO+ceOa6tOnr7hSNGzYSMo1J4Hld19++aXsOYtJOLzz0CHDlbWVg6pXr6Havfs/fvc4NX3ap8qqiJ0qU6acWrXyN8PVuQPZItlTA7pHDCiHjxhBy5Ytk64RcUqg9kyYMEEGRcZIb1cO+/nAQQOpR4/uosLcvXdPprcBfGd+ihTCeZWeqvTY+8ISAT0W1125fIUHjaY1RSIf+rvCPQBiEr0OnglggXd2DY5TA1TIN954gypXriy9HGQ2ts9HBAVY1fS8wWyL8itSuIhEN8hNyDGyw/oBgsONdOPGjeI627JFS/r000/p9ddfly4zveRODlyHzcX6vt5XvuNZiGEDwmjHCksF4m9MoDwOib4wWJvPMHF3DTddkAdqFOYV4G+EBuDNg2MMzjHBgzEDGmhOAWWjlxEShMTZs2f4SAJ5uHs8HFtcDLgo58E9293DXX7LLch2sqO+EJgH0nv8+PEywYPYjT179eDfPhHLjV7AWQGIgYGlVBSTHIQH2SFBvbxYH+VKwwAQTlBpgvMbEHBJYuAUKIBtKb3IigdwpoSTk7NGbG7gD0IeMOGvi2T380NEL3tCOIs9e/ZyXvQyyTnSC/hxV65cocuXL7FwKCBmSQxMo6Ji6Mzps1LWaKzeRTGAzT3IFrIbSyREnBo+fASxPijSClJt2LChEpEAMVCKFHm8pE0PQHIQGRIJU9qQRJDo+P3p+vVYGhWgsLBwMSempSKw+kx//L6aQpiEcGFo3Lgh38Nw0ERAvkqVLE021jYSj3Hfvv0yH+HvX5J8fIvJOcuXr8hpij8Enrv6j9WsvkWTCw/ay5cvK6ZQzPqiDgtxL+rHDcDTw0O7IJfA5GTXiQ7S7d69R8JNo+DCwzXfFIRyGz58uEzoJKoLWQOeCQLPnj1b1CEba2uxBulWhZ49e5K9nb2oC7///gf99ddfcr5RmxRAR//r779o5aqVci5mNzFtnh1AKD0HRwfJ4/p161hhKiiuFWXLlhGLB2Knwy8F5Qh1KieBkCGLlywWFw4f7i1r1KghQuPff3dIQCzkD7p9YRMJqpyCycmOQsEEyerVf4oOjfgjGJgWL15cBo1t27YlHu2L6TF5wiyiVrkaUjvPOMEV4Nq1a/TBBx9KXHcQuHiJEtS5c+eH90LDGvuhFs4NE0ajRo2mJUu+llBxDx6Ey5I1+MR8/fXXNGb0GO6+r1Bh1u1hGkWYuexAjZo1ZNtL5PG/PXso8NYt8vD0oqfrPU2OPCDETOr8+fOTlEdOAIIDcTsvXmDdnHsbDNarVasmjX/D+g1SJza2NtSiRXNugjnbCLOKTC3eaNiwMasnZ2Xxxo6dW5LET0flLPpqiVhXMCUOvRMj+jZt25C7m5t4CSqWoPr5GrhC+St2cYNFBZIE5/z6268SnjkloKDBAxD1xIkTdOnSFf4eL5Joxsxp1KXL89p5/BzkCZJ85Mj3afkvy2XiBHmCT0qFCuXlHDg7IcItpLsz69Tde3Slzz77THRW4x4IxWWqxRtDhwxjCbpEbNtTpkyivn370pkzZ3nA3o+OHjkqKsTq1X9wL1ArWXllD/BuaPS9X3qZ9h84IPMk8+bOo2ef7SwNEoaESwFXZI3s5i3ruadO/s7ZohWbDiB7RvA4OzuOly5dRmzIsKHDLxt+7UUK82cRR0lWRRwe/i2JjyNhOdjUKdMVd5Xi341AQVifqSXtHOMk97FylOV+Ls6eqmmTlg99so3zhL+RgoPvqxkzZkkoEBcXd84j30fyaCv5xW/16jZQU6fOFF9v2JqN7wPge1bt7Dp27NilnJ1dZVFJly4vqMDAW2Ljnjx5iiyowOKXl3u/opiAhiuyD3gvRCaYOnWq8vIqKos3MMfwICRMRYRHqTFjxsraYdTnvHkLWRahXDABYZzMG1mU7P4s2bcmkeyQoJiy37d3n3wH8ABIUgASGbOHSbpAQ5QASP5XX3tVLDRc9hJdduvWrXIMVyYHj+1Y8hYWCQQf9SZNG8n0P56o+c4nBV4VqtLhw0fEnfX06dM84LorGfT08qSKFSpQ/fpPU3XuWaCvpyRMcQ9TSXZYNzCewFJBn2I+9PHHH1OvF3tKROQXe/WmvXv3inQfOnQoDRr0tlhATC3h8T64J+oV6su4ceO4hwuQMl21chXVqVtH8vHeu+9JuWF2fOeundwLu+Fq7SYPYd6SPRNkj6WGDZjsp7VQGjt2bhM3XuNKePAgVEbtGvTftcfIacJ++ZoE2H0Z09YwwyFb0MnhEZkq+D5Qi0A0V9Z/Ef4icao9hQcYoBMW6gzMkfhub28nliLkAUiNVPq1piA7GvSePf9Ru3bt5e/2/Dlt2lTyL1Oa/tv9H73QtSuXZQiPd0qIC3L3bt3Evm0qvutVz1Kddu3cTR+MHUuHDx3il1c8XlhAvXu/JBYs7g3p888XyntPnz6dhgwZbMhDcuqYKGPZBX7hDCE6KkbVrvW0LJerWqU6qzEZC5KUEaTnvvo5+MyufBgDzzCVGgPAfeLNNwewSmbDqpibmjtnvrg/QBVbtmwZqzL2rDLayTrVFStWsZqI5Y2me088ByEModoh2i/cLUaNHCXvBJVq7dp1D9VSRBZjIZYj5ZwdyDDZoUujYKDnIgzDnTta+Lv8Arwr4qlgrGBv5yQRvECKrOD8+fOqbJnyIkBKlvRXW7ZsFRKC9Ii/6OiohZxGeI15cxcIEU1R5qy6qI0bNzKZSwvJ7e14jPDyqzJ2wPOvXLmimjdvLs+GDj9zxqdZathPGhkmO8q4V8+XpHCKFy8p0WXzE9lBgu+++04Gx4jVjqi4WX1/DOoRkq6ot584gjVq2FSiDQBY1T+FB6zF/UoKGTFYf+GFrhJ38d69IMkP14ohAYl/p5Qv/IZF8nBGQ1wY9BoIr4c4Mv369lcXzgeIgQASHPEhEacdREcv5uFRVH3//Q/Ss+VGFJoAG2GGoPk3/7n6T0qIj2MtrSDr8I14QJf6Io28BCydg3/P7Vv3qEQJP+rb93UqXboEH4H+qqeM6a6YWII9H2bUk6dO0eUrV8QUWq1aFSpZsiRVqVpVZoSvXL0iSx7PnjtH69at4zzcEns89GfYvovwmIWll+jcMABoejVMr0rGWteuXZVliStWrJAY7OvWbZBjRYsWo1dffZXee+89KlmqJL/jDZo6dRp9990PVLhQERkz4N4hPMb5Z/Mmcb+AA58+vsktyDDZMXDz5YpZv2E93QwMFLsspr/Ll6tAtg8Jr1d28gFMboP2HiwU5FWwPnPmzJmyc51VEVtq174tvfbaKzKVnhQZIzuAAXLJkiUktiMmdC6cPy+OWFgtVKZMWZnYqVihImdD0eXLl2WZHLaJ3L79Xzpy5CgdO3qczp29IC4TN28EcoO5SufPXaDDh4+Kp+lff/5Ny5cvp2+++Zbzv4Ybyh2xZLVo2UI2WEZgJG8vbzp95rS8I/bJwgxqVW5oY8aMEdeOY8ePUkjIfdq7d4/MDWABNjZJkOad8VfOcWTYGqNj/fr11KfP6+JD4unhKUE427RtLavVsY5Uq3DcOlO3NxMUlMktRD04dOiQmAh37dpJ2KyrXNlKtHTpIqpVuyZXdPJZzsyY4ODyECeR1rBCatM/G+U3kPzttwdSl+dfkAZxnYXLnj17xCy46Z/NsjROwnnwM2ECdnS0FyIWZCJjXS+rSNxjhNCD0AeGva8SyMq6CNWpXZd6vfiiRGlDFAhWb2j37t0ScWHLli1yHRbSzJw5g5o2bUrRUVH0088/07hxH4r5FhOAw4a9S6+/3leemRuQabLHxMTRb7/+SiNGjJRd14oUsSaEqoD/i7jrFkxKgEw+xiyAKfKwsDCKCI+QyAfF/fzou+9/kLguWgg4nGUK0aZErYDH4ciRI8WHB2XpwcKkW7fuNHjwYHG7QAO8e+8u8cBWpvDXrV9HZ06fE4KinNH74j5QZ0Bu3BeuElBHWrEkf6ZjB/EdgvoCMy9cLn788Sf6fOFC2UIojhsFtprESjHM3uq+9/Ak/ZXrfNCgQRQbG8eE95Z8YmbVzi7jptecRqbJDkmArcUPHDgo/iSQCpBocA7Sqj3pbfEY/Mtt0Ce/eCAobgNdXuhCc+bMIewQDeg+4KaCXh1oYGPHjhXHOeQCP5cuVZrGTxhPPbp3l5JEHWjBnuLo3r1g2Y/2UsAlaSwREVEy7+Bd1EskNxy34KkI4mrPKCj+9IcOH5ZdD1F/aEQ4hIYyY8YMGjiovya4WJ3R3xF+TvAcHfDmAM5jgoTX+HTWp9SzV3dpOKYsC1Mj02TXoEmOiIhIcVP9559/pKCxh6dG9sRbZ+kxTwxQR5QsSIZHYrv27VhvLi9jFF1Vyc7K1Yk1Y8ZMCrh4SWY5ITCqV69Ob/R7Q9QLVzdXme21stLcmaHOGJU6/6Z9Q/HHxmr7pcKH/jCT/OtvvqH1PEgFChUuIJNqmDiK5IaCq+bPn00vsqqD3lp/T9QjepDvvvueJk78WCbm4FGKCA1dunQx60FrlsmuJa0wE2+lEyDx1iLVE7+mA4aTpQI1yC8ZukdWoT0Z9awljfzGrwlyZScg4bEmYOnSpbR582YKCAgQNQPkgwWnQYMGEoW3TBl/WTBux8TDbC5i9sAxLiYmWoQRIjRcvXxdpvyxJfyF8xdEJcMb+vj6UoP6T7N07klHuXf44stFdPfOHXJxcaSPxn9EvXr1erhSSQdUnx9+WEazZs2iwJs3JXoyLDgv8rlofA8rzYyQRbI/ClPdDhIDFe3h4SEVq8PE2U03slOCPw54Z7hOQNXAksbdu/ZIYCiQWFo/Z83W1l6sKa5uLrLpMrw1oY5EsiQPDr4vZkp4oeI3NFAsmoHvPHxfWrduLS677u5uFB4WQV8tWkTTp02XqA8+PkXp3XffFb9+CaNhAPJ0/34Ifc9jl7lzZ8uOHY4OzuJb88orr5Cjk/kNWk1OdlMA/umzWA+8ceM6ffzxJ6xClDccyd9AVWGQePr0GVneeGD/QTp46JCYKe+HhDKJtbAXsM6gDaA3hfkwQWk9AUykpUqVopo1alDtOnVkkArTInoEuUCAMCcREssHyyhh7fEr7kuIzf7yyy8/ssgaQumnn36mSZNYpQl+wGMEb3p32LvU742+Yj0yJ5gl2TFhMnjwUCb9FZYwM2jwkHeeqGQ1PyRIoFEQDRM9CEOHSABXebx043ogE/++6PcYW4Cc3l5e5OvnS6VKlyQvTy9yc3Nn/dxFBpRQd5KDx72il//yyy80evRoVlnuk7e3t9jbYXnRrTM6oNJgbDFkyDAZyFetUpU+/WwWNW7cyHCGmQBkNydgOhsb6ZYuVUZ81rGTnMyIG02DWwCgLDQ/csRzwZbzPLiUqXz41CDBPx3f4c+C43HxMSpeYuRjgwZsU6/Fh9HKNxGoA6SwsHD15ZdfSWx7uCnANwdb77B6aThTA87lxqF+/HGZcnBwUDxwlvgzOuB68PXX38pmE1u3bpc84ZqcRi4g+xQL2TMInazJkw44sr3wQjdVxr+cOnDg0CObtxmfD2LC+czPsCM2fGmwXSQaVnLATwf3xmYGAPbF+ubr75SrqxYMC56d2D/q1VdflaBMxnnKCWSvKSFL0NUWi/qSUUDlSynpwDJGLP9DwCMshmfKGY5oMD7fxsZWVBeE+cYAmDkjdnms10U0YmPgmmLFfGQSLOR+KH299Gsa88FYioyIloUnCOIK1WrFipX0wQcfyKRYTsKMya4NyFiYcyEafrAgy0CZwn4P1wFMCoKgWszL1KAtbOn/Zn96551B5OriKgs6pk2bLoNYjBt0yL14cAwrzbKfltGnn37Gg9b7PD5wkqjJMGM2btJIxgp/cCN7//3R3PBOSp5yAmZJdluWJvqsHQrTwnXTAmWKQEzoNSWql2HiKSWgDjC9AP+XAW+9KRs4IMrwrcDbNHv2HHGKw2BYBzw3f/rpR5ozZzZdv3FNLD3jmeSjR78vTnMffTROthYqUsSK1vy9Vgh/8OBBTbBlM+nNkuxwMsLyM0zFw9OQVTvDEQtMAcSXDAuL4HJNIP/S/oZf0wZID1XktT59JFIyrDwI3Yd1vOgpAFhwEOIQIQ1xDKFCYJJ8vS98ZzSfKUyAffzxJNkAAt+xxnjixIniaJftEp4fYFbAoCXoXrBq0KARD4gceBBVQd28id2dMYqyDFCzCizcwAa+iKxgb++kblwPNCwASSe4CsLDIxU2Ch43brxikj68fvHixcrT01PZ2toqn2K+avGipbJztnG1oX6x6zYWiWDFGwa9sOB06tRJHT16NFsHrWZHdgAvPGDA27Kjsru7p/r22++5QGHuspA984jn0otTe/b8pxo2bCyCBJ8gamYIBvMjEq6HZQZEx+o1WFuKMdHnzp0n5s/U7o3fYbWpU6eOhAwB6Z9//gXFA+dsI7xZkh3A2kh3d3eF7dU7duzE0h2xUyxkzzziVVh4qJo5a6bEqgG5Fi78PEvEwrWw5SOuO6ueQvQSJUqp6dNnyr616ekxYILElvWODs4KW8V37dqNCX8mWwhvtmTHREjnzp2lUnx9/NTs2bNFUliQOWDT5e3bt7MkrStlWqd2PRUQEGA4mjlAsi9fvlyVLVuW72mjfHyKa0R/AImuNYbHATuJHzp4RHXq+KwEhsKa1y5dusgaWVPDbMmOgtq7d+/DnZZr1qyl/vzzzxQnMyxIGyjLCxcvsJrwPJPSlvVqb5kZzWpZ3rp1W732ah+uHztRNzXVBbOjeGb6yA5gt/G9e/epZzs/x4R3VtZWNqzDd1YHDhyUe6T3Po+D2ersSJAcCxYslG4XK+CxFfu6desk1ooF6cfZs2fVc889JwNBe3sH1b//AHX9+o0sEwkREFq3biuzo+3adXjoBpCZe6JOEb+mfftnJIoCUseOnWUr/qzk0RhmK9l1BAeFqLFjx4nuDsKXKVNGzZ8/X2KeoBAyO8DK60CZgEDoDWvXri2DfZThM890UsePnTRJmZ07e04906GTkB2uB9evXxcBldl749qTJ0+rBvUbyT0RA7Njx45i8TEFzJ7sMMLcvn1XDX9vpHJgqQSzFgYyME3++++/WSrcvAqUBwIvIdIY4sHYs5CAT0vjxk2F6GLYMgGioqLViOGjRNe25cFp9erVhfBZEUAY0wYG3lbVq9WUsQXq+9lnn5XeKaswSxdfY+jZux8cQp9/8QV98/U34tOBVTbYR6lOnTrUqVMnql2rtvhlIL6JFmLaeMF38rmzzBxDPoyLKrVjmO81nvPNjmOJwGQPyogJRkFBQXT8+FEJUMqDUfFPKVCwkCy3a96sGc2YOZ2KF/fjawwXmwDYERubS+B5TFSZLMLWnAgFnpL7cHqA98GkFMJ7YI9b7LzdqXNnmjp1CpUrW4ZLRXchydiL5Aqy6xWKFe2bN/8jW61jedn16zdxgsywYt9UVxcX2c0Cy9L0tZcauNAf8saYREAax4z95DJ9zLjxMDJ1jCtVpVKx/DNmMDFNHxwUTNExkdzYC0mDR7BXbMmOZXVYaYS1tAULZYwgjwPqBQtJ4Ou+Zcs2cfRCWJWPP55I1apVlVnSzIB7BnFYGz36A+IeXN4RQm3K5ClUtpy/oX6NyisdMHuyJwUIoGQl/aZNm2jnzl0syU7QxYsBItXgo4GVOVqDT4Us2ULotI5lM9kZIulwDv/n4uIkUcQQwKhu3XqyczeiEkhsmdRvkSWAmNid8KNxE2jturVC+DatW9GH4z6UxeFaT5txoLc6cOAQffLJJ7R923apX7zPws/nk4+vD79uxu6by8iuZRVZRgoNfSDRsbDbHHa3xoodxHdBT6CfqyF5Lad2TLtvItJ7HZCeY8l/B1I7ltb9koHzjGhs7m7usiwOMdRBeMRY10JhPOZ6EwDlBrfhiRMnyL5V8Gxs3rw5TZs2TSIzZDYLUGEQ7mPC+Am0Y8cukfAfjvuAe5L3+Z55muzJoWUdb8ADVWn5+MwscnNRgNQgGJbMgdw5QfDk0CX8pEmT6M/Vf8muhdgo7YcffuDxlHem8oQ6gYQ/ePAQvdjrZboZeJMa1K9HGzauz7iKBLJbYIGpAEsME178XGA1w4RglSrVxEqTWcCyExBwWZUvV0nZ2TmJAxlMzxlF5pSpPAQuA8NfuQeJeYa2bl75h36OCL+ffDJJgqZC+mJFUo8ePQzu2snGKY8B3hXBc8eO/YA/r/EvCRIrRwtUlUGA8fkbcFbSErwCsXjZPJJmq0Z6FIl5ZrmHH8wOyDcWXXfo0EF2D3F0dJYJrcOHjirWww1npQ34zZw/f1H169dfOTu5ykRTtarVFTeaVMolbeRynT3zwGtDx0dUXm1pma5PmktxaPlB1C/ovZBkGJzt2rVLwlUj/5hnKF++gsRyzKyJL7uA/CHBfIiYlRs3/CNzIK1atZJIwDBLpiWd0QPA+DBt2gwJtY3IwXXq1JIBb6NGjTKl/+drsiP089Ch78omZU9iQJc2tIkTbLo7depUCWYku9a99x5354FyBnaa7tS5I40aNVI2NjYnGNMKE08Txn9Mq1evlkF0i5bNZQUTgq2mVu6IMDZ69BjZWj8iIoIaNmxIEyZ8RI0aN8p8wwbZ8yvg8url5a24AsS11LyStSRMwR88qHn/7dy5U/n5+SU5r3fvl9XVq1cNb2Se0AetL/Z6UTwknViladeuvQq4eInfy3CSAfh+926Q6t69p+Z3b22nmjVrIfFmMCjNjPqiI99KdgBqAaQ71mSan2TXBnvYeQMbEqDLh1l13759MmBDfiElMXnk748ZRfPLvzFAM5glEVJvzZq1VLBAIbG///77b+TjW+xh/jFhCDeBbdu2ickRu51Ddalfvz6/byYGpUbI12THq0M31P8GzIk0yIuedCCfekrpuDkDedZ8aUbQ1q3b5DtUmV9++Vl8djALPmTIUPr77zV8MslYBDuBNG7SmBu+4SZZQL4muzH0YsgtxMmtQDkjVsyoUe+L8xjKu26dutTn9T4s8f+WePFRUVFUoUIFmjt3DjVp2pTPQb0YbpAFWMhuQY4DlIPzGKKCbd68hVQCmKyxGaSuVr06zZgxTfZ70h36TCGE8hTZk7+KcQHpx/Bb4nk4nvSapPdIXsBpHTNG0nsmhfF1Sc9D3kxRqeYOlDHSuXPnWXrPpa1bttGdu3clrnyDhvUlehgmjqC64DxTlUmeITvssAjHpm1zo22YBcmA6FMwVcF8BT9rOIo94kFokB64LmlxGCuK+D21Y8mR2iwhnpuc7No9kV9UcIsWLR4JCZ3XoJczBuAwMWJmFWGvscuiv38Z2STNFDp6cuQZsm9Yv5GGDhsmO/dxSTKFEqhly5Y0efJkGehgX89Ro0YnTleD8AaSJ8ETKg0IryZNG9OUKVPESpFfAPol722zq3PLhvbzZODl7SUDm9AHobKQARIciziwJygAaYFjYaFhWuLjD/82Tvj9CSTkGaZEhJjLT9BVFF2Fyy6iA3lGsuvTy5gNBbBrGwgOn24diEuI7jJpG0/LMSkzakzy85Ij5WdDdUF+sYeUBdmDPDRAhR6YYOgOIR50SZEoKh6qMElgarIDqd1Ty1cijO+JvJp2T1ULkiJPWWMssCAtpCWeLLAgT8FCdgvyDSxktyDfwEJ2C/INLGS3IN/AQnYL8g0sZLcg38BCdgvyDSxktyCfgOj/QuNCpiG8QcQAAAAASUVORK5CYII=;strokeWidth=3;imageBorder=default;shadow=1;" vertex="1" parent="1">
          <mxGeometry x="578" y="620" width="187" height="179" as="geometry" />
        </mxCell>
        <mxCell id="OqSYDqfYlpPWh9uUhqye-25" value="" style="shape=flexArrow;endArrow=classic;html=1;rounded=0;fillColor=#d5e8d4;strokeColor=#82b366;" edge="1" parent="1">
          <mxGeometry width="50" height="50" relative="1" as="geometry">
            <mxPoint x="509.54999999999995" y="659.54" as="sourcePoint" />
            <mxPoint x="568" y="660" as="targetPoint" />
          </mxGeometry>
        </mxCell>
        <mxCell id="OqSYDqfYlpPWh9uUhqye-26" value="" style="shape=flexArrow;endArrow=classic;html=1;rounded=0;fillColor=#d5e8d4;strokeColor=#82b366;entryX=1;entryY=0.5;entryDx=0;entryDy=0;" edge="1" parent="1" target="OqSYDqfYlpPWh9uUhqye-27">
          <mxGeometry width="50" height="50" relative="1" as="geometry">
            <mxPoint x="569.55" y="770" as="sourcePoint" />
            <mxPoint x="438" y="770" as="targetPoint" />
          </mxGeometry>
        </mxCell>
        <mxCell id="OqSYDqfYlpPWh9uUhqye-27" value="#9834 AD26" style="rounded=1;whiteSpace=wrap;html=1;shadow=1;strokeColor=#6c8ebf;strokeWidth=3;align=center;verticalAlign=middle;fontFamily=Helvetica;fontSize=18;labelBackgroundColor=default;fillColor=#dae8fc;" vertex="1" parent="1">
          <mxGeometry x="298" y="783" width="120" height="60" as="geometry" />
        </mxCell>
        <mxCell id="OqSYDqfYlpPWh9uUhqye-31" value="" style="ellipse;whiteSpace=wrap;html=1;shadow=1;strokeColor=#b85450;strokeWidth=3;align=center;verticalAlign=top;fontFamily=Helvetica;fontSize=12;labelBackgroundColor=default;fillColor=none;" vertex="1" parent="1">
          <mxGeometry x="294" y="791" width="120" height="44" as="geometry" />
        </mxCell>
        <mxCell id="OqSYDqfYlpPWh9uUhqye-32" value="" style="shape=image;verticalLabelPosition=bottom;labelBackgroundColor=default;verticalAlign=top;aspect=fixed;imageAspect=0;image=data:image/png,iVBORw0KGgoAAAANSUhEUgAAAYwAAACrCAYAAAB156twAAAAAXNSR0IArs4c6QAAAARnQU1BAACxjwv8YQUAAAAJcEhZcwAADsMAAA7DAcdvqGQAAFYwSURBVHhe7Z0HfBTF28ef9EsjCUkIBAg99CZNOoigCKgIqKioqCio2As2bH8bihXF8lqwgIANQToCgvSWBEIaSUglvff2zu+528vecbnbNESZr5+Tu53d2dlZmGeeKc/Prqo4sYYkEolEIrGBveHP86iorKLfdx2hJ5d+R+t3HTUclUgkEsmlSp0G41BYNG3bF0qzrxlFEy7vazgqkUgkkkuVOg1GSVkFtfJtQb27tCc3nbPhqEQikUguVeo0GK4uzlReUUlV1dWGIxKJRCK5lKnTYHi666i4tJxKy8oNRyQSiURyKWNiMKqFN5GdX0jp2fl05FQsBfr7kJeHmyFVIpFIJJcyJstqYSyWfrOBcgsKyc+7Bc25dgx1bd/akCqRSCSSS5k692EcCouh33ceoUXzricPV53hqEQikUguVeqcw3BwsKfqmmqqrpb7+iQSiURixWCUllWw0XB0cDAckUgkEsmlTJ0GIz07j3Q6F3JylAZDIpFIJFYMRq8u7SghJYPe+vI3OhgaZTgqkUgkkksVq8EH8wpL6GR0ArUN8KGOga0MRyUSiURyKSKj1UokEolEE3UOSUkkEolEokYaDIlEIpFoQhoMiUQikWhCGgyJRCKRaEIaDIlEIpFoQhoMiUQikWjC4cXnHnvJ8P2Sp/DkESpPTyGnlq2o4PjfVFVWQk4+foZUPekbfqDol+8jt47dySWwg+GonuqyUqoszCMHF1ciOzvD0cZTlp5KeQf/JAd3L3J096Tq0hLKO7aXHD28yF4n7tUImjIvS9RUVhrr0sHVnXIP7SR7Fzd+jqYgKy+GopM2k49HJ0rNCqHk9CPUskVnsrevjVCQcG4fRSVuIZ1zC3LTtTQc1ZOdH0s7j79OIdE/UnllAbXy6SVendKPqqGYpO2069ibfL2HWwC1cA80pEEOoJJCYlbS3tD3KT5tL/m26EquLj6GVNvpRaWZtDfkHTp8+ksqKE4hf+9e5OhQq26Znnuadh57g0JjVp9XtpikbXQmeSelZB4zftTPp6VeJJL6Ij0MFWkbV/KnuryUUtd+TkVRYYaUWjz7DSW/SbNI1zHYcKQWNIaxbz5CVSVFhiNNQ1HkCTq7/BVKXbOcf8MopaxcRqUpZ/l3Y2jKvCyh1GXO/u3Ge5WlxBlSG09C2n7afWyJaHzT6XTcb3QsaoUhRTxbVRltPfQ8rd05l3afeIvPVROXupu+23QdVVWWUVv/y+jAyU/o513zqKpKLxq2/fBLtGn/U+Tn3Y3cdX60dsftIv9vOQ3n4Fxcg2uRB/JCnlrSM0WDvmLjFGEUIqlD6xEUmbCRVm6dSSVlOZyO81ZtuZHKyvOFoeghDMt79Nue+0WKftvU4Yiv6OSZnygu5S/jp6AohdOAtXqRSBqKNBgqHNw8DN/0qH/DeyjPPCeOeVKrqbeSU4vanqqSViUaxOqKCirPTuffFblZ4t937b5I5Tzz42hIq4oL+LoacT1+46PGpXU7KkuKo4qcTMORWqqKC03ORx44r6a6Sp9fXrb+I87Bb+U+ampEeVCu8qy089IAruVnFPdSg3vgXtXlZRavt3NwJDtnF8Mv8dvRSXgYpp4M7p1bUEyFxaWGI9pxcnA16TU7OLiIj76XHnZmDZ09t5dmjf9a9LRNvUFwMvYXahcwlKaN+oCG93mQJg17jTJzIyinMIEKS9K40R47cBGNGfAUXTnkZerdaTpFnP1DXFlDGXmRfO41w5fytcgjwK8vRZ7dxHnbSo9O3Cy8jZY0ffRnNKz3fJo68gMqrRAGNfMopx+P/J7LNmPcF8b7p2WFUU5BAqeDAcG30o0TvjV+OgaOMaRYrxeJpKFIg6ECQ1F1Ae/h5IIp/Al/ZCYVxZw0pNSmJX71NpUkRNPpR2fxb7W3kbVzPYXdO0kce5QinriZohbfIxrhfE47+8nLFPX83XTm1Qco/NEZFPf+cxS+8HrOV8HBxY3snJzZ2zDn3G/fcB4KKBuGzSqyM/j76Sdvobh3n6bwh2dQ9GsP8H1i/vcAD0cppP36NUU8OZtOP34zRT5zO1UIAwPQ+Me9/wydevB6invnSQq772pKWf0JWnlOxz2iX5zH5Y946hZ+9qgXa5/N3kVHDh4t+HtdxCSeoyeWfkvPfrCKsvNMDZIt3Fx962wIu3e4hm6/egP5+/Q0HDGlsCSdPF0hEKYfPvSGURFf84sSqbyiiD0UD7favxP+oqdfUpolvIBcKi4Vhluci2EqPXbU0qOTMDZ6T81WekFRKulcvMnFWd8pcdP5krOju7h3Kv+G8bpm+Dvim75sTo56TZqamir+E5SWm3Yq1FirF4mkoUiDocJn+JUUcM0tZO+sozaz7iX37gMMKUQtR0+my9YepT7L/yBnX1PDoqR1fOh/5N6lF/VfsZt/d3/zO/ZS0HhmbFpNHRYsph7vrKJeH/7KDW7u/m2GHIhaTZtDnR5/m5xbB1Hnx94g7xGTRGN/ypAqmg1HR/IaPJZyD+8Wvfr6RXPRtWlPnZ9+l7wvn0C+Y6fxfaqKCthrAFXFRdRi4Ajq+8VW6r1snfhb4UC5B3ZwWmHEcSo9G0M9l/7Iz9P1+Y9Fuf+k0pR4TgfVFeXkd9UM6vv5Fur53lqqLMilgtADhlTiOkXdYp4k8JYHSWc299OulS9NGNaXJo8eUG9JYH/vnjS632PkrmtFPTtdT0N63GVIEY2mi6+xQbZGcuYx2hf2EVVWlxmOqBDv6XjUd8IzgGdxPrgG1yIPS9hKzymIp79OLDmv8fdwbaWa76ih8PgNom7akZd7O8Mxot3H36I3v2tPS1d1p/V7H6Ky8lpja61eJJKGIg2GCrdOPcijz2BunFsMGk0urdoYUhpHdWmx+F8VOXr7GYd17HSuVJah700C3NNepxPGCr1CO3KwMCns0esyKk2KE3nUXqeFGnu8Zn2eyn3wp4KDmzs/O3AU3oCTXyseWgIYZnLExH91NZcdk/k1VZVUmZ/L6QBehC6wI3/HxLajewtxTm1PGHWK/DGp7j10PDl6mU48u+qcafbkkTR51EDRK67fX0lPt9bUp8ssNgztWw2hru0mGlK0E5u8k0JjVlFpqX7+QE1FZQnPFZw+u8FwxBRcg2uRhyVspadmhlBItPCs8mMMR87nSMRXFJe8i0b1f8LoNUwb+QHde91u/lw3ehmdPfc3HTj1MaeBpqgXicQcaTAuEOjNx77zJEU+ewd/ShNiyNFszsQWusAgcvZrLXrvppO3zU1RZAhFPncnlxvDUnbCaGB4zBLwqOCJwOv6tzC6/+M0f/o+8hCNrDlOTm40Z/I6un6MfsGBObgG1yIPS9hK79XpOlo46zgF+g0yHDEFxmJf6Id0zYi3KShgmOGo3gPBqid8YAzwSck6f7hSImlKpMG4QGA4JvilL3jYRvkEXH+nIVUjdvbkPewKyj/6N9VUnj8xrVBTU80eQVPh3nMA9fnkD2O5MaTm3rW3IfXfi71drZcFIElsb+dATo4ewig68Hc1VdUV5IjJY3tnvlaYTUOKnuqaKnIR1wKb6fZO/KdCDVXz+ZisVohK3MyrrK4Y9IKJh4C5l437n6C0nNohS/OySiTNgTQYTYidgwNVlZaIT7HhiB57nX5cPh+eQU0Nr1iKemU+ZW77iY/XB4/eg6i6soz3Nyi4d+5BpWejqTQ5nlct5R3eTY7evuTo6W04wzpVJcWUd3SPYcVTBpWnJpKLv344zknkU56aQCVJZ/h3Qdghilw0R/yO5d9NAXRXXvl0LX20chOVlddtCJuaQL8BlJC+nwqKz4lfNXQydq1oyB1Fr70TL6PFHAhWNWE/RUl5Lp2K/YX8vLuTs5O7OKeLMCr2FJWwma/FMtn4c3t4CS2wlR7oN5By8mMpJfME/45K2CTukccT6wD7LDbvf5ou73M/9ekyk48pOAhjkyquOxaxgsuG8ielHyJfz86GM7RRUlZOS77+nb7fsMdwRCKxjjQYGkleuYyOzRrEq5/QMGOVE37juIJnv8vJuVUgnZw/hdPOLHmMj2NeoN28RZT++3d0Ys4oCps/mcf5fUbWf9jGuWUrcuvUkyqLCgxHiLwGjeV7n37iJgq5fQzl7t9Ogbcu5LkFLTi4ulF5dhqF3T1RPN9UchLGwnu4vkfr2WcI+U64gaJeuJvLjmdqOW4qubbtxOlNQW5BEaWk59LZ1EwqLa81hI0Fk9WYFP5gTT/KyI2kLQef5d9bDz7H6YN73k2ebm3p099G0jurgnmuYuLgV9hYwCiMG/Q8xafuoXdX96Rlay/jlUrjLnuWr8UGvlH9HqOD4Z/Suz/2pK82TGQjMMgwuWwrPTjoaurUZhz9sHWGSO9Bfx79H43q/wgFtOzD6bHJu6i4LJu2H36Ry6yf3A6m2JSdPBk+YdBiOpO8g5b80Ik+/nko6Vy8aGT/R/larZSUllPSuSwKam26OVUiqQspoHSBwYop7AS3czIdkmgKsAQWO6phoBoCrq+uLOeJa3PgfVSJsrPX0oS72BUqKqpEvlg+euGHVrB8tqyigA2FJbCZDsNQMCKWwI5tFydPHq6yhLV0eAjFZVk8J8EVUE8wPIXluHWVzRrRCan00Q+baeGtV1O3oKZZ4CH5byM9jAsMGvPmMBYA+TbUWABcb8lYADt7B3Js4SO+NL2xAE5OmDv4Z8bh0ZDXZSwAevTWGmRcW5exANbSMQTm4Yq9Gg2rVxiahhgLkCq8OledEwX4ahu6lEikhyGRSCQSTUgPQyKRSCSakAZDIpFIJJqQBkMikUgkmpAGQyKRSCSakAZDIpFIJJqQBkMikUgkmpDLalVAohW49xhABSH7ybGlvzGKqwIkWlNWLaPOjy3hiLZqIJAE/QsnRGNtwv0KCCWSf2I/R4lVQORXr8tG85/m4PzCyBBq0e9yTsfvglNHybP3IKoqK6PimLA6r20ICGMBOrUZS5EJm8jTPZAjpILE9MN0LiuEvyv4eHZQxUbSy6CGxqzhSKyDesyldv6DDWn6jW2hZ34U5/zJGg+X91rAAfcUbKVj09zBU59QZm4MB+8bGHyHSchzSLQeCF9OxSVZokxXUL8uN/PeCD2NK5sCpFbTMsOoR8ep5ORYG77dWtkgsRqbsou/K5jWG3G4ksizG8jZ0ZO6B0020b/AZsQT0T9QfOreBtWbQl5RksjjL3HfSca9KlATVN5zK++eFJHwu6iXoeTr1ZXTJf9dpIeh4mKVaMXu8PywQ5S1dxMlrVhKOeI+BcK4YVe2JSC3CilURe8Cv5O+eYf/hADTuZ8+52dsKiAXik95ZRHtP/kRJaUfNKSgQY42kRHdH7aMjkbqZU7BPy2D2lwSrQq41/o9CzlQoNpYKGVLEga1rf8gCon5kVbvmG3UtIDE6oGTH5vUXWpWKKcB6Gus+OMa2nn0da5z1L0Cyvbr7vl0KPxzCmjZmwqL0rhsCWn696K17DA6G/Y+JK47JJ7f13CUjO8Z0q+QgN0b8j5l5EYYUiX/ZaTBUHGxSrTq2nakjg++TIGz7iMnH38KumcRBd37LEfAVcB10LBA3pA8VQNPAlKpCvbO4rej6W7z6upq0bgXUnGpZSNkDSUCq4LOubZc/bveYpAQXUHenkG8M/ma4W9z2j8tg9qcEq0KJ6K+5yi3Q3vdZziiJ1EYBGdhQGZe8Q2N7PcwXTfmEw7zkZp13HAGkZ9PDxMJViVEOozQ9kMvULDwKsYMfIqPqUkRHl26MFBTR7zH18wY93/kK4weAhwCrWU/FvkNFYh6gBCTeic6wqSod65DCrahu80l/y6kwVBxMUu0WqMsPYUDD0JeFTKrkFtVg/hPtgIRHj4ZQw+98TW99eVvHMW0PujjIFmjhv4O/UD0knfR1NEfsLgP+KdlUJtTohXkFiRQyJkf6bLud3AwQjUIY14j/sPQEKiurhI52JODQ+17qhL3V7wdNXiGGeO/4rDnlsKat/HtR7ddLYyhYVjQwcGJw6lXC8MFtJQdHtBRYTAuC76dDb0aGAdn54aHoJH8e5EGQ8XFLNFqDeQDo9D3040ss+ohyg3ZVQW1NCqeCc+GZ1TTtUMbmjCsD00a0V/0yuunBa1IgKIhG95nIQUFDDek6MnOj6OjEd9QbmEibTv4HMuSmiDq4p+QQVXAdc0h0Xoo/DMqLc3loaGPfx7CQ0CKgejRcRpHpl29/VbafOAZWr/3QVGP11L7VrVzJBiuentlF45I+9X6SUb9C8xV6ONPWQa9f0i5KnMxGMpCKPVOgWP4t0LdZa/h+mrh1kYYuzt5PiU8bp2J8cL7xnuHBCw8EEjCSv77SIOh4mKXaK0LhDp3aCG8CMMktnuvAeSgmtDGcUUaFc+EZ1NLtAJfL0+ae/14Gjmwu+GIdhQJUDRkUJAzn/zEZOpDN56gBdP3k53o6W7a/6RJ4/NPy6A2h0RrTsFZikneTl3aT6S5UzbRlOFL6UjEl7QnZCmnIzpuYXEaG6Q8YUgrRX3kFyXzn6B3pxuMEqx3TtlIOp0PbTmwyES3WwuYWN+070lq4zeQurWfZDiqp66yR4hnTc44QqMHPM3GB/Mp5vMkeN947/DeIAWreI2S/zbSYFwgmkKiVSsQ7hHdS8OviwcMy1wWPEc0kEmUX1xrLP9pGVRc19QSrcnCO3BydKXxlz3D0W47it5936438YojDHf9HfKesBVVdIcwBjdd+T3NufpXOpcVRhHx6/l6DPvA0OKDlUjDes2jopJMnmTWCowFJupRxmtHfSSO6IfeFOoq+/Holazd4eHqz6vISiwYUsmliTQYF4gmkWjVSFNLtDYUTPbuPPY6nTY0ggAiRACN5T8tg9qcEq0VVSWcXrtEF3MPtauksgpihScWbJw8dtf58xzLuWz93Bg8kZCYlfwdoDxmt7MKPJENfz9Kzs6eNG30h8b7AFtlB9GJW+nzdWP581eIfpGCRCINRhNyISRaLQE5VciqQl4VQkeQUa2uqN/EdcK5TFr0/g/0wx97RBGbZmsOpEQxwYqxfOwZwPh9VMJWniTHGDyWqv6TMqjNKdGKe5eW5/NwFtIxjxJ2Zi0FtR7B13duM4bOJP9JqYY9KmdS/qTsvFjq0Fo//1NSmk2Hw7/gsuH+0YnbeI4I3ootMFm/bs/9PEF/3eiPydXZVO/CVtlnX7mKFs1JNH6uGvY6H68vn/+0jd7//g+9OJbkP4HcuKcRSLGarz4CAdPnUttbHuTvmNyO//B53mQnWm7yGjKWujz1LqdhI138e8/w0BQ24HkNHksdFrxIDm7uLHvqM3wiefQcSIlfLaGOD75C5377hq9D3oWnj1PM6w/p50IMYHlt99e/IWe/1sb7FoQeJHsXF5HXJCqMOE5dn/+Y07VwPCKO3v/uDwru1JaeuH0auTib9r4bChrK33bPp7SccPGrhidjp4760GRjH9b6F5VlsrFDo3XdmE+5wQZopLcfeUn07su5IezRYQovB1V6zNbS8XvbocV0Mu4nNl5gwuDFvNQXwAj8vmchJaTt4wZU59SCl6Ji+Ag0VdmwDBb5I/3qYUt43B/nYy7n9Nn1bBAchec1uMfdNG7g0+JKOx5OWvfXfN4DgXqDkVXKhvxWbp3FsrNqYOCwOgp8v/kGVvJT06HNKDYGwFbZ1WDS/1jkCrpl0lpNBgtgpd2b//cbde8USLdcM8pwVPJvRxqMCwwa9+aSaMUSXntH5wbnXVpWIXq/DqKX3fSOJ8bt0TjV1eCgEfynZFDRYF6sEq2oN0w221663DBslb2hZOcV0svL1wpjMZKG9Tt/k6vk34k0GBKJpMk5HZtMn63dSk/OvZ7attLmlUgufqTBkEgkEokm5KS3RCKRSDQhDYZEIpFINCENhkQikUg0IQ2GRCKRSDQhDYZEIpFINCENhkQikUg04fDic4+9ZPh+yQOJ1vL0FNbFKDj+N1WVlZCTj+lmLki0Rr98H7l17E4ugR0MR/VAIAk7ubExj5pQohVUFeVT2m8rKGPLWipNjBX370b2zi5Ulp5KeQf/pJK4SP44uHuRYz0i3TYFWuqtoSC0dnTSZvLx6MRhNJLTjxAC8kG0B2DjG2Iu7Q19n+LT9pJvi66adyM3BkTbRVRXhBJx09WKaTUVSv6lFQWkc/KiU3E/cQys5riXRKIV6WGouFglWhEOHaFB8o/vJY/gvvwnfuN4RU465Z3YT3lH91Dydx+wBOuFRku9NRSE1t59bAkhSiskQY9FrTCkgBr6bc/9tC9sGceHys2Pp1XbbmYN7eZGkSlF+ZoDKYMquRiRBkPFxSrRWhQVyumdnnib793x0beoMj+Hj3t070+dH3uTOjzwErkEtDVccT7KvSHjinuYg/txOspQbRosDr+VZ1KXS8FavSlA+hUSsJCCrQ/oVSveBHBwcGHdDZBTkEBpWWF0xaDnaeyAp2jGuK/Jp0Unik3S6zsgrAY0Jioqi1mfAt9hZEyp4eMI443zzcExpOF6hBCxBs6Fyh68HgXlevN745y8oiQuG9LM85cyqJKLEWkwVFysEq2VBRjmciMHV32D4eLfmoJf/Yo8euqji9qCyzd/MkUsmiPuPZvlXEtTDHKcwnClrP6EywudjojHb6bTj93Isq8AZYx+8V5x7CZOP/XANA50WFNZ2yhaqzeAQHSQfoUELKRg64Obq6/RQJiDRtTOzs7Y0COo3y0TV9Plfe7n36fifqEfts6kbzddS99tuo5DdW/YB+0HfcONOErf/DGFvv5jMv286y5a9vMgOhLxFaeBk2fWslIerl3xxzX0xe/j6vRekNf3m6fTwfBPjQYOeSFP5I174F44D+QWJtDKLbNoxaapfPyrDZPo243TjOkwDlIGVXKxIQ2Gin+NRKtoJJ28fW3qdANExi1NjKMO979E/f5vG0u4Oge0p/Q/9FoL8Bxy/95GnR9fwhodeD6vIeOoPNWgix16QHhO+dT7w184Pfh/K1gNsCKvNhKqtXoDOmcnunJ4X5aADe5YtxdkCUh/QgIUUqCKFKwCIt92a381bT38PA9FIXy4uRdQVpZPk4e/w4p/EEE6m7rXqDkBgwDmX7+P5l27i8Zf9hydiP6eG21oX2TkRdOkoa/SwzeFsQAT7nfw1Kd8jSnQLH9f/L+aRvV/TPzWR5tFXlcOfpnzhnIeNLyVewIEY+zX5SYu211Tt1JpRR7FJG01pEoZVMnFhzQYKv6tEq3WsHNwpNY3zCXXjsGUvWcTZf/1h3jrdqydAeC1wKhl791MhaeOUmVxAQXOvp88++t1GRBGHV5S1s7fhfcUI363pPZ3Py2MZq2mtK16gxcw+rKeLAHr06J+wyqQ/oQEKLwHRQpWzYTBL9BNE34gRwcdbTu8mL0ItRfg6d6GfDz1ixOgA4HePzQ6AJT/Wnp1Fo17Og8bOdq7UEVFCZWV53M4dKjltfYdoA/vHfWteBB7KiwxVbyDGt2p2F9ZW2LswKeNEW+RB4SsPN0COG9EvIUCH+6pAM/Jz1s/F6YT3gSixlarhgOlDKrkYkMajAsExv4vlESrGgwdxX/0AkU+fxflHvyTJ8jL0xINqfr5hqD7FwsjVsTnYcgp/OEZxiErjx4D2IDgWgxNhd09keLef8biPMg/g51oVIfSrCu+oYdmnRBeQCALD2kFwkTQjsAH6oBQBIQiHVYp/bzrHlq5daYwBlsoLuUvKuB5CFMOnl4uPJznuFFv7dvPcFQPBJSgt6HkD4EklzqGmbCy6+5p22lg8BzDEYnk4kMajAtEU0q0VpeWsKBTUXTtPEpdlCTGUFFkCHV+ail1fuJtniD3umy0IVWPa1A36iLS+3y6kQZ8u5ec/FsLb2SjPlF4By3HTqXur6+gfl//yUNqxTGnqCiu+Vci2SIt5xRt3P+EsdePSWIM26j1wm0RHHQ1Dwkpn3uu3UnenkGUkhXCGtvXjf6ENbdvnPAtdWh9vhDQuIHP0t1TdwhvooYOnPzEcFQPvIabJq40yR9eiETyb0UajCakuSRade06UYW4pjhav1wVS2dz9mziISAFDD3ZObtQcexpk1VO9k468buaKnP0wzC4d2H4Mf4OsGoq/KHpxgl2zHmQaiVTzr6tPMmPuQ5QU1l/zwKNKaRfIQELKdgmQ+Qbm7yTwuN+xQ+WM01KP0S+np316YI84RUkph/k76mZJ3jIB/rZwMujHaVkHDMME9XQ4dP/Rys2TuV84GlAd7zAYHxwLCXjKH83p4XwasYMeEKUYx3Fpe7mY4oncSZph/i/vmyYPDc3Ko1FyqBKLiTSYGgEPfpjswbxaqLS5Hhe5YTfOK7g2e9ycm4VSCfnT+E0SK8CR48W1G7eIkr//Ts6MWcUhc2fTI7uLchn5GROtwU2CfpNnCHye9yQ7+P8G8cVMAEeeOtCyt2/nY7fNNRYNl3bDnxu3AfPUsid4ynqxXnCgwg0XEXk3LIVtRw3jeI/eI6vQfmqCwvId/x1nG7+TJGLbifPvsPIvZP2Cdhy0ZjFp2ZSakYOZeUWGI42noCWfWj0gMdpX+iH9OZ3QfTxz0NJ5+JFI/s/ajiDWKnuSMTXtHRVMG088CT17jxdXNeb0wb1uIva+PWnz9aNpndWdqN9YR/SYHEMcwWtRd59usykTQefpvdW96Tvt0wnD7e657R6dJhK7QKG0l/Hl/B8BeYyJg5+hec/kPfyX4fzqqf+wXp52KYAq8+S03KoVUsvcnKqXXoskTQXUkDpAtMYiVZ4DpX5ueTYwpvsVHsTtIA5B+zAhvGyiOitw4vBJLil1VfK/hBHL5963xtg/wUMh86l6aVpAYalnB3dTfYqqLWooamNiXFLUqTWJFptybdqASumpAyq5L+A9DAuMGiwG6q5jYYay2kb0mDjnnUaC2BjqS6uR7iPhtwbQCe8uYwFgCdhbWObztmrzgYbx+syCNbStILrm9pYgLSsPLw2atdaP8QmkTQ30sOQ/GdBHKq07FPUPWhynZv/JBKJdqTBkEgkEokm5JCURCKRSDQhDYZEIpFINCENhkQikUg0IQ2GRCKRSDQhDYZEIpFINCElWlVcrBKt5jKsCEHCAk5NeI/Gkn90D51+8mayF8/uHmwahM8WtuoNGwojn76Vcg7vJJ/LrzQJidIYEJhRec/YsIjwKPYubk0mcWtNXhZp8al7jL/LygspIn4duep8ycWp/kEpE9MPU0ZOOEfk1Qp2pGNTYmOFmRD2JDphE3l5dCBHDcuX/ylZXRCTtI2KSrPJy71+YfYbC94vZHYT0w5SSuYxkw9ijl0I6V08OyIne7m3N8r/1rcepIeh4mKVaEXsKMivQoY198huinphHqWs+oR3Z18soD5QL6if+mKr3hzdPMl3wnTyGzuVdcybCuU95+zfzgYrZeUyKkuJM6Q2HmvyskiDBCukWAHO2RP6LmU0UF4W+R9WiT9pYc+Jd2j93w8bfjUclBllxzPY5p+T1QWoI9TVhaaiqpjOntvPUY9PnvmJ9oa8S2dS/jREQdaLlTU3eHZ8FPnfJEOMtfogDYYKa1KjisTpPyHRCiC/ChnWLk+9S50eeY1y/t5MpSnxhlQBQnuIfJE/7mMONDiQVpdEq1I2LoMqeCG+V+Rkisa1TJ+/2fX4jmO4f6spt4hytjek6MF98SxK/urnsllvhmeCWJPPiImstWHJA0GenI+4lxrkj+tRdpTRmK8BJWCjgp2jE3tIahA4MbegmAqLz69TW1iTl7UFev8Id6JIvJrrcACco2htWEJJN5eNVY6XiYajqqqMv1u6B37XlT9Cphhlb1V1agtbsrq2pGsVrJUNeeCZ60pXg7xxrvoedcnqAtwXeSp1aCt/BUQiuHbURxz1eEDwrRyw8rpRH/PvjoFj+J7m70ldNq31Yq3sLo6m7RuiH9SXpvHt/yNgKMq80VFALxjSpADRZ7s++yF59BzIv9VpABKtAOp7XRcvZ8MDidakb94mF/+2ouHKJJc2QdT56fc4XAckWsvPJfE/vOqKMlbdKzlzioIWLCbvoeM5LzW69l3IzsmZ40qR8CgRnyr2rUepLDWBnLz9qCwjmdrd+ST5jp/G5yv3tndGBFZ9Q9z56XfJwzB0lPP3Vkr4/DXOE8M0zi19qfOiD8mlVSBVZGdQzCsLxDO7i3JncGh1RM/t8uxHXHZI1ca8/pBeJEoA1UEoECqc++0bKjixn2qqEAcrmyP5tr3lQfKffLPNegPwPIrOhPN3ryFj2WAqwFjFf7yY8o78xUNKyLv1dXOp9Yy72LAg/9Q1n/JzQwO9siif/K6cQe3nPsHpCIPiYC1ciiAm8Ry99dU6cnNxoZfun0UtvbQPF1mTl7UFev8JafvEP/kaFmkqFz3UEb0X0oh+D3E64mTtOPoKOdnryNHRlRsg/Kmw+8QSOip6kxCFqqop52GxWaJxQpgS5M2CUAYgOgU6tBlFs69cxQ3Rr7vnU1LGAWrh1pZyCs/SgK630JVDMHptR5l5MbT2zzlUWp5LDnbO5OvVla/XAgyoJVldBUjXrt4hGlS3QB62Q9k9XAPopgkr+RltlQ2N5c+77hYNu+jcibJVVpfRGGGYEFTSHOT1y655VE2VNFMYLgBZ3b9E3SEAZTEPXbUz1huAR1ZUkiYMRS5VVZZRjV01TRv54XnCXvUlpyCOftp5Fys8dmt/FR/D+ws9s5pumfQTC3JZqxdgq+wwWmUFlts3rUgPQ8W/RqLVDCWf3st+5/yD7nmW74f7YpgHYdQDb1nI8qz9xCfg2tupLFE/9IJz0n79mgJnP8ASrkh3bNmaMrf/wumguqKc/K6awRoePd9bS5UFuSzdCmA0B3y3h58Zz24J9PC7vvAx37/dnY9T1o513IDbqjd88B3HAqbPNeRWS2HEcSqJj6Ieb/3AeXd+7C1hHH8z8byqSoqp46Nv6NMfX0J5woiUJhv0zAV433jv0CsJFIZMZzYv1a6VL00Y1pcmjx5AXh76MPVasSYvq4XK6nJWE3zoxhAa0/8JOhX/i2gI07ixDY35kQZ1v5PlY++Z9qdJb7NENOSlokGbMe5Lvvbe6/bwMASuAZOGvUaL5iTSZcG3s5HAd3xgLEBcyi7R8MbQnddsZlGnmWO/5PFvhFkB0ErXOXvT/dMPc/6B/pexUqEWtMjqIq+ObUYby47AkbgnsFW2jJzT1DlwHC2cCf2REBrZ92HR8H7N9WYOJHQz8yJZmhexvrTI6gIP0SAvmL6fHrn5JAUFjKCjkbXGt6EggnJr377CQKwRv2pYwCtaPBcMkdLgW6sXLWVX/g4iSOfwPgtF2fWqmvVBGgwV/1aJVuSja9fZODSDQIHVpUV8XwfhDUFmNffwTp6YxrBPq2tmk+8EffhynFNdWU6uHbrxb1wLkaWAa2uV39AT1wV25O/oySM0OzwGrbgEBnFgQ4B8cD8YkcaCISb98+n/QZl4XgZc/FpzCHfg2iFY1LGrMHi1wwh433jvOA5vztHLdPLRVedMsyePpMmjBgpvoX7/XNDTsyYvawsvjyDRe9RPSkLKFQ0rjAW0wPHdW6QD5N/Gtz9/B66iMZ845BXW5Dga+Q2Fx/3GPfuCIm3CUhh2cdP58jAIeuyiZaLqmmrRKOllfcvK8kjn4s33BUEBw1h+Viu2ZHWdnFw57DxAY+kuetJK2W2VrXuHKTSi70MsmQt9E2idKPWmgKE4LDhA+tBe91KAjz7cvRZZXdBSeGv6YJJ25OnaWty/dhip4dhR707TKTM3koftMoQhgxZL13aTDOnW60VL2ZW/g/B6e3W6rl6eoYI0GBcINObNKdGa8/cWY96JXy3hYTPRSvA/qHZ3PSm8otbi+FsslhR271VUoBJRMgc9e/S4LaH0+tXDTpJ/Hnu72rkSNBbfbrqWh1vOJOknVjGsVR/OZYfRD1tmsLQsZGbtxH8Y3rKEHe5drwV7jZPVtVY2DNV9+utIXmCA507LPikaUtPOTVTCJvpt93yqrCwVHqTpIo36yOoCeGuKZ9ZY2gdcLv7JOorybaRIrDoT3ligqiNgi/qWvSFIg3GBaEqJVijoMQ61jYSPaMDVefdY8oOxZ+3sG8DDYb0/3kADvv+bvC+fQBmb9MMTliiOi+AlxpILB3rJpH3u+DyqVY0iVP5KynNo9sTVPKl644QV5Cs8lPoAj+WBGYdIkZZdcMN+Cmo9wpBqCjfIGsveFLK6dZVNGarDpPJtV/3Czz6i30JysDedR+rbeSY9OOsYtWzRifaceJeHfxT+SVldeA3wAE7Hr2clyS5tr6jXHNiFKLs0GE1Ic0m0qqkqLqL09d+RvaOzcZjIxb8NFQmPoSJHuOUi/6w/11H0i/P4PpjDgNeB/SNIg9uq7nHxXIEoHyaIWaBJXJOw/FUqjAgxnNF4MM9QkhTL94cxQtmVOgF11ZstMMyFIbbi6FOcd36IqF/R24RCYFORV1hCr3y6lj5auUm4/fWXp60LyMMWlWRScobeMMcm7xA9dTvy9dIPDYKs3GjevyEejlIzQ7hxRY8RY9CuLj6UlH6Yh2awDyJdNMQKjo46bgSLDI1yalao6G2e4e9q7O2dqKKikPcIqMHkaF5houHeRNGJW+jL9Vcaf6Ps+YVJPNyB+8el7OVhMk2I92RLVhc9/+jEbZw37oF74Z7AWtkcxPNgJVphcRpfi0+M8LAqq85f4Ya6vGLwi8JbCaGQM/rO04WS1bVGr47X8Qqn4tIsCg66xnBUj7V6aaqyHw2Ppafe/U68k2zDEVOkwdDIPynRCrBSKOSOsRQ6dzwVRYZRh4de4XyB77hryb3HADp5/1TOH/sJMImO8XjMOWAZMPYbHLtxMMu3Fpw4wMcADEbbuU8YpV1D511FjqIh9rtav2LJFtl7NvGzomwoI1Y9qZ8dwKAlffEGly119acUcMNcY9lBXfWG+Ziwe6/mY5iYzzu8m7/jGNI8+wwh/6tvEuc/ys+W/O371ObGe9mjaipyC4ooJT2XzqZmCpe/Kcaq9WBiFnKxv+y+l978rj3tDX2Phvd9kIchFDAHsvXgcyzxejD8Ux5vRy8Uvc4RfRbS2XN/0zururF8rM65duMbeqlBrYfTym03srzslgPPcF7mDAi+jTfu4RyUAfcC3dpPEmW7gX7ccQvnv27vg9RTNGRtfPWr6jAvg7FySNu+v6YPzx9o7QlrkdWFwSstz6MP1vTje+BeuCewVjaUYVTfR7he3lvdm69HPsjPEvBU+nW5iQ6eXE45BfFct80tq2sLf+8e5Ofdjcvm42m6AMNavTRV2eOS08nJ0Ul4X5Y3c0o9jAsMViU1VKLVFlhmak2GFfMoUMyDkbAE0u2dXHiSu6mAQS0V3gWWw2KvCTyLhqr21YnotcI7gXFsDioqhEdmJzwaxyYutwC9xeKyLO45800MoPHOKojl8XGk65y8eHzbFOGxlWWTmwsm6s+fRFAmyOGNNIS6yqbAjXEdsrdawLCUuawuJmyxfPSqYa/zCiR4B5b2C1gvW41+ctzF10KdaaO5ZHVtgSWza3bM4WXCyvJaoLVeQGPK/v73G/nPR24z9W4UpIdxgUFj3hzGAiDfuowFwDxKXcYCIL0pjYU52PTY5MYC2Nk1m7EATk4OzWIsABo0rKe31CAr1N3w2XFaXdeiIW6osQC2ymZN9lYLaOythSVB3nU1itbLZsdpDTUWAD32C20sAJYIOzq6UKD/IMOR87FWL6ChZS8uLaOM7Hzq09V0860a6WFImhXMWVQXFfLyVYl2EBuqrDy33ktx/+1gPiU6cRN1aIMhl/OH0f7rwGDA6zJfYHCx1Is0GBKJRCLRhBySkkgkEokmpMGQSCQSiSakwZBIJBKJJqTBkEgkEokmpMGQSCQSiSbkKikVSvwk7JouCNlPji39OZLpvwWE/0hZtYw6P7ZELzbUVNTUsEwq9jrUtU8DkXBj332KAmc/aNxF3lhYQlW8B9xbjUefoRYjCUOrIz/0AHl072+MOtuc7xSbrJIyDlGPoGs52iqU07oHTeYdxyy5mvA7lVfUhjtB6ApsxlKWRWKD1cFTn1BmbgxHfB0YfAcpEWABNmsdCF9OxSVZ1LXdFdSvy82qvQU1FJO0nUJj1vD9BvWYS+38a5cuY2Nb6JkfOTQGdDku77WA5WAVbKU3tmyn4n6jyLMbLZZNAVFkI89uIJ8WXSjQTy8lgJAmCLynRJ8F6npDncem7DKk6HHX+RvrXU8NRSVu4RAh6vpWQPh33NfZ0dPkOi3vzNo7vxSQHoYKLRKtFzPW5GMbA+JRQcgI8abqojESrXVRU1VJhVGhLE0LidrMHb9S3glhQHIsS4FipzrCopSm1OpdNOc7tSbBqpbkxOd0/Draffwt0eBEczpEiFZsnCIanUjq0HqEaCQ30sqtM40KbnGpuzkWEER62vpfxjGBft41zxgob/vhl2jT/qc4jAQ2aq3dcbtRFAnn4Fxcg2uRB/JCnlrSm6Js2w+/SN6eQWxE1uy47TxNCXA4/HP6O+xD3sCnAN2Og6eWU0T8emPdxafu5V3dAA20chyfIxFfivt/LOpbr8cBY/DTzrtp/d6Hub7NJW+TM4/Rij+uoZ1HXzeRyAW23hmw9s4vBaTBUGG+C/q8XdHoaedalkG1JkWqgGPKtfhuou6nytv8WltSo8o9LcnHAuW+6o+5siB+c5paolUpkzgGCVVIqSrXK89vS6KVqaveDMeV+jBPhzcDYSdI00KiFnGjoNUBD0IBZWVpVy63IYqvCpvvVFBcWi56zIWi133+9dawJsGKRlCR5Bw36BnusY/s9zB1bDOK06MTN5OrS0uaPvozGtZ7Pk0d+QGVVgiDl3mU00/G/kLtAobStFEf0PA+D3IY7czcCMopTCCIAaHRHjtwEavJXTnkZdZSiDj7h7iyhrUUcO41w5fytcgjwK+v6FVv4rxtpTembJARxeYziBJdMegFmiauRQ/9VPzvfK0CotYej/6eRojrFcU4BdThyP6PGCLtfks3jPvCqFkBOVPleOe2eqXAySPeNu583ntiKW94nHXFtxyjSg0M3vZDL1Cw8AjGDHzKcLQWW+8MNEZ297+ANBgqINFaF4gBhYCD0JOIWDSHNSUgbaoAKdLIZ26niKdv5fST902mrJ21/0hS135GYfMmcVrks3dSzCv38zUAjXXMG49Q+MPTObIsAhymrP6EG1SAnn3UC3dx/pHI+/4plPj1OybpuAaf8EdmsmyqGkjAKunKR7k3SFu3Qhy7hvM//dhNFP3ivfy8imcB6dSShGhK/Opt4/WKt4F74Z7mxxWs1ZuSP3RCTos8Tj8xW9TBDXwvLaDeUFZcG/n0bZTw6atUU2kaUdbaOwUlZeX01pe/0UNvfE2HT8YYjmpDiwQrgtqt37OQurWbxMEDlVAWEL5RixBBFAg7fPNVQkEQ51HO9/bowF/zixI5RhSGczzcap/N36cHlZRmiefJFQYwk8/1cFOCMNqx6A/kTIGt9MaUDcdnT1pDvTpdz2kAjaxaZAieyF/H36GWXl2oR8drDUdrwXCZWvDIEifP/CQ8kc/oqqGvcaA+hWG9F9DsiWtE4+9vOFILnmHG+K/YkKn1Q8yp652Bxsju/heQBkOFNYlWyKDWVJRT7082sJQper6IoIoGUcHB1ZOC//c1p7eefjdlbvuZG8WKnEzRSG6j9vcs4rQuz35AVUW115VlpJCuXUfWq4CWBQL1Ze/6w0RK1JrUqDX5WID8kI5Ph/tf5GiuLcfog4shXHplQR51ff4Tzrv3snXcEEOQCb1xiCUp8quQUlXyUQSUbEm0aqk3l9bt+N6Qh3UODKKMLdrCvheeOsJSr5CNxfX+k2aIfAsMqXqsvVOgc3aiK4f3pQnD+lBwR726nVa0SLBCGCgjN5IbuEPhn4sjplOGaJygw4xAfpbAEMq+sI9Ym/o8RIcB0Ukj2bM4H1yDa5GHJWylN6RsGIJCxF0lllF+UQoP43RuM4Z/Awz1IKz42AFPC+NRwcNVCMetgICJv/21gCPovr+6D+089hobEQV4Cojei2uga64uP7yVumJIoaHXx5+yjrV31ljZ3X870mCosCbRChlUTJgqwf0gacpSoyoNBye/VsZ05wDhZmOIQ/yjxlg8/tIp+hUQNnJp34W/A7cOwRR40wIqPRvNWhbFcZF8nVpK1JbUqBYKTx2l5O8/pDY3zSfXdvoJTgc3dwq85QGRnztl797AhsjOwUk/zNQEaKk39+B+ohNnx8ET3bv20et6aAAaGpiIVwIPunbuRU4tvPm7gi3ZXWhQjL6sJ829fjz51BHSuS4wEWpLghXDNU/dGkfjBz9HB04up+jEWq8UQOciJHoVQafaEtCOCI1ZRaUWFPMqKku4UTt9doPhiCm4BtciD0vYSm9M2QC8oM0HFgmj3IIGdNNL/sKA7Du5jMOKwzPAXMCe0HeNcw2uwrOZdcUK1qTGBwJAodE/GvQz9Li6+LCe98M3hVJr3wG0cd9jPHzUVFh7Z1re+X8ZaTCaCfTA0Tu3NGbOjSPkUw1gYhdaFqlrPuVJ3YLwo6JRbTqxHoCJ4LOfvER+E6aT77hphqPwMPTDOrFLHqXco3v5/pX5lsVTLna4TlX1erGAHm+fTjOppVdnnlRVA23lhbOOU6Cf5eiko/s/TvOn7yMPs5U+wMnJjeZMXkfXj1luOGIKrsG1yMMSttIbUzYYi193z+f5lhnjvzYOb51J3sFpUJPDSiuIBdUYhlb12LGOOVZs4TMw+Dbyb9mLUjJPGNJrgXb5kJ53s+HMyDGd3G4s1t7ZpYw0GBcCYSDgbVSX6VdyoJGuzK7tRWdu/Yla9L+cur30OU/qtr/rqSbV+8bEdMoPH5Frl948LMPlMaAM63R76TO+d+dH32jyVVYXCp70rufEdXORlHGEe9fKyiIH4bVB4a66Wt8RwHc1NVQtmko7Hu8H9namwyqQcMW4u5Ojh3h9DueNwVeJfDEMBDlSXIu81EDC1UVcC2ymN6Js/Lu6knYceZnyCxNo+tjPeBWXGhiJ77fcQJ+vG0s/br9F1FFtB8VcwhUGxM6utpk6FP4Fr6JScBRlshPNmHqOpKHYemcS8e4Nf0psANU4DBlBahQrc7DU09HTmzUkbIGhJLfu/UUP/xVKWfkxnV3+KlUW5BpSxUtwcaUK0avnFUKit1UQdpDnFZoEkR+Wk1bkZlLQvc+ep8Vh5+TMq6+U8pQkx1FpgtkQBAyM6LlDvhX51YfG1JstINGKYbmy9GQuV9Hp41QpjHF9QO/2hz/20KL3f6CEc003rOHkoBO96T8pMkE/v5CSGUK5BfHUrpV+2XGg30DKET1specclbCJSsrzePIaYF9CQrrwNnlsv4ZOxq4Vr8BR9Lo7cQMMHQysakLjjKWkp2J/IT/v7qwv0bJFF25koxI287VYJht/bg8vgQW20htTNvzefuQlik3ZSdPGLCMfT/0wrMLA4Dm0aE6i8YNhJ0yqKzjau1Bs8i4eakNekF6FvKyfT3dOrxGGAaurUGakxyRuFfd2ID8vfXpjsPXOtHImMY1lTsOiEgxH/jvIjXsaQS898aslPMeAhg8Tx5iEVpZ4qpXlLIFrCkIPUlnKWfLoN4z3C+jadaa2tzwoGrwUilvyOJWmniU7R2fyHjaOiiJCKGjBYp5Uhgxqxh8rqevi5TzEheWnMf97gILue57TcW9MJJsTMH0utb4eK7IWsHyqGq8hY7msxufa9bswXG7k2r4zD+3AwKFsCjn7tlLCZ6+xdwTVvK7PfmgsG2RZzTkvfwv1hrxQNv8ptxgn0U0V+vTp5mXH5DvON+a983eeo/AZMdGk3rRQVl5J73y7nqLikumROVNoYA80ek1BDe0LW0b7Tn7IWsxoUPt2vpEmDn2FPQEMy2w7tJhOxv3Em8PAhMGLqX9XvaQmjMDvexZSQto+btx1Ti1o6oj3eFkpgF7Ghr0PUVFZJtcrGvvrxnxq7M3DgKDhxgQy7tWjwxReRqtMRltLb0zZ0DtfuXUWTxqr8RfG7JZJa88TdFIryXUOHM/HQmJWCg/lFV4phfx7dpxmLJty7/jUv4TxqOb8rhz8Esu2AigVKvtR1CD/Hh2mWiwbjO9tV//CBs/aO9PKwdAo+m7DHlo8fxa1alm3oNm/EWkw6gn+cdaIHjkazYaCFULRL86jVlNvI9/xtfMJON5c8q22gHeDyXmLcy5NQFPUW10oezcaqhaI/RflFVWkc2mOercuFwoPwZoMKhpv6G6bD+sooIHGMFRdynWYDLYm12ktvbFlaxzC0y5OY4NgqWzNfe/GSLz+tO0AexeL7rlelP+/tQRXGowLBDaWxb75KA8NVZeXk5OXD3V5bhm5tDLdtCSRSP69YIhz6YoN5OvtwSvv/mtIg3GBQJyjvGN7+E/n1u3Jo1vff8STkEgkkoYiDYZEIpFINCFXSUkkEolEE9JgSCQSiUQT0mBIJBKJRBPSYEgkEolEE9JgSCQSiUQTcpWUiotdorU5ZFBtUZaeKurlkOEXkVvXXuTavqv4m3P+Rq66wKa9yrwcDgdSn6XEmiRaa2psysc2BOXeLuJZlXsVx0VQdVEhR79tLKjXssQY8uw/nHepNzVapERxTnFZDkddxTmQKMV3SzKooHPgOPL16mox3cezA0duhdaFucQqUK5Vg3umZYZRj45TycmxdkMnNgwq8rFOjq4mEq/m90b02OD2V5tssEO+iDlVWpZrQT5WQS/jinAgnUTZFLTU26WM9DBUXOwSrc0hg2qLosgTLI+KGFC5R3ZT1AvzKGVVrbiTFiqyMyj65fvOE3ayhRaJVi3ysQ3B+HdAPL9Czv7t/PejKUC+yB/3aQ60SIkePv1/lJR+kL8fi1hBadn6v++4dm/Iu3Qm5U8TOVQ0nko6ZFHVaalZoZyGIIjJGUeMx6Het/v4m9wIq8EOdYgUIdig2liAP4++Kq5ZwqE6sKP75z/nGuVj1WVDzKmtB5+nn3bexecBnLdqy43C+OVTK58e4tz36Lc994sU07+vEWc30LZDL5DOLFSJlnq7lJEGQ4V5WAz1b44wW1i3BKutdKCkmUisoocsfuN6NbheyQMxk5pCBlVBKasa/Ma1JhKtBiCPCplUxHfq9MhrlPP3ZipNiTekClT3VueLfIzyqZUVHLyQ7yGeBc+koNSL+XGrEq3KPUXedcnHKijPZlLH4nqUp6q4QF8+YZwsvQdb4Hy+r4V6Mz6/SDevbwWIS+G5cW+UyZzmkI8F8ARyixK5UVW++3gGGVL1QkTXjfrYKIeKjxLHCviJ69RpSoh0hCiZOPRVPjZl5LtUWl5AfbvcyDGZ1JyI+p6Ny9Be9xmO6FHkZxWJ1xmQZ/Xry7KwCkrZbrrye5p5xTeUkRshDJ/eIB2P/J7lY3GdIl+blhVGOQW1gQARDuXv0A+oT+eZJmp94FKXYLVF0/vC/2Ig51lXgwFJ0wLRu62pqmK9iKrSYg7O5z/5ZmM61OXsHBxF45BP1aLnC4U93/F6Ccqsnesp6Zu3ycW/rWgcMsmlTRB1fvo9FhZCT7NSNBidn3ibh3pwfcxL88nvqpnkN3EG98xjXn/IKDqkBN9TwPmxbz1KJWejyc7ZhRuhoHufI5+Rk4w9cHWAP5TVGChRNFIpa5ZT+oaVPKyDBtsRYUue/chi2BJd+y4c4bYyP5eorb7BjHv/OdFjPs5Rd3G/VlNvocAbF7BnATlaRRApdqleR1kdvBCeQcLyV8S/TPFXUdStYwtvrhddYAc+ty6U51ICE0I+Fh+gDk4Y//Fiyj9xgHSt23EkXqVsuP7Mksd46KmqMJccPLzJXtRdWVqS/v7i/dgC0rbnfvmS1fxgtBC4UXmnxneSGCvSnYURKyGvQWOow/0vGYegKovyKfqVBRxeHt/9rpxB7ec+YRzuU+RjzySl0cLZV9GwftrDzluTEkUkWPTiyyoLKS0zVNzOnr9n5UbTtJHaYn1ViR49DE1d9+AggXsXkqdbIE0Y/KLJkFCuaLxDzvxIg3vcfZ6e9/nys3ZsHGBcLIHGHR8HB/1wJMSP9AET9XXo5Kg/XlNTa8z3h33Efw7ueTf/qeZSl2C1hfQwVNiS80QY8K4vfMxyoO3ufJyydqzjf+wKdUm0ovHI2LSaOixYTD3eWUW9PvyVG2oYGOA9ZCzrWJdl6GUqSxPP8FCFRy99uGk0rI2VQa0L9IBz/97Gsq+Qh4XMq9eQcVSeWisPaw1r8rLOfq3Fsc2cp65tRwp+5f9Y3hXPgmdCr740MY4bUZQb9eosvKf0P2wP+8D7syUfWxhxnErPxlDPpT/yuV2f/1jU1Z9G78je0Zna3vEotZ/3LDm3akvdFn9KuqAuHFFYoTD8GEfaxadEFfbdmrQtKAg9IAxRPvX+8Beul+D/rSAHd0+qyBOehAFrsrugueRj+3SZSTeK3nlbv8vo3uv/ounj/o972ndN3UJBrUfwOdCXyC1M4Giy+KCRx9yCQlL6YXp7ZRda8kMn+mr9JB5aUhMRv57Opu6ls2l7adex141DRuBQ+GdUWprL8qcf/zyEDpz8xCRvcxCAUB8AUQ8kY+Gh7AlZSuuFUcIcRvtW+jkOnIfz9dRQePwG8vJox7KxICHtIJ0+u55G9nuYo+yGx4l3m1f7Xi91CVZbSIOhwpacp0tgEGswAMitstSoMCIKdUm0smdQLXrP3n7GoRE7nSvLlwK3zj258SoSDRzIO/43ObcOsjz0ZAEtMqh1wRKnovHN3ruZJVwriwuEwbmfJ2O1oEVeti7gjbW+YS65dgzmMOnZf/0h/kbaaZZotQWGeRx9/Pg9oN7Rc4eRYu9IUCPuhd41PCN4AZiQR2dBDQw55k3wKU9LNByFwbIubevk48+dBYReh6Fx8mlJ7e9+msO7K9iS3W1O+djMnEgWPELjmldwllycvFQNLfS8z9LaHbfT95tv4M9PO+9geVXQu9MNRgnVO6dsJJ3Oh7YcWMST5gp63YsEmjn2S54vOBrxFR9HvjHJ26lL+4k0d8ommjJ8KR2J+JIbf63ACzmbvp9SMo5TRWWp+F0sDFK5IbWWI+Keccm7aFT/J9hrgNHac+Itaus/mEOdl1cW0f6TH/G8hcKlLsFqC2kwmgn0ctUSrRjDjn3nSYp89g7+QKRIUdVzbCF6UP2GUf6JfVRVlE+FoQeF1zGmWVbPmIPyBd2/mHvM8R+9QKcemEbhD89gSVctNEZeFsNBuGfk83dR7sE/z2uUm4KiyBCKfO5OrvM4Uf9ohDGkphVl3gQfryG10Udh9K1J23r0GMCGF8+F88Lunkhx7z/Dw2T/NGicMeGdnR9Na4RR2H9qGX9XN9q+LbrQvOt20UM3nuDPPdfuJG/DHIdepEkvodpK9MiH9ZpHRSWZPFFsih3Pe3RoM4riz+3jI8nCM8HKp/GXPcMGCul9u97E+hYwBFpQz2HMnrhaNPj7KM5s1RaMxb7QD+maEW9TUMAwPobzYLD6dp4hnjeOPaimUOq7lJAG4wKBJaXBL33BwxPKJ+D6Ow2pRN6Dx1CJ6J1jvB2NkTIc1SyIXrYa16Bu1OWppdTn04004Nu95OTfWvT4NxpSTWEZVOCgnxhsjLxsSWIMN+idxb0xf8ON8mWjDalNg3vPAdTnkz+MdY7hQPeuvQ2pDcemtK0wTC3HTqXur6+gfl//yUORxTGnqCiuabWnGwJ6/66uvtSv68105ZCXyN21lTh2Bx/XAgwLRI4UIBmryGWgQd544EkexlLARLLSMFdUlYhT7UzmNJzNVkmZA0EkTFJbQufcgvUyaiVdiaISN/MwFybNzT0EaGj8vOseloddsXEqZeWdMaRItCANRj0oiY9iqVEMuWBNPoaRtAgCKefkhwrXF8M1edkU9cp8ytwGGUo9rp16iJ6vi2iA1/LEMoa8tGJNBhVDTi6BHSj3wA7u3eLeBWGHjUqBGEIJf2i6cVkqhmx4KM0C8ELS13/Hz62UT5O8LCZxRZ5qWVpg76RjA1SZo5dGRdkwZ1AvkHcd8rEYPixPTRD1om8UCsIOUeSiOfp32EhsSdtCoTD8kZk8RwSwSqy+NJd8LBrY6qoyatdqmF4etaaa2vgNMJknsEZJaTYdDv+CJVox9xCduE00+u7sMcD7gBcRema1OBMiSOd4Sa2yjwLyr6Xl+UYJ1pyCeAo7s5bnTnCth2sAubm0NMrP4vpjEV9TZXXt0K8C0iGnWlicZix7TNI22rz/abq8z/08V6MGin6Pz44yysM+fGMoKwFKtCMNRj1Aw5z0xRt0Ys4oSl39KQXcMNc4b2ANnNNu3iJK//07vjZs/mRydG9BPiNrVzrhHPSGC06fIO9hV+gbQgMY3z82axCF3DGWVwVBEhW/scoH+I67ljz7XU4Rj99Mx28aSjl7N1PgbQ/xmDjyaXPz/VSelkwn7hhNYQuuIUfRkPpOmM7XYgy95bhpFP/Bc5wnylddWEC+46/jdIB74t6hc8cLjyCMOjz0ivG5A667g6pycyj07gkUcifSQ4SxMtXrNr9H2L1X85yCrm0HXgUW98GzfG3Ui/OEd1O7agaeFhp48+dGfSjAIGITI1aaHbtxsCj/aCo8rZ8L8uwzRDznDRT1wt38XKivluOmkmvbxsuwevYeQi0GjKDIZ27nsid+9hr//VDA+3BuFUgn50/hMkcuup08+w4j9049DWfYBiqA8amZlJqRQ1m5BYajjaewJIOqRGOLZbTq71oZ2f9RNjQf/zyUJ72jE7fQhEGL2WBAAW9En4coJHoVvfldEH3yyzDydGtrXJEU0LIPL5ndf/JjTkdPP6Blb3HNw5wOozF2wNN0JnkH54174F6DVZPPkFj9YE0/Tt919A0a3vdB6tZ+Eqdhb0ZxWTZtP/yiyL89f5auCmaNcUnjkTu9NWKqNV3AXoOdar22VrByqblkWOFdWJNB5cl2B0fLO6JFb7YxO6Yb81zwfKrKSjQZ34aAesGKJXhdakPcFMCzglem3rOjhr26wjxeqtyQvy/NKx/bODDngInjujyTxsjDAgwzwXOBEZFcHEiDoRG1wZBIJJJLEWkwNNKUcYQkEonk34g0GBKJRCLRhJz0lkgkEokmpMGQSCQSiSakwZBIJBKJJqTBkEgkEokmpMGQSCQSiSbkKikV9ZFo5TAWkSHUot/l+h3VGsDGOWwiQ8iO+oB75Z+AFkdtDCjcE3GXlHsj34bIoNrCXEq0urSE8kMPcGgRR6+WhrMahiUZVHNw/+KYMH7W0tSzVJmd0WSypoqcqKd7IAfRi0j4ndr5DzWREkVoiszcCJbxzCtKoqy8aA4xgcisOB+RUtUoUqWW0qHT0K39VRwRFSA/hNhAIDwEyEM8J0RJrUUvI4rQF+rrbGF+b2yMCw6azLuwgSUZVXXZEtMP07msEENKLcqzKSAMBwSPuneYSq7O3oaj+jrDTu0ubSeIMhQaJU9Nn03yb0R6GCrqI9GKaK4pK5fxLl6tQLjo7CcvG35pB7uo88MOUdbeTZS0YinlHNpJBcK4IYS5QkNlUG1hLiWK58Vza41maw1LMqjmIC3pm3f5viyRummVIaXxKOGtIcWJSKt7Q95n9TY1kQkb6WTcr/w9OnErRSXo9S5w/p4TS1n3wZJUaUVVMZ09t994/HT8Otp9/C02OCAzL4Z+2DKD0nPCqa3/IAqJ+ZFW75htDBEOAaKfdt5N6/c+zNdl5GoPWmheNoQW/+aPa1ijGuC5D55ablL2+NS9VFym1+pAfZhLsO4PW0ahMWs4HWCXN47tOPIqnUncbjiqB2X96/jb/KdezvUTUR/aItFKLm6kwVBhHt7B/DfCPChymggMZ05dUqPwLHAcKnwIWMfniI+JsUFoDpHveccFEB/q+ODLFDjrPtZZCLpnEQXd+yx7E/AsWAYUEqFWZFCVsvN54hoFlBnX4N4oJz+D2Tk2sVJ2YLy3SMc9LIHrkM5BDFU4CA/KzhAZF9g7687zLsrKKyk7r5AqKutRZoGDvbNJWAoot5mHoUgVPW1FxhPf/bxrI9JCY2Fk/0csSpUiXMa1oz7iY+MGPcNhMCDa07HNKE4/FfcLubq0pBnjvubj1435hENhpGbp42DtFQ1+mTAas674lnQu9fNIgbpsd07ZTC3c2lBoNAIC6jEv+w2QQvWpjeKrlmAdO/ApPr+vKphfdkEsG7U2fv0p7twew1E90NlQy5w6Oui4riX/fqTBUAGJ1rooS0+h00/cRKcfv5kinpzNinZqEO315PzJFLFoDkU8MZvPVXrh8CxOLphCGZvXUEHIAf6Oj+JtoBGNeeMRCn94Ous2IC1l9SfcENuCZVAX3U5Rz82lsrRklkHF9YiUqngbBeHHOOBhzKv3U/QLd9HpR2cZy4Zyhz92I8WJ604tvJ7OvP0Yn3N2+aua7m+r7LgP6gJ1gvSw+64WXsVnnKaQ/ddGOi3Ke1qcE/7wDSxapOAgjKKt2FbL12ylhW98Ret2HjYc0QaMg7Oz5fhVCef20fJfhlPk2T+48f5wzQDjd32kVW0gGuv6PQupW7tJNLTXveKIPpbV0J7zhDFYYRymcXQQhlH8c1TCgA/rvYBmT1wjDI8//24MCCeOOFZOTrUxxhDptS79idEDnqBpI2vDiYcL7wgaFoHCE1JIyTzOocWhdpeTH2uSl7tOypz+V5EGQ4U1iVbIoCJ4Xd9PN7KkpodIQ7hvYEtqFNrfkA4NmD6XvIaMNUqJKnGprMmc2sKmDGplJaX9toJaTZ5Nvd7/mXp9tI4V7jK2rDXkQOTWrQ/Lk0L0p/UNd7Nkafm5RFaMA1CBQ6MORb2cfdt4HkPBVtmhqwF9DdQJpz/zAdebUnfApXU7Tu+HegsMEmWrbZCh7R0o6g/elPJ+zIGE6djBPWl4//qHqoYEJ6Q4IckJaU5IdAKE254z+Tdq7duPbr9mPd0xZQOHwsZ3Y9hsYROLijNY+0H5mDfCmKNAdFUYGUiS8kUCRHZVB+2LTthEjo4uFNCyL/+GSJBaM6K+VAsPMSZxOx089Smt2XkHGwh1xNeq6nL67a8FHM31/dV9aOex1/gcoC4bhsgwXIVosMocCEjOOEqthEfSrtUQKikTfz+Ex6GgrsuggOE0vM9CDiIo+fcjDYYKaxKtlUUF5NDC2zjJ7N5rAA+XgMZKjTZG5tQWmCeoKSsml8D2POQDjwQKf+WioVews7fniXI8myJZKlovQyq8iGLWkrCkqGer7Lo2HagsKZ6ydv3O3oZbx+7U7o7HCBKnCu7B/UQhoITnRO5d+5jUGybWvYeO57Ip78ecvt2C6N6ZE6ltq1qJUa1gEhdSnOjpQ5pTPbGcU5AgXqM9h9fOL0rlXjbrRxiorCqlHUdeNsqY4hMlGn41k4a9Rk/dGkfjBz9HB04u53kQczB5DGMyvPcDJo1yY6ipqaK07JN0VnhKJSWZBo9CPxzo6uLN3o0iszp24NMUGv0jhRvmatQkpP1NxaVZ1Ktjbbh7GAhIvELjwtsjSBgDD/Y4FNR1iQUEvTpdJz2O/wjSYDQQNKwQ7gGNlRptjMypFjAvkPjFmzwkhA/KWJ+VWi4BbanDAy+xshzmT9RhyG2V3Wf4RPK/ZjZlbFot7n0nhc69QvNw2z8JFOV2Hf0fK8j9vmch7Tj8Iq9m2nPiHaMX4eioo2vHLDPKmOJjLtoD4Cn06TSTWnp15olwNbHJf9LGfU/wfAIa2aZCPUdx17St5OnehvaFfWhItRMeTFujzOrA4NvIv2Uv0eifMKQr1FDomTXCy+rLmhUKmLDHSqjQMz9y3WClFDwOyX8faTAaSE1NNfx+/t5YqdHGyJxqAepwHR/+Hw8JKZ8O979oSG0ctsoOryHg2jnUc+lq6v/NTlFH71Du39uMSnQXK8HtJ5O/Ty/WnIaMqa93MHUPuoaG9Z5Pzqq5gLpIyjhCmw8s4t44cHAQHpy9k/grU2tMMYm+5dBzNKjHXJPhoqbHjjxdW1N+cSr/Sss5RRv3P8GT7HqEd4cOkBlp2afoXFYo9e4Esa1aHZG07DD2Irq0vZI6ifpBHaWLc5Vnlfx3kQZDI1BTK09N5OESrCDCEE11hX5Zq1apUaz24ZVIqjkAoEnm1BYQBrIkg+qsI3tXD8o9tJvLjXvHL1tMSSuaRtfDVtlTVi+nqJfuNT5zTVX9VjJpYfuBMHrs7RUUFp1gONJ4MI6PXnSHVsO5F15alserpdAzVzeedeHkoKMzwnuAhChIyQyh3IJ4atdqKP/GEtdfds3jyXCsktKSZ0PB0FT8ub28Ugo42ruwMp0ikwrDlZ13hvx8TOeA9JPdbtQ+4HLDET0JwkvCBDiM55Ce9/AHS3XheWilpKyclnz9O32/wXSFleTiRhoMjXgPn0hOwmicXDCVpUorc7KMq3dsSY0qQPYU8qeQC4VsJ0SZgC2ZU0iOQno0avE9VJoczyuRFJlThbpkUDEf0/6ep6k4KpRO3DaSQu4az4YPsqZNga2ymz8zyodyorxNRWxymujh5lPiOf0+gqYAexLKK/K4EVV/1wqGcAYGz6HtR17mieXvt0ynTm3GUXDQ1ZyenH5EGKRUOhLxFUuVKnKix6O+4/StB5/j35AwzStMojU7bjdJt0VFRYnxmhWbppGfd3e6YvBiTsO8wugBj9G+kx+K9CD6dtO1wigMpX5dbuJ0AG8hNnnneZPdGH7CXhVsNFTwcm/Hk9rwPLRSUlpOSeJ9BbVumjkbyYVB7vSuJ1g5ZO/obHE3NfYbNEZqtDnlWwG8mzolWhuJrbLDA0HdOWF3eBPLpGJPTGl5hfAKLsaJ1Roe+nFz8W3UqqfmQXiExWnsTdUlk9pcRCek0kc/bKaFt15N3YIs7/KXXHxID6OeQPO6rkYRxxujS41rm8tYAGxEbA5jAWyVHfd18vZtcmMB7ESeF6exAHbk4RpwERoLYMcrmS60sQCp6bnkqnOiAN/akCKSix/pYUgkEolEE9LDkEgkEokmpMGQSCQSiSakwZBIJBKJJqTBkEgkEokmpMGQSCQSiSZMVklh9+VHKzdTdl4BTRlzGY0a2IOXLEokEolEYuJh6Jyd6N6ZV9L4Ib1p1ca9FJNYu5NYIpFIJJc2JgYD3oS3pxsN6t2FXHUuVFmpD64nkUgkEonFOYzC4hJysLcjX29PwxGJRCKRXOpYNBhZuYXk6OBAOpfmC1MhkUgkkn8XFg2GTwsPngA/GZ1AmbkFlFtQzAHeJBKJRHLpYjGWVEVlFX29bicdCInmoG4dAv1p4S1XX8QB3iQSiUTS3Fg0GEfDY2nt1v206O7pPAkukUgkEonFISk3nQtVVddQtUGCVCKRSCQSiwajhYfwKmpqKL+o2HBEIpFIJJc6Fg2Gi7Oj8DCqqai4zHBEIpFIJJc6JgajrLyS1mzZT+99qxeu929Zq80skUgkkksbk0nvqqpqCo0+yzu8+3RtT646uSpKIpFIJHqkRKtEIpFINGFxDkMikUgkEnOkwZBIJBKJJqTBkEgkEokmpMGQSCQSiQaI/h9xkMEnmH/oVQAAAABJRU5ErkJggg==;" vertex="1" parent="1">
          <mxGeometry x="182" y="606" width="317.26" height="137" as="geometry" />
        </mxCell>
        <mxCell id="OqSYDqfYlpPWh9uUhqye-30" value="" style="ellipse;whiteSpace=wrap;html=1;shadow=1;strokeColor=#b85450;strokeWidth=3;align=center;verticalAlign=top;fontFamily=Helvetica;fontSize=12;labelBackgroundColor=default;fillColor=none;" vertex="1" parent="1">
          <mxGeometry x="309" y="702" width="120" height="30" as="geometry" />
        </mxCell>
        <mxCell id="OqSYDqfYlpPWh9uUhqye-34" value="" style="rounded=0;whiteSpace=wrap;html=1;shadow=1;strokeColor=#b85450;strokeWidth=3;align=center;verticalAlign=top;fontFamily=Helvetica;fontSize=12;labelBackgroundColor=default;fillColor=none;dashed=1;" vertex="1" parent="1">
          <mxGeometry x="220.26" y="657" width="279" height="27" as="geometry" />
        </mxCell>
      </root>
    </mxGraphModel>
  </diagram>
</mxfile>
